<?xml version="1.0" encoding="UTF-8" standalone="no"?>
<!-- Created with Inkscape (http://www.inkscape.org/) -->

<svg
   xmlns:dc="http://purl.org/dc/elements/1.1/"
   xmlns:cc="http://creativecommons.org/ns#"
   xmlns:rdf="http://www.w3.org/1999/02/22-rdf-syntax-ns#"
   xmlns:svg="http://www.w3.org/2000/svg"
   xmlns="http://www.w3.org/2000/svg"
   xmlns:sodipodi="http://sodipodi.sourceforge.net/DTD/sodipodi-0.dtd"
   xmlns:inkscape="http://www.inkscape.org/namespaces/inkscape"
   width="30"
   height="30"
   viewBox="0 0 7.9374998 7.9375002"
   version="1.1"
   id="svg2015"
   inkscape:version="0.92.1 r15371"
   sodipodi:docname="Fill_star.svg">
  <defs
     id="defs2009" />
  <sodipodi:namedview
     id="base"
     pagecolor="#ffffff"
     bordercolor="#666666"
     borderopacity="1.0"
     inkscape:pageopacity="0.0"
     inkscape:pageshadow="2"
     inkscape:zoom="5.0027805"
     inkscape:cx="-26.853119"
     inkscape:cy="-19.769043"
     inkscape:document-units="mm"
     inkscape:current-layer="layer1"
     showgrid="false"
     units="px"
     inkscape:window-width="1920"
     inkscape:window-height="1018"
     inkscape:window-x="-8"
     inkscape:window-y="-8"
     inkscape:window-maximized="1" />
  <metadata
     id="metadata2012">
    <rdf:RDF>
      <cc:Work
         rdf:about="">
        <dc:format>image/svg+xml</dc:format>
        <dc:type
           rdf:resource="http://purl.org/dc/dcmitype/StillImage" />
        <dc:title></dc:title>
      </cc:Work>
    </rdf:RDF>
  </metadata>
  <g
     inkscape:label="Layer 1"
     inkscape:groupmode="layer"
     id="layer1"
     transform="translate(0,-289.06248)">
    <g
       transform="matrix(1.9701749,0,0,2.0332727,-434.94056,427.98496)"
       id="g5353">
      <path
         style="opacity:1;fill:#709078;fill-opacity:1;stroke:none;stroke-width:0.27750239;stroke-linecap:butt;stroke-linejoin:miter;stroke-miterlimit:4;stroke-dasharray:none;stroke-dashoffset:0;stroke-opacity:1;paint-order:normal"
         d="m 222.77658,-68.237414 c -0.003,0 -0.12237,0.243704 -0.26502,0.541293 -0.25155,0.524825 -0.26111,0.542451 -0.31245,0.594613 -0.0381,0.03875 -0.0669,0.05914 -0.10246,0.07244 -0.0327,0.01226 -0.25012,0.0482 -0.64575,0.107216 -0.32802,0.04894 -0.59921,0.08925 -0.60292,0.08925 -0.003,0 0.1977,0.205827 0.44785,0.457258 0.49238,0.494897 0.48611,0.486894 0.4982,0.59519 0.004,0.03713 -0.0173,0.18011 -0.0972,0.658942 -0.0562,0.336331 -0.10182,0.613369 -0.10182,0.616055 0,0.0063 -0.0261,0.02003 0.55375,-0.29267 0.48889,-0.263638 0.55508,-0.294409 0.6278,-0.294409 0.0731,0 0.13956,0.03096 0.65269,0.307738 0.28845,0.155585 0.52563,0.281993 0.52713,0.2805 0.001,-0.0015 -0.0432,-0.278922 -0.0996,-0.616055 -0.0801,-0.480024 -0.1014,-0.622974 -0.0972,-0.660101 0.0121,-0.10829 0.005,-0.100304 0.49762,-0.59519 0.25016,-0.251431 0.45215,-0.457258 0.44844,-0.457258 -0.003,0 -0.27549,-0.04031 -0.60351,-0.08925 -0.39563,-0.05902 -0.61302,-0.09498 -0.64574,-0.107216 -0.0355,-0.01329 -0.0638,-0.0337 -0.10182,-0.07244 -0.0513,-0.05215 -0.0609,-0.06989 -0.31246,-0.594613 -0.14269,-0.297589 -0.2623,-0.541293 -0.26559,-0.541293 z"
         id="path5349"
         inkscape:connector-curvature="0"
         sodipodi:nodetypes="cccccscccscscccccssccccc" />
      <path
         style="opacity:1;fill:#709078;fill-opacity:1;stroke:none;stroke-width:0.99999994;stroke-linecap:butt;stroke-linejoin:miter;stroke-miterlimit:4;stroke-dasharray:none;stroke-dashoffset:0;stroke-opacity:1;paint-order:normal"
         d="m 841.99023,357.24609 c -0.28539,0 -0.56895,0.11156 -0.78711,0.33594 -0.13389,0.13775 -0.23946,0.33878 -1.03906,2.00195 -0.80504,1.67494 -0.89539,1.85084 -0.96679,1.86524 -0.0434,0.009 -0.94389,0.14315 -2,0.29883 -1.05616,0.15568 -1.97899,0.29906 -2.05079,0.31836 -0.20269,0.0546 -0.45913,0.24357 -0.58007,0.42578 -0.1361,0.20506 -0.21,0.48018 -0.1836,0.69531 0.0432,0.36765 0.019,0.33928 1.67969,2.00586 l 1.5332,1.54102 -0.35156,2.08984 c -0.24378,1.45142 -0.34528,2.12874 -0.33398,2.21484 0.0624,0.45536 0.36406,0.79455 0.82422,0.92774 0.17059,0.0494 0.47975,0.0298 0.65624,-0.041 0.0747,-0.0299 0.91644,-0.47516 1.86915,-0.98828 l 1.73242,-0.93164 1.73047,0.93164 c 0.95266,0.51312 1.79218,0.95763 1.86328,0.98633 0.3267,0.13116 0.67331,0.0872 0.95117,-0.0781 0.27786,-0.16531 0.48656,-0.45224 0.53516,-0.80664 0.0121,-0.0869 -0.0891,-0.75814 -0.33399,-2.21484 l -0.35156,-2.08984 1.5332,-1.54102 c 1.66139,-1.66652 1.63659,-1.63819 1.67969,-2.00586 0.0253,-0.21515 -0.0475,-0.49024 -0.18359,-0.69531 -0.0602,-0.0908 -0.15566,-0.1831 -0.25977,-0.25977 -0.10458,-0.0768 -0.21902,-0.13869 -0.32031,-0.16601 -0.0719,-0.0194 -0.99467,-0.16268 -2.05078,-0.31836 -1.05615,-0.15568 -1.9565,-0.28983 -2,-0.29883 -0.0714,-0.0144 -0.16153,-0.19029 -0.9668,-1.86524 -0.79948,-1.66317 -0.90527,-1.86418 -1.03906,-2.00195 -0.21814,-0.22438 -0.50367,-0.33594 -0.78907,-0.33594 z m 0,1.09375 c 0.0111,0 0.41483,0.82131 0.89649,1.82422 0.84915,1.76838 0.88158,1.82816 1.05469,2.00391 0.1285,0.13058 0.22394,0.19931 0.34375,0.24414 0.11043,0.0412 0.84423,0.16241 2.17968,0.36133 1.10722,0.16494 2.02577,0.30078 2.03711,0.30078 0.0125,0 -0.66928,0.69366 -1.51367,1.54101 -1.66144,1.66784 -1.63887,1.64091 -1.67969,2.00586 -0.014,0.12512 0.0575,0.60688 0.32813,2.22461 0.19011,1.13618 0.33972,2.07126 0.33594,2.07618 -0.005,0.005 -0.80569,-0.42098 -1.7793,-0.94532 -1.73208,-0.93276 -1.95632,-1.03711 -2.20313,-1.03711 -0.24551,0 -0.46892,0.1037 -2.11914,0.99219 -1.95719,1.05383 -1.86914,1.00749 -1.86914,0.98633 0,-0.009 0.15402,-0.9427 0.34375,-2.07617 0.26986,-1.61372 0.34325,-2.0956 0.32813,-2.22071 -0.0408,-0.36497 -0.0197,-0.338 -1.68164,-2.00586 -0.84439,-0.84735 -1.52306,-1.54101 -1.51172,-1.54101 0.0125,0 0.92791,-0.13584 2.03515,-0.30078 1.33543,-0.19892 2.06933,-0.32006 2.17969,-0.36133 0.11981,-0.0448 0.21682,-0.11356 0.34571,-0.24414 0.17329,-0.17579 0.20557,-0.23519 1.05468,-2.00391 0.48148,-1.00291 0.8832,-1.82422 0.89453,-1.82422 z"
         id="path5351"
         inkscape:connector-curvature="0"
         transform="matrix(0.26458336,0,0,0.26458336,0,-162.84594)" />
    </g>
  </g>
</svg>
