<?xml version="1.0" encoding="UTF-8" standalone="no"?>
<!-- Created with Inkscape (http://www.inkscape.org/) -->

<svg
   xmlns:dc="http://purl.org/dc/elements/1.1/"
   xmlns:cc="http://creativecommons.org/ns#"
   xmlns:rdf="http://www.w3.org/1999/02/22-rdf-syntax-ns#"
   xmlns:svg="http://www.w3.org/2000/svg"
   xmlns="http://www.w3.org/2000/svg"
   xmlns:sodipodi="http://sodipodi.sourceforge.net/DTD/sodipodi-0.dtd"
   xmlns:inkscape="http://www.inkscape.org/namespaces/inkscape"
   width="30"
   height="30"
   viewBox="0 0 7.9374998 7.9375002"
   version="1.1"
   id="svg1988"
   inkscape:version="0.92.1 r15371"
   sodipodi:docname="No_fill_star.svg">
  <defs
     id="defs1982" />
  <sodipodi:namedview
     id="base"
     pagecolor="#ffffff"
     bordercolor="#666666"
     borderopacity="1.0"
     inkscape:pageopacity="0.0"
     inkscape:pageshadow="2"
     inkscape:zoom="7.9195959"
     inkscape:cx="7.3054171"
     inkscape:cy="18.667369"
     inkscape:document-units="mm"
     inkscape:current-layer="layer1"
     showgrid="false"
     units="px"
     inkscape:window-width="1920"
     inkscape:window-height="1018"
     inkscape:window-x="-8"
     inkscape:window-y="-8"
     inkscape:window-maximized="1" />
  <metadata
     id="metadata1985">
    <rdf:RDF>
      <cc:Work
         rdf:about="">
        <dc:format>image/svg+xml</dc:format>
        <dc:type
           rdf:resource="http://purl.org/dc/dcmitype/StillImage" />
        <dc:title></dc:title>
      </cc:Work>
    </rdf:RDF>
  </metadata>
  <g
     inkscape:label="Layer 1"
     inkscape:groupmode="layer"
     id="layer1"
     transform="translate(0,-289.06248)">
    <path
       style="fill:#709078;fill-opacity:1;stroke-width:0.01576502"
       d="m 1.7498375,296.98183 c -0.2398399,-0.0716 -0.3964697,-0.25376 -0.4290137,-0.49874 -0.006,-0.0464 0.04708,-0.41077 0.1741399,-1.19163 l 0.1831998,-1.12485 -0.79959735,-0.82827 c -0.86559131,-0.89662 -0.85327932,-0.88146 -0.8757953,-1.07926 -0.01379999,-0.1158 0.02481998,-0.26414 0.09573992,-0.37445 0.06303995,-0.098 0.19747984,-0.1996 0.30313576,-0.229 0.03742,-0.01 0.51846759,-0.0874 1.06894717,-0.1712 0.5504595,-0.0838 1.0193251,-0.1562 1.0419191,-0.1608 0.03724,-0.008 0.08452,-0.102 0.5043036,-1.00313 0.4167616,-0.8948 0.4710136,-1.00284 0.5408075,-1.07696 0.2274099,-0.24143 0.5950196,-0.24143 0.8224094,0 0.06974,0.0742 0.1240999,0.1822 0.5408076,1.07696 0.4197156,0.90111 0.4670916,0.99537 0.5043036,1.00313 0.02266,0.004 0.4914616,0.077 1.0419411,0.1608 0.5504596,0.0838 1.0314992,0.1608 1.0689472,0.1712 0.1055799,0.0294 0.2400958,0.131 0.3031337,0.229 0.07092,0.11041 0.1089399,0.25871 0.09574,0.37445 -0.02246,0.1978 -0.0098,0.1826 -0.8757773,1.07922 l -0.7995773,0.82827 0.1831998,1.12459 c 0.1276599,0.78372 0.1804399,1.14491 0.1741399,1.19163 -0.05062,0.38134 -0.4343337,0.61698 -0.7748954,0.47588 -0.03704,-0.016 -0.4737316,-0.2538 -0.9702732,-0.52986 l -0.9028233,-0.50193 -0.9028033,0.50193 c -0.4965616,0.27606 -0.9346552,0.5151 -0.9735812,0.5312 -0.092,0.038 -0.2536297,0.0484 -0.3425536,0.0218 z m 1.114079,-1.09427 c 0.8601153,-0.478 0.9768932,-0.5345 1.1048591,-0.5345 0.1286399,0 0.2451598,0.0568 1.1479431,0.55854 0.5074556,0.28208 0.9248073,0.51067 0.9274453,0.50797 0.00197,-0.002 -0.07624,-0.50507 -0.1753199,-1.11633 -0.1410399,-0.87035 -0.1780799,-1.13005 -0.1707999,-1.19737 0.02128,-0.1964 0.0098,-0.182 0.8758153,-1.07927 0.4401037,-0.45588 0.7948494,-0.82886 0.7883294,-0.82886 -0.006,0 -0.4840536,-0.0726 -1.0611451,-0.1614 -0.6960595,-0.10701 -1.0785032,-0.17261 -1.1360651,-0.19481 -0.06244,-0.0242 -0.1128799,-0.0608 -0.1798599,-0.131 -0.09022,-0.0946 -0.1069599,-0.127 -0.5495536,-1.07854 -0.2510498,-0.53959 -0.4612016,-0.98105 -0.4669936,-0.98105 -0.006,0 -0.2158658,0.44146 -0.4668176,0.98105 -0.4425657,0.95156 -0.4590536,0.98396 -0.5493756,1.07854 -0.06718,0.0702 -0.1173999,0.1068 -0.1798598,0.131 -0.05752,0.0222 -0.4400237,0.0878 -1.1360631,0.19481 -0.5771135,0.0886 -1.05462511,0.1614 -1.06114511,0.1614 -0.006,0 0.34820572,0.37298 0.78830941,0.82886 0.8662412,0.89733 0.8545592,0.88293 0.8758332,1.07927 0.0078,0.0674 -0.02974,0.32652 -0.1703999,1.19471 -0.0989,0.60982 -0.1796598,1.11273 -0.1796598,1.11759 0,0.012 -0.0457,0.0364 0.9744112,-0.53061 z"
       id="path5361"
       inkscape:connector-curvature="0" />
  </g>
</svg>
