<?xml version="1.0" encoding="UTF-8" standalone="no"?>
<!-- Created with Inkscape (http://www.inkscape.org/) -->

<svg
   xmlns:dc="http://purl.org/dc/elements/1.1/"
   xmlns:cc="http://creativecommons.org/ns#"
   xmlns:rdf="http://www.w3.org/1999/02/22-rdf-syntax-ns#"
   xmlns:svg="http://www.w3.org/2000/svg"
   xmlns="http://www.w3.org/2000/svg"
   xmlns:xlink="http://www.w3.org/1999/xlink"
   xmlns:sodipodi="http://sodipodi.sourceforge.net/DTD/sodipodi-0.dtd"
   xmlns:inkscape="http://www.inkscape.org/namespaces/inkscape"
   width="356"
   height="499"
   version="1.1"
   viewBox="0 0 94.192 132.03"
   id="svg61"
   sodipodi:docname="10_of_Hearts.svg"
   inkscape:version="0.92.4 (5da689c313, 2019-01-14)">
  <sodipodi:namedview
     pagecolor="#ffffff"
     bordercolor="#666666"
     borderopacity="1"
     objecttolerance="10"
     gridtolerance="10"
     guidetolerance="10"
     inkscape:pageopacity="0"
     inkscape:pageshadow="2"
     inkscape:window-width="1920"
     inkscape:window-height="1017"
     id="namedview63"
     showgrid="false"
     inkscape:zoom="1.6993988"
     inkscape:cx="82.377948"
     inkscape:cy="249.5"
     inkscape:window-x="-8"
     inkscape:window-y="-8"
     inkscape:window-maximized="1"
     inkscape:current-layer="svg61" />
  <defs
     id="defs13">
    <linearGradient
       id="linearGradient1974-8">
      <stop
         stop-color="#565757"
         offset="0"
         id="stop2" />
      <stop
         stop-color="#373838"
         stop-opacity="0"
         offset="1"
         id="stop4" />
    </linearGradient>
    <radialGradient
       id="radialGradient1360"
       cx="161.11"
       cy="166.44"
       r="1.4032"
       gradientTransform="matrix(-.56671 .050266 -.73444 -8.2803 232.39 1566.7)"
       gradientUnits="userSpaceOnUse"
       xlink:href="#linearGradient1974-8" />
    <radialGradient
       id="radialGradient1362"
       cx="49.268"
       cy="149.25"
       r="6.7426"
       gradientTransform="matrix(1.1061 -.95493 3.358 3.8896 -535.57 -262.42)"
       gradientUnits="userSpaceOnUse"
       xlink:href="#linearGradient1974-8" />
    <radialGradient
       id="radialGradient1364"
       cx="138.44"
       cy="235.05"
       r="20.919"
       gradientTransform="matrix(-.21698 -.33554 .75474 -.48807 -86.448 353.66)"
       gradientUnits="userSpaceOnUse"
       xlink:href="#linearGradient1974-8" />
    <radialGradient
       id="radialGradient1366"
       cx="170.35"
       cy="66.049"
       r="12.035"
       gradientTransform="matrix(-.76799 .36121 -.58917 -1.2527 218.68 267.26)"
       gradientUnits="userSpaceOnUse"
       xlink:href="#linearGradient1974-8" />
    <radialGradient
       id="radialGradient1368"
       cx="80.302"
       cy="225.63"
       r="5.5573"
       gradientTransform="matrix(.44195 -.56924 2.2967 1.7831 -470.29 -181.19)"
       gradientUnits="userSpaceOnUse"
       xlink:href="#linearGradient1974-8" />
    <radialGradient
       id="radialGradient1370"
       cx="210.08"
       cy="90.623"
       r=".46312"
       gradientTransform="matrix(.59283 0 0 4.8358 -101.8 -246.45)"
       gradientUnits="userSpaceOnUse"
       xlink:href="#linearGradient1974-8" />
    <radialGradient
       inkscape:collect="always"
       xlink:href="#linearGradient1974-8"
       id="radialGradient1368-4"
       gradientUnits="userSpaceOnUse"
       gradientTransform="matrix(0.178796,0.89031317,-3.5846431,0.61008248,832.75947,-91.545196)"
       cx="80.301682"
       cy="225.62547"
       fx="80.301682"
       fy="225.62547"
       r="5.5573373" />
    <radialGradient
       inkscape:collect="always"
       xlink:href="#linearGradient1974-8"
       id="radialGradient1370-1"
       gradientUnits="userSpaceOnUse"
       gradientTransform="matrix(0.59780043,0,0,4.8762694,-103.047,-415.42387)"
       cx="210.08463"
       cy="90.623199"
       fx="210.08463"
       fy="90.623199"
       r="0.46311602" />
    <radialGradient
       inkscape:collect="always"
       xlink:href="#linearGradient1974-8"
       id="radialGradient1360-4"
       gradientUnits="userSpaceOnUse"
       gradientTransform="matrix(-0.78124668,-0.26151011,4.2398665,-10.287094,-504.90951,1775.1806)"
       cx="161.11455"
       cy="166.44328"
       fx="161.11455"
       fy="166.44328"
       r="1.40318" />
    <radialGradient
       inkscape:collect="always"
       xlink:href="#linearGradient1974-8"
       id="radialGradient1364-3"
       gradientUnits="userSpaceOnUse"
       gradientTransform="matrix(-0.26559822,0.30299848,-0.68154994,-0.59742357,238.48855,113.05751)"
       cx="138.43695"
       cy="235.05092"
       fx="138.43695"
       fy="235.05092"
       r="20.918684" />
    <radialGradient
       inkscape:collect="always"
       xlink:href="#linearGradient1974-8"
       id="radialGradient1366-9"
       gradientUnits="userSpaceOnUse"
       gradientTransform="matrix(-0.7744265,0.36423877,-0.59410536,-1.2631575,197.6589,80.670322)"
       cx="170.35481"
       cy="66.048706"
       fx="170.35481"
       fy="66.048706"
       r="12.034579" />
    <radialGradient
       inkscape:collect="always"
       xlink:href="#linearGradient1974-8"
       id="radialGradient1362-1"
       gradientUnits="userSpaceOnUse"
       gradientTransform="matrix(0.79121921,1.2430704,-4.3712848,2.7823403,647.92547,-395.14635)"
       cx="49.268208"
       cy="149.24762"
       fx="49.268208"
       fy="149.24762"
       r="6.742619" />
  </defs>
  <metadata
     id="metadata15">
    <rdf:RDF>
      <cc:Work
         rdf:about="">
        <dc:format>image/svg+xml</dc:format>
        <dc:type
           rdf:resource="http://purl.org/dc/dcmitype/StillImage" />
        <dc:title />
      </cc:Work>
    </rdf:RDF>
  </metadata>
  <path
     sodipodi:nodetypes="ccccccccccccccccccccccccccccccccccccc"
     inkscape:connector-curvature="0"
     id="path1324"
     d="M 4.8311428,1.3570127 14.793703,2.2499925 25.829427,1.3570127 36.507443,0.464033 46.827691,1.3570127 H 57.326833 L 67.647111,2.2499925 78.325087,1.3570127 h 10.499152 l 4.292645,4.2862748 V 20.736199 35.829153 l -0.89432,16.700259 0.89432,13.485588 0.89429,17.236069 -0.89429,12.949806 -0.536592,16.343095 0.715446,11.87825 -4.471499,6.2508 H 78.325087 l -10.677976,-0.89298 -10.320278,0.89298 H 46.827691 l -10.677996,0.89295 -10.320268,-0.89295 H 15.330295 L 6.7986162,130.13722 0.5385279,126.38674 0.1808,112.90113 2.3271074,96.736657 0.5385279,81.107931 V 66.015 50.922076 L 1.6116616,36.007747 0.5385279,20.736199 V 5.6432875 Z"
     style="fill:#C6C7C7;fill-opacity:1;stroke:#FF8D40;stroke-width:3.55563727;stroke-miterlimit:4;stroke-dasharray:none;stroke-opacity:1" />
  <path
     style="fill:url(#radialGradient1368-4);fill-opacity:1;stroke:#b1b2b2;stroke-width:0.09842876;stroke-linecap:butt;stroke-linejoin:miter;stroke-miterlimit:4;stroke-dasharray:none;stroke-opacity:1"
     d="m 47.370503,118.37558 c 0,0 -5.265256,0.90345 -6.088155,0.99882 -0.822868,0.0954 -11.77049,0.4855 -11.77049,0.4855 l -3.202721,-1.02244 -1.453562,-0.63071 1.605176,0.0507 1.945863,1.06207 2.919454,0.13514 7.512236,-0.3233 2.69276,-1.51099 4.764685,-0.0935 c 0,0 5.164574,-0.99835 5.533852,-1.20397 0.369219,-0.20564 -4.459098,2.05273 -4.459098,2.05273 z"
     id="path1344"
     inkscape:connector-curvature="0" />
  <path
     style="fill:url(#radialGradient1370-1);fill-opacity:1;stroke:#7d7f7f;stroke-width:0.03163361;stroke-linecap:butt;stroke-linejoin:miter;stroke-miterlimit:4;stroke-dasharray:none;stroke-opacity:1"
     d="m 22.504243,28.735416 0.111933,-1.528504 -0.335518,-2.982446 0.521922,2.311391 z"
     id="path1348"
     inkscape:connector-curvature="0" />
  <path
     style="fill:#71121c;fill-opacity:1;stroke:none;stroke-width:0.86568642;stroke-linecap:butt;stroke-linejoin:miter;stroke-miterlimit:4;stroke-dasharray:none;stroke-opacity:1"
     d="m 25.741615,23.995813 c 0,0 1.270298,-1.505523 1.411461,-1.693737 0.141053,-0.188215 2.352392,-1.035063 2.352392,-1.035063 l 2.211279,0.329347 2.25831,1.928963 0.658674,1.787839 -0.4705,2.587655 -1.834871,3.011077 -2.681729,4.234323 -3.952047,5.269407 -1.552594,-1.834871 -2.493556,-3.669751 c 0,0 -2.070115,-2.25832 -2.117166,-2.446514 -0.0472,-0.188214 -2.164218,-3.246342 -2.164218,-3.246342 0,0 -1.035053,-2.30535 -1.035053,-2.493545 0,-0.188204 0.423419,-2.35241 0.423419,-2.35241 l 1.317359,-1.976013 1.976034,-0.799818 c 0,0 1.646686,0 1.928983,0.0472 0.282276,0.0472 1.881901,0.799818 1.881901,0.799818 l 1.223277,1.8349 z"
     id="path1308"
     inkscape:connector-curvature="0" />
  <path
     style="fill:#570e15;fill-opacity:1;stroke:#b41c2d;stroke-width:0.0158168;stroke-linecap:butt;stroke-linejoin:miter;stroke-miterlimit:4;stroke-dasharray:none;stroke-opacity:1"
     d="m 24.533768,28.787227 c 0,0.149063 -0.335527,1.155705 -0.335527,1.155705 l -0.857459,1.304829 -0.969292,0.969282 1.155706,-1.006583 c 0,0 0.596473,-0.596473 0.671045,-0.745606 0.0746,-0.149043 0.335527,-0.89472 0.335527,-0.89472 z"
     id="path1346"
     inkscape:connector-curvature="0" />
  <path
     style="fill:#570e15;fill-opacity:1;stroke:#b41c2d;stroke-width:0.0158168;stroke-linecap:butt;stroke-linejoin:miter;stroke-miterlimit:4;stroke-dasharray:none;stroke-opacity:1"
     d="m 31.350009,29.188526 -0.410089,1.230257 -0.89473,1.043853 -0.969301,1.491233 -0.521922,1.901292 -1.006582,1.267558 1.714908,-2.124997 0.186374,-1.081154 0.372818,-0.820148 0.633764,-0.820168 0.745607,-0.932021 z"
     id="path1350"
     inkscape:connector-curvature="0" />
  <path
     inkscape:connector-curvature="0"
     id="path1318"
     d="m 9.0633163,25.490124 c 0,0 0.6886652,-0.816198 0.7651869,-0.91822 0.076402,-0.102102 1.2752878,-0.561133 1.2752878,-0.561133 l 1.198787,0.178584 1.224277,1.045763 0.357078,0.969222 -0.255036,1.402831 -0.994742,1.632366 -1.453832,2.295541 -2.1425073,2.856683 -0.8416986,-0.994752 -1.3518198,-1.989454 c 0,0 -1.1222548,-1.224297 -1.1477654,-1.326319 -0.025601,-0.101893 -1.1732759,-1.759919 -1.1732759,-1.759919 0,0 -0.5611224,-1.249768 -0.5611224,-1.35182 0,-0.102092 0.229545,-1.275278 0.229545,-1.275278 l 0.7141658,-1.071264 1.0712537,-0.4336 c 0,0 0.8927097,0 1.0457531,0.0256 0.1529434,0.0256 1.0202325,0.433579 1.0202325,0.433579 l 0.6631547,0.994752 z"
     style="fill:#71121c;fill-opacity:1;stroke:none;stroke-width:0.46930966;stroke-linecap:butt;stroke-linejoin:miter;stroke-miterlimit:4;stroke-dasharray:none;stroke-opacity:1" />
  <path
     style="fill:#570e15;fill-opacity:1;stroke:#b41c2d;stroke-width:0.0158168;stroke-linecap:butt;stroke-linejoin:miter;stroke-miterlimit:4;stroke-dasharray:none;stroke-opacity:1"
     d="m 10.979889,27.323975 v 0.896289 l -0.263616,1.449872 0.395419,-1.159895 0.0792,-0.790828 z"
     id="path1352"
     inkscape:connector-curvature="0" />
  <path
     style="fill:#71121c;fill-opacity:1;stroke:none;stroke-width:0.83452356;stroke-linecap:butt;stroke-linejoin:miter;stroke-miterlimit:4;stroke-dasharray:none;stroke-opacity:1"
     d="m 65.984944,108.67946 c 0,0 -1.224577,1.45134 -1.36065,1.63277 -0.135933,0.18144 -2.26767,0.99781 -2.26767,0.99781 l -2.131687,-0.31749 -2.177018,-1.85957 -0.634964,-1.72345 0.45356,-2.4945 1.768799,-2.90269 2.585217,-4.081887 3.809774,-5.079742 1.496713,1.768859 2.403783,3.537608 c 0,0 1.995595,2.177052 2.040956,2.358462 0.0453,0.18144 2.086326,3.12948 2.086326,3.12948 0,0 0.997792,2.22236 0.997792,2.40378 0,0.18145 -0.408169,2.26771 -0.408169,2.26771 l -1.269938,1.9049 -1.904902,0.77104 c 0,0 -1.587436,0 -1.859552,-0.0455 -0.272116,-0.0455 -1.81417,-0.77102 -1.81417,-0.77102 l -1.179206,-1.76887 z"
     id="path1320"
     inkscape:connector-curvature="0" />
  <path
     inkscape:connector-curvature="0"
     id="path1322"
     d="m 85.777412,107.40559 c 0,0 -0.672295,0.8523 -0.746997,0.95886 -0.0746,0.10641 -1.244917,0.58594 -1.244917,0.58594 l -1.170316,-0.18637 -1.195157,-1.09201 -0.348627,-1.01207 0.249015,-1.46492 0.971082,-1.70458 1.419261,-2.39709 2.091566,-2.983053 0.821668,1.038763 1.3197,2.07744 c 0,0 1.095534,1.27848 1.120454,1.38498 0.0248,0.10641 1.145386,1.8378 1.145386,1.8378 0,0 0.547802,1.30506 0.547802,1.41158 0,0.1064 -0.224105,1.33171 -0.224105,1.33171 l -0.697176,1.11867 -1.045783,0.45278 c 0,0 -0.871489,0 -1.020892,-0.0266 -0.149464,-0.0266 -0.995962,-0.4528 -0.995962,-0.4528 l -0.647395,-1.03872 z"
     style="fill:#71121c;fill-opacity:1;stroke:none;stroke-width:0.47384185;stroke-linecap:butt;stroke-linejoin:miter;stroke-miterlimit:4;stroke-dasharray:none;stroke-opacity:1" />
  <path
     inkscape:connector-curvature="0"
     id="path1356"
     d="m 65.317689,101.2867 -0.369058,1.18624 -1.212626,1.58169 c 0,0 -1.476223,2.02983 -1.502584,2.18802 -0.0263,0.15807 0.395409,2.0298 0.342698,2.2407 -0.0528,0.2109 0.237265,-0.28997 0.237265,-0.28997 l -0.263626,-0.65905 -0.131823,-1.15989 c 0,0 0.42178,-0.84357 0.500861,-0.97536 0.0791,-0.13183 1.528964,-1.60806 1.528964,-1.60806 0,0 0.922651,-1.39715 0.922651,-1.50259 0,-0.10538 -0.0528,-1.00173 -0.0528,-1.00173 z"
     style="fill:#570e15;fill-opacity:1;stroke:#b41c2d;stroke-width:0.03163361;stroke-linecap:butt;stroke-linejoin:miter;stroke-miterlimit:4;stroke-dasharray:none;stroke-opacity:1" />
  <path
     style="fill:#570e15;fill-opacity:1;stroke:#b41c2d;stroke-width:0.02411978;stroke-linecap:butt;stroke-linejoin:miter;stroke-miterlimit:4;stroke-dasharray:none;stroke-opacity:1"
     d="m 86.359875,106.33123 -0.608234,-0.39718 -0.685175,0.36955 c 0,0 -0.8933,0.37443 -0.978392,0.29295 -0.085,-0.0815 -1.220077,-1.96089 -1.330449,-2.0478 -0.110383,-0.0867 0.122993,-0.0867 0.122993,-0.0867 l 0.419759,0.80507 0.680755,1.00315 c 0,0 0.404699,0.0836 0.46566,0.0802 0.0609,-0.004 0.644884,-0.74523 0.644884,-0.74523 0,0 0.631174,-0.14118 0.690976,-0.0649 0.0598,0.0755 0.577243,0.79013 0.577243,0.79013 z"
     id="path1557"
     inkscape:connector-curvature="0" />
  <path
     inkscape:connector-curvature="0"
     id="path1559"
     d="m 84.004032,102.63904 0.986562,0.41595 1.065554,0.92604 c 0,0 1.395201,1.14715 1.534674,1.19083 0.139383,0.0436 2.044265,0.18249 2.224119,0.24966 0.179864,0.0673 -0.190154,-0.17755 -0.190154,-0.17755 l -0.710636,0.0102 -1.135505,-0.15274 c 0,0 -0.646314,-0.37793 -0.742717,-0.44378 -0.0964,-0.0659 -0.980631,-1.09409 -0.980631,-1.09409 0,0 -0.992742,-0.74143 -1.091804,-0.76151 -0.0991,-0.0205 -0.959462,-0.16339 -0.959462,-0.16339 z"
     style="fill:#570e15;fill-opacity:1;stroke:#b41c2d;stroke-width:0.02346663;stroke-linecap:butt;stroke-linejoin:miter;stroke-miterlimit:4;stroke-dasharray:none;stroke-opacity:1" />
  <path
     inkscape:connector-curvature="0"
     id="path1002"
     d="m 10.471117,31.671901 -1.8571606,-1.32328 -2.2385695,-2.418303 1.2548377,2.128977 1.4087612,1.250978 z"
     style="fill:#570e15;fill-opacity:1;stroke:#b41c2d;stroke-width:0.04023476;stroke-linecap:butt;stroke-linejoin:miter;stroke-miterlimit:4;stroke-dasharray:none;stroke-opacity:1" />
  <path
     inkscape:connector-curvature="0"
     id="path1004"
     d="m 65.502594,49.415071 c 0,0 1.270308,-1.505533 1.411471,-1.693738 0.141043,-0.188214 2.352392,-1.035053 2.352392,-1.035053 l 2.211279,0.329348 2.2583,1.928952 0.658674,1.78784 -0.47048,2.587667 -1.834881,3.011057 -2.681729,4.234343 -3.952047,5.269397 -1.552605,-1.834881 -2.493555,-3.669741 c 0,0 -2.070106,-2.25833 -2.117157,-2.446524 -0.0472,-0.188204 -2.164217,-3.246322 -2.164217,-3.246322 0,0 -1.035053,-2.305361 -1.035053,-2.493555 0,-0.188214 0.423419,-2.352412 0.423419,-2.352412 l 1.317349,-1.976014 1.976034,-0.799807 c 0,0 1.646696,0 1.928982,0.0472 0.282277,0.0472 1.881902,0.799807 1.881902,0.799807 l 1.223277,1.834891 z"
     style="fill:#71121c;fill-opacity:1;stroke:none;stroke-width:0.86568642;stroke-linecap:butt;stroke-linejoin:miter;stroke-miterlimit:4;stroke-dasharray:none;stroke-opacity:1" />
  <path
     inkscape:connector-curvature="0"
     id="path1006"
     d="m 72.077159,48.615063 -0.410079,1.230257 -0.89475,1.043863 -0.969291,1.491223 -0.521922,1.901302 -1.006582,1.267558 1.714908,-2.124997 0.186374,-1.081153 0.372818,-0.820149 0.633764,-0.820178 0.745597,-0.93201 z"
     style="fill:#570e15;fill-opacity:1;stroke:#b41c2d;stroke-width:0.0158168;stroke-linecap:butt;stroke-linejoin:miter;stroke-miterlimit:4;stroke-dasharray:none;stroke-opacity:1" />
  <path
     inkscape:connector-curvature="0"
     id="path1067"
     d="m 26.752887,107.36981 c 0,0 -1.224587,1.45134 -1.36065,1.63277 -0.135933,0.18144 -2.26767,0.99781 -2.26767,0.99781 l -2.131687,-0.31749 -2.177018,-1.85957 -0.634974,-1.72345 0.45357,-2.4945 1.768799,-2.90269 2.585207,-4.081886 3.809784,-5.079742 1.496703,1.768859 2.403793,3.537608 c 0,0 1.995585,2.177048 2.040946,2.358462 0.0453,0.181444 2.086336,3.129479 2.086336,3.129479 0,0 0.997782,2.22236 0.997782,2.40378 0,0.18145 -0.408159,2.26771 -0.408159,2.26771 l -1.269938,1.90491 -1.904902,0.77103 c 0,0 -1.587436,0 -1.859562,-0.0455 -0.272106,-0.0455 -1.81416,-0.77102 -1.81416,-0.77102 l -1.179206,-1.76886 z"
     style="fill:#71121c;fill-opacity:1;stroke:none;stroke-width:0.83452356;stroke-linecap:butt;stroke-linejoin:miter;stroke-miterlimit:4;stroke-dasharray:none;stroke-opacity:1" />
  <path
     style="fill:#570e15;fill-opacity:1;stroke:#b41c2d;stroke-width:0.03163361;stroke-linecap:butt;stroke-linejoin:miter;stroke-miterlimit:4;stroke-dasharray:none;stroke-opacity:1"
     d="m 26.085632,99.977048 -0.369058,1.186242 -1.212626,1.58169 c 0,0 -1.476223,2.02983 -1.502594,2.18802 -0.0263,0.15807 0.395419,2.0298 0.342698,2.2407 -0.0528,0.2109 0.237265,-0.28997 0.237265,-0.28997 l -0.263616,-0.65905 -0.131823,-1.15989 c 0,0 0.42177,-0.84357 0.500861,-0.97536 0.0791,-0.13183 1.528964,-1.60806 1.528964,-1.60806 0,0 0.922641,-1.39715 0.922641,-1.50259 0,-0.10538 -0.0528,-1.001732 -0.0528,-1.001732 z"
     id="path1069"
     inkscape:connector-curvature="0" />
  <path
     inkscape:connector-curvature="0"
     id="path1071"
     d="m 66.863334,24.182906 c 0,0 1.270298,-1.505523 1.411461,-1.693737 0.141053,-0.188214 2.352392,-1.035063 2.352392,-1.035063 l 2.211279,0.329347 2.25831,1.928963 0.658664,1.787839 -0.47049,2.587655 -1.834871,3.011077 -2.681729,4.234324 -3.952047,5.269406 -1.552595,-1.83487 -2.493555,-3.669752 c 0,0 -2.070126,-2.25832 -2.117167,-2.446514 -0.0472,-0.188214 -2.164217,-3.246341 -2.164217,-3.246341 0,0 -1.035063,-2.305351 -1.035063,-2.493546 0,-0.188204 0.423429,-2.35241 0.423429,-2.35241 l 1.317359,-1.976013 1.976034,-0.799818 c 0,0 1.646686,0 1.928982,0.0472 0.282277,0.0472 1.881902,0.799818 1.881902,0.799818 l 1.223267,1.8349 z"
     style="fill:#71121c;fill-opacity:1;stroke:none;stroke-width:0.86568642;stroke-linecap:butt;stroke-linejoin:miter;stroke-miterlimit:4;stroke-dasharray:none;stroke-opacity:1" />
  <path
     inkscape:connector-curvature="0"
     id="path1073"
     d="m 71.21449,25.044685 c 0,0.149054 -0.335528,1.155694 -0.335528,1.155694 l -0.857459,1.304829 -0.969291,0.969281 1.155706,-1.006582 c 0,0 0.596473,-0.596473 0.671044,-0.745597 0.0746,-0.149053 0.335528,-0.894729 0.335528,-0.894729 z"
     style="fill:#570e15;fill-opacity:1;stroke:#b41c2d;stroke-width:0.0158168;stroke-linecap:butt;stroke-linejoin:miter;stroke-miterlimit:4;stroke-dasharray:none;stroke-opacity:1" />
  <path
     style="fill:url(#radialGradient1360-4);fill-opacity:1;stroke:#b1b2b2;stroke-width:0.10906034;stroke-linecap:butt;stroke-linejoin:miter;stroke-miterlimit:4;stroke-dasharray:none;stroke-dashoffset:0;stroke-opacity:1"
     d="m 71.528437,28.811131 1.558254,-3.819684 0.0243,-2.859973 1.412321,-2.420599 0.415239,-1.228167 1.665077,-3.231741 c 0,0 1.930803,-3.279093 2.073506,-3.433846 0.142823,-0.154864 2.549946,-5.3394781 2.549946,-5.3394781 l -1.79117,4.3686161 -1.910412,4.479399 -1.238267,4.120912 c 0,0 -1.956573,1.751408 -2.073946,1.971293 -0.117043,0.21997 -0.719896,3.262427 -0.618594,3.522983 0.101333,0.260416 -2.827892,6.085544 -2.827892,6.085544 l -2.157938,4.155442 z"
     id="path1336"
     inkscape:connector-curvature="0" />
  <path
     style="fill:url(#radialGradient1364-3);fill-opacity:1;stroke:#b1b2b2;stroke-width:0.06326722;stroke-linecap:butt;stroke-linejoin:miter;stroke-miterlimit:4;stroke-dasharray:none;stroke-opacity:1"
     d="m 50.777368,21.916135 c -0.245695,-0.0955 -5.088082,-4.489329 -5.297217,-4.649803 -0.209115,-0.160493 -4.905208,-4.814216 -4.905208,-4.814216 l -8.471448,-4.2546041 -2.342721,-3.2864426 2.052285,3.4224156 2.570667,1.3612901 5.403329,2.484995 5.069612,5.206215 8.428167,6.839791 z"
     id="path1340"
     inkscape:connector-curvature="0" />
  <path
     style="fill:#71121c;fill-opacity:1;stroke:none;stroke-width:0.86568642;stroke-linecap:butt;stroke-linejoin:miter;stroke-miterlimit:4;stroke-dasharray:none;stroke-opacity:1"
     d="m 26.368099,48.337911 c 0,0 1.270308,-1.505533 1.411471,-1.693737 0.141043,-0.188215 2.352392,-1.035053 2.352392,-1.035053 l 2.211279,0.329347 2.2583,1.928953 0.658674,1.787839 -0.47048,2.587667 -1.834881,3.011057 -2.681729,4.234343 -3.952047,5.269397 -1.552605,-1.834881 -2.493555,-3.669741 c 0,0 -2.070105,-2.25833 -2.117157,-2.446524 -0.0472,-0.188204 -2.164217,-3.246322 -2.164217,-3.246322 0,0 -1.035053,-2.305361 -1.035053,-2.493555 0,-0.188214 0.423419,-2.352412 0.423419,-2.352412 l 1.317349,-1.976013 1.976034,-0.799808 c 0,0 1.646696,0 1.928983,0.0472 0.282276,0.0472 1.881901,0.799808 1.881901,0.799808 l 1.223277,1.83489 z"
     id="path1144"
     inkscape:connector-curvature="0" />
  <path
     style="fill:#570e15;fill-opacity:1;stroke:#b41c2d;stroke-width:0.0158168;stroke-linecap:butt;stroke-linejoin:miter;stroke-miterlimit:4;stroke-dasharray:none;stroke-opacity:1"
     d="m 22.316569,53.129557 1.000122,0.825508 0.651735,1.210567 1.042263,1.441172 1.585905,1.171436 0.820168,1.39543 -1.3651,-2.364962 -0.941551,-0.563112 -0.630934,-0.643094 -0.537012,-0.88655 -0.601073,-1.031143 z"
     id="path1146"
     inkscape:connector-curvature="0" />
  <path
     style="fill:url(#radialGradient1366-9);fill-opacity:1;stroke:#b1b2b2;stroke-width:0.11071762;stroke-linecap:butt;stroke-linejoin:miter;stroke-miterlimit:4;stroke-dasharray:none;stroke-opacity:1"
     d="m 33.619319,75.295523 -1.252668,-2.957869 c 0,0 -1.988974,-3.382814 -1.934882,-3.698921 0.0541,-0.316107 -0.717996,-4.695434 -0.717996,-4.695434 l -4.083601,-6.713368 -5.194174,-5.927281 -0.947341,-1.449593 0.504691,1.842911 1.159815,1.211937 3.784674,4.191713 2.70373,4.149761 1.926582,2.804332 0.0648,2.274421 0.581933,3.395045 2.111556,3.140669 z"
     id="path1342"
     inkscape:connector-curvature="0" />
  <path
     inkscape:connector-curvature="0"
     id="path1031"
     d="m 46.553905,33.713966 c 0,0 1.270308,-1.505533 1.411471,-1.693738 0.141043,-0.188214 2.352392,-1.035052 2.352392,-1.035052 l 2.211279,0.329347 2.2583,1.928952 0.658674,1.78784 -0.47048,2.587667 -1.834881,3.011057 -2.681729,4.234343 -3.952047,5.269401 -1.552605,-1.834885 -2.493555,-3.669741 c 0,0 -2.070105,-2.25833 -2.117156,-2.446524 -0.0472,-0.188204 -2.164218,-3.246322 -2.164218,-3.246322 0,0 -1.035053,-2.305361 -1.035053,-2.493555 0,-0.188214 0.423419,-2.352412 0.423419,-2.352412 l 1.317349,-1.976014 1.976034,-0.799807 c 0,0 1.646696,0 1.928983,0.0472 0.282276,0.0472 1.881901,0.799808 1.881901,0.799808 l 1.223277,1.83489 z"
     style="fill:#71121c;fill-opacity:1;stroke:none;stroke-width:0.86568642;stroke-linecap:butt;stroke-linejoin:miter;stroke-miterlimit:4;stroke-dasharray:none;stroke-opacity:1" />
  <path
     inkscape:connector-curvature="0"
     id="path1033"
     d="m 26.814589,48.499252 1.000122,0.825508 0.651734,1.210567 1.042263,1.441171 1.585905,1.171436 0.820168,1.395431 -1.3651,-2.364962 -0.941551,-0.563113 -0.630934,-0.643094 -0.537011,-0.886549 -0.601074,-1.031143 z"
     style="fill:#570e15;fill-opacity:1;stroke:#b41c2d;stroke-width:0.0158168;stroke-linecap:butt;stroke-linejoin:miter;stroke-miterlimit:4;stroke-dasharray:none;stroke-opacity:1" />
  <path
     inkscape:connector-curvature="0"
     id="path1113"
     d="m 25.722054,86.449059 c 0,0 -1.270298,1.505524 -1.411461,1.693738 -0.141053,0.188214 -2.352392,1.035063 -2.352392,1.035063 l -2.211279,-0.329348 -2.25831,-1.928962 -0.658674,-1.78784 0.4705,-2.587657 1.834871,-3.011077 2.681729,-4.234323 3.952047,-5.269407 1.552595,1.834866 2.493555,3.669756 c 0,0 2.070116,2.25832 2.117167,2.446514 0.0472,0.188214 2.164218,3.246342 2.164218,3.246342 0,0 1.035052,2.305351 1.035052,2.493545 0,0.188204 -0.423419,2.352412 -0.423419,2.352412 l -1.317359,1.976014 -1.976034,0.799817 c 0,0 -1.646686,0 -1.928982,-0.0472 -0.282277,-0.0472 -1.881902,-0.799817 -1.881902,-0.799817 l -1.223277,-1.834901 z"
     style="fill:#71121c;fill-opacity:1;stroke:none;stroke-width:0.86568642;stroke-linecap:butt;stroke-linejoin:miter;stroke-miterlimit:4;stroke-dasharray:none;stroke-opacity:1" />
  <path
     inkscape:connector-curvature="0"
     id="path1115"
     d="m 26.929901,81.657643 c 0,-0.149063 0.335528,-1.155705 0.335528,-1.155705 l 0.857459,-1.304829 0.969291,-0.969281 -1.155706,1.006582 c 0,0 -0.596473,0.596473 -0.671044,0.745606 -0.0746,0.149044 -0.335528,0.89472 -0.335528,0.89472 z"
     style="fill:#570e15;fill-opacity:1;stroke:#b41c2d;stroke-width:0.0158168;stroke-linecap:butt;stroke-linejoin:miter;stroke-miterlimit:4;stroke-dasharray:none;stroke-opacity:1" />
  <path
     style="fill:url(#radialGradient1362-1);fill-opacity:1;stroke:#b1b2b2;stroke-width:0.06326722;stroke-linecap:butt;stroke-linejoin:miter;stroke-miterlimit:4;stroke-dasharray:none;stroke-opacity:1"
     d="m 37.915514,82.305568 -6.502994,4.10776 c 0,0 -8.194831,1.078944 -9.844457,1.77645 -1.649617,0.697465 -8.57821,-0.369858 -9.328767,-0.247966 -0.750546,0.121873 -1.858851,0.138893 -1.858851,0.138893 l 0.0778,2.120637 0.42807,-1.195406 0.680975,-0.732776 3.481797,0.367878 5.768017,0.944731 7.462275,-2.396973 4.145502,-0.836149 4.050049,-2.153917 c 0,0 3.518568,-4.423098 4.444058,-5.565944 0.925491,-1.142825 10.256217,-5.991271 10.256217,-5.991271 l 5.988082,-3.994508 -3.281962,1.866231 -9.278705,5.625133 -5.219786,3.069788 -1.790239,3.298003 z"
     id="path1338"
     inkscape:connector-curvature="0" />
  <path
     inkscape:connector-curvature="0"
     id="path1117"
     d="m 20.113661,81.256344 0.410089,-1.230257 0.894729,-1.043853 0.969302,-1.491233 0.521921,-1.901292 1.006583,-1.267563 -1.714908,2.125002 -0.186374,1.081154 -0.372819,0.820148 -0.633764,0.820168 -0.745606,0.932021 z"
     style="fill:#570e15;fill-opacity:1;stroke:#b41c2d;stroke-width:0.0158168;stroke-linecap:butt;stroke-linejoin:miter;stroke-miterlimit:4;stroke-dasharray:none;stroke-opacity:1" />
  <path
     inkscape:connector-curvature="0"
     id="path1255"
     d="m 64.675295,87.098264 c 0,0 -1.224577,1.451342 -1.36065,1.632766 -0.135933,0.181444 -2.26767,0.997812 -2.26767,0.997812 l -2.131687,-0.317487 -2.177018,-1.859571 -0.634964,-1.723448 0.45356,-2.494506 1.768799,-2.902684 2.585217,-4.08189 3.809774,-5.079747 1.496713,1.768863 2.403783,3.537609 c 0,0 1.995595,2.177048 2.040956,2.358462 0.0453,0.181444 2.086326,3.129479 2.086326,3.129479 0,0 0.997792,2.222359 0.997792,2.403783 0,0.181444 -0.408169,2.267711 -0.408169,2.267711 l -1.269938,1.904902 -1.904902,0.771037 c 0,0 -1.587436,0 -1.859552,-0.0455 -0.272116,-0.0455 -1.81417,-0.771017 -1.81417,-0.771017 l -1.179206,-1.768869 z"
     style="fill:#71121c;fill-opacity:1;stroke:none;stroke-width:0.83452356;stroke-linecap:butt;stroke-linejoin:miter;stroke-miterlimit:4;stroke-dasharray:none;stroke-opacity:1" />
  <path
     style="fill:#570e15;fill-opacity:1;stroke:#b41c2d;stroke-width:0.03163361;stroke-linecap:butt;stroke-linejoin:miter;stroke-miterlimit:4;stroke-dasharray:none;stroke-opacity:1"
     d="m 64.008041,79.7055 -0.369059,1.186246 -1.212626,1.581685 c 0,0 -1.476223,2.029835 -1.502584,2.188019 -0.0263,0.158073 0.395409,2.029805 0.342698,2.240699 -0.0528,0.210905 0.237265,-0.289966 0.237265,-0.289966 l -0.263626,-0.659055 -0.131823,-1.159885 c 0,0 0.42178,-0.843569 0.500862,-0.975362 0.0791,-0.131833 1.528963,-1.608055 1.528963,-1.608055 0,0 0.922651,-1.397151 0.922651,-1.502594 0,-0.105382 -0.0528,-1.001732 -0.0528,-1.001732 z"
     id="path1257"
     inkscape:connector-curvature="0" />
  <path
     style="fill:#71121c;fill-opacity:1;stroke:none;stroke-width:0.83452356;stroke-linecap:butt;stroke-linejoin:miter;stroke-miterlimit:4;stroke-dasharray:none;stroke-opacity:1"
     d="m 46.277689,95.682493 c 0,0 -1.224587,1.451342 -1.36065,1.632766 -0.135933,0.181444 -2.26767,0.997812 -2.26767,0.997812 l -2.131688,-0.317487 -2.177018,-1.859571 -0.634974,-1.723448 0.45357,-2.494505 1.768799,-2.902684 2.585208,-4.08189 3.809784,-5.079743 1.496703,1.76886 2.403793,3.537608 c 0,0 1.995584,2.177048 2.040945,2.358462 0.0453,0.181444 2.086336,3.129479 2.086336,3.129479 0,0 0.997782,2.222359 0.997782,2.403783 0,0.181444 -0.408159,2.26771 -0.408159,2.26771 l -1.269938,1.904902 -1.904902,0.771037 c 0,0 -1.587435,0 -1.859561,-0.0455 -0.272106,-0.0455 -1.81416,-0.771017 -1.81416,-0.771017 l -1.179206,-1.768869 z"
     id="path1055"
     inkscape:connector-curvature="0" />
  <path
     inkscape:connector-curvature="0"
     id="path1057"
     d="m 45.610434,88.28973 -0.369058,1.186246 -1.212627,1.581685 c 0,0 -1.476223,2.029835 -1.502593,2.188018 -0.0263,0.158074 0.395419,2.029805 0.342697,2.2407 -0.0528,0.210905 0.237266,-0.289966 0.237266,-0.289966 L 42.842503,94.537358 42.71068,93.377472 c 0,0 0.421769,-0.843568 0.500861,-0.975361 0.0791,-0.131833 1.528964,-1.608056 1.528964,-1.608056 0,0 0.92264,-1.397151 0.92264,-1.502593 0,-0.105382 -0.0528,-1.001732 -0.0528,-1.001732 z"
     style="fill:#570e15;fill-opacity:1;stroke:#b41c2d;stroke-width:0.03163361;stroke-linecap:butt;stroke-linejoin:miter;stroke-miterlimit:4;stroke-dasharray:none;stroke-opacity:1" />
  <path
     style="fill:#71121c;fill-opacity:1;stroke:none;stroke-width:0.0974154px;stroke-linecap:butt;stroke-linejoin:miter;stroke-opacity:1"
     d="M 4.5221759,8.8118315 5.5937396,10.662725 9.1493982,7.9838062 8.2239577,21.281008 10.318384,21.232337 11.292546,5.5484554 10.074849,4.7691321 Z"
     id="path1204"
     inkscape:connector-curvature="0" />
  <path
     style="fill:#71121c;fill-opacity:1;stroke:none;stroke-width:0.0974154px;stroke-linecap:butt;stroke-linejoin:miter;stroke-opacity:1"
     d="m 16.504271,6.0842032 -2.532806,12.4691768 0.681915,0.974152 10.131204,1.315109 1.022852,-0.97416 -0.0487,-12.3717506 -0.633194,-0.8280333 -7.549697,-1.266399 z"
     id="path1206"
     inkscape:connector-curvature="0" />
  <path
     style="fill:#C6C7C7;fill-opacity:1;stroke:none;stroke-width:0.0974154px;stroke-linecap:butt;stroke-linejoin:miter;stroke-opacity:1"
     d="m 18.160327,7.5454315 5.698806,1.0228696 0.0487,10.1311979 -7.744531,-0.925442 z"
     id="path1208"
     inkscape:connector-curvature="0" />
  <path
     inkscape:connector-curvature="0"
     id="path1210"
     d="m 91.477018,123.507 -1.071564,-1.8509 -3.555659,2.67892 0.925441,-13.29721 -2.094426,0.0487 -0.974162,15.68389 1.217697,0.77933 z"
     style="fill:#71121c;fill-opacity:1;stroke:none;stroke-width:0.0974154px;stroke-linecap:butt;stroke-linejoin:miter;stroke-opacity:1" />
  <path
     inkscape:connector-curvature="0"
     id="path1212"
     d="m 79.494923,126.23462 2.532806,-12.46918 -0.681915,-0.97415 -10.131204,-1.31511 -1.022853,0.97416 0.0487,12.37176 0.633194,0.82803 7.549697,1.26639 z"
     style="fill:#71121c;fill-opacity:1;stroke:none;stroke-width:0.0974154px;stroke-linecap:butt;stroke-linejoin:miter;stroke-opacity:1" />
  <path
     inkscape:connector-curvature="0"
     id="path1215"
     d="m 77.838866,124.7734 -5.698806,-1.02288 -0.0487,-10.13119 7.744531,0.92544 z"
     style="fill:#C6C7C7;fill-opacity:1;stroke:none;stroke-width:0.0974154px;stroke-linecap:butt;stroke-linejoin:miter;stroke-opacity:1" />
</svg>
