<?xml version="1.0" encoding="UTF-8" standalone="no"?>
<!-- Created with Inkscape (http://www.inkscape.org/) -->

<svg
   xmlns:dc="http://purl.org/dc/elements/1.1/"
   xmlns:cc="http://creativecommons.org/ns#"
   xmlns:rdf="http://www.w3.org/1999/02/22-rdf-syntax-ns#"
   xmlns:svg="http://www.w3.org/2000/svg"
   xmlns="http://www.w3.org/2000/svg"
   xmlns:xlink="http://www.w3.org/1999/xlink"
   xmlns:sodipodi="http://sodipodi.sourceforge.net/DTD/sodipodi-0.dtd"
   xmlns:inkscape="http://www.inkscape.org/namespaces/inkscape"
   width="356"
   height="499"
   version="1.1"
   viewBox="0 0 94.192 132.03"
   id="svg60"
   sodipodi:docname="10_of_Spades.svg"
   inkscape:version="0.92.4 (5da689c313, 2019-01-14)">
  <sodipodi:namedview
     pagecolor="#ffffff"
     bordercolor="#666666"
     borderopacity="1"
     objecttolerance="10"
     gridtolerance="10"
     guidetolerance="10"
     inkscape:pageopacity="0"
     inkscape:pageshadow="2"
     inkscape:window-width="1920"
     inkscape:window-height="1017"
     id="namedview62"
     showgrid="false"
     inkscape:zoom="1.6993988"
     inkscape:cx="82.377948"
     inkscape:cy="249.5"
     inkscape:window-x="-8"
     inkscape:window-y="-8"
     inkscape:window-maximized="1"
     inkscape:current-layer="svg60" />
  <defs
     id="defs14">
    <linearGradient
       id="linearGradient1974-8">
      <stop
         stop-color="#565757"
         offset="0"
         id="stop2" />
      <stop
         stop-color="#373838"
         stop-opacity="0"
         offset="1"
         id="stop4" />
    </linearGradient>
    <radialGradient
       id="radialGradient3592"
       cx="487.83"
       cy="209.78"
       r="1.5552"
       gradientTransform="matrix(.27936 .48876 -.84722 .48424 90.647 -125.55)"
       gradientUnits="userSpaceOnUse"
       xlink:href="#linearGradient1974-8" />
    <radialGradient
       id="radialGradient1501"
       cx="161.11"
       cy="166.44"
       r="1.4032"
       gradientTransform="matrix(.33729 -.46589 6.8072 4.9282 -1131.7 -533.28)"
       gradientUnits="userSpaceOnUse"
       xlink:href="#linearGradient1974-8" />
    <radialGradient
       id="radialGradient1505"
       cx="138.44"
       cy="235.05"
       r="20.919"
       gradientTransform="matrix(-.21936 -.33921 .76301 -.49342 -116.23 436.51)"
       gradientUnits="userSpaceOnUse"
       xlink:href="#linearGradient1974-8" />
    <radialGradient
       id="radialGradient1509"
       cx="49.268"
       cy="149.25"
       r="6.7426"
       gradientTransform="matrix(1.1182 -.96539 3.3948 3.9322 -484.18 -349.72)"
       gradientUnits="userSpaceOnUse"
       xlink:href="#linearGradient1974-8" />
    <radialGradient
       id="radialGradient1513"
       cx="170.35"
       cy="66.049"
       r="12.035"
       gradientTransform="matrix(-.061902 -.85577 1.3958 -.10097 -57.474 327.71)"
       gradientUnits="userSpaceOnUse"
       xlink:href="#linearGradient1974-8" />
    <radialGradient
       id="radialGradient1519"
       cx="161.11"
       cy="166.44"
       r="1.4032"
       gradientTransform="matrix(-.57292 .050816 -.74249 -8.371 294.5 1665.5)"
       gradientUnits="userSpaceOnUse"
       xlink:href="#linearGradient1974-8" />
    <radialGradient
       id="radialGradient1523"
       cx="80.302"
       cy="225.63"
       r="5.5573"
       gradientTransform="matrix(.44679 -.57548 2.3219 1.8027 -476.37 -107.29)"
       gradientUnits="userSpaceOnUse"
       xlink:href="#linearGradient1974-8" />
    <radialGradient
       inkscape:collect="always"
       xlink:href="#linearGradient1974-8"
       id="radialGradient1505-8"
       gradientUnits="userSpaceOnUse"
       gradientTransform="matrix(-0.2193638,-0.33922068,0.76302634,-0.4934262,-89.02487,228.23489)"
       cx="138.43695"
       cy="235.05092"
       fx="138.43695"
       fy="235.05092"
       r="20.918684" />
    <radialGradient
       inkscape:collect="always"
       xlink:href="#linearGradient1974-8"
       id="radialGradient1501-6"
       gradientUnits="userSpaceOnUse"
       gradientTransform="matrix(0.33730093,-0.46590036,6.8073352,4.9283513,-1156.424,-694.58826)"
       cx="161.11455"
       cy="166.44328"
       fx="161.11455"
       fy="166.44328"
       r="1.40318" />
    <radialGradient
       inkscape:collect="always"
       xlink:href="#linearGradient1974-8"
       id="radialGradient3592-4"
       cx="487.82748"
       cy="209.77856"
       fx="487.82748"
       fy="209.77856"
       r="1.5551749"
       gradientTransform="matrix(0.27936242,0.48876949,-0.84723883,0.48425014,108.17703,-285.56925)"
       gradientUnits="userSpaceOnUse" />
    <radialGradient
       inkscape:collect="always"
       xlink:href="#linearGradient1974-8"
       id="radialGradient1509-8"
       gradientUnits="userSpaceOnUse"
       gradientTransform="matrix(1.1182441,-0.9654142,3.3949009,3.9323306,-486.06155,-500.19064)"
       cx="49.268208"
       cy="149.24762"
       fx="49.268208"
       fy="149.24762"
       r="6.742619" />
    <radialGradient
       inkscape:collect="always"
       xlink:href="#linearGradient1974-8"
       id="radialGradient1519-1"
       gradientUnits="userSpaceOnUse"
       gradientTransform="matrix(-0.45131261,-0.35658375,5.2100954,-6.5941918,-775.407,1268.1513)"
       cx="161.11455"
       cy="166.44328"
       fx="161.11455"
       fy="166.44328"
       r="1.40318" />
    <radialGradient
       inkscape:collect="always"
       xlink:href="#linearGradient1974-8"
       id="radialGradient1513-3"
       gradientUnits="userSpaceOnUse"
       gradientTransform="matrix(-0.06190355,-0.85578423,1.3958591,-0.10097014,-29.225593,193.2323)"
       cx="170.35481"
       cy="66.048706"
       fx="170.35481"
       fy="66.048706"
       r="12.034579" />
    <radialGradient
       inkscape:collect="always"
       xlink:href="#linearGradient1974-8"
       id="radialGradient1523-8"
       gradientUnits="userSpaceOnUse"
       gradientTransform="matrix(0.44680138,-0.5754964,2.3219339,1.8026929,-540.14377,-337.27024)"
       cx="80.301682"
       cy="225.62547"
       fx="80.301682"
       fy="225.62547"
       r="5.5573373" />
  </defs>
  <metadata
     id="metadata16">
    <rdf:RDF>
      <cc:Work
         rdf:about="">
        <dc:format>image/svg+xml</dc:format>
        <dc:type
           rdf:resource="http://purl.org/dc/dcmitype/StillImage" />
        <dc:title />
      </cc:Work>
    </rdf:RDF>
  </metadata>
  <path
     sodipodi:nodetypes="ccccccccccccccccccccccccccccccccccccc"
     inkscape:connector-curvature="0"
     id="path1497"
     d="M 4.7218762,1.1898352 14.710187,2.085135 25.774452,1.1898352 36.480058,0.29454543 46.827007,1.1898352 H 57.353289 L 67.700248,2.085135 78.405845,1.1898352 H 88.93213 l 4.30375,4.297355 V 20.619145 35.751109 l -0.896614,16.74345 0.896614,13.520459 0.89659,17.280616 -0.89659,12.983297 -0.537981,16.385339 0.717295,11.90897 -4.483064,6.26696 H 78.405845 l -10.705597,-0.8953 -10.346959,0.8953 H 46.827007 L 36.12139,131.73545 25.774452,130.8402 H 15.248159 L 6.6944198,130.30302 0.41814083,126.54285 0.0595029,113.02237 2.2113505,96.816093 0.41814083,81.146956 V 66.015018 50.883063 L 1.4940446,35.930163 0.41814083,20.619145 V 5.4871902 Z"
     style="fill:#8e8f8f;fill-opacity:1;stroke:#000006;stroke-width:0.55563727;stroke-miterlimit:4;stroke-dasharray:none;stroke-opacity:1" />
  <path
     style="fill:#000000;fill-opacity:1;stroke:none;stroke-width:0.88009953;stroke-linecap:butt;stroke-linejoin:miter;stroke-miterlimit:4;stroke-dasharray:none;stroke-opacity:1"
     d="m 19.924972,26.412993 3.652781,-5.343878 2.908684,-4.599792 1.217597,-1.691087 1.555805,2.164607 3.990998,5.140934 2.841043,4.599792 0.0677,2.502825 -1.35288,2.164608 -2.164608,1.082294 h -2.029324 l -1.488173,-1.35287 0.0677,-0.744087 -0.135223,2.029315 0.947011,1.149956 1.014652,0.811718 -5.952661,-0.202925 1.555814,-1.285238 0.405869,-1.488163 -0.47351,-0.541162 -1.217597,1.420531 -1.961673,0.0677 c 0,0 -2.029325,-0.947011 -2.299901,-1.082314 -0.270566,-0.135223 -1.894032,-2.299881 -1.894032,-2.570467 0,-0.270576 0.744096,-2.232239 0.744096,-2.232239 z"
     id="path1487"
     inkscape:connector-curvature="0" />
  <path
     inkscape:connector-curvature="0"
     id="path1491"
     d="m 4.8720096,28.515769 2.0726658,-3.032207 1.6504465,-2.610028 0.6908853,-0.959551 0.8827798,1.228237 2.26458,2.917055 1.612065,2.610027 0.0383,1.420152 -0.767647,1.228237 -1.228237,0.614114 h -1.151465 l -0.844439,-0.767647 0.0383,-0.4222 -0.0767,1.151466 0.537352,0.652504 0.575733,0.46059 -3.3776649,-0.115122 0.8828095,-0.729256 0.2302951,-0.844439 -0.2686859,-0.307067 -0.6908853,0.806058 -1.1130847,0.0383 c 0,0 -1.1514854,-0.537372 -1.3049988,-0.614134 -0.1535334,-0.0767 -1.0747238,-1.304989 -1.0747238,-1.458522 0,-0.153533 0.4222094,-1.266638 0.4222094,-1.266638 z"
     style="fill:#000000;fill-opacity:1;stroke:none;stroke-width:0.49938565;stroke-linecap:butt;stroke-linejoin:miter;stroke-miterlimit:4;stroke-dasharray:none;stroke-opacity:1" />
  <path
     inkscape:connector-curvature="0"
     id="path1493"
     d="m 34.802807,104.31153 -3.652771,5.34387 -2.908684,4.5998 -1.217597,1.6911 -1.555814,-2.16461 -3.990988,-5.14095 -2.841053,-4.59979 -0.0677,-2.50283 1.35288,-2.164601 2.164598,-1.082304 h 2.029335 l 1.488163,1.35288 -0.0677,0.744075 0.135223,-2.029313 -0.947011,-1.149946 -1.014662,-0.811728 5.952671,0.202925 -1.555814,1.285238 -0.405869,1.488173 0.473511,0.541152 1.217597,-1.420531 1.961663,-0.0677 c 0,0 2.029335,0.947011 2.299911,1.082304 0.270556,0.135233 1.894022,2.299896 1.894022,2.570466 0,0.27058 -0.744087,2.23226 -0.744087,2.23226 z"
     style="fill:#000000;fill-opacity:1;stroke:none;stroke-width:0.88009953;stroke-linecap:butt;stroke-linejoin:miter;stroke-miterlimit:4;stroke-dasharray:none;stroke-opacity:1" />
  <path
     style="fill:#000000;fill-opacity:1;stroke:none;stroke-width:0.52187294;stroke-linecap:butt;stroke-linejoin:miter;stroke-miterlimit:4;stroke-dasharray:none;stroke-opacity:1"
     d="m 90.177598,103.85039 -2.166008,3.16875 -1.724758,2.72755 -0.721996,1.00275 -0.922563,-1.28354 -2.366533,-3.04842 -1.684657,-2.72753 -0.0401,-1.48411 0.802218,-1.28355 1.283538,-0.64175 h 1.203337 l 0.882439,0.80221 -0.0401,0.44121 0.0801,-1.20332 -0.561552,-0.681905 -0.601664,-0.481311 3.529761,0.120333 -0.92255,0.762103 -0.240655,0.88244 0.280766,0.3209 0.721996,-0.84234 1.163216,-0.0401 c 0,0 1.203326,0.56155 1.36376,0.64178 0.160453,0.0801 1.123115,1.36376 1.123115,1.5242 0,0.16043 -0.44121,1.32366 -0.44121,1.32366 z"
     id="path1495"
     inkscape:connector-curvature="0" />
  <path
     style="fill:#000000;fill-opacity:1;stroke:none;stroke-width:0.88009953;stroke-linecap:butt;stroke-linejoin:miter;stroke-miterlimit:4;stroke-dasharray:none;stroke-opacity:1"
     d="m 39.406046,41.907825 3.652771,-5.343868 2.908684,-4.599792 1.217597,-1.691097 1.555814,2.164608 3.990988,5.140933 2.841053,4.599792 0.0677,2.502835 -1.35288,2.164598 -2.164598,1.082304 H 50.09384 l -1.488163,-1.35288 0.0677,-0.744076 -0.135223,2.029315 0.947011,1.149945 1.014662,0.811725 -5.952672,-0.202922 1.555815,-1.285238 0.405869,-1.488173 -0.473511,-0.541152 -1.217597,1.420532 -1.961663,0.0677 c 0,0 -2.029335,-0.947011 -2.299911,-1.082304 -0.270556,-0.135233 -1.894022,-2.299891 -1.894022,-2.570467 0,-0.270586 0.744087,-2.232249 0.744087,-2.232249 z"
     id="path1060"
     inkscape:connector-curvature="0" />
  <path
     style="fill:url(#radialGradient1505-8);fill-opacity:1;stroke:#b1b2b2;stroke-width:0.0634308;stroke-linecap:butt;stroke-linejoin:miter;stroke-miterlimit:4;stroke-dasharray:none;stroke-opacity:1"
     d="m 50.342902,72.208243 c 0.159503,-0.210765 5.724576,-3.675632 5.936701,-3.833315 0.212104,-0.157654 5.987742,-3.410165 5.987742,-3.410165 l 6.426032,-7.002755 3.811724,-1.358 -3.863215,1.040623 -2.017705,2.105726 -3.878145,4.52927 -6.410852,3.461227 -8.907217,6.252084 z"
     id="path1503"
     inkscape:connector-curvature="0" />
  <path
     style="fill:#000000;fill-opacity:1;stroke:none;stroke-width:0.88009953;stroke-linecap:butt;stroke-linejoin:miter;stroke-miterlimit:4;stroke-dasharray:none;stroke-opacity:1"
     d="m 73.531017,104.31153 -3.652771,5.34387 -2.908684,4.5998 -1.217597,1.6911 -1.555814,-2.16461 -3.990993,-5.14095 -2.841052,-4.59979 -0.0677,-2.50283 1.35288,-2.164601 2.164598,-1.082304 h 2.029335 l 1.488167,1.35288 -0.0677,0.744075 0.135223,-2.029313 -0.947011,-1.149946 -1.014666,-0.811728 5.952675,0.202925 -1.555814,1.285238 -0.405869,1.488173 0.47351,0.541152 1.217597,-1.420531 1.961664,-0.0677 c 0,0 2.029335,0.947011 2.299911,1.082304 0.270556,0.135233 1.894021,2.299896 1.894021,2.570466 0,0.27058 -0.744086,2.23226 -0.744086,2.23226 z"
     id="path1167"
     inkscape:connector-curvature="0" />
  <path
     inkscape:connector-curvature="0"
     id="path1169"
     d="m 57.343529,26.412993 3.652781,-5.343878 2.908684,-4.599792 1.217597,-1.691087 1.555805,2.164607 3.990998,5.140934 2.841043,4.599792 0.0677,2.502825 -1.35288,2.164608 -2.164608,1.082294 h -2.029325 l -1.488172,-1.35287 0.0677,-0.744087 -0.135223,2.029315 0.947011,1.149956 1.014652,0.811718 -5.952661,-0.202925 1.555814,-1.285238 0.405869,-1.488163 -0.47351,-0.541162 -1.217597,1.420531 -1.961674,0.0677 c 0,0 -2.029324,-0.947011 -2.2999,-1.082314 -0.270566,-0.135223 -1.894032,-2.299881 -1.894032,-2.570467 0,-0.270576 0.744096,-2.232239 0.744096,-2.232239 z"
     style="fill:#000000;fill-opacity:1;stroke:none;stroke-width:0.88009953;stroke-linecap:butt;stroke-linejoin:miter;stroke-miterlimit:4;stroke-dasharray:none;stroke-opacity:1" />
  <path
     inkscape:connector-curvature="0"
     id="path995"
     d="m 20.114791,49.927559 3.65277,-5.343868 2.908685,-4.599791 1.217596,-1.691098 1.555815,2.164608 3.990988,5.140934 2.841053,4.599791 0.0677,2.502836 -1.35288,2.164597 -2.164597,1.082304 h -2.029335 l -1.488163,-1.35288 0.0677,-0.744076 -0.135223,2.029315 0.947011,1.149945 1.014663,0.811728 -5.952672,-0.202924 1.555815,-1.285239 0.405868,-1.488173 -0.47351,-0.541152 -1.217597,1.420532 -1.961663,0.0677 c 0,0 -2.029335,-0.947011 -2.299911,-1.082304 -0.270556,-0.135233 -1.894022,-2.29989 -1.894022,-2.570466 0,-0.270586 0.744087,-2.23225 0.744087,-2.23225 z"
     style="fill:#000000;fill-opacity:1;stroke:none;stroke-width:0.88009953;stroke-linecap:butt;stroke-linejoin:miter;stroke-miterlimit:4;stroke-dasharray:none;stroke-opacity:1" />
  <path
     style="fill:url(#radialGradient1501-6);fill-opacity:1;stroke:#b1b2b2;stroke-width:0.0792885;stroke-linecap:butt;stroke-linejoin:miter;stroke-miterlimit:4;stroke-dasharray:none;stroke-dashoffset:0;stroke-opacity:1"
     d="m 25.692065,46.749446 2.530576,1.81928 2.105856,0.602434 1.525184,1.435441 0.829508,0.527892 2.077066,1.769719 c 0,0 2.062846,1.956193 2.150678,2.082816 0.0879,0.126683 3.468806,2.790272 3.468806,2.790272 L 37.487145,55.690624 34.53483,53.501935 31.722858,51.833698 c 0,0 -0.930861,-1.660136 -1.071424,-1.783279 -0.140723,-0.122933 -2.27429,-1.147525 -2.485255,-1.133585 -0.210894,0.0145 -3.967977,-3.128069 -3.967977,-3.128069 l -2.667509,-2.286901 z"
     id="path1499"
     inkscape:connector-curvature="0" />
  <path
     inkscape:connector-curvature="0"
     id="path3582"
     d="m 64.927583,73.907866 c 0,0 0.037,0.831869 0.0183,0.979762 -0.0183,0.147823 -0.0183,1.737668 -0.0183,1.737668 l 0.184824,-1.737668 -0.0555,-1.016723 0.0142,-0.600783 -0.0414,-0.0831 z"
     style="display:inline;fill:#0d0d0d;fill-opacity:0;stroke:#b1b2b2;stroke-width:0.03137152;stroke-linecap:butt;stroke-linejoin:miter;stroke-miterlimit:4;stroke-dasharray:none;stroke-opacity:1" />
  <path
     inkscape:connector-curvature="0"
     id="path3584"
     d="m 65.841503,55.280941 0.221815,-0.378949 0.425199,-0.4714 0.817988,-0.43903 0.341978,-0.147823 -0.355838,0.203344 -0.522221,0.485261 -0.360468,0.124843 c 0,0 -0.254176,0.240305 -0.281917,0.263406 -0.0277,0.0232 -0.258815,0.46215 -0.258815,0.46215 z"
     style="display:inline;fill:url(#radialGradient3592-4);fill-opacity:1;stroke:#b1b2b2;stroke-width:0.03137152;stroke-linecap:butt;stroke-linejoin:miter;stroke-miterlimit:4;stroke-dasharray:none;stroke-opacity:1" />
  <path
     style="fill:#000000;fill-opacity:1;stroke:none;stroke-width:0.88009953;stroke-linecap:butt;stroke-linejoin:miter;stroke-miterlimit:4;stroke-dasharray:none;stroke-opacity:1"
     d="m 57.408674,49.779848 3.65278,-5.343878 2.908685,-4.599792 1.217597,-1.691087 1.555804,2.164608 3.990998,5.140933 2.841043,4.599792 0.0677,2.502825 -1.352879,2.164608 -2.164608,1.082294 H 68.09647 l -1.488173,-1.35287 0.0677,-0.744086 -0.135222,2.029315 0.94701,1.149955 1.014653,0.811718 -5.952662,-0.202925 1.555815,-1.285238 0.405869,-1.488163 -0.473511,-0.541162 -1.217597,1.420532 -1.961673,0.0677 c 0,0 -2.029325,-0.947011 -2.299901,-1.082314 -0.270566,-0.135223 -1.894032,-2.299881 -1.894032,-2.570467 0,-0.270576 0.744097,-2.232239 0.744097,-2.232239 z"
     id="path1103"
     inkscape:connector-curvature="0" />
  <path
     style="fill:url(#radialGradient1509-8);fill-opacity:1;stroke:#b1b2b2;stroke-width:0.0634308;stroke-linecap:butt;stroke-linejoin:miter;stroke-miterlimit:4;stroke-dasharray:none;stroke-opacity:1"
     d="m 76.160546,35.613382 5.019301,5.854539 c 0,0 2.26034,7.972687 3.191821,9.50785 0.93145,1.535164 0.878809,8.56342 1.108714,9.290276 0.229885,0.726856 0.407709,1.82383 0.407709,1.82383 l 2.092416,-0.385068 -1.248027,-0.251066 -0.825799,-0.569113 -0.140573,-3.507427 0.0995,-5.85912 -3.461467,-7.054605 -1.431462,-3.990979 -2.72485,-3.704902 c 0,0 -4.898728,-2.848162 -6.166846,-3.600309 -1.268088,-0.752127 -7.432774,-9.304256 -7.432774,-9.304256 l -4.832207,-5.360188 2.327931,2.984746 6.927633,8.387735 3.803274,4.732295 3.531649,1.297018 z"
     id="path1507"
     inkscape:connector-curvature="0" />
  <path
     style="fill:url(#radialGradient1519-1);fill-opacity:1;stroke:#b1b2b2;stroke-width:0.0792885;stroke-linecap:butt;stroke-linejoin:miter;stroke-miterlimit:4;stroke-dasharray:none;stroke-dashoffset:0;stroke-opacity:1"
     d="m 14.957625,118.23652 1.924022,-2.45189 0.690405,-2.07866 1.498243,-1.46354 0.562293,-0.80658 1.855481,-2.00084 c 0,0 2.041155,-1.9788 2.171358,-2.06124 0.130243,-0.0825 2.933605,-3.34846 2.933605,-3.34846 l -2.206419,2.80233 -2.310831,2.85773 -1.78494,2.73938 c 0,0 -1.697787,0.86026 -1.82673,0.99552 -0.128763,0.13538 -1.242107,2.22405 -1.237037,2.43541 0.005,0.21129 -3.292063,3.833 -3.292063,3.833 l -2.396993,2.56903 z"
     id="path1517"
     inkscape:connector-curvature="0" />
  <path
     inkscape:connector-curvature="0"
     id="path1030"
     d="m 73.276968,79.724765 -3.65278,5.343868 -2.908685,4.599792 -1.217597,1.691087 -1.555804,-2.164608 -3.990998,-5.140934 -2.841043,-4.599781 -0.0677,-2.502825 1.352879,-2.164608 2.164608,-1.082294 h 2.029325 l 1.488173,1.35287 -0.0677,0.744086 0.135223,-2.029315 -0.947011,-1.149954 -1.014653,-0.811718 5.952662,0.202924 -1.555815,1.285238 -0.405869,1.488163 0.473511,0.541162 1.217597,-1.420532 1.961673,-0.0677 c 0,0 2.029325,0.947011 2.299901,1.082314 0.270566,0.135223 1.894032,2.29988 1.894032,2.570466 0,0.270576 -0.744097,2.23224 -0.744097,2.23224 z"
     style="fill:#000000;fill-opacity:1;stroke:none;stroke-width:0.88009953;stroke-linecap:butt;stroke-linejoin:miter;stroke-miterlimit:4;stroke-dasharray:none;stroke-opacity:1" />
  <path
     style="fill:#000000;fill-opacity:1;stroke:none;stroke-width:0.88009953;stroke-linecap:butt;stroke-linejoin:miter;stroke-miterlimit:4;stroke-dasharray:none;stroke-opacity:1"
     d="m 34.361665,79.724765 -3.65278,5.343868 -2.908685,4.599792 -1.217597,1.691087 -1.555804,-2.164608 -3.990998,-5.140934 -2.841043,-4.599781 -0.0677,-2.502825 1.352879,-2.164608 2.164608,-1.082294 h 2.029325 l 1.488173,1.35287 -0.0677,0.744086 0.135223,-2.029315 -0.947011,-1.149954 -1.014653,-0.811718 5.952662,0.202924 -1.555815,1.285238 -0.405869,1.488163 0.473511,0.541162 1.217597,-1.420532 1.961673,-0.0677 c 0,0 2.029325,0.947011 2.299901,1.082314 0.270566,0.135223 1.894032,2.29988 1.894032,2.570466 0,0.270576 -0.744097,2.23224 -0.744097,2.23224 z"
     id="path1249"
     inkscape:connector-curvature="0" />
  <path
     style="fill:#000000;fill-opacity:1;stroke:none;stroke-width:0.88009953;stroke-linecap:butt;stroke-linejoin:miter;stroke-miterlimit:4;stroke-dasharray:none;stroke-opacity:1"
     d="m 54.646996,92.140429 -3.652771,5.343868 -2.908684,4.599803 -1.217597,1.6911 -1.555815,-2.16461 -3.990988,-5.140945 -2.841053,-4.599792 -0.0677,-2.502835 1.35288,-2.164598 2.164598,-1.082304 H 43.9592 l 1.488163,1.35288 -0.0677,0.744076 0.135223,-2.029314 -0.947011,-1.149946 -1.014663,-0.811728 5.952672,0.202925 -1.555814,1.285238 -0.405869,1.488173 0.47351,0.541152 1.217597,-1.420531 1.961663,-0.0677 c 0,0 2.029335,0.947011 2.299911,1.082304 0.270556,0.135233 1.894022,2.299901 1.894022,2.570467 0,0.270586 -0.744086,2.232259 -0.744086,2.232259 z"
     id="path1138"
     inkscape:connector-curvature="0" />
  <path
     style="fill:url(#radialGradient1513-3);fill-opacity:1;stroke:#b1b2b2;stroke-width:0.11100388;stroke-linecap:butt;stroke-linejoin:miter;stroke-miterlimit:4;stroke-dasharray:none;stroke-opacity:1"
     d="m 34.880925,41.681259 3.218721,-0.106882 c 0,0 3.881496,-0.642735 4.157792,-0.478271 0.276356,0.164324 4.651953,1.019213 4.651953,1.019213 l 7.752171,-1.403111 7.416584,-2.725391 1.697527,-0.364338 -1.906122,-0.191484 -1.551644,0.648724 -5.285077,2.031615 -4.856547,1.035293 -3.317743,0.792688 -2.151458,-0.758527 -3.386225,-0.678205 -3.699052,0.844639 z"
     id="path1511"
     inkscape:connector-curvature="0" />
  <path
     inkscape:connector-curvature="0"
     id="path1168"
     d="M 2.3730202,9.2661237 3.4445871,11.117018 7.0002491,8.4380984 6.0748035,21.7353 8.1692345,21.686629 9.143391,6.0027476 7.9256991,5.2234244 Z"
     style="fill:#000000;fill-opacity:1;stroke:none;stroke-width:0.0974154px;stroke-linecap:butt;stroke-linejoin:miter;stroke-opacity:1" />
  <path
     inkscape:connector-curvature="0"
     id="path1170"
     d="m 14.355116,6.5384954 -2.532802,12.4691766 0.681907,0.974153 10.131205,1.315109 1.02286,-0.974161 L 23.609576,7.9510226 22.976377,7.1229893 15.42668,5.8565903 Z"
     style="fill:#000000;fill-opacity:1;stroke:none;stroke-width:0.0974154px;stroke-linecap:butt;stroke-linejoin:miter;stroke-opacity:1" />
  <path
     inkscape:connector-curvature="0"
     id="path1172"
     d="m 16.011175,7.9997237 5.698804,1.0228696 0.04871,10.1311977 -7.744527,-0.925442 z"
     style="fill:#8e8f8f;fill-opacity:1;stroke:none;stroke-width:0.0974154px;stroke-linecap:butt;stroke-linejoin:miter;stroke-opacity:1" />
  <path
     style="fill:url(#radialGradient1523-8);fill-opacity:1;stroke:#b1b2b2;stroke-width:0.0792885;stroke-linecap:butt;stroke-linejoin:miter;stroke-miterlimit:4;stroke-dasharray:none;stroke-opacity:1"
     d="m 15.181668,17.482435 c 0,0 3.415056,2.643989 3.920777,3.081378 0.505721,0.43736 6.696838,6.719736 6.696838,6.719736 l 1.116725,2.437294 0.404979,1.194086 -0.841819,-0.978041 -0.409109,-1.713318 -1.504863,-1.80149 -4.282325,-4.281632 -2.387473,-0.798987 -2.647958,-2.774442 c 0,0 -3.418256,-2.534286 -3.744703,-2.644698 -0.326417,-0.110343 3.678931,1.560114 3.678931,1.560114 z"
     id="path1521"
     inkscape:connector-curvature="0" />
  <path
     style="fill:#000000;fill-opacity:1;stroke:none;stroke-width:0.0974154px;stroke-linecap:butt;stroke-linejoin:miter;stroke-opacity:1"
     d="m 90.450417,124.52255 -1.071568,-1.85089 -3.555661,2.67892 0.925445,-13.2972 -2.094431,0.0487 -0.974157,15.68388 1.217692,0.77932 z"
     id="path1174"
     inkscape:connector-curvature="0" />
  <path
     style="fill:#000000;fill-opacity:1;stroke:none;stroke-width:0.0974154px;stroke-linecap:butt;stroke-linejoin:miter;stroke-opacity:1"
     d="m 78.46832,127.25019 2.532802,-12.46918 -0.681907,-0.97416 -10.131205,-1.31511 -1.022859,0.97416 0.04871,12.37175 0.633199,0.82804 7.549696,1.2664 z"
     id="path1176"
     inkscape:connector-curvature="0" />
  <path
     style="fill:#8e8f8f;fill-opacity:1;stroke:none;stroke-width:0.0974154px;stroke-linecap:butt;stroke-linejoin:miter;stroke-opacity:1"
     d="m 76.812261,125.78895 -5.698803,-1.02287 -0.04871,-10.13119 7.744528,0.92544 z"
     id="path1178"
     inkscape:connector-curvature="0" />
</svg>
