<?xml version="1.0" encoding="UTF-8"?>
<!-- Created with Inkscape (http://www.inkscape.org/) -->
<svg width="356" height="499" version="1.1" viewBox="0 0 94.192 132.03" xmlns="http://www.w3.org/2000/svg" xmlns:cc="http://creativecommons.org/ns#" xmlns:dc="http://purl.org/dc/elements/1.1/" xmlns:osb="http://www.openswatchbook.org/uri/2009/osb" xmlns:rdf="http://www.w3.org/1999/02/22-rdf-syntax-ns#" xmlns:xlink="http://www.w3.org/1999/xlink">
 <defs>
  <linearGradient id="linearGradient1974-8">
   <stop stop-color="#565757" offset="0"/>
   <stop stop-color="#373838" stop-opacity="0" offset="1"/>
  </linearGradient>
  <radialGradient id="radialGradient1360" cx="161.11" cy="166.44" r="1.4032" gradientTransform="matrix(-.56671 .050266 -.73444 -8.2803 232.39 1566.7)" gradientUnits="userSpaceOnUse" xlink:href="#linearGradient1974-8"/>
  <radialGradient id="radialGradient1362" cx="49.268" cy="149.25" r="6.7426" gradientTransform="matrix(1.1061 -.95493 3.358 3.8896 -535.57 -262.42)" gradientUnits="userSpaceOnUse" xlink:href="#linearGradient1974-8"/>
  <radialGradient id="radialGradient1364" cx="138.44" cy="235.05" r="20.919" gradientTransform="matrix(-.21698 -.33554 .75474 -.48807 -86.448 353.66)" gradientUnits="userSpaceOnUse" xlink:href="#linearGradient1974-8"/>
  <radialGradient id="radialGradient1366" cx="170.35" cy="66.049" r="12.035" gradientTransform="matrix(-.76799 .36121 -.58917 -1.2527 218.68 267.26)" gradientUnits="userSpaceOnUse" xlink:href="#linearGradient1974-8"/>
  <radialGradient id="radialGradient1368" cx="80.302" cy="225.63" r="5.5573" gradientTransform="matrix(.44195 -.56924 2.2967 1.7831 -470.29 -181.19)" gradientUnits="userSpaceOnUse" xlink:href="#linearGradient1974-8"/>
  <radialGradient id="radialGradient1370" cx="210.08" cy="90.623" r=".46312" gradientTransform="matrix(.59283 0 0 4.8358 -101.8 -246.45)" gradientUnits="userSpaceOnUse" xlink:href="#linearGradient1974-8"/>
 </defs>
 <metadata>
  <rdf:RDF>
   <cc:Work rdf:about="">
    <dc:format>image/svg+xml</dc:format>
    <dc:type rdf:resource="http://purl.org/dc/dcmitype/StillImage"/>
    <dc:title/>
   </cc:Work>
  </rdf:RDF>
 </metadata>
 <g transform="translate(0 -164.97)">
  <g>
   <path d="m5.1821 166.87 9.8798 0.88556 10.944-0.88556 10.589-0.88556 10.235 0.88556h10.412l10.235 0.88556 10.589-0.88556h10.412l4.257 4.2507v29.935l-0.88688 16.562 0.88688 13.374 0.88686 17.093-0.88686 12.842-0.53213 16.207 0.70951 11.78-4.4344 6.1989h-10.412l-10.589-0.88556-10.235 0.88556h-10.412l-10.589 0.88554-10.235-0.88554h-10.412l-8.4608-0.53134-6.2081-3.7193-0.35475-13.374 2.1285-16.03-1.7737-15.499v-29.935l1.0642-14.79-1.0642-15.145v-14.968z" fill="#8e8f8f" stroke="#00000a" stroke-width=".55563"/>
   <g stroke="#b1b2b2">
    <path d="m19.355 203.08-0.2826-3.0698-0.91587-1.9634 0.0828-2.07-0.14375-0.96189-0.0254-2.699s0.12301-2.8093 0.16062-2.957c0.0376-0.14782-0.16591-4.4003-0.16591-4.4003l0.31767 3.5136 0.28021 3.6244 0.5779 3.182s-0.63611 1.7719-0.6369 1.9567c-5.9e-4 0.18481 0.61803 2.4427 0.76528 2.5913 0.1472 0.14842 0.23739 4.9921 0.23739 4.9921l0.0222 3.4754z" fill="url(#radialGradient1360)" stroke-width=".078427"/>
    <path d="m20.542 267.56 4.9648 5.7909s2.2358 7.8861 3.1572 9.4046c0.92132 1.5185 0.86925 8.4704 1.0967 9.1894 0.2274 0.71896 0.40329 1.804 0.40329 1.804l2.0697-0.38088-1.2345-0.24833-0.81685-0.56293-0.13915-3.4693 0.0985-5.7955-3.4238-6.978-1.4159-3.9476-2.6953-3.6647s-4.8455-2.8172-6.0998-3.5612c-1.2543-0.74396-7.352-9.2032-7.352-9.2032l-4.7797-5.302 2.3026 2.9523 6.8524 8.2966 3.762 4.6809 3.4933 1.2829z" fill="url(#radialGradient1362)" stroke-width=".062742"/>
    <path d="m51.406 199.33c0.15778-0.20846 5.6624-3.6357 5.8722-3.7916 0.20981-0.15595 5.9227-3.3731 5.9227-3.3731l6.3562-6.9267 3.7703-1.3432-3.8212 1.0293-1.9958 2.0828-3.836 4.4801-6.3412 3.4236-8.8104 6.1842z" fill="url(#radialGradient1364)" stroke-width=".062742"/>
    <path d="m56 261.93-1.2423-2.9333s-1.9724-3.3547-1.9188-3.6682c0.0537-0.31348-0.71203-4.6564-0.71203-4.6564l-4.0497-6.6576-5.151-5.878-0.93948-1.4376 0.50051 1.8276 1.1502 1.2019 3.7532 4.1569 2.6813 4.1153 1.9106 2.781 0.0642 2.2555 0.57711 3.3669 2.094 3.1146z" fill="url(#radialGradient1366)" stroke-width=".1098"/>
    <path d="m79.003 169.71s3.3779 2.6153 3.8782 3.0479c0.50024 0.43261 6.6241 6.6467 6.6241 6.6467l1.1046 2.4108 0.40058 1.1811-0.83268-0.96742-0.40465-1.6947-1.4885-1.7819-4.2358-4.2351-2.3615-0.79031-2.6192-2.7443s-3.3811-2.5068-3.704-2.616c-0.32287-0.10919 3.639 1.5432 3.639 1.5432z" fill="url(#radialGradient1368)" stroke-width=".078427"/>
   </g>
   <path d="m22.708 194.02 0.11101-1.5158-0.33273-2.9577 0.51759 2.2922z" fill="url(#radialGradient1370)" stroke="#7d7f7f" stroke-width=".031371"/>
   <path d="m27.947 183.62s1.2598-1.493 1.3997-1.6797c0.13988-0.18665 2.3328-1.0265 2.3328-1.0265l2.1929 0.32662 2.2396 1.9129 0.6532 1.773-0.46658 2.5662-1.8196 2.9861-2.6595 4.1992-3.9192 5.2256-1.5397-1.8196-2.4728-3.6393s-2.0529-2.2396-2.0996-2.4262c-0.0468-0.18664-2.1462-3.2194-2.1462-3.2194s-1.0265-2.2862-1.0265-2.4728c0-0.18665 0.41991-2.3329 0.41991-2.3329l1.3064-1.9596 1.9596-0.79317s1.633 0 1.913 0.0468c0.27993 0.0468 1.8663 0.79317 1.8663 0.79317l1.2131 1.8196z" fill="#71121c"/>
   <path d="m26.75 188.37c0 0.14781-0.33274 1.1461-0.33274 1.1461l-0.85034 1.294-0.96124 0.96124 1.1461-0.99822s0.59154-0.59152 0.66548-0.73942c0.074-0.14781 0.33274-0.88728 0.33274-0.88728z" fill="#570e15" stroke="#b41c2d" stroke-width=".015685"/>
   <path d="m31.988 185.63-0.40668 1.22-0.88731 1.0352-0.96124 1.4788-0.51759 1.8855-0.99822 1.257 1.7007-2.1074 0.18482-1.0722 0.36972-0.81334 0.6285-0.81336 0.73941-0.92428z" fill="#570e15" stroke="#b41c2d" stroke-width=".015685"/>
   <path d="m9.37 190.43s0.68295-0.80942 0.75883-0.91059c0.0758-0.10125 1.2647-0.55647 1.2647-0.55647l1.1888 0.1771 1.2141 1.0371 0.35412 0.96117-0.25293 1.3912-0.98647 1.6188-1.4418 2.2765-2.1247 2.833-0.83471-0.98649-1.3406-1.9729s-1.1129-1.2141-1.1382-1.3153c-0.0254-0.10105-1.1635-1.7453-1.1635-1.7453s-0.55647-1.2394-0.55647-1.3406c0-0.10125 0.22764-1.2647 0.22764-1.2647l0.70824-1.0624 1.0624-0.43s0.88529 0 1.0371 0.0254c0.15168 0.0254 1.0118 0.42998 1.0118 0.42998l0.65764 0.98649z" fill="#71121c"/>
   <path d="m10.24 193.16v0.88884l-0.26143 1.4378 0.39215-1.1503 0.0785-0.78426z" fill="#570e15" stroke="#b41c2d" stroke-width=".015685"/>
   <path d="m64.88 278.24s-1.2144 1.4393-1.3494 1.6192c-0.1348 0.17993-2.2488 0.98951-2.2488 0.98951l-2.114-0.31484-2.1589-1.8441-0.6297-1.7091 0.4498-2.4738 1.7541-2.8786 2.5637-4.048 3.7781-5.0375 1.4843 1.7542 2.3838 3.5082s1.979 2.159 2.024 2.3389c0.0449 0.17994 2.069 3.1035 2.069 3.1035s0.9895 2.2039 0.9895 2.3838c0 0.17994-0.40477 2.2489-0.40477 2.2489l-1.2594 1.8891-1.8891 0.76462s-1.5742 0-1.8441-0.0451c-0.26985-0.0451-1.7991-0.76463-1.7991-0.76463l-1.1694-1.7542z" fill="#71121c"/>
   <path d="m84.479 271.5s-0.66671 0.84522-0.7408 0.95088c-0.074 0.10553-1.2346 0.58107-1.2346 0.58107l-1.1606-0.18482-1.1852-1.0829-0.34573-1.0037 0.24695-1.4527 0.96301-1.6904 1.4075-2.3772 2.0742-2.9583 0.81484 1.0301 1.3087 2.0602s1.0864 1.2679 1.1112 1.3735c0.0246 0.10552 1.1359 1.8225 1.1359 1.8225s0.54325 1.2942 0.54325 1.3998c0 0.10553-0.22224 1.3207-0.22224 1.3207l-0.69139 1.1094-1.0371 0.44901s-0.86425 0-1.0124-0.0264c-0.14822-0.0264-0.98769-0.44903-0.98769-0.44903l-0.64202-1.0301z" fill="#71121c"/>
   <path d="m64.219 270.9-0.36598 1.1764-1.2026 1.5686s-1.464 2.013-1.4901 2.1698c-0.0262 0.15676 0.39214 2.013 0.33985 2.2221-0.0523 0.20916 0.23529-0.28755 0.23529-0.28755l-0.26143-0.65358-0.13071-1.1503s0.41826-0.83656 0.49669-0.96725c0.0784-0.13074 1.5163-1.5947 1.5163-1.5947s0.91498-1.3855 0.91498-1.4901c0-0.10451-0.0523-0.9934-0.0523-0.9934z" fill="#570e15" stroke="#b41c2d" stroke-width=".031371"/>
   <path d="m81.464 267.3 0.97837 0.4125 1.0567 0.91833s1.3836 1.1376 1.5219 1.181c0.13822 0.0433 2.0273 0.18095 2.2056 0.24758 0.17837 0.0667-0.18858-0.17608-0.18858-0.17608l-0.70473 0.0102-1.1261-0.15147s-0.64095-0.37478-0.73655-0.44009c-0.0956-0.0653-0.97249-1.085-0.97249-1.085s-0.98449-0.73526-1.0827-0.75517c-0.0982-0.0203-0.95149-0.16204-0.95149-0.16204z" fill="#570e15" stroke="#b41c2d" stroke-width=".023272"/>
   <path d="m3.887 173.87 1.1779 1.3743 4.4418-2.8712 3.8528 3.1657-8.7854 9.8407 0.71167 1.7178 11.608-1.2025-0.2454-2.0368-9.0308 1.0307 7.9511-8.9572-0.17178-1.2516-5.2271-4.4418-1.0062-0.0245z" fill="#71121c"/>
   <path d="m88.735 288.77-1.1779-1.3743-4.4418 2.8712-3.8528-3.1657 8.7854-9.8407-0.71167-1.7178-11.608 1.2025 0.2454 2.0368 9.0308-1.0307-7.9511 8.9572 0.17178 1.2516 5.2271 4.4418 1.0062 0.0245z" fill="#71121c"/>
  </g>
  <path d="m53.269 287.56 5.2587 2.6085 0.94532-0.23 0.99734 0.0848 0.62607 0.22867 5.028-1.6644 4.5661-1.6879 1.4482-0.57576 4.0316-0.1409 1.8115 0.0203 7.5419-1.637" fill="none" stroke="#b1b2b2" stroke-width=".1098"/>
 </g>
</svg>
