<?xml version="1.0" encoding="UTF-8" standalone="no"?>
<!-- Created with Inkscape (http://www.inkscape.org/) -->

<svg
   xmlns:dc="http://purl.org/dc/elements/1.1/"
   xmlns:cc="http://creativecommons.org/ns#"
   xmlns:rdf="http://www.w3.org/1999/02/22-rdf-syntax-ns#"
   xmlns:svg="http://www.w3.org/2000/svg"
   xmlns="http://www.w3.org/2000/svg"
   xmlns:xlink="http://www.w3.org/1999/xlink"
   xmlns:sodipodi="http://sodipodi.sourceforge.net/DTD/sodipodi-0.dtd"
   xmlns:inkscape="http://www.inkscape.org/namespaces/inkscape"
   width="356"
   height="499"
   version="1.1"
   viewBox="0 0 94.192 132.03"
   id="svg50"
   sodipodi:docname="3_of_Clubs.svg"
   inkscape:version="0.92.4 (5da689c313, 2019-01-14)">
  <sodipodi:namedview
     pagecolor="#ffffff"
     bordercolor="#666666"
     borderopacity="1"
     objecttolerance="10"
     gridtolerance="10"
     guidetolerance="10"
     inkscape:pageopacity="0"
     inkscape:pageshadow="2"
     inkscape:window-width="1920"
     inkscape:window-height="1017"
     id="namedview52"
     showgrid="false"
     inkscape:zoom="1.6993988"
     inkscape:cx="178"
     inkscape:cy="249.5"
     inkscape:window-x="-8"
     inkscape:window-y="-8"
     inkscape:window-maximized="1"
     inkscape:current-layer="svg50" />
  <defs
     id="defs12">
    <linearGradient
       id="linearGradient1974-8">
      <stop
         stop-color="#565757"
         offset="0"
         id="stop2" />
      <stop
         stop-color="#373838"
         stop-opacity="0"
         offset="1"
         id="stop4" />
    </linearGradient>
    <radialGradient
       id="radialGradient989"
       cx="161.11"
       cy="166.44"
       r="1.4032"
       gradientTransform="matrix(-.3255 -.46662 6.8178 -4.756 -1044.3 1110.6)"
       gradientUnits="userSpaceOnUse"
       xlink:href="#linearGradient1974-8" />
    <radialGradient
       id="radialGradient991"
       cx="49.268"
       cy="149.25"
       r="6.7426"
       gradientTransform="matrix(-.9688 -1.094 3.847 -3.4068 -506.44 808.37)"
       gradientUnits="userSpaceOnUse"
       xlink:href="#linearGradient1974-8" />
    <radialGradient
       id="radialGradient993"
       cx="138.44"
       cy="235.05"
       r="20.919"
       gradientTransform="matrix(.18315 -.35514 .79883 .41196 -155.53 159.67)"
       gradientUnits="userSpaceOnUse"
       xlink:href="#linearGradient1974-8" />
    <radialGradient
       id="radialGradient997"
       cx="80.302"
       cy="225.63"
       r="5.5573"
       gradientTransform="matrix(-.56044 -.45306 1.8279 -2.2612 -282.69 777.76)"
       gradientUnits="userSpaceOnUse"
       xlink:href="#linearGradient1974-8" />
    <radialGradient
       id="radialGradient995"
       cx="170.35"
       cy="66.049"
       r="12.035"
       gradientTransform="matrix(-.69538 -.48656 .79362 -1.1342 97.189 356.23)"
       gradientUnits="userSpaceOnUse"
       xlink:href="#linearGradient1974-8" />
    <radialGradient
       inkscape:collect="always"
       xlink:href="#linearGradient1974-8"
       id="radialGradient989-7"
       gradientUnits="userSpaceOnUse"
       gradientTransform="matrix(-0.32551102,-0.46662894,6.8179814,-4.7560872,-1045.0083,971.84803)"
       cx="161.11455"
       cy="166.44328"
       fx="161.11455"
       fy="166.44328"
       r="1.40318" />
    <radialGradient
       inkscape:collect="always"
       xlink:href="#linearGradient1974-8"
       id="radialGradient991-7"
       gradientUnits="userSpaceOnUse"
       gradientTransform="matrix(-0.96881746,-1.0939916,3.8470464,-3.4068688,-471.18167,602.24712)"
       cx="49.268208"
       cy="149.24762"
       fx="49.268208"
       fy="149.24762"
       r="6.742619" />
    <radialGradient
       inkscape:collect="always"
       xlink:href="#linearGradient1974-8"
       id="radialGradient993-3"
       gradientUnits="userSpaceOnUse"
       gradientTransform="matrix(0.18314951,-0.3551449,0.79884552,0.41196752,-152.21271,1.0516225)"
       cx="138.43695"
       cy="235.05092"
       fx="138.43695"
       fy="235.05092"
       r="20.918684" />
    <radialGradient
       inkscape:collect="always"
       xlink:href="#linearGradient1974-8"
       id="radialGradient995-4"
       gradientUnits="userSpaceOnUse"
       gradientTransform="matrix(-0.69539273,-0.48656985,0.79363807,-1.1342466,97.071423,191.26235)"
       cx="170.35481"
       cy="66.048706"
       fx="170.35481"
       fy="66.048706"
       r="12.034579" />
    <radialGradient
       inkscape:collect="always"
       xlink:href="#linearGradient1974-8"
       id="radialGradient997-0"
       gradientUnits="userSpaceOnUse"
       gradientTransform="matrix(-0.56045633,-0.45306515,1.8279652,-2.2612523,-286.91813,630.35167)"
       cx="80.301682"
       cy="225.62547"
       fx="80.301682"
       fy="225.62547"
       r="5.5573373" />
  </defs>
  <metadata
     id="metadata14">
    <rdf:RDF>
      <cc:Work
         rdf:about="">
        <dc:format>image/svg+xml</dc:format>
        <dc:type
           rdf:resource="http://purl.org/dc/dcmitype/StillImage" />
        <dc:title />
      </cc:Work>
    </rdf:RDF>
  </metadata>
  <path
     sodipodi:nodetypes="ccccccccccccccccccccccccccccccccccccc"
     inkscape:connector-curvature="0"
     id="path963"
     d="M 5.2417534,1.5376892 13.358313,2.0360712 25.985912,1.5376892 36.377811,1.9020263 46.73004,0.75339689 57.102109,1.5376892 67.53277,1.800776 78.081533,2.5572648 88.218327,1.5376892 l 4.240684,4.2745005 -1.019573,15.2083813 2.128727,15.449254 -1.881711,16.543541 0.883479,13.448589 0.772557,16.745125 -1.438051,16.019904 1.133625,13.525366 -0.402349,11.51293 -4.417388,6.23365 -10.704826,0.77639 -10.216016,-1.66692 -11.970015,0.44687 -8.59743,0.44366 -11.990665,-0.32955 -12.302762,0.99503 -6.600946,-1.5528 -8.6502607,0.35299 -6.1843367,-3.74018 0.5339318,-8.67926 L 0.77155457,98.984889 1.0010696,81.069823 2.553894,69.345751 1.5556519,56.623442 0.61934121,37.867997 1.8637887,21.020571 1.0010696,5.8121897 Z"
     style="display:inline;fill:#C6C7C7;fill-opacity:1;stroke:#FF8D40;stroke-width:3.55563727;stroke-miterlimit:4;stroke-dasharray:none;stroke-opacity:1" />
  <path
     inkscape:transform-center-y="62.903005"
     inkscape:transform-center-x="-45.543073"
     inkscape:connector-curvature="0"
     id="path975"
     d="m 7.9766438,83.117048 5.6909862,-1.439622 0.568372,-0.789647 0.812678,-0.584363 0.624264,-0.233567 2.73618,-4.534937 2.370053,-4.252326 0.725416,-1.37941 2.970445,-2.729614 1.388711,-1.163375 4.663373,-6.14941"
     style="fill:none;stroke:#b1b2b2;stroke-width:0.10980038;stroke-linecap:butt;stroke-linejoin:miter;stroke-miterlimit:4;stroke-dasharray:none;stroke-opacity:1" />
  <path
     inkscape:transform-center-y="32.116717"
     inkscape:transform-center-x="21.137556"
     inkscape:connector-curvature="0"
     id="path977"
     d="m 32.008565,108.69987 2.522576,-1.77221 1.247707,-1.77122 1.836981,-0.95787 0.762947,-0.60319 2.328791,-1.36466 c 0,0 2.498295,-1.29079 2.645149,-1.33165 0.146873,-0.0408 3.734792,-2.33288 3.734792,-2.33288 l -2.890144,2.02339 -3.004856,2.04601 -2.472995,2.08419 c 0,0 -1.853581,0.32957 -2.014334,0.42084 -0.160664,0.0914 -1.81171,1.75128 -1.867312,1.95291 -0.0556,0.20162 -4.212693,2.68923 -4.212693,2.68923 l -3.003996,1.74799 z"
     style="fill:url(#radialGradient989-7);fill-opacity:1;stroke:#b1b2b2;stroke-width:0.07842885;stroke-linecap:butt;stroke-linejoin:miter;stroke-miterlimit:4;stroke-dasharray:none;stroke-dashoffset:0;stroke-opacity:1" />
  <path
     inkscape:transform-center-y="39.455032"
     inkscape:transform-center-x="51.439837"
     inkscape:connector-curvature="0"
     id="path979"
     d="m 51.759071,39.482548 5.728017,-5.037508 c 0,0 7.857424,-2.335089 9.364197,-3.275547 1.506773,-0.940446 8.458937,-0.975993 9.174983,-1.212457 0.716055,-0.236452 1.798829,-0.426021 1.798829,-0.426021 l -0.406939,-2.064746 -0.232765,1.237505 -0.552572,0.823904 -3.467377,0.182894 -5.796378,-0.02543 -6.934383,3.511647 -3.929547,1.465616 -3.63045,2.741302 c 0,0 -2.755991,4.880739 -3.484077,6.144377 -0.728096,1.263644 -9.109971,7.467679 -9.109971,7.467679 l -5.241376,4.846253 2.923114,-2.339734 8.209712,-6.956585 4.633192,-3.820744 1.238828,-3.509252 z"
     style="fill:url(#radialGradient991-7);fill-opacity:1;stroke:#b1b2b2;stroke-width:0.06274307;stroke-linecap:butt;stroke-linejoin:miter;stroke-miterlimit:4;stroke-dasharray:none;stroke-opacity:1" />
  <path
     inkscape:transform-center-y="-29.406915"
     inkscape:transform-center-x="-11.904445"
     inkscape:connector-curvature="0"
     id="path981"
     d="m 50.247638,43.871959 c 0.259326,0.03314 5.970742,3.103712 6.210407,3.208149 0.239666,0.10443 5.87248,3.460145 5.87248,3.460145 l 9.170883,2.068547 3.040787,2.602644 -2.793792,-2.802991 -2.799692,-0.695286 -5.794768,-1.09927 -6.124455,-3.798081 -9.747566,-4.567016 z"
     style="fill:url(#radialGradient993-3);fill-opacity:1;stroke:#b1b2b2;stroke-width:0.06274307;stroke-linecap:butt;stroke-linejoin:miter;stroke-miterlimit:4;stroke-dasharray:none;stroke-opacity:1" />
  <path
     inkscape:transform-center-y="14.492117"
     inkscape:transform-center-x="100.27922"
     inkscape:connector-curvature="0"
     id="path983"
     d="m 20.773137,47.484833 1.926732,-2.536855 c 0,0 1.929123,-3.379921 2.227749,-3.489338 C 25.226265,41.349254 28.613,38.524642 28.613,38.524642 l 3.761133,-6.824954 2.537006,-7.392613 0.779777,-1.530129 -1.336499,1.343334 -0.470501,1.595681 -1.739188,5.323821 -2.23635,4.373171 -1.462212,3.040873 -1.924752,1.17774 -2.633759,2.175461 -1.660306,3.365907 z"
     style="fill:url(#radialGradient995-4);fill-opacity:1;stroke:#b1b2b2;stroke-width:0.10980038;stroke-linecap:butt;stroke-linejoin:miter;stroke-miterlimit:4;stroke-dasharray:none;stroke-opacity:1" />
  <path
     inkscape:transform-center-y="8.6539105"
     inkscape:transform-center-x="-61.747803"
     inkscape:connector-curvature="0"
     id="path985"
     d="m 74.721539,88.053407 c 0,0 2.681259,-3.325933 3.123639,-3.817564 0.44238,-0.491651 6.77587,-6.492259 6.77587,-6.492259 l 2.432123,-1.057 1.188787,-0.377294 -0.983642,0.813524 -1.702378,0.371265 -1.81087,1.453218 -4.317685,4.151801 -0.836609,2.345572 -2.795341,2.564816 c 0,0 -2.572797,3.331234 -2.68827,3.651971 -0.115542,0.320677 1.614446,-3.608 1.614446,-3.608 z"
     style="fill:url(#radialGradient997-0);fill-opacity:1;stroke:#b1b2b2;stroke-width:0.07842885;stroke-linecap:butt;stroke-linejoin:miter;stroke-miterlimit:4;stroke-dasharray:none;stroke-opacity:1" />
  <path
     inkscape:connector-curvature="0"
     id="path976"
     d="m 21.944012,23.403515 c 0,0 -3.835404,1.216103 -3.928956,1.262877 -0.0935,0.04677 -0.561263,4.724092 -0.561263,4.724092 l 1.870922,2.572527 3.741852,0.420958 2.478985,-2.806391 0.327407,1.777379 -1.917702,3.788629 3.835405,0.187097 2.29189,-0.140321 -0.701595,-2.291887 -1.309649,-2.104795 -0.0468,-1.964475 c 0,0 2.338662,3.3209 2.572527,3.414445 0.233865,0.09354 3.741852,-0.04678 3.741852,-0.04678 l 2.71285,-2.712844 0.0468,-3.648312 -2.71285,-2.619297 -4.116041,1.30965 1.683838,-2.89994 -0.280647,-3.274124 -2.853163,-1.777381 -3.601529,-0.140321 -2.338662,1.777383 -0.327417,3.180578 1.216107,2.432207 z"
     style="fill:#000000;fill-opacity:1;stroke:none;stroke-width:1.24356914;stroke-linecap:butt;stroke-linejoin:miter;stroke-miterlimit:4;stroke-dasharray:none;stroke-opacity:1" />
  <path
     style="fill:#000000;fill-opacity:1;stroke:none;stroke-width:0.66503304;stroke-linecap:butt;stroke-linejoin:miter;stroke-miterlimit:4;stroke-dasharray:none;stroke-opacity:1"
     d="m 6.8339485,27.183978 c 0,0 -2.0510853,0.650345 -2.1011264,0.675359 -0.050001,0.02501 -0.3001566,2.526339 -0.3001566,2.526339 l 1.0005321,1.375726 2.0010642,0.225122 1.3256993,-1.500795 0.1750939,0.950502 -1.0255327,2.026076 2.0510753,0.100055 1.2256574,-0.07504 -0.375199,-1.225648 -0.700375,-1.125599 -0.025,-1.050556 c 0,0 1.250678,1.775941 1.375741,1.825965 0.125063,0.05004 2.001054,-0.02502 2.001054,-0.02502 l 1.450772,-1.450768 0.025,-1.951036 -1.450762,-1.400742 -2.201179,0.700371 0.90049,-1.550823 -0.150083,-1.750929 -1.525824,-0.950504 -1.9260028,-0.07504 -1.2506776,0.950505 -0.1750839,1.700901 0.6503344,1.30069 z"
     id="path978"
     inkscape:connector-curvature="0" />
  <path
     style="fill:#000000;fill-opacity:1;stroke:none;stroke-width:1.24356914;stroke-linecap:butt;stroke-linejoin:miter;stroke-miterlimit:4;stroke-dasharray:none;stroke-opacity:1"
     d="m 40.466192,61.75754 c 0,0 -3.835395,1.216104 -3.928947,1.262879 -0.0935,0.04677 -0.561272,4.724091 -0.561272,4.724091 l 1.870931,2.572527 3.741853,0.420959 2.478984,-2.806389 0.327418,1.777376 -1.917713,3.788631 3.835395,0.187097 2.291891,-0.140321 -0.701596,-2.291886 -1.309649,-2.1048 -0.0468,-1.964472 c 0,0 2.338652,3.320896 2.572517,3.414442 0.233875,0.09354 3.741863,-0.04678 3.741863,-0.04678 l 2.71285,-2.712843 0.0468,-3.648308 -2.71285,-2.619297 -4.116051,1.309648 1.683847,-2.899939 -0.280646,-3.274128 -2.853163,-1.777376 -3.60153,-0.140321 -2.338672,1.777382 -0.327407,3.180576 1.216107,2.432206 z"
     id="path980"
     inkscape:connector-curvature="0" />
  <path
     inkscape:connector-curvature="0"
     id="path982"
     d="m 60.485134,103.85342 c 0,0 -3.835415,1.2161 -3.928957,1.26287 -0.0935,0.0468 -0.561272,4.7241 -0.561272,4.7241 l 1.870921,2.57253 3.741863,0.42095 2.478985,-2.80639 0.327407,1.77738 -1.917702,3.78864 3.835404,0.18709 2.291891,-0.14032 -0.701605,-2.29188 -1.309649,-2.10481 -0.0468,-1.96447 c 0,0 2.338661,3.3209 2.572526,3.41444 0.233866,0.0935 3.741853,-0.0468 3.741853,-0.0468 l 2.71285,-2.71285 0.0468,-3.6483 -2.71285,-2.6193 -4.116041,1.30965 1.683837,-2.89994 -0.280636,-3.274125 -2.853173,-1.77738 -3.601529,-0.140323 -2.338662,1.77738 -0.327407,3.180578 1.216097,2.43221 z"
     style="fill:#000000;fill-opacity:1;stroke:none;stroke-width:1.24356914;stroke-linecap:butt;stroke-linejoin:miter;stroke-miterlimit:4;stroke-dasharray:none;stroke-opacity:1" />
  <path
     style="fill:#000000;fill-opacity:1;stroke:none;stroke-width:0.65178198;stroke-linecap:butt;stroke-linejoin:miter;stroke-miterlimit:4;stroke-dasharray:none;stroke-opacity:1"
     d="m 87.4664,103.81412 c 0,0 2.010225,-0.63738 2.059256,-0.6619 0.049,-0.0245 0.294166,-2.476 0.294166,-2.476 l -0.980581,-1.348324 -1.961194,-0.220635 -1.299278,1.470889 -0.171614,-0.931557 1.005102,-1.985703 -2.010214,-0.0981 -1.201227,0.0735 0.367728,1.201217 0.686416,1.103174 0.0245,1.029619 c 0,0 -1.225747,-1.740545 -1.34832,-1.789576 -0.122572,-0.049 -1.961183,0.0245 -1.961183,0.0245 l -1.421862,1.421866 -0.0246,1.91216 1.421861,1.37283 2.157318,-0.68642 -0.882539,1.51993 0.147093,1.71603 1.495403,0.93156 1.887652,0.0735 1.225737,-0.93156 0.171603,-1.66702 -0.637384,-1.27476 z"
     id="path984"
     inkscape:connector-curvature="0" />
  <path
     style="fill:#000000;fill-opacity:1;stroke:none;stroke-width:0.09957654px;stroke-linecap:butt;stroke-linejoin:miter;stroke-opacity:1"
     d="m 9.1658501,7.6642806 0.1742638,-1.991532 10.0821231,1.4189664 0.44809,1.6181187 -6.223528,4.8294623 5.551383,1.44386 0.547672,1.294496 -3.086868,5.626075 -0.921081,0.472989 -9.7585053,-2.215579 0.4480899,-1.891953 8.8374254,1.966636 2.190678,-3.634545 -6.123955,-1.593224 -0.273836,-1.916849 5.775438,-4.3813683 z"
     id="path989"
     inkscape:connector-curvature="0" />
  <path
     inkscape:connector-curvature="0"
     id="path991"
     d="m 87.524372,123.44369 0.347117,1.96877 -10.105843,1.23883 -0.851619,-1.44701 4.761506,-6.27567 -5.735917,0.0422 -0.864049,-1.10864 1.525553,-6.23332 0.767277,-0.69527 9.999421,-0.3856 0.0568,1.94347 -9.0453,0.38767 -1.175346,4.07769 6.32765,-0.0461 0.760616,1.78066 -4.444658,5.72687 z"
     style="fill:#000000;fill-opacity:1;stroke:none;stroke-width:0.09957654px;stroke-linecap:butt;stroke-linejoin:miter;stroke-opacity:1" />
</svg>
