<?xml version="1.0" encoding="UTF-8" standalone="no"?>
<!-- Created with Inkscape (http://www.inkscape.org/) -->

<svg
   xmlns:dc="http://purl.org/dc/elements/1.1/"
   xmlns:cc="http://creativecommons.org/ns#"
   xmlns:rdf="http://www.w3.org/1999/02/22-rdf-syntax-ns#"
   xmlns:svg="http://www.w3.org/2000/svg"
   xmlns="http://www.w3.org/2000/svg"
   xmlns:xlink="http://www.w3.org/1999/xlink"
   xmlns:sodipodi="http://sodipodi.sourceforge.net/DTD/sodipodi-0.dtd"
   xmlns:inkscape="http://www.inkscape.org/namespaces/inkscape"
   width="356"
   height="499"
   version="1.1"
   viewBox="0 0 94.192 132.03"
   id="svg61"
   sodipodi:docname="4_of_Hearts.svg"
   inkscape:version="0.92.4 (5da689c313, 2019-01-14)">
  <sodipodi:namedview
     pagecolor="#ffffff"
     bordercolor="#666666"
     borderopacity="1"
     objecttolerance="10"
     gridtolerance="10"
     guidetolerance="10"
     inkscape:pageopacity="0"
     inkscape:pageshadow="2"
     inkscape:window-width="1920"
     inkscape:window-height="1017"
     id="namedview63"
     showgrid="false"
     inkscape:zoom="1.6993988"
     inkscape:cx="178"
     inkscape:cy="249.5"
     inkscape:window-x="-8"
     inkscape:window-y="-8"
     inkscape:window-maximized="1"
     inkscape:current-layer="svg61" />
  <defs
     id="defs13">
    <linearGradient
       id="linearGradient1974-8">
      <stop
         stop-color="#565757"
         offset="0"
         id="stop2" />
      <stop
         stop-color="#373838"
         stop-opacity="0"
         offset="1"
         id="stop4" />
    </linearGradient>
    <radialGradient
       id="radialGradient1360"
       cx="161.11"
       cy="166.44"
       r="1.4032"
       gradientTransform="matrix(-.56671 .050266 -.73444 -8.2803 232.39 1566.7)"
       gradientUnits="userSpaceOnUse"
       xlink:href="#linearGradient1974-8" />
    <radialGradient
       id="radialGradient1362"
       cx="49.268"
       cy="149.25"
       r="6.7426"
       gradientTransform="matrix(1.1061 -.95493 3.358 3.8896 -535.57 -262.42)"
       gradientUnits="userSpaceOnUse"
       xlink:href="#linearGradient1974-8" />
    <radialGradient
       id="radialGradient1364"
       cx="138.44"
       cy="235.05"
       r="20.919"
       gradientTransform="matrix(-.21698 -.33554 .75474 -.48807 -86.448 353.66)"
       gradientUnits="userSpaceOnUse"
       xlink:href="#linearGradient1974-8" />
    <radialGradient
       id="radialGradient1366"
       cx="170.35"
       cy="66.049"
       r="12.035"
       gradientTransform="matrix(-.76799 .36121 -.58917 -1.2527 218.68 267.26)"
       gradientUnits="userSpaceOnUse"
       xlink:href="#linearGradient1974-8" />
    <radialGradient
       id="radialGradient1368"
       cx="80.302"
       cy="225.63"
       r="5.5573"
       gradientTransform="matrix(.44195 -.56924 2.2967 1.7831 -470.29 -181.19)"
       gradientUnits="userSpaceOnUse"
       xlink:href="#linearGradient1974-8" />
    <radialGradient
       id="radialGradient1370"
       cx="210.08"
       cy="90.623"
       r=".46312"
       gradientTransform="matrix(.59283 0 0 4.8358 -101.8 -246.45)"
       gradientUnits="userSpaceOnUse"
       xlink:href="#linearGradient1974-8" />
    <radialGradient
       inkscape:collect="always"
       xlink:href="#linearGradient1974-8"
       id="radialGradient1360-3"
       gradientUnits="userSpaceOnUse"
       gradientTransform="matrix(-0.77477442,-0.25934362,4.2047412,-10.20187,-562.38922,1784.7323)"
       cx="161.11455"
       cy="166.44328"
       fx="161.11455"
       fy="166.44328"
       r="1.40318" />
    <radialGradient
       inkscape:collect="always"
       xlink:href="#linearGradient1974-8"
       id="radialGradient1362-5"
       gradientUnits="userSpaceOnUse"
       gradientTransform="matrix(0.78466433,1.2327721,-4.3350708,2.75929,651.53078,-399.6442)"
       cx="49.268208"
       cy="149.24762"
       fx="49.268208"
       fy="149.24762"
       r="6.742619" />
    <radialGradient
       inkscape:collect="always"
       xlink:href="#linearGradient1974-8"
       id="radialGradient1364-8"
       gradientUnits="userSpaceOnUse"
       gradientTransform="matrix(0.37139748,-0.14742982,0.33162144,0.83540327,-77.175186,-158.74701)"
       cx="138.43695"
       cy="235.05092"
       fx="138.43695"
       fy="235.05092"
       r="20.918684" />
    <radialGradient
       inkscape:collect="always"
       xlink:href="#linearGradient1974-8"
       id="radialGradient1366-4"
       gradientUnits="userSpaceOnUse"
       gradientTransform="matrix(-0.76801075,0.36122122,-0.58918348,-1.2526929,232.58206,76.819813)"
       cx="170.35481"
       cy="66.048706"
       fx="170.35481"
       fy="66.048706"
       r="12.034579" />
    <radialGradient
       inkscape:collect="always"
       xlink:href="#linearGradient1974-8"
       id="radialGradient1370-9"
       gradientUnits="userSpaceOnUse"
       gradientTransform="matrix(0.59284795,0,0,4.8358718,-101.56009,-411.26914)"
       cx="210.08463"
       cy="90.623199"
       fx="210.08463"
       fy="90.623199"
       r="0.46311602" />
    <radialGradient
       inkscape:collect="always"
       xlink:href="#linearGradient1974-8"
       id="radialGradient1368-2"
       gradientUnits="userSpaceOnUse"
       gradientTransform="matrix(-0.17731476,1.4444081,3.5549461,7.6550723,-771.80393,-1739.181)"
       cx="80.301682"
       cy="225.62547"
       fx="80.301682"
       fy="225.62547"
       r="5.5573373" />
  </defs>
  <metadata
     id="metadata15">
    <rdf:RDF>
      <cc:Work
         rdf:about="">
        <dc:format>image/svg+xml</dc:format>
        <dc:type
           rdf:resource="http://purl.org/dc/dcmitype/StillImage" />
        <dc:title />
      </cc:Work>
    </rdf:RDF>
  </metadata>
  <path
     sodipodi:nodetypes="ccccccccccccccccccccccccccccccccccccc"
     inkscape:connector-curvature="0"
     id="path1324"
     d="M 5.4243396,2.0589107 12.310872,1.2606551 20.168145,0.93635389 36.838204,2.5765271 47.353596,0.65571469 57.48512,2.0589107 67.719896,2.9444903 78.30942,3.1814675 88.72158,2.0589107 l 4.257085,4.2507639 1.216106,15.1549744 -1.216106,14.780817 1.264667,16.374813 -1.264667,13.560959 -0.609864,17.280372 0.609864,12.655429 0.403318,16.301241 -0.225945,11.6863 -4.434458,6.19901 H 78.30942 L 68.000533,131.38249 57.578662,131.05196 47.07296,130.30359 36.483426,131.18915 25.968024,129.64877 15.8365,130.30359 7.3755028,129.77224 1.1672756,125.21091 0.81251772,112.67895 -0.0524414,97.209663 1.1672756,81.149129 1.9156421,66.461877 1.1672756,51.213357 1.7637887,38.667694 1.1672756,21.277555 V 6.3096746 Z"
     style="fill:#8e8f8f;fill-opacity:1;stroke:#00000f;stroke-width:0.55563727;stroke-miterlimit:4;stroke-dasharray:none;stroke-opacity:1" />
  <path
     style="fill:url(#radialGradient1360-3);fill-opacity:1;stroke:#b1b2b2;stroke-width:0.10815682;stroke-linecap:butt;stroke-linejoin:miter;stroke-miterlimit:4;stroke-dasharray:none;stroke-dashoffset:0;stroke-opacity:1"
     d="m 9.2732247,52.830683 1.5453443,-3.788044 0.0241,-2.836283 1.400631,-2.400553 0.411799,-1.217987 1.651277,-3.20497 c 0,0 1.914802,-3.251922 2.056325,-3.405396 0.141643,-0.153583 2.528826,-5.295247 2.528826,-5.295247 l -1.776339,4.332426 -1.894582,4.442288 -1.228007,4.08677 c 0,0 -1.940363,1.736899 -2.056765,1.954964 -0.116073,0.218155 -0.713936,3.235401 -0.613474,3.493807 0.100522,0.258256 -2.804462,6.035123 -2.804462,6.035123 l -2.1400573,4.121021 z"
     id="path1336"
     inkscape:connector-curvature="0" />
  <path
     style="fill:url(#radialGradient1362-5);fill-opacity:1;stroke:#b1b2b2;stroke-width:0.06274308;stroke-linecap:butt;stroke-linejoin:miter;stroke-miterlimit:4;stroke-dasharray:none;stroke-opacity:1"
     d="m 46.574459,73.85227 -6.449112,4.073727 c 0,0 -8.12695,1.070004 -9.762906,1.761729 -1.635956,0.691686 -8.507148,-0.366788 -9.251485,-0.245905 -0.744326,0.120862 -1.84345,0.137743 -1.84345,0.137743 l 0.0771,2.103066 0.42452,-1.185506 0.675335,-0.726706 3.452966,0.364828 5.720226,0.936911 7.400444,-2.377113 4.111171,-0.829228 4.016488,-2.136074 c 0,0 3.489418,-4.386447 4.407248,-5.519822 0.91782,-1.133365 10.171245,-5.941642 10.171245,-5.941642 l 5.938481,-3.961417 -3.254782,1.850771 -9.201833,5.578533 -5.176535,3.044357 -1.775419,3.270683 z"
     id="path1338"
     inkscape:connector-curvature="0" />
  <path
     style="fill:url(#radialGradient1364-8);fill-opacity:1;stroke:#b1b2b2;stroke-width:0.06274308;stroke-linecap:butt;stroke-linejoin:miter;stroke-miterlimit:4;stroke-dasharray:none;stroke-opacity:1"
     d="m 47.333106,6.5450308 c 0.173714,0.1953864 2.462454,6.2625262 2.574547,6.4987062 0.112062,0.236184 2.154197,6.466659 2.154197,6.466659 l 5.555203,7.584473 0.582683,3.959876 L 57.93489,27.106097 56.280904,24.742593 52.634273,20.106895 50.512106,13.219899 46.16353,3.3729387 Z"
     id="path1340"
     inkscape:connector-curvature="0" />
  <path
     style="fill:url(#radialGradient1366-4);fill-opacity:1;stroke:#b1b2b2;stroke-width:0.10980038;stroke-linecap:butt;stroke-linejoin:miter;stroke-miterlimit:4;stroke-dasharray:none;stroke-opacity:1"
     d="M 69.901465,71.489535 68.659177,68.55618 c 0,0 -1.972493,-3.354794 -1.918852,-3.668281 0.0537,-0.313487 -0.712046,-4.656533 -0.712046,-4.656533 l -4.04977,-6.657757 -5.151143,-5.87817 -0.939501,-1.437582 0.500521,1.827641 1.150205,1.201896 3.753323,4.156982 2.68133,4.115391 1.910612,2.781092 0.0642,2.25558 0.577113,3.366924 2.094066,3.114649 z"
     id="path1342"
     inkscape:connector-curvature="0" />
  <path
     style="fill:url(#radialGradient1370-9);fill-opacity:1;stroke:#7d7f7f;stroke-width:0.03137153;stroke-linecap:butt;stroke-linejoin:miter;stroke-miterlimit:4;stroke-dasharray:none;stroke-opacity:1"
     d="m 22.951017,29.210501 0.111012,-1.515844 -0.332747,-2.957735 0.517612,2.292241 z"
     id="path1348"
     inkscape:connector-curvature="0" />
  <path
     style="fill:#71121c;fill-opacity:1;stroke:none;stroke-width:0.85851461;stroke-linecap:butt;stroke-linejoin:miter;stroke-miterlimit:4;stroke-dasharray:none;stroke-opacity:1"
     d="m 28.190133,18.52813 c 0,0 1.259778,-1.493053 1.399771,-1.679707 0.139883,-0.186655 2.332901,-1.026483 2.332901,-1.026483 l 2.192959,0.326617 2.239599,1.912982 0.653215,1.77303 -0.466591,2.566216 -1.81967,2.986126 -2.659519,4.199253 -3.919306,5.225746 -1.539734,-1.819671 -2.472895,-3.63935 c 0,0 -2.052965,-2.23961 -2.099626,-2.426244 -0.0468,-0.186654 -2.146288,-3.219441 -2.146288,-3.219441 0,0 -1.026482,-2.28626 -1.026482,-2.472895 0,-0.186644 0.419919,-2.332921 0.419919,-2.332921 l 1.306439,-1.959643 1.959663,-0.793188 c 0,0 1.633046,0 1.913002,0.0468 0.279936,0.0468 1.866312,0.793188 1.866312,0.793188 l 1.213136,1.8197 z"
     id="path1308"
     inkscape:connector-curvature="0" />
  <path
     style="fill:#570e15;fill-opacity:1;stroke:#b41c2d;stroke-width:0.01568577;stroke-linecap:butt;stroke-linejoin:miter;stroke-miterlimit:4;stroke-dasharray:none;stroke-opacity:1"
     d="m 26.992286,23.279855 c 0,0.147823 -0.332737,1.146125 -0.332737,1.146125 l -0.850359,1.294019 -0.961261,0.961251 1.146125,-0.998242 c 0,0 0.591543,-0.591533 0.665495,-0.739427 0.074,-0.147813 0.332737,-0.887309 0.332737,-0.887309 z"
     id="path1346"
     inkscape:connector-curvature="0" />
  <path
     style="fill:#570e15;fill-opacity:1;stroke:#b41c2d;stroke-width:0.01568577;stroke-linecap:butt;stroke-linejoin:miter;stroke-miterlimit:4;stroke-dasharray:none;stroke-opacity:1"
     d="m 32.231252,20.541144 -0.406689,1.220067 -0.88733,1.035203 -0.961261,1.478883 -0.517601,1.885541 -0.998242,1.257058 1.700707,-2.107396 0.184824,-1.072194 0.369729,-0.813358 0.628513,-0.813378 0.739427,-0.924291 z"
     id="path1350"
     inkscape:connector-curvature="0" />
  <path
     inkscape:connector-curvature="0"
     id="path1318"
     d="m 10.215676,25.126696 c 0,0 0.682965,-0.809437 0.758846,-0.91061 0.0758,-0.101252 1.264718,-0.556482 1.264718,-0.556482 l 1.188857,0.177104 1.214136,1.037093 0.354128,0.961191 -0.252935,1.391211 -0.986492,1.618846 -1.441792,2.27652 -2.124757,2.833023 L 9.3556565,32.96808 8.0150369,30.995106 c 0,0 -1.1129546,-1.214157 -1.1382552,-1.315329 -0.025401,-0.101052 -1.1635557,-1.745338 -1.1635557,-1.745338 0,0 -0.5564823,-1.239418 -0.5564823,-1.34062 0,-0.101252 0.2276451,-1.264718 0.2276451,-1.264718 l 0.7082556,-1.062384 1.0623735,-0.430009 c 0,0 0.8853095,0 1.0370929,0.0254 0.1516834,0.0254 1.0117824,0.429989 1.0117824,0.429989 L 9.8615477,25.2786 Z"
     style="fill:#71121c;fill-opacity:1;stroke:none;stroke-width:0.46542165;stroke-linecap:butt;stroke-linejoin:miter;stroke-miterlimit:4;stroke-dasharray:none;stroke-opacity:1" />
  <path
     style="fill:#570e15;fill-opacity:1;stroke:#b41c2d;stroke-width:0.01568577;stroke-linecap:butt;stroke-linejoin:miter;stroke-miterlimit:4;stroke-dasharray:none;stroke-opacity:1"
     d="m 12.116368,26.945357 v 0.888859 l -0.261436,1.437862 0.392148,-1.150285 0.0785,-0.784278 z"
     id="path1352"
     inkscape:connector-curvature="0" />
  <path
     style="fill:#71121c;fill-opacity:1;stroke:none;stroke-width:0.82760996;stroke-linecap:butt;stroke-linejoin:miter;stroke-miterlimit:4;stroke-dasharray:none;stroke-opacity:1"
     d="m 66.068798,114.18965 c 0,0 -1.214437,1.43931 -1.34938,1.61923 -0.134803,0.17995 -2.24889,0.98955 -2.24889,0.98955 l -2.114026,-0.31485 -2.158978,-1.84417 -0.629714,-1.70917 0.44981,-2.47384 1.754149,-2.87864 2.563796,-4.04808 3.778214,-5.037648 1.484303,1.754198 2.383882,3.50831 c 0,0 1.979054,2.15902 2.024035,2.33892 0.0449,0.17994 2.069048,3.10356 2.069048,3.10356 0,0 0.989522,2.20394 0.989522,2.38386 0,0.17995 -0.404779,2.24893 -0.404779,2.24893 l -1.259418,1.88912 -1.889124,0.76465 c 0,0 -1.574285,0 -1.844151,-0.0451 -0.269856,-0.0451 -1.799139,-0.76464 -1.799139,-0.76464 l -1.169436,-1.75421 z"
     id="path1320"
     inkscape:connector-curvature="0" />
  <path
     inkscape:connector-curvature="0"
     id="path1322"
     d="m 84.819744,105.55604 c 0,0 -0.666714,0.84524 -0.740806,0.95091 -0.074,0.10552 -1.234607,0.58108 -1.234607,0.58108 l -1.160616,-0.18482 -1.185256,-1.08297 -0.345738,-1.00369 0.246956,-1.45277 0.963031,-1.69047 1.407511,-2.37722 2.074236,-2.958346 0.814858,1.030163 1.308759,2.060226 c 0,0 1.086464,1.267887 1.111174,1.373507 0.0246,0.10554 1.135905,1.82256 1.135905,1.82256 0,0 0.543262,1.29426 0.543262,1.39989 0,0.10553 -0.222255,1.32069 -0.222255,1.32069 l -0.691395,1.10941 -1.037123,0.44902 c 0,0 -0.864269,0 -1.012432,-0.0264 -0.148223,-0.0264 -0.987712,-0.44904 -0.987712,-0.44904 l -0.642034,-1.03013 z"
     style="fill:#71121c;fill-opacity:1;stroke:none;stroke-width:0.46991631;stroke-linecap:butt;stroke-linejoin:miter;stroke-miterlimit:4;stroke-dasharray:none;stroke-opacity:1" />
  <path
     inkscape:connector-curvature="0"
     id="path1356"
     d="m 65.407063,106.85814 -0.365998,1.17641 -1.202576,1.56859 c 0,0 -1.464003,2.01301 -1.490143,2.16988 -0.0261,0.15676 0.392138,2.01299 0.339857,2.22213 -0.0523,0.20916 0.235295,-0.28756 0.235295,-0.28756 L 62.662063,113.054 62.53134,111.90372 c 0,0 0.418279,-0.83658 0.496711,-0.96728 0.0784,-0.13074 1.516293,-1.59473 1.516293,-1.59473 0,0 0.915,-1.38558 0.915,-1.49015 0,-0.1045 -0.0523,-0.99342 -0.0523,-0.99342 z"
     style="fill:#570e15;fill-opacity:1;stroke:#b41c2d;stroke-width:0.03137153;stroke-linecap:butt;stroke-linejoin:miter;stroke-miterlimit:4;stroke-dasharray:none;stroke-opacity:1" />
  <path
     style="fill:#570e15;fill-opacity:1;stroke:#b41c2d;stroke-width:0.02327222;stroke-linecap:butt;stroke-linejoin:miter;stroke-miterlimit:4;stroke-dasharray:none;stroke-opacity:1"
     d="m 81.377218,100.64188 0.978392,0.4125 1.056733,0.91836 c 0,0 1.383641,1.13765 1.521964,1.18098 0.138213,0.0433 2.027315,0.18097 2.205689,0.24759 0.178373,0.0667 -0.188585,-0.17607 -0.188585,-0.17607 l -0.704745,0.0102 -1.126105,-0.15149 c 0,0 -0.640954,-0.37478 -0.736556,-0.44009 -0.0956,-0.0653 -0.972512,-1.08504 -0.972512,-1.08504 0,0 -0.984512,-0.73529 -1.082764,-0.75519 -0.0982,-0.0203 -0.951511,-0.16205 -0.951511,-0.16205 z"
     id="path1557"
     inkscape:connector-curvature="0" />
  <path
     inkscape:connector-curvature="0"
     id="path1559"
     d="m 83.061055,100.82897 0.978392,0.4125 1.056733,0.91836 c 0,0 1.383641,1.13766 1.521964,1.18099 0.138213,0.0433 2.027315,0.18096 2.205689,0.24758 0.178374,0.0667 -0.188584,-0.17607 -0.188584,-0.17607 l -0.704746,0.0102 -1.126105,-0.15148 c 0,0 -0.640954,-0.37479 -0.736556,-0.44009 -0.0956,-0.0653 -0.972512,-1.08505 -0.972512,-1.08505 0,0 -0.984511,-0.73528 -1.082764,-0.75518 -0.0982,-0.0203 -0.951511,-0.16206 -0.951511,-0.16206 z"
     style="fill:#570e15;fill-opacity:1;stroke:#b41c2d;stroke-width:0.02327222;stroke-linecap:butt;stroke-linejoin:miter;stroke-miterlimit:4;stroke-dasharray:none;stroke-opacity:1" />
  <path
     inkscape:connector-curvature="0"
     id="path1002"
     d="M 11.611806,31.257262 9.7700357,29.944943 7.5500066,27.54668 l 1.2444475,2.111337 1.3970809,1.240617 z"
     style="fill:#570e15;fill-opacity:1;stroke:#b41c2d;stroke-width:0.03990143;stroke-linecap:butt;stroke-linejoin:miter;stroke-miterlimit:4;stroke-dasharray:none;stroke-opacity:1" />
  <path
     inkscape:connector-curvature="0"
     id="path1004"
     d="m 67.318187,18.248233 c 0,0 1.259778,-1.493053 1.399771,-1.679697 0.139883,-0.186654 2.332902,-1.026482 2.332902,-1.026482 l 2.192958,0.326617 2.2396,1.912972 0.653214,1.773029 -0.46659,2.566227 -1.81967,2.986116 -2.659519,4.199263 -3.919307,5.225745 -1.539734,-1.81968 -2.472894,-3.63934 c 0,0 -2.052966,-2.23962 -2.099627,-2.426254 -0.0468,-0.186644 -2.146287,-3.219431 -2.146287,-3.219431 0,0 -1.026483,-2.286261 -1.026483,-2.472895 0,-0.186654 0.41992,-2.332921 0.41992,-2.332921 l 1.306438,-1.959644 1.959664,-0.793187 c 0,0 1.633046,0 1.913002,0.0468 0.279936,0.0468 1.866311,0.793187 1.866311,0.793187 l 1.213137,1.819691 z"
     style="fill:#71121c;fill-opacity:1;stroke:none;stroke-width:0.85851461;stroke-linecap:butt;stroke-linejoin:miter;stroke-miterlimit:4;stroke-dasharray:none;stroke-opacity:1" />
  <path
     inkscape:connector-curvature="0"
     id="path1006"
     d="m 73.838282,17.454856 -0.406689,1.220067 -0.88733,1.035213 -0.961261,1.478872 -0.517602,1.885552 -0.998242,1.257058 1.700708,-2.107397 0.184824,-1.072193 0.369728,-0.813358 0.628514,-0.813378 0.739426,-0.924291 z"
     style="fill:#570e15;fill-opacity:1;stroke:#b41c2d;stroke-width:0.01568577;stroke-linecap:butt;stroke-linejoin:miter;stroke-miterlimit:4;stroke-dasharray:none;stroke-opacity:1" />
  <path
     inkscape:connector-curvature="0"
     id="path1012"
     d="m 63.119645,25.804438 c 0.283426,0.03492 2.118917,0.908695 2.118917,0.908695 l 2.28022,1.936087 1.615996,2.070122 -1.643257,-2.433308 c 0,0 -0.994442,-1.273915 -1.260538,-1.45064 -0.265925,-0.176805 -1.622685,-0.84756 -1.622685,-0.84756 z"
     style="fill:#570e15;fill-opacity:1;stroke:#b41c2d;stroke-width:0.03030241;stroke-linecap:butt;stroke-linejoin:miter;stroke-miterlimit:4;stroke-dasharray:none;stroke-opacity:1"
     inkscape:transform-center-x="2.9157684"
     inkscape:transform-center-y="-3.8336014" />
  <path
     inkscape:connector-curvature="0"
     id="path1014"
     d="m 27.155378,114.09335 c 0,0 -1.214437,1.43931 -1.34938,1.61923 -0.134803,0.17995 -2.24889,0.98954 -2.24889,0.98954 l -2.114026,-0.31484 -2.158978,-1.84417 -0.629714,-1.70917 0.44981,-2.47385 1.754149,-2.87863 2.563796,-4.04808 3.778214,-5.03765 1.484303,1.7542 2.383882,3.50831 c 0,0 1.979054,2.15901 2.024035,2.33892 0.0449,0.17994 2.069046,3.10356 2.069046,3.10356 0,0 0.989522,2.20393 0.989522,2.38386 0,0.17994 -0.404779,2.24893 -0.404779,2.24893 l -1.259418,1.88912 -1.889122,0.76465 c 0,0 -1.574285,0 -1.844151,-0.0451 -0.269856,-0.0451 -1.799139,-0.76464 -1.799139,-0.76464 l -1.169436,-1.75421 z"
     style="fill:#71121c;fill-opacity:1;stroke:none;stroke-width:0.82760996;stroke-linecap:butt;stroke-linejoin:miter;stroke-miterlimit:4;stroke-dasharray:none;stroke-opacity:1" />
  <path
     style="fill:#570e15;fill-opacity:1;stroke:#b41c2d;stroke-width:0.03137153;stroke-linecap:butt;stroke-linejoin:miter;stroke-miterlimit:4;stroke-dasharray:none;stroke-opacity:1"
     d="m 26.493643,106.76183 -0.365998,1.17642 -1.202576,1.56859 c 0,0 -1.464003,2.01301 -1.490143,2.16987 -0.0261,0.15677 0.392138,2.013 0.339857,2.22214 -0.0523,0.20916 0.235295,-0.28756 0.235295,-0.28756 l -0.261435,-0.65359 -0.130723,-1.15028 c 0,0 0.418279,-0.83658 0.496711,-0.96729 0.0784,-0.13073 1.516293,-1.59472 1.516293,-1.59472 0,0 0.915,-1.38558 0.915,-1.49015 0,-0.10451 -0.0523,-0.99343 -0.0523,-0.99343 z"
     id="path1016"
     inkscape:connector-curvature="0" />
  <path
     style="fill:url(#radialGradient1368-2);fill-opacity:1;stroke:#b1b2b2;stroke-width:0.13804609;stroke-linecap:butt;stroke-linejoin:miter;stroke-miterlimit:4;stroke-dasharray:none;stroke-opacity:1"
     d="m 7.0784662,89.273968 c 0,0 5.2216458,11.258652 6.0377238,12.927322 0.816058,1.66869 11.672978,22.12572 11.672978,22.12572 l 3.17618,3.7304 1.441522,1.36245 -1.591876,-2.78543 -1.929742,-1.39204 -2.895264,-4.98098 -7.450005,-14.14788 -2.670439,-7.838393 -4.7252243,-8.752303 c 0,0 -5.1217931,-11.265809 -5.4880012,-12.337581 -0.3661681,-1.071704 4.4221477,12.088695 4.4221477,12.088695 z"
     id="path1344"
     inkscape:connector-curvature="0" />
  <path
     inkscape:connector-curvature="0"
     id="path1018"
     d="m 34.540201,111.26405 -1.298759,-0.64423 -0.233475,0.0568 -0.246315,-0.0209 -0.154624,-0.0565 -1.241787,0.41107 -1.127715,0.41687 -0.357678,0.14219 -0.995692,0.0348 -0.44739,-0.005 -1.862651,0.40429"
     style="fill:none;stroke:#b41c2d;stroke-width:0.02711726;stroke-linecap:butt;stroke-linejoin:miter;stroke-miterlimit:4;stroke-dasharray:none;stroke-opacity:1" />
  <path
     style="fill:#71121c;fill-opacity:1;stroke:none;stroke-width:0.09658743px;stroke-linecap:butt;stroke-linejoin:miter;stroke-opacity:1"
     d="m 9.1237574,4.9956676 1.7302156,0.6829951 -3.9157349,9.5616613 6.7614629,-0.0683 0.705744,-8.4233757 1.88957,0.2731961 -0.660208,8.0591176 3.437646,-0.0911 0.0911,2.003405 -3.688066,-10e-6 -0.387024,4.188922 -1.935101,0.0228 0.364255,-4.166162 -8.0135826,0.0455 -0.8423426,-1.161056 z"
     id="path1092"
     inkscape:connector-curvature="0" />
  <path
     inkscape:connector-curvature="0"
     id="path1095"
     d="m 87.261218,125.16071 -1.848031,-0.2119 1.307569,-10.24933 -6.513394,1.81597 1.498433,8.31902 -1.895891,0.22517 -1.448142,-7.95539 -3.296933,0.97773 -0.606514,-1.91156 3.562399,-0.95453 -0.710336,-4.14636 1.863261,-0.52287 0.726437,4.11849 7.72875,-2.11802 1.114145,0.90347 z"
     style="fill:#71121c;fill-opacity:1;stroke:none;stroke-width:0.09658743px;stroke-linecap:butt;stroke-linejoin:miter;stroke-opacity:1" />
</svg>
