<?xml version="1.0" encoding="UTF-8" standalone="no"?>
<!-- Created with Inkscape (http://www.inkscape.org/) -->

<svg
   xmlns:dc="http://purl.org/dc/elements/1.1/"
   xmlns:cc="http://creativecommons.org/ns#"
   xmlns:rdf="http://www.w3.org/1999/02/22-rdf-syntax-ns#"
   xmlns:svg="http://www.w3.org/2000/svg"
   xmlns="http://www.w3.org/2000/svg"
   xmlns:xlink="http://www.w3.org/1999/xlink"
   xmlns:sodipodi="http://sodipodi.sourceforge.net/DTD/sodipodi-0.dtd"
   xmlns:inkscape="http://www.inkscape.org/namespaces/inkscape"
   width="356"
   height="499"
   version="1.1"
   viewBox="0 0 94.192 132.03"
   id="svg50"
   sodipodi:docname="5_of_Clubs.svg"
   inkscape:version="0.92.4 (5da689c313, 2019-01-14)">
  <sodipodi:namedview
     pagecolor="#ffffff"
     bordercolor="#666666"
     borderopacity="1"
     objecttolerance="10"
     gridtolerance="10"
     guidetolerance="10"
     inkscape:pageopacity="0"
     inkscape:pageshadow="2"
     inkscape:window-width="1920"
     inkscape:window-height="1017"
     id="namedview52"
     showgrid="false"
     inkscape:zoom="1.6993988"
     inkscape:cx="178"
     inkscape:cy="249.5"
     inkscape:window-x="-8"
     inkscape:window-y="-8"
     inkscape:window-maximized="1"
     inkscape:current-layer="svg50" />
  <defs
     id="defs12">
    <linearGradient
       id="linearGradient1974-8">
      <stop
         stop-color="#565757"
         offset="0"
         id="stop2" />
      <stop
         stop-color="#373838"
         stop-opacity="0"
         offset="1"
         id="stop4" />
    </linearGradient>
    <radialGradient
       id="radialGradient989"
       cx="161.11"
       cy="166.44"
       r="1.4032"
       gradientTransform="matrix(-.3255 -.46662 6.8178 -4.756 -1044.3 1110.6)"
       gradientUnits="userSpaceOnUse"
       xlink:href="#linearGradient1974-8" />
    <radialGradient
       id="radialGradient991"
       cx="49.268"
       cy="149.25"
       r="6.7426"
       gradientTransform="matrix(-.9688 -1.094 3.847 -3.4068 -506.44 808.37)"
       gradientUnits="userSpaceOnUse"
       xlink:href="#linearGradient1974-8" />
    <radialGradient
       id="radialGradient993"
       cx="138.44"
       cy="235.05"
       r="20.919"
       gradientTransform="matrix(.18315 -.35514 .79883 .41196 -155.53 159.67)"
       gradientUnits="userSpaceOnUse"
       xlink:href="#linearGradient1974-8" />
    <radialGradient
       id="radialGradient997"
       cx="80.302"
       cy="225.63"
       r="5.5573"
       gradientTransform="matrix(-.56044 -.45306 1.8279 -2.2612 -282.69 777.76)"
       gradientUnits="userSpaceOnUse"
       xlink:href="#linearGradient1974-8" />
    <radialGradient
       id="radialGradient995"
       cx="170.35"
       cy="66.049"
       r="12.035"
       gradientTransform="matrix(-.69538 -.48656 .79362 -1.1342 97.189 356.23)"
       gradientUnits="userSpaceOnUse"
       xlink:href="#linearGradient1974-8" />
    <radialGradient
       inkscape:collect="always"
       xlink:href="#linearGradient1974-8"
       id="radialGradient989-9"
       gradientUnits="userSpaceOnUse"
       gradientTransform="matrix(-0.32551102,-0.46662894,6.8179814,-4.7560872,-1025.3181,946.85281)"
       cx="161.11455"
       cy="166.44328"
       fx="161.11455"
       fy="166.44328"
       r="1.40318" />
    <radialGradient
       inkscape:collect="always"
       xlink:href="#linearGradient1974-8"
       id="radialGradient991-7"
       gradientUnits="userSpaceOnUse"
       gradientTransform="matrix(-0.96881746,-1.0939916,3.8470464,-3.4068688,-503.50322,658.07599)"
       cx="49.268208"
       cy="149.24762"
       fx="49.268208"
       fy="149.24762"
       r="6.742619" />
    <radialGradient
       inkscape:collect="always"
       xlink:href="#linearGradient1974-8"
       id="radialGradient993-9"
       gradientUnits="userSpaceOnUse"
       gradientTransform="matrix(0.18314951,-0.3551449,0.79884552,0.41196752,-143.18675,-36.66591)"
       cx="138.43695"
       cy="235.05092"
       fx="138.43695"
       fy="235.05092"
       r="20.918684" />
    <radialGradient
       inkscape:collect="always"
       xlink:href="#linearGradient1974-8"
       id="radialGradient995-6"
       gradientUnits="userSpaceOnUse"
       gradientTransform="matrix(-0.69539273,-0.48656985,0.79363807,-1.1342466,93.936347,223.33043)"
       cx="170.35481"
       cy="66.048706"
       fx="170.35481"
       fy="66.048706"
       r="12.034579" />
    <radialGradient
       inkscape:collect="always"
       xlink:href="#linearGradient1974-8"
       id="radialGradient997-6"
       gradientUnits="userSpaceOnUse"
       gradientTransform="matrix(-0.56045633,-0.45306515,1.8279652,-2.2612523,-322.79445,660.73592)"
       cx="80.301682"
       cy="225.62547"
       fx="80.301682"
       fy="225.62547"
       r="5.5573373" />
  </defs>
  <metadata
     id="metadata14">
    <rdf:RDF>
      <cc:Work
         rdf:about="">
        <dc:format>image/svg+xml</dc:format>
        <dc:type
           rdf:resource="http://purl.org/dc/dcmitype/StillImage" />
        <dc:title />
      </cc:Work>
    </rdf:RDF>
  </metadata>
  <path
     sodipodi:nodetypes="ccccccccccccccccccccccccccccccccccccc"
     inkscape:connector-curvature="0"
     id="path963"
     d="M 5.1001663,1.2387178 13.40382,0.80163616 25.844325,1.2387178 36.423319,0.9482304 l 9.884498,1.4706695 10.652705,-1.1801821 11.646765,-0.01755 9.332656,1.037128 10.136794,-1.0195756 4.240684,4.2745005 -1.019573,15.2083803 2.128727,15.449255 -1.881711,16.54354 0.883479,13.44859 -0.630644,17.399944 -0.0349,15.36508 2.162638,14.64792 -1.431361,10.39037 -4.417388,6.23365 -10.704827,0.7764 -10.216015,-0.17019 -11.595824,-0.11441 -8.784524,0.53721 -11.616476,-0.0489 -12.864045,-0.31461 -8.097689,-1.27217 -7.1535178,0.0724 L 0.85943257,125.9255 1.3933644,117.24623 2.5008488,98.873058 0.85943257,80.770898 0.26068934,69.140377 1.4140148,56.324522 1.7873531,37.381985 1.7221516,20.721651 0.85943257,5.5132703 Z"
     style="display:inline;fill:#C6C7C7;fill-opacity:1;stroke:#FF8D40;stroke-width:3.55563727;stroke-miterlimit:4;stroke-dasharray:none;stroke-opacity:1" />
  <path
     inkscape:transform-center-y="32.116717"
     inkscape:transform-center-x="21.137556"
     inkscape:connector-curvature="0"
     id="path977"
     d="m 51.698816,83.704653 2.522576,-1.772209 1.247707,-1.771226 1.836981,-0.957865 0.762947,-0.603194 2.328791,-1.36466 c 0,0 2.498293,-1.290788 2.645146,-1.331649 0.146873,-0.0408 3.734792,-2.332882 3.734792,-2.332882 l -2.890144,2.023395 -3.004856,2.046005 -2.472992,2.084186 c 0,0 -1.853581,0.329582 -2.014334,0.420854 -0.160664,0.0914 -1.81171,1.751275 -1.867311,1.9529 -0.0556,0.201624 -4.212693,2.689229 -4.212693,2.689229 l -3.003997,1.747989 z"
     style="fill:url(#radialGradient989-9);fill-opacity:1;stroke:#b1b2b2;stroke-width:0.07842885;stroke-linecap:butt;stroke-linejoin:miter;stroke-miterlimit:4;stroke-dasharray:none;stroke-dashoffset:0;stroke-opacity:1" />
  <path
     inkscape:transform-center-y="39.455032"
     inkscape:transform-center-x="51.439837"
     inkscape:connector-curvature="0"
     id="path979"
     d="m 19.437523,95.31141 5.728017,-5.037502 c 0,0 7.857423,-2.335091 9.364197,-3.275552 1.506773,-0.940441 8.458937,-0.975992 9.174982,-1.212457 0.716056,-0.236445 1.79883,-0.426019 1.79883,-0.426019 l -0.406939,-2.064746 -0.232765,1.237508 -0.552572,0.823898 -3.467377,0.182894 -5.796378,-0.0254 -6.934383,3.511648 -3.929547,1.465622 -3.63045,2.741301 c 0,0 -2.755991,4.880738 -3.484077,6.144376 -0.728096,1.263649 -9.1099715,7.467669 -9.1099715,7.467669 l -5.2413759,4.84626 2.9231146,-2.33973 8.2097118,-6.95658 4.633192,-3.820747 1.238827,-3.509258 z"
     style="fill:url(#radialGradient991-7);fill-opacity:1;stroke:#b1b2b2;stroke-width:0.06274307;stroke-linecap:butt;stroke-linejoin:miter;stroke-miterlimit:4;stroke-dasharray:none;stroke-opacity:1" />
  <path
     inkscape:transform-center-y="-29.406915"
     inkscape:transform-center-x="-11.904445"
     inkscape:connector-curvature="0"
     id="path981"
     d="m 59.273593,6.1544265 c 0.259326,0.033141 5.970739,3.1037125 6.210405,3.2081489 0.239665,0.1044303 5.87248,3.4601456 5.87248,3.4601456 l 9.170882,2.068547 3.040787,2.602644 L 80.774356,14.690921 77.974664,13.995635 72.179896,12.896364 66.05544,9.0982835 56.307878,4.5312676 Z"
     style="fill:url(#radialGradient993-9);fill-opacity:1;stroke:#b1b2b2;stroke-width:0.06274307;stroke-linecap:butt;stroke-linejoin:miter;stroke-miterlimit:4;stroke-dasharray:none;stroke-opacity:1" />
  <path
     inkscape:transform-center-y="14.492117"
     inkscape:transform-center-x="100.27922"
     inkscape:connector-curvature="0"
     id="path983"
     d="m 17.638063,79.552917 1.926733,-2.536856 c 0,0 1.929123,-3.37992 2.227749,-3.489337 0.298647,-0.109386 3.685382,-2.933998 3.685382,-2.933998 l 3.761133,-6.824954 2.537006,-7.392613 0.779777,-1.53013 -1.336499,1.343335 -0.470501,1.59568 -1.739188,5.323822 -2.23635,4.373171 -1.462212,3.040873 -1.924753,1.17774 -2.633758,2.175461 -1.660306,3.365906 z"
     style="fill:url(#radialGradient995-6);fill-opacity:1;stroke:#b1b2b2;stroke-width:0.10980038;stroke-linecap:butt;stroke-linejoin:miter;stroke-miterlimit:4;stroke-dasharray:none;stroke-opacity:1" />
  <path
     inkscape:transform-center-y="8.6539105"
     inkscape:transform-center-x="-61.747803"
     inkscape:connector-curvature="0"
     id="path985"
     d="m 38.845222,118.43765 c 0,0 2.681259,-3.32593 3.123639,-3.81756 0.44238,-0.49165 6.77587,-6.49226 6.77587,-6.49226 l 2.432124,-1.057 1.188786,-0.3773 -0.983642,0.81353 -1.702378,0.37127 -1.81087,1.45321 -4.317685,4.1518 -0.836608,2.34557 -2.795342,2.56482 c 0,0 -2.572797,3.33123 -2.68827,3.65197 -0.115542,0.32068 1.614446,-3.608 1.614446,-3.608 z"
     style="fill:url(#radialGradient997-6);fill-opacity:1;stroke:#b1b2b2;stroke-width:0.07842885;stroke-linecap:butt;stroke-linejoin:miter;stroke-miterlimit:4;stroke-dasharray:none;stroke-opacity:1" />
  <path
     inkscape:connector-curvature="0"
     id="path976"
     d="m 21.802425,23.104544 c 0,0 -3.835404,1.216103 -3.928956,1.262877 -0.0935,0.04677 -0.561263,4.724091 -0.561263,4.724091 l 1.870922,2.572527 3.741852,0.420959 2.478985,-2.806392 0.327407,1.77738 -1.917702,3.788628 3.835405,0.187098 2.29189,-0.140321 -0.701595,-2.291887 -1.309649,-2.104796 -0.0468,-1.964474 c 0,0 2.338661,3.320899 2.572527,3.414444 0.233865,0.09354 3.741852,-0.04678 3.741852,-0.04678 l 2.71285,-2.712844 0.0468,-3.648311 -2.71285,-2.619297 -4.116041,1.30965 1.683838,-2.89994 -0.280647,-3.274125 -2.853163,-1.777381 -3.601529,-0.14032 -2.338662,1.777382 -0.327417,3.180579 1.216107,2.432206 z"
     style="fill:#000000;fill-opacity:1;stroke:none;stroke-width:1.24356914;stroke-linecap:butt;stroke-linejoin:miter;stroke-miterlimit:4;stroke-dasharray:none;stroke-opacity:1" />
  <path
     style="fill:#000000;fill-opacity:1;stroke:none;stroke-width:0.66503304;stroke-linecap:butt;stroke-linejoin:miter;stroke-miterlimit:4;stroke-dasharray:none;stroke-opacity:1"
     d="m 6.6923615,26.885007 c 0,0 -2.0510854,0.650345 -2.1011265,0.675359 -0.050001,0.02501 -0.3001566,2.526338 -0.3001566,2.526338 l 1.0005321,1.375727 2.0010642,0.225122 1.3256993,-1.500795 0.1750939,0.950502 -1.0255327,2.026075 2.0510754,0.100056 1.2256574,-0.07504 -0.375199,-1.225648 -0.7003751,-1.125599 -0.025001,-1.050556 c 0,0 1.2506781,1.775941 1.3757411,1.825965 0.125063,0.05004 2.001054,-0.02502 2.001054,-0.02502 l 1.450772,-1.450769 0.025,-1.951036 -1.450762,-1.400742 -2.201179,0.700372 0.90049,-1.550823 -0.150084,-1.750929 -1.525823,-0.950504 -1.9260032,-0.07504 -1.2506777,0.950505 -0.1750838,1.700902 0.6503343,1.30069 z"
     id="path978"
     inkscape:connector-curvature="0" />
  <path
     style="fill:#000000;fill-opacity:1;stroke:none;stroke-width:1.24356914;stroke-linecap:butt;stroke-linejoin:miter;stroke-miterlimit:4;stroke-dasharray:none;stroke-opacity:1"
     d="m 40.324605,61.458569 c 0,0 -3.835395,1.216104 -3.928947,1.262879 -0.0935,0.04677 -0.561272,4.724091 -0.561272,4.724091 l 1.870931,2.572527 3.741853,0.420958 2.478984,-2.806388 0.327418,1.777375 -1.917713,3.788631 3.835395,0.187097 2.291891,-0.140321 -0.701596,-2.291886 -1.309649,-2.104799 -0.0468,-1.964472 c 0,0 2.338652,3.320896 2.572517,3.414442 0.233875,0.09354 3.741863,-0.04678 3.741863,-0.04678 l 2.71285,-2.712843 0.0468,-3.648309 -2.71285,-2.619296 -4.116051,1.309647 1.683847,-2.899939 -0.280646,-3.274127 -2.853163,-1.777376 -3.60153,-0.140321 -2.338672,1.777382 -0.327407,3.180575 1.216107,2.432207 z"
     id="path980"
     inkscape:connector-curvature="0" />
  <path
     inkscape:connector-curvature="0"
     id="path982"
     d="m 31.514139,108.5051 c 0,0 3.835415,-1.21611 3.928957,-1.26288 0.0935,-0.0468 0.561272,-4.72409 0.561272,-4.72409 l -1.870921,-2.572528 -3.74186,-0.420959 -2.478985,2.806387 -0.327407,-1.77737 1.917703,-3.788638 -3.835405,-0.187094 -2.291891,0.140323 0.701606,2.291881 1.309649,2.104808 0.0468,1.96447 c 0,0 -2.338662,-3.320902 -2.572527,-3.414444 -0.233865,-0.0935 -3.741853,0.0468 -3.741853,0.0468 l -2.71285,2.712854 -0.0468,3.6483 2.71285,2.6193 4.116041,-1.30965 -1.683837,2.89994 0.280636,3.27412 2.853173,1.77738 3.60153,0.14033 2.338661,-1.77738 0.327408,-3.18058 -1.216097,-2.43221 z"
     style="fill:#000000;fill-opacity:1;stroke:none;stroke-width:1.24356914;stroke-linecap:butt;stroke-linejoin:miter;stroke-miterlimit:4;stroke-dasharray:none;stroke-opacity:1" />
  <path
     style="fill:#000000;fill-opacity:1;stroke:none;stroke-width:0.65178198;stroke-linecap:butt;stroke-linejoin:miter;stroke-miterlimit:4;stroke-dasharray:none;stroke-opacity:1"
     d="m 87.32481,103.51514 c 0,0 2.010225,-0.63737 2.059256,-0.66189 0.049,-0.0245 0.294166,-2.47601 0.294166,-2.47601 l -0.980581,-1.348318 -1.961194,-0.220635 -1.299278,1.470893 -0.171614,-0.931561 1.005102,-1.985704 -2.010214,-0.0981 -1.201227,0.0735 0.367728,1.201216 0.686415,1.103174 0.0245,1.029625 c 0,0 -1.225747,-1.74055 -1.34832,-1.789581 -0.122573,-0.049 -1.961183,0.0245 -1.961183,0.0245 l -1.421862,1.421861 -0.0246,1.91216 1.421861,1.37283 2.157318,-0.68641 -0.88254,1.51992 0.147094,1.71604 1.495403,0.93156 1.887651,0.0735 1.225738,-0.93156 0.171603,-1.66702 -0.637384,-1.27475 z"
     id="path984"
     inkscape:connector-curvature="0" />
  <path
     style="fill:#000000;fill-opacity:1;stroke:none;stroke-width:1.24356914;stroke-linecap:butt;stroke-linejoin:miter;stroke-miterlimit:4;stroke-dasharray:none;stroke-opacity:1"
     d="m 61.279005,23.104544 c 0,0 -3.835402,1.216103 -3.928954,1.262877 -0.0935,0.04677 -0.561262,4.724091 -0.561262,4.724091 l 1.870921,2.572527 3.74185,0.420959 2.478984,-2.806392 0.327408,1.77738 -1.917703,3.788628 3.835405,0.187098 2.291891,-0.140321 -0.701596,-2.291887 -1.309649,-2.104796 -0.0468,-1.964474 c 0,0 2.338662,3.320899 2.572527,3.414444 0.233865,0.09354 3.741853,-0.04678 3.741853,-0.04678 l 2.71285,-2.712844 0.0468,-3.648311 -2.71285,-2.619297 -4.116041,1.30965 1.683837,-2.89994 -0.280646,-3.274125 -2.853163,-1.777381 -3.60153,-0.14032 -2.338662,1.777382 -0.327417,3.180579 1.216107,2.432206 z"
     id="path1027"
     inkscape:connector-curvature="0" />
  <path
     style="fill:#000000;fill-opacity:1;stroke:none;stroke-width:1.24356914;stroke-linecap:butt;stroke-linejoin:miter;stroke-miterlimit:4;stroke-dasharray:none;stroke-opacity:1"
     d="m 70.990719,108.5051 c 0,0 3.835415,-1.21611 3.928957,-1.26288 0.0935,-0.0468 0.561273,-4.72409 0.561273,-4.72409 l -1.870922,-2.572528 -3.741862,-0.420959 -2.478985,2.806387 -0.327407,-1.77737 1.917702,-3.788638 -3.835405,-0.187094 -2.29189,0.140323 0.701605,2.291881 1.309649,2.104808 0.0468,1.96447 c 0,0 -2.338662,-3.320902 -2.572527,-3.414444 -0.233865,-0.0935 -3.74185,0.0468 -3.74185,0.0468 l -2.71285,2.712854 -0.0468,3.6483 2.712849,2.6193 4.116039,-1.30965 -1.683837,2.89994 0.280636,3.27412 2.853173,1.77738 3.60153,0.14033 2.338662,-1.77738 0.327407,-3.18058 -1.216097,-2.43221 z"
     id="path1029"
     inkscape:connector-curvature="0" />
  <path
     inkscape:connector-curvature="0"
     id="path1023"
     d="m 83.362033,118.19536 0.331817,4.52341 -6.913753,1.92295 0.41844,1.82435 7.991376,-2.1061 0.579503,-0.85945 -0.516221,-6.65693 -1.111715,-0.864 -7.913425,1.3458 0.756307,-5.06145 9.794206,-0.37099 -0.164403,-1.92764 -10.683526,0.46846 -0.820629,0.74802 -0.891609,7.31584 0.989122,0.93206 z"
     style="fill:#000000;fill-opacity:1;stroke:none;stroke-width:0.09619173px;stroke-linecap:butt;stroke-linejoin:miter;stroke-opacity:1" />
  <path
     style="fill:#000000;fill-opacity:1;stroke:none;stroke-width:0.09619173px;stroke-linecap:butt;stroke-linejoin:miter;stroke-opacity:1"
     d="M 10.094434,13.089871 9.7626163,8.5664608 16.676369,6.6435083 16.25793,4.8191579 8.2665533,6.9252545 l -0.5795028,0.859449 0.5162214,6.6569375 1.1117145,0.863999 7.9134246,-1.3458 -0.756306,5.061442 -9.7942068,0.370998 0.1644036,1.927633 10.6835262,-0.468461 0.820628,-0.748016 0.89161,-7.315842 -0.989122,-0.932061 z"
     id="path1025"
     inkscape:connector-curvature="0" />
</svg>
