<?xml version="1.0" encoding="UTF-8" standalone="no"?>
<!-- Created with Inkscape (http://www.inkscape.org/) -->

<svg
   xmlns:dc="http://purl.org/dc/elements/1.1/"
   xmlns:cc="http://creativecommons.org/ns#"
   xmlns:rdf="http://www.w3.org/1999/02/22-rdf-syntax-ns#"
   xmlns:svg="http://www.w3.org/2000/svg"
   xmlns="http://www.w3.org/2000/svg"
   xmlns:xlink="http://www.w3.org/1999/xlink"
   xmlns:sodipodi="http://sodipodi.sourceforge.net/DTD/sodipodi-0.dtd"
   xmlns:inkscape="http://www.inkscape.org/namespaces/inkscape"
   width="356"
   height="499"
   version="1.1"
   viewBox="0 0 94.192 132.03"
   id="svg61"
   sodipodi:docname="9_of_Hearts.svg"
   inkscape:version="0.92.4 (5da689c313, 2019-01-14)">
  <sodipodi:namedview
     pagecolor="#ffffff"
     bordercolor="#666666"
     borderopacity="1"
     objecttolerance="10"
     gridtolerance="10"
     guidetolerance="10"
     inkscape:pageopacity="0"
     inkscape:pageshadow="2"
     inkscape:window-width="1920"
     inkscape:window-height="1017"
     id="namedview63"
     showgrid="false"
     inkscape:zoom="1.6993988"
     inkscape:cx="178"
     inkscape:cy="249.5"
     inkscape:window-x="-8"
     inkscape:window-y="-8"
     inkscape:window-maximized="1"
     inkscape:current-layer="svg61" />
  <defs
     id="defs13">
    <linearGradient
       id="linearGradient1974-8">
      <stop
         stop-color="#565757"
         offset="0"
         id="stop2" />
      <stop
         stop-color="#373838"
         stop-opacity="0"
         offset="1"
         id="stop4" />
    </linearGradient>
    <radialGradient
       id="radialGradient1360"
       cx="161.11"
       cy="166.44"
       r="1.4032"
       gradientTransform="matrix(-.56671 .050266 -.73444 -8.2803 232.39 1566.7)"
       gradientUnits="userSpaceOnUse"
       xlink:href="#linearGradient1974-8" />
    <radialGradient
       id="radialGradient1362"
       cx="49.268"
       cy="149.25"
       r="6.7426"
       gradientTransform="matrix(1.1061 -.95493 3.358 3.8896 -535.57 -262.42)"
       gradientUnits="userSpaceOnUse"
       xlink:href="#linearGradient1974-8" />
    <radialGradient
       id="radialGradient1364"
       cx="138.44"
       cy="235.05"
       r="20.919"
       gradientTransform="matrix(-.21698 -.33554 .75474 -.48807 -86.448 353.66)"
       gradientUnits="userSpaceOnUse"
       xlink:href="#linearGradient1974-8" />
    <radialGradient
       id="radialGradient1366"
       cx="170.35"
       cy="66.049"
       r="12.035"
       gradientTransform="matrix(-.76799 .36121 -.58917 -1.2527 218.68 267.26)"
       gradientUnits="userSpaceOnUse"
       xlink:href="#linearGradient1974-8" />
    <radialGradient
       id="radialGradient1368"
       cx="80.302"
       cy="225.63"
       r="5.5573"
       gradientTransform="matrix(.44195 -.56924 2.2967 1.7831 -470.29 -181.19)"
       gradientUnits="userSpaceOnUse"
       xlink:href="#linearGradient1974-8" />
    <radialGradient
       id="radialGradient1370"
       cx="210.08"
       cy="90.623"
       r=".46312"
       gradientTransform="matrix(.59283 0 0 4.8358 -101.8 -246.45)"
       gradientUnits="userSpaceOnUse"
       xlink:href="#linearGradient1974-8" />
    <radialGradient
       inkscape:collect="always"
       xlink:href="#linearGradient1974-8"
       id="radialGradient1362-4"
       gradientUnits="userSpaceOnUse"
       gradientTransform="matrix(0.79121921,1.2430704,-4.3712848,2.7823403,653.50683,-358.63427)"
       cx="49.268208"
       cy="149.24762"
       fx="49.268208"
       fy="149.24762"
       r="6.742619" />
    <radialGradient
       inkscape:collect="always"
       xlink:href="#linearGradient1974-8"
       id="radialGradient1368-2"
       gradientUnits="userSpaceOnUse"
       gradientTransform="matrix(0.178796,0.89031317,-3.5846431,0.61008248,864.72544,-135.80023)"
       cx="80.301682"
       cy="225.62547"
       fx="80.301682"
       fy="225.62547"
       r="5.5573373" />
    <radialGradient
       inkscape:collect="always"
       xlink:href="#linearGradient1974-8"
       id="radialGradient1370-3"
       gradientUnits="userSpaceOnUse"
       gradientTransform="matrix(0.59780043,0,0,4.8762694,-103.047,-415.42387)"
       cx="210.08463"
       cy="90.623199"
       fx="210.08463"
       fy="90.623199"
       r="0.46311602" />
    <radialGradient
       inkscape:collect="always"
       xlink:href="#linearGradient1974-8"
       id="radialGradient1366-7"
       gradientUnits="userSpaceOnUse"
       gradientTransform="matrix(-0.7744265,0.36423877,-0.59410536,-1.2631575,254.39515,39.538664)"
       cx="170.35481"
       cy="66.048706"
       fx="170.35481"
       fy="66.048706"
       r="12.034579" />
    <radialGradient
       inkscape:collect="always"
       xlink:href="#linearGradient1974-8"
       id="radialGradient1360-9"
       gradientUnits="userSpaceOnUse"
       gradientTransform="matrix(-0.78124668,-0.26151011,4.2398665,-10.287094,-573.22281,1828.106)"
       cx="161.11455"
       cy="166.44328"
       fx="161.11455"
       fy="166.44328"
       r="1.40318" />
    <radialGradient
       inkscape:collect="always"
       xlink:href="#linearGradient1974-8"
       id="radialGradient1364-3"
       gradientUnits="userSpaceOnUse"
       gradientTransform="matrix(-0.26559822,0.30299848,-0.68154994,-0.59742357,245.78517,126.15401)"
       cx="138.43695"
       cy="235.05092"
       fx="138.43695"
       fy="235.05092"
       r="20.918684" />
  </defs>
  <metadata
     id="metadata15">
    <rdf:RDF>
      <cc:Work
         rdf:about="">
        <dc:format>image/svg+xml</dc:format>
        <dc:type
           rdf:resource="http://purl.org/dc/dcmitype/StillImage" />
        <dc:title />
      </cc:Work>
    </rdf:RDF>
  </metadata>
  <path
     sodipodi:nodetypes="ccccccccccccccccccccccccccccccccccccc"
     inkscape:connector-curvature="0"
     id="path1324"
     d="M 4.8311447,1.3570123 14.793705,2.2499921 25.829429,1.3570123 36.507445,0.46403259 46.827693,1.3570123 H 57.326835 L 67.647113,2.2499921 78.325089,1.3570123 h 10.499152 l 4.292645,4.2862748 V 20.736199 35.829152 l -0.89432,16.700259 0.89432,13.485588 0.89429,17.236071 -0.89429,12.949806 -0.536592,16.343094 0.715446,11.87825 -4.471499,6.2508 H 78.325089 l -10.677976,-0.89298 -10.320278,0.89298 H 46.827693 l -10.677996,0.89295 -10.320268,-0.89295 H 15.330297 L 6.7986182,130.13723 0.53852988,126.38674 0.18080197,112.90114 2.3271094,96.736658 0.53852988,81.107933 V 66.014999 50.922076 L 1.6116636,36.007746 0.53852988,20.736199 V 5.6432871 Z"
     style="fill:#8e8f8f;fill-opacity:1;stroke:#000036;stroke-width:0.55563727;stroke-miterlimit:4;stroke-dasharray:none;stroke-opacity:1" />
  <path
     style="fill:url(#radialGradient1362-4);fill-opacity:1;stroke:#b1b2b2;stroke-width:0.06326722;stroke-linecap:butt;stroke-linejoin:miter;stroke-miterlimit:4;stroke-dasharray:none;stroke-opacity:1"
     d="m 43.496869,118.81766 -6.502993,4.10776 c 0,0 -8.194832,1.07894 -9.844458,1.77645 -1.649616,0.69746 -8.57821,-0.36986 -9.328766,-0.24797 -0.750547,0.12187 -1.858851,0.13889 -1.858851,0.13889 l 0.0778,2.12064 0.42807,-1.19541 0.680975,-0.73277 3.481797,0.36788 5.768017,0.94473 7.462275,-2.39698 4.145502,-0.83614 4.050049,-2.15392 c 0,0 3.518568,-4.4231 4.444059,-5.56595 0.92549,-1.14282 10.256216,-5.99127 10.256216,-5.99127 l 5.988083,-3.99451 -3.281963,1.86624 -9.278705,5.62513 -5.219785,3.06979 -1.79024,3.298 z"
     id="path1338"
     inkscape:connector-curvature="0" />
  <path
     style="fill:url(#radialGradient1368-2);fill-opacity:1;stroke:#b1b2b2;stroke-width:0.09842876;stroke-linecap:butt;stroke-linejoin:miter;stroke-miterlimit:4;stroke-dasharray:none;stroke-opacity:1"
     d="m 79.336511,74.120538 c 0,0 -5.265256,0.90346 -6.088154,0.998822 -0.822868,0.0954 -11.77049,0.485501 -11.77049,0.485501 l -3.202721,-1.022432 -1.453562,-0.630724 1.605175,0.0507 1.945863,1.062073 2.919455,0.135143 7.512236,-0.323297 2.692759,-1.511003 4.764686,-0.0935 c 0,0 5.164574,-0.998342 5.533852,-1.203967 0.369218,-0.205635 -4.459099,2.052735 -4.459099,2.052735 z"
     id="path1344"
     inkscape:connector-curvature="0" />
  <path
     style="fill:url(#radialGradient1370-3);fill-opacity:1;stroke:#7d7f7f;stroke-width:0.03163361;stroke-linecap:butt;stroke-linejoin:miter;stroke-miterlimit:4;stroke-dasharray:none;stroke-opacity:1"
     d="m 22.504245,28.735415 0.111933,-1.528503 -0.335518,-2.982446 0.521922,2.311391 z"
     id="path1348"
     inkscape:connector-curvature="0" />
  <path
     style="fill:#71121c;fill-opacity:1;stroke:none;stroke-width:0.86568642;stroke-linecap:butt;stroke-linejoin:miter;stroke-miterlimit:4;stroke-dasharray:none;stroke-opacity:1"
     d="m 27.799642,18.383029 c 0,0 1.270298,-1.505524 1.411462,-1.693738 0.141053,-0.188214 2.352392,-1.035063 2.352392,-1.035063 l 2.211278,0.329348 2.25831,1.928962 0.658675,1.78784 -0.470501,2.587655 -1.83487,3.011076 -2.681729,4.234324 -3.952048,5.269406 -1.552594,-1.83487 -2.493555,-3.669751 c 0,0 -2.070116,-2.25832 -2.117167,-2.446514 -0.0472,-0.188214 -2.164218,-3.246342 -2.164218,-3.246342 0,0 -1.035053,-2.305351 -1.035053,-2.493545 0,-0.188204 0.42342,-2.35241 0.42342,-2.35241 l 1.317359,-1.976014 1.976034,-0.799817 c 0,0 1.646686,0 1.928982,0.0472 0.282276,0.0472 1.881902,0.799817 1.881902,0.799817 l 1.223277,1.834901 z"
     id="path1308"
     inkscape:connector-curvature="0" />
  <path
     style="fill:#570e15;fill-opacity:1;stroke:#b41c2d;stroke-width:0.0158168;stroke-linecap:butt;stroke-linejoin:miter;stroke-miterlimit:4;stroke-dasharray:none;stroke-opacity:1"
     d="m 26.591796,23.174442 c 0,0.149064 -0.335528,1.155706 -0.335528,1.155706 l -0.857459,1.304829 -0.969291,0.969281 1.155705,-1.006582 c 0,0 0.596474,-0.596473 0.671045,-0.745606 0.0746,-0.149044 0.335528,-0.89472 0.335528,-0.89472 z"
     id="path1346"
     inkscape:connector-curvature="0" />
  <path
     style="fill:#570e15;fill-opacity:1;stroke:#b41c2d;stroke-width:0.0158168;stroke-linecap:butt;stroke-linejoin:miter;stroke-miterlimit:4;stroke-dasharray:none;stroke-opacity:1"
     d="m 33.408036,23.575741 -0.410089,1.230258 -0.89473,1.043853 -0.969301,1.491233 -0.521922,1.901292 -1.006582,1.267558 1.714908,-2.124997 0.186374,-1.081154 0.372818,-0.820148 0.633765,-0.820169 0.745606,-0.93202 z"
     id="path1350"
     inkscape:connector-curvature="0" />
  <path
     inkscape:connector-curvature="0"
     id="path1318"
     d="m 9.0633183,25.490124 c 0,0 0.6886652,-0.816198 0.7651869,-0.918221 0.076402,-0.102102 1.2752878,-0.561132 1.2752878,-0.561132 l 1.198787,0.178584 1.224277,1.045763 0.357078,0.969221 -0.255036,1.402831 -0.994742,1.632367 -1.453832,2.29554 L 9.0378177,34.39176 8.1961191,33.397008 6.8442992,31.407554 c 0,0 -1.1222548,-1.224297 -1.1477653,-1.326319 -0.025601,-0.101892 -1.173276,-1.759919 -1.173276,-1.759919 0,0 -0.5611224,-1.249767 -0.5611224,-1.35182 0,-0.102092 0.2295451,-1.275278 0.2295451,-1.275278 l 0.7141658,-1.071264 1.0712537,-0.433599 c 0,0 0.8927097,0 1.0457531,0.0256 0.1529434,0.0256 1.0202325,0.43358 1.0202325,0.43358 l 0.6631547,0.994752 z"
     style="fill:#71121c;fill-opacity:1;stroke:none;stroke-width:0.46930966;stroke-linecap:butt;stroke-linejoin:miter;stroke-miterlimit:4;stroke-dasharray:none;stroke-opacity:1" />
  <path
     style="fill:#570e15;fill-opacity:1;stroke:#b41c2d;stroke-width:0.0158168;stroke-linecap:butt;stroke-linejoin:miter;stroke-miterlimit:4;stroke-dasharray:none;stroke-opacity:1"
     d="m 10.979891,27.323974 v 0.89629 l -0.263616,1.449872 0.395419,-1.159896 0.0792,-0.790827 z"
     id="path1352"
     inkscape:connector-curvature="0" />
  <path
     style="fill:#71121c;fill-opacity:1;stroke:none;stroke-width:0.83452356;stroke-linecap:butt;stroke-linejoin:miter;stroke-miterlimit:4;stroke-dasharray:none;stroke-opacity:1"
     d="m 65.610758,114.85353 c 0,0 -1.224577,1.45134 -1.36065,1.63276 -0.135933,0.18145 -2.26767,0.99782 -2.26767,0.99782 l -2.131687,-0.31749 -2.177018,-1.85957 -0.634964,-1.72345 0.45356,-2.4945 1.768799,-2.90269 2.585217,-4.08189 3.809774,-5.079741 1.496713,1.768861 2.403783,3.53761 c 0,0 1.995594,2.17704 2.040955,2.35846 0.0453,0.18144 2.086326,3.12948 2.086326,3.12948 0,0 0.997792,2.22236 0.997792,2.40378 0,0.18144 -0.408169,2.26771 -0.408169,2.26771 l -1.269938,1.9049 -1.904902,0.77104 c 0,0 -1.587435,0 -1.859551,-0.0455 -0.272116,-0.0455 -1.81417,-0.77102 -1.81417,-0.77102 l -1.179206,-1.76887 z"
     id="path1320"
     inkscape:connector-curvature="0" />
  <path
     inkscape:connector-curvature="0"
     id="path1322"
     d="m 85.777414,107.40559 c 0,0 -0.672295,0.8523 -0.746997,0.95887 -0.0746,0.1064 -1.244917,0.58593 -1.244917,0.58593 l -1.170316,-0.18637 -1.195157,-1.09201 -0.348627,-1.01207 0.249015,-1.46491 0.971082,-1.70459 1.419261,-2.39709 2.091566,-2.983051 0.821668,1.038762 1.319699,2.077439 c 0,0 1.095535,1.27849 1.120455,1.38498 0.0248,0.10641 1.145386,1.8378 1.145386,1.8378 0,0 0.547802,1.30506 0.547802,1.41158 0,0.1064 -0.224105,1.33171 -0.224105,1.33171 l -0.697176,1.11867 -1.045783,0.45278 c 0,0 -0.871489,0 -1.020892,-0.0266 -0.149464,-0.0266 -0.995962,-0.4528 -0.995962,-0.4528 l -0.647395,-1.03872 z"
     style="fill:#71121c;fill-opacity:1;stroke:none;stroke-width:0.47384185;stroke-linecap:butt;stroke-linejoin:miter;stroke-miterlimit:4;stroke-dasharray:none;stroke-opacity:1" />
  <path
     inkscape:connector-curvature="0"
     id="path1356"
     d="m 64.943503,107.46077 -0.369058,1.18624 -1.212627,1.58169 c 0,0 -1.476222,2.02983 -1.502583,2.18801 -0.0263,0.15808 0.395409,2.02981 0.342698,2.2407 -0.0528,0.21091 0.237265,-0.28996 0.237265,-0.28996 l -0.263626,-0.65906 -0.131823,-1.15988 c 0,0 0.421779,-0.84357 0.500861,-0.97536 0.0791,-0.13184 1.528964,-1.60806 1.528964,-1.60806 0,0 0.92265,-1.39715 0.92265,-1.50259 0,-0.10539 -0.0528,-1.00173 -0.0528,-1.00173 z"
     style="fill:#570e15;fill-opacity:1;stroke:#b41c2d;stroke-width:0.03163361;stroke-linecap:butt;stroke-linejoin:miter;stroke-miterlimit:4;stroke-dasharray:none;stroke-opacity:1" />
  <path
     style="fill:#570e15;fill-opacity:1;stroke:#b41c2d;stroke-width:0.02411978;stroke-linecap:butt;stroke-linejoin:miter;stroke-miterlimit:4;stroke-dasharray:none;stroke-opacity:1"
     d="m 86.359876,106.33123 -0.608233,-0.39718 -0.685175,0.36955 c 0,0 -0.8933,0.37443 -0.978392,0.29296 -0.085,-0.0815 -1.220077,-1.9609 -1.330449,-2.04781 -0.110383,-0.0867 0.122993,-0.0867 0.122993,-0.0867 l 0.419759,0.80507 0.680755,1.00315 c 0,0 0.404699,0.0836 0.46566,0.0802 0.0609,-0.004 0.644884,-0.74523 0.644884,-0.74523 0,0 0.631174,-0.14118 0.690976,-0.0649 0.0598,0.0755 0.577242,0.79013 0.577242,0.79013 z"
     id="path1557"
     inkscape:connector-curvature="0" />
  <path
     inkscape:connector-curvature="0"
     id="path1559"
     d="m 84.004034,102.63904 0.986562,0.41595 1.065554,0.92604 c 0,0 1.395201,1.14715 1.534674,1.19083 0.139383,0.0436 2.044265,0.18249 2.224119,0.24966 0.179864,0.0673 -0.190154,-0.17754 -0.190154,-0.17754 l -0.710636,0.0102 -1.135505,-0.15275 c 0,0 -0.646314,-0.37793 -0.742717,-0.44378 -0.0964,-0.0659 -0.980631,-1.09409 -0.980631,-1.09409 0,0 -0.992742,-0.74143 -1.091804,-0.76151 -0.0991,-0.0205 -0.959462,-0.16339 -0.959462,-0.16339 z"
     style="fill:#570e15;fill-opacity:1;stroke:#b41c2d;stroke-width:0.02346663;stroke-linecap:butt;stroke-linejoin:miter;stroke-miterlimit:4;stroke-dasharray:none;stroke-opacity:1" />
  <path
     inkscape:connector-curvature="0"
     id="path1002"
     d="M 10.471119,31.6719 8.6139583,30.348621 6.3753889,27.930318 7.6302266,30.059295 9.0389877,31.310272 Z"
     style="fill:#570e15;fill-opacity:1;stroke:#b41c2d;stroke-width:0.04023476;stroke-linecap:butt;stroke-linejoin:miter;stroke-miterlimit:4;stroke-dasharray:none;stroke-opacity:1" />
  <path
     inkscape:connector-curvature="0"
     id="path1004"
     d="m 65.502596,44.550658 c 0,0 1.270308,-1.505533 1.411471,-1.693738 0.141043,-0.188214 2.352392,-1.035052 2.352392,-1.035052 l 2.211279,0.329347 2.2583,1.928952 0.658674,1.78784 -0.47048,2.587667 -1.834881,3.011057 -2.681729,4.234343 -3.952047,5.269397 -1.552605,-1.834881 -2.493555,-3.669741 c 0,0 -2.070106,-2.25833 -2.117157,-2.446524 -0.0472,-0.188204 -2.164218,-3.246322 -2.164218,-3.246322 0,0 -1.035052,-2.305361 -1.035052,-2.493555 0,-0.188214 0.423419,-2.352412 0.423419,-2.352412 l 1.317349,-1.976013 1.976034,-0.799808 c 0,0 1.646696,0 1.928982,0.0472 0.282277,0.0472 1.881902,0.799808 1.881902,0.799808 l 1.223277,1.83489 z"
     style="fill:#71121c;fill-opacity:1;stroke:none;stroke-width:0.86568642;stroke-linecap:butt;stroke-linejoin:miter;stroke-miterlimit:4;stroke-dasharray:none;stroke-opacity:1" />
  <path
     style="fill:url(#radialGradient1366-7);fill-opacity:1;stroke:#b1b2b2;stroke-width:0.11071762;stroke-linecap:butt;stroke-linejoin:miter;stroke-miterlimit:4;stroke-dasharray:none;stroke-opacity:1"
     d="M 90.355565,34.163865 89.102897,31.206 c 0,0 -1.988974,-3.382815 -1.934883,-3.698922 0.0541,-0.316107 -0.717996,-4.695434 -0.717996,-4.695434 l -4.0836,-6.713368 -5.194175,-5.927281 -0.94734,-1.4495919 0.504691,1.8429109 1.159815,1.211937 3.784674,4.191712 2.70373,4.149762 1.926582,2.804332 0.0648,2.27442 0.581933,3.395045 2.111556,3.14067 z"
     id="path1342"
     inkscape:connector-curvature="0" />
  <path
     inkscape:connector-curvature="0"
     id="path1006"
     d="m 72.077161,43.75065 -0.410079,1.230257 -0.89475,1.043863 -0.969291,1.491223 -0.521922,1.901302 -1.006582,1.267558 1.714908,-2.124997 0.186374,-1.081153 0.372818,-0.820149 0.633764,-0.820178 0.745597,-0.93201 z"
     style="fill:#570e15;fill-opacity:1;stroke:#b41c2d;stroke-width:0.0158168;stroke-linecap:butt;stroke-linejoin:miter;stroke-miterlimit:4;stroke-dasharray:none;stroke-opacity:1" />
  <path
     inkscape:connector-curvature="0"
     id="path1067"
     d="m 27.127077,114.47934 c 0,0 -1.224587,1.45134 -1.36065,1.63277 -0.135933,0.18144 -2.26767,0.99781 -2.26767,0.99781 l -2.131687,-0.31749 -2.177018,-1.85957 -0.634974,-1.72345 0.45357,-2.4945 1.768799,-2.90269 2.585207,-4.08189 3.809784,-5.07974 1.496704,1.76886 2.403793,3.53761 c 0,0 1.995584,2.17705 2.040945,2.35846 0.0453,0.18144 2.086336,3.12948 2.086336,3.12948 0,0 0.997782,2.22236 0.997782,2.40378 0,0.18145 -0.408159,2.26771 -0.408159,2.26771 l -1.269938,1.9049 -1.904902,0.77104 c 0,0 -1.587435,0 -1.859561,-0.0455 -0.272106,-0.0455 -1.81416,-0.77102 -1.81416,-0.77102 l -1.179206,-1.76887 z"
     style="fill:#71121c;fill-opacity:1;stroke:none;stroke-width:0.83452356;stroke-linecap:butt;stroke-linejoin:miter;stroke-miterlimit:4;stroke-dasharray:none;stroke-opacity:1" />
  <path
     style="fill:url(#radialGradient1360-9);fill-opacity:1;stroke:#b1b2b2;stroke-width:0.10906034;stroke-linecap:butt;stroke-linejoin:miter;stroke-miterlimit:4;stroke-dasharray:none;stroke-dashoffset:0;stroke-opacity:1"
     d="m 3.215139,81.736367 1.5582545,-3.819682 0.0243,-2.859973 1.4123212,-2.420603 0.4152392,-1.228168 1.6650768,-3.231741 c 0,0 1.9308033,-3.279092 2.0735063,-3.433846 0.142823,-0.154863 2.549946,-5.339478 2.549946,-5.339478 l -1.791169,4.368617 -1.9104129,4.479399 -1.2382674,4.120911 c 0,0 -1.9565732,1.751408 -2.0739458,1.971293 -0.1170426,0.219975 -0.7198959,3.262432 -0.6185937,3.522988 0.1013322,0.260416 -2.8278925,6.085542 -2.8278925,6.085542 l -2.15793769,4.155441 z"
     id="path1336"
     inkscape:connector-curvature="0" />
  <path
     style="fill:#570e15;fill-opacity:1;stroke:#b41c2d;stroke-width:0.03163361;stroke-linecap:butt;stroke-linejoin:miter;stroke-miterlimit:4;stroke-dasharray:none;stroke-opacity:1"
     d="m 26.459823,107.08658 -0.369058,1.18624 -1.212627,1.58169 c 0,0 -1.476223,2.02983 -1.502593,2.18802 -0.0263,0.15807 0.395418,2.0298 0.342697,2.2407 -0.0528,0.2109 0.237265,-0.28997 0.237265,-0.28997 l -0.263615,-0.65906 -0.131823,-1.15988 c 0,0 0.421769,-0.84357 0.500861,-0.97536 0.0791,-0.13184 1.528963,-1.60806 1.528963,-1.60806 0,0 0.922641,-1.39715 0.922641,-1.50259 0,-0.10538 -0.0528,-1.00173 -0.0528,-1.00173 z"
     id="path1069"
     inkscape:connector-curvature="0" />
  <path
     inkscape:connector-curvature="0"
     id="path1071"
     d="m 66.676241,18.383029 c 0,0 1.270299,-1.505524 1.411462,-1.693738 0.141053,-0.188214 2.352392,-1.035063 2.352392,-1.035063 l 2.211279,0.329348 2.258309,1.928962 0.658665,1.78784 -0.47049,2.587655 -1.834871,3.011076 -2.681729,4.234324 -3.952048,5.269406 -1.552594,-1.83487 -2.493555,-3.669751 c 0,0 -2.070126,-2.25832 -2.117167,-2.446514 -0.0472,-0.188214 -2.164218,-3.246342 -2.164218,-3.246342 0,0 -1.035062,-2.305351 -1.035062,-2.493545 0,-0.188204 0.423429,-2.35241 0.423429,-2.35241 l 1.317359,-1.976014 1.976034,-0.799817 c 0,0 1.646686,0 1.928982,0.0472 0.282277,0.0472 1.881902,0.799817 1.881902,0.799817 l 1.223267,1.834901 z"
     style="fill:#71121c;fill-opacity:1;stroke:none;stroke-width:0.86568642;stroke-linecap:butt;stroke-linejoin:miter;stroke-miterlimit:4;stroke-dasharray:none;stroke-opacity:1" />
  <path
     inkscape:connector-curvature="0"
     id="path1073"
     d="m 71.027398,19.244808 c 0,0.149053 -0.335528,1.155693 -0.335528,1.155693 l -0.857459,1.304829 -0.969291,0.969281 1.155705,-1.006582 c 0,0 0.596474,-0.596473 0.671045,-0.745596 0.0746,-0.149054 0.335528,-0.89473 0.335528,-0.89473 z"
     style="fill:#570e15;fill-opacity:1;stroke:#b41c2d;stroke-width:0.0158168;stroke-linecap:butt;stroke-linejoin:miter;stroke-miterlimit:4;stroke-dasharray:none;stroke-opacity:1" />
  <path
     style="fill:url(#radialGradient1364-3);fill-opacity:1;stroke:#b1b2b2;stroke-width:0.06326722;stroke-linecap:butt;stroke-linejoin:miter;stroke-miterlimit:4;stroke-dasharray:none;stroke-opacity:1"
     d="m 58.073991,35.012631 c -0.245695,-0.0955 -5.088082,-4.489329 -5.297217,-4.649803 -0.209114,-0.160493 -4.905208,-4.814216 -4.905208,-4.814216 l -8.471447,-4.254604 -2.342722,-3.286443 2.052285,3.422416 2.570667,1.36129 5.40333,2.484995 5.069612,5.206215 8.428166,6.839791 z"
     id="path1340"
     inkscape:connector-curvature="0" />
  <path
     style="fill:#71121c;fill-opacity:1;stroke:none;stroke-width:0.86568642;stroke-linecap:butt;stroke-linejoin:miter;stroke-miterlimit:4;stroke-dasharray:none;stroke-opacity:1"
     d="m 26.929383,45.344425 c 0,0 1.270308,-1.505533 1.411471,-1.693737 0.141043,-0.188214 2.352392,-1.035053 2.352392,-1.035053 l 2.211279,0.329347 2.2583,1.928953 0.658675,1.78784 -0.470481,2.587667 -1.83488,3.011056 -2.68173,4.234344 -3.952047,5.269396 -1.552604,-1.83488 -2.493555,-3.669741 c 0,0 -2.070106,-2.25833 -2.117157,-2.446524 -0.0472,-0.188205 -2.164218,-3.246322 -2.164218,-3.246322 0,0 -1.035053,-2.305361 -1.035053,-2.493555 0,-0.188214 0.42342,-2.352412 0.42342,-2.352412 l 1.317349,-1.976014 1.976033,-0.799808 c 0,0 1.646697,0 1.928983,0.0472 0.282276,0.0472 1.881902,0.799808 1.881902,0.799808 l 1.223277,1.834891 z"
     id="path1144"
     inkscape:connector-curvature="0" />
  <path
     style="fill:#570e15;fill-opacity:1;stroke:#b41c2d;stroke-width:0.0158168;stroke-linecap:butt;stroke-linejoin:miter;stroke-miterlimit:4;stroke-dasharray:none;stroke-opacity:1"
     d="m 22.877854,50.136071 1.000122,0.825509 0.651734,1.210566 1.042263,1.441172 1.585905,1.171436 0.820168,1.395431 -1.3651,-2.364962 -0.941551,-0.563113 -0.630934,-0.643094 -0.537012,-0.88655 -0.601073,-1.031142 z"
     id="path1146"
     inkscape:connector-curvature="0" />
  <path
     inkscape:connector-curvature="0"
     id="path1031"
     d="m 47.347674,59.044819 c 0,0 1.270308,-1.505533 1.411472,-1.693737 0.141043,-0.188214 2.352392,-1.035053 2.352392,-1.035053 l 2.211278,0.329347 2.2583,1.928953 0.658675,1.787839 -0.470481,2.587668 -1.83488,3.011056 -2.681729,4.234344 -3.952048,5.269396 -1.552604,-1.83488 -2.493555,-3.669742 c 0,0 -2.070106,-2.258329 -2.117157,-2.446524 -0.0472,-0.188204 -2.164218,-3.246321 -2.164218,-3.246321 0,0 -1.035053,-2.305361 -1.035053,-2.493555 0,-0.188215 0.42342,-2.352412 0.42342,-2.352412 l 1.317349,-1.976014 1.976034,-0.799808 c 0,0 1.646696,0 1.928982,0.0472 0.282276,0.0472 1.881902,0.799808 1.881902,0.799808 l 1.223277,1.83489 z"
     style="fill:#71121c;fill-opacity:1;stroke:none;stroke-width:0.86568642;stroke-linecap:butt;stroke-linejoin:miter;stroke-miterlimit:4;stroke-dasharray:none;stroke-opacity:1" />
  <path
     inkscape:connector-curvature="0"
     id="path1033"
     d="m 27.375873,45.505766 1.000122,0.825508 0.651734,1.210567 1.042264,1.441172 1.585905,1.171436 0.820168,1.395431 -1.3651,-2.364963 -0.941551,-0.563112 -0.630934,-0.643094 -0.537012,-0.88655 -0.601073,-1.031143 z"
     style="fill:#570e15;fill-opacity:1;stroke:#b41c2d;stroke-width:0.0158168;stroke-linecap:butt;stroke-linejoin:miter;stroke-miterlimit:4;stroke-dasharray:none;stroke-opacity:1" />
  <path
     inkscape:connector-curvature="0"
     id="path1113"
     d="m 27.031705,90.003819 c 0,0 -1.270298,1.505524 -1.411461,1.693738 -0.141053,0.188214 -2.352392,1.035063 -2.352392,1.035063 l -2.211279,-0.329348 -2.25831,-1.928962 -0.658674,-1.78784 0.4705,-2.587657 1.834871,-3.011076 2.681729,-4.234321 3.952047,-5.269406 1.552595,1.83487 2.493555,3.669751 c 0,0 2.070116,2.258317 2.117167,2.446511 0.0472,0.188214 2.164217,3.246342 2.164217,3.246342 0,0 1.035053,2.305351 1.035053,2.493545 0,0.188204 -0.423419,2.352412 -0.423419,2.352412 l -1.317359,1.976014 -1.976034,0.799817 c 0,0 -1.646686,0 -1.928982,-0.0472 -0.282277,-0.0472 -1.881902,-0.799817 -1.881902,-0.799817 L 27.69035,89.721353 Z"
     style="fill:#71121c;fill-opacity:1;stroke:none;stroke-width:0.86568642;stroke-linecap:butt;stroke-linejoin:miter;stroke-miterlimit:4;stroke-dasharray:none;stroke-opacity:1" />
  <path
     inkscape:connector-curvature="0"
     id="path1115"
     d="m 28.239552,85.212403 c 0,-0.149063 0.335527,-1.155705 0.335527,-1.155705 l 0.857459,-1.304829 0.969292,-0.969281 -1.155706,1.006582 c 0,0 -0.596473,0.596473 -0.671045,0.745606 -0.0746,0.149044 -0.335527,0.89472 -0.335527,0.89472 z"
     style="fill:#570e15;fill-opacity:1;stroke:#b41c2d;stroke-width:0.0158168;stroke-linecap:butt;stroke-linejoin:miter;stroke-miterlimit:4;stroke-dasharray:none;stroke-opacity:1" />
  <path
     inkscape:connector-curvature="0"
     id="path1117"
     d="m 21.423311,84.811105 0.410089,-1.230258 0.89473,-1.043853 0.969302,-1.491233 0.521921,-1.901289 1.006582,-1.267558 -1.714907,2.124997 -0.186375,1.081151 -0.372818,0.820148 -0.633764,0.820168 -0.745606,0.932021 z"
     style="fill:#570e15;fill-opacity:1;stroke:#b41c2d;stroke-width:0.0158168;stroke-linecap:butt;stroke-linejoin:miter;stroke-miterlimit:4;stroke-dasharray:none;stroke-opacity:1" />
  <path
     style="fill:#71121c;fill-opacity:1;stroke:none;stroke-width:0.10881402px;stroke-linecap:butt;stroke-linejoin:miter;stroke-opacity:1"
     d="M 12.059274,13.587064 11.251367,15.703001 4.4418961,12.355977 4.1726002,10.970999 8.2505803,5.3156778 9.2508424,4.9694332 17.676119,6.9314825 18.368604,8.2395164 11.828439,22.974127 9.7125026,22.127755 15.9449,8.6627048 9.4816675,7.3931447 6.7501972,11.163355 Z"
     id="path1232"
     inkscape:connector-curvature="0" />
  <path
     inkscape:connector-curvature="0"
     id="path1234"
     d="m 82.080172,119.59893 0.807908,-2.11593 6.80946,3.34702 0.269306,1.38497 -4.07799,5.65533 -1.000262,0.34624 -8.425266,-1.96205 -0.692496,-1.30803 6.540165,-14.73461 2.115937,0.84636 -6.232388,13.46506 6.463223,1.26956 2.73148,-3.77021 z"
     style="fill:#71121c;fill-opacity:1;stroke:none;stroke-width:0.10881402px;stroke-linecap:butt;stroke-linejoin:miter;stroke-opacity:1" />
  <path
     inkscape:connector-curvature="0"
     id="path1255"
     d="m 65.610758,89.717563 c 0,0 -1.224577,1.451342 -1.36065,1.632766 -0.135933,0.181444 -2.26767,0.997812 -2.26767,0.997812 l -2.131687,-0.317487 -2.177018,-1.859571 -0.634964,-1.723448 0.45356,-2.494505 1.768799,-2.902684 2.585217,-4.081893 3.809774,-5.079746 1.496713,1.768859 2.403783,3.537612 c 0,0 1.995594,2.177051 2.040955,2.358465 0.0453,0.181444 2.086326,3.129479 2.086326,3.129479 0,0 0.997792,2.222359 0.997792,2.403783 0,0.181444 -0.408169,2.26771 -0.408169,2.26771 l -1.269938,1.904902 -1.904902,0.771037 c 0,0 -1.587435,0 -1.859551,-0.0455 -0.272116,-0.0455 -1.81417,-0.771017 -1.81417,-0.771017 l -1.179206,-1.768869 z"
     style="fill:#71121c;fill-opacity:1;stroke:none;stroke-width:0.83452356;stroke-linecap:butt;stroke-linejoin:miter;stroke-miterlimit:4;stroke-dasharray:none;stroke-opacity:1" />
  <path
     style="fill:#570e15;fill-opacity:1;stroke:#b41c2d;stroke-width:0.03163361;stroke-linecap:butt;stroke-linejoin:miter;stroke-miterlimit:4;stroke-dasharray:none;stroke-opacity:1"
     d="m 64.943503,82.3248 -0.369058,1.186246 -1.212627,1.581685 c 0,0 -1.476222,2.029835 -1.502583,2.188018 -0.0263,0.158074 0.395409,2.029805 0.342698,2.2407 -0.0528,0.210904 0.237265,-0.289967 0.237265,-0.289967 l -0.263626,-0.659054 -0.131823,-1.159886 c 0,0 0.421779,-0.843569 0.500861,-0.975361 0.0791,-0.131833 1.528964,-1.608056 1.528964,-1.608056 0,0 0.92265,-1.397151 0.92265,-1.502593 0,-0.105383 -0.0528,-1.001732 -0.0528,-1.001732 z"
     id="path1257"
     inkscape:connector-curvature="0" />
</svg>
