<?xml version="1.0" encoding="UTF-8" standalone="no"?>
<!-- Created with Inkscape (http://www.inkscape.org/) -->

<svg
   xmlns:dc="http://purl.org/dc/elements/1.1/"
   xmlns:cc="http://creativecommons.org/ns#"
   xmlns:rdf="http://www.w3.org/1999/02/22-rdf-syntax-ns#"
   xmlns:svg="http://www.w3.org/2000/svg"
   xmlns="http://www.w3.org/2000/svg"
   xmlns:xlink="http://www.w3.org/1999/xlink"
   xmlns:sodipodi="http://sodipodi.sourceforge.net/DTD/sodipodi-0.dtd"
   xmlns:inkscape="http://www.inkscape.org/namespaces/inkscape"
   width="356"
   height="499"
   version="1.1"
   viewBox="0 0 94.192 132.03"
   id="svg50"
   sodipodi:docname="King_of_Clubs.svg"
   inkscape:version="0.92.4 (5da689c313, 2019-01-14)">
  <sodipodi:namedview
     pagecolor="#ffffff"
     bordercolor="#666666"
     borderopacity="1"
     objecttolerance="10"
     gridtolerance="10"
     guidetolerance="10"
     inkscape:pageopacity="0"
     inkscape:pageshadow="2"
     inkscape:window-width="1920"
     inkscape:window-height="1017"
     id="namedview52"
     showgrid="false"
     inkscape:zoom="1.6993988"
     inkscape:cx="-13.244104"
     inkscape:cy="249.5"
     inkscape:window-x="-8"
     inkscape:window-y="-8"
     inkscape:window-maximized="1"
     inkscape:current-layer="svg50" />
  <defs
     id="defs12">
    <linearGradient
       id="linearGradient1974-8">
      <stop
         stop-color="#565757"
         offset="0"
         id="stop2" />
      <stop
         stop-color="#373838"
         stop-opacity="0"
         offset="1"
         id="stop4" />
    </linearGradient>
    <radialGradient
       id="radialGradient989"
       cx="161.11"
       cy="166.44"
       r="1.4032"
       gradientTransform="matrix(-.3255 -.46662 6.8178 -4.756 -1044.3 1110.6)"
       gradientUnits="userSpaceOnUse"
       xlink:href="#linearGradient1974-8" />
    <radialGradient
       id="radialGradient991"
       cx="49.268"
       cy="149.25"
       r="6.7426"
       gradientTransform="matrix(-.9688 -1.094 3.847 -3.4068 -506.44 808.37)"
       gradientUnits="userSpaceOnUse"
       xlink:href="#linearGradient1974-8" />
    <radialGradient
       id="radialGradient993"
       cx="138.44"
       cy="235.05"
       r="20.919"
       gradientTransform="matrix(.18315 -.35514 .79883 .41196 -155.53 159.67)"
       gradientUnits="userSpaceOnUse"
       xlink:href="#linearGradient1974-8" />
    <radialGradient
       id="radialGradient997"
       cx="80.302"
       cy="225.63"
       r="5.5573"
       gradientTransform="matrix(-.56044 -.45306 1.8279 -2.2612 -282.69 777.76)"
       gradientUnits="userSpaceOnUse"
       xlink:href="#linearGradient1974-8" />
    <radialGradient
       id="radialGradient995"
       cx="170.35"
       cy="66.049"
       r="12.035"
       gradientTransform="matrix(-.69538 -.48656 .79362 -1.1342 97.189 356.23)"
       gradientUnits="userSpaceOnUse"
       xlink:href="#linearGradient1974-8" />
    <radialGradient
       inkscape:collect="always"
       xlink:href="#linearGradient1974-8"
       id="radialGradient997-3"
       gradientUnits="userSpaceOnUse"
       gradientTransform="matrix(-0.56295041,-0.45508134,1.8360998,-2.2713151,-309.44194,658.31992)"
       cx="80.301682"
       cy="225.62547"
       fx="80.301682"
       fy="225.62547"
       r="5.5573373" />
    <radialGradient
       inkscape:collect="always"
       xlink:href="#linearGradient1974-8"
       id="radialGradient991-5"
       gradientUnits="userSpaceOnUse"
       gradientTransform="matrix(-0.9731288,-1.09886,3.8641662,-3.4220297,-475.56943,593.16283)"
       cx="49.268208"
       cy="149.24762"
       fx="49.268208"
       fy="149.24762"
       r="6.742619" />
    <radialGradient
       inkscape:collect="always"
       xlink:href="#linearGradient1974-8"
       id="radialGradient989-0"
       gradientUnits="userSpaceOnUse"
       gradientTransform="matrix(-0.23659932,0.52020012,-7.6007171,-3.4569862,1324.6499,540.23737)"
       cx="161.11455"
       cy="166.44328"
       fx="161.11455"
       fy="166.44328"
       r="1.40318" />
    <radialGradient
       inkscape:collect="always"
       xlink:href="#linearGradient1974-8"
       id="radialGradient995-4"
       gradientUnits="userSpaceOnUse"
       gradientTransform="matrix(-0.65835151,-0.5415901,0.88338091,-1.0738291,124.37559,207.07544)"
       cx="170.35481"
       cy="66.048706"
       fx="170.35481"
       fy="66.048706"
       r="12.034579" />
    <radialGradient
       inkscape:collect="always"
       xlink:href="#linearGradient1974-8"
       id="radialGradient993-6"
       gradientUnits="userSpaceOnUse"
       gradientTransform="matrix(0.18396454,-0.35672533,0.80240047,0.41380082,-180.4882,26.606975)"
       cx="138.43695"
       cy="235.05092"
       fx="138.43695"
       fy="235.05092"
       r="20.918684" />
  </defs>
  <metadata
     id="metadata14">
    <rdf:RDF>
      <cc:Work
         rdf:about="">
        <dc:format>image/svg+xml</dc:format>
        <dc:type
           rdf:resource="http://purl.org/dc/dcmitype/StillImage" />
        <dc:title />
      </cc:Work>
    </rdf:RDF>
  </metadata>
  <path
     sodipodi:nodetypes="ccccccccccccccccccccccccccccccccccccc"
     inkscape:connector-curvature="0"
     id="path963"
     d="M 4.91328,0.9504336 13.253886,0.5114089 25.749752,0.9504336 36.375823,0.65865449 46.304309,2.1358616 57.00442,0.9504336 68.703017,0.93285534 78.077204,1.9745936 88.259108,0.95048383 l 4.259555,4.29352647 -1.02411,15.2760547 2.1382,15.518002 -1.890085,16.617166 0.887411,13.508435 -0.63345,17.477373 -0.03506,15.433456 2.172261,14.713113 -1.437731,10.4366 -4.437045,6.26139 -10.752464,0.77985 -10.261479,-0.17094 -11.647428,-0.11492 -8.823617,0.5396 -11.668171,-0.0491 -12.92129,-0.31601 -8.133725,-1.27783 -7.1853519,0.0727 L 0.65367455,126.19213 1.1899824,117.47424 2.3023953,99.019301 0.65367455,80.836585 0.05226685,69.154314 1.2107248,56.281419 1.5857244,37.254594 1.5202328,20.520115 0.65367455,5.2440605 Z"
     style="display:inline;fill:#C6C7C7;fill-opacity:1;stroke:#FF8D40;stroke-width:3.55563727;stroke-miterlimit:4;stroke-dasharray:none;stroke-opacity:1" />
  <path
     inkscape:connector-curvature="0"
     id="path976"
     d="m 23.381196,23.665264 c 0,0 -3.852472,1.221519 -3.946441,1.268498 -0.09392,0.04701 -0.56376,4.745117 -0.56376,4.745117 l 1.879247,2.583965 3.758505,0.422832 2.490016,-2.818871 0.328864,1.785279 -1.926236,3.805494 3.852473,0.187927 2.302089,-0.140948 -0.704717,-2.30208 -1.315477,-2.114163 -0.04701,-1.973215 c 0,0 2.349069,3.335671 2.583975,3.42964 0.234906,0.09392 3.758505,-0.04701 3.758505,-0.04701 l 2.724922,-2.724912 0.04701,-3.664556 -2.724922,-2.630944 -4.134358,1.315477 1.691331,-2.912849 -0.281895,-3.288693 -2.86586,-1.785288 -3.617557,-0.140948 -2.349069,1.785289 -0.328874,3.194734 1.221518,2.443027 z"
     style="fill:#000000;fill-opacity:1;stroke:none;stroke-width:1.24910307;stroke-linecap:butt;stroke-linejoin:miter;stroke-miterlimit:4;stroke-dasharray:none;stroke-opacity:1" />
  <path
     style="fill:#000000;fill-opacity:1;stroke:none;stroke-width:0.66799247;stroke-linecap:butt;stroke-linejoin:miter;stroke-miterlimit:4;stroke-dasharray:none;stroke-opacity:1"
     d="m 6.5125606,26.710849 c 0,0 -2.0602129,0.653238 -2.1104767,0.67836 -0.050224,0.02511 -0.3014923,2.537579 -0.3014923,2.537579 l 1.0049845,1.381852 2.0099692,0.226127 1.3315988,-1.507482 0.1758731,0.954731 -1.0300964,2.035101 2.0602028,0.100497 1.2311114,-0.07534 -0.376868,-1.231101 -0.7034922,-1.130614 -0.025112,-1.055229 c 0,0 1.2562432,1.783843 1.3818632,1.834096 0.125619,0.05022 2.009959,-0.02511 2.009959,-0.02511 l 1.457228,-1.457228 0.02511,-1.959716 -1.457218,-1.406974 -2.210975,0.703492 0.904498,-1.557726 -0.150752,-1.75872 -1.532613,-0.954741 -1.9345741,-0.07533 -1.2562432,0.95474 -0.1758631,1.708467 0.6532285,1.306477 z"
     id="path978"
     inkscape:connector-curvature="0" />
  <path
     style="fill:#000000;fill-opacity:1;stroke:none;stroke-width:0.65468246;stroke-linecap:butt;stroke-linejoin:miter;stroke-miterlimit:4;stroke-dasharray:none;stroke-opacity:1"
     d="m 88.69978,106.33965 c 0,0 2.01917,-0.64021 2.068419,-0.66484 0.04922,-0.0246 0.295476,-2.48702 0.295476,-2.48702 l -0.984945,-1.35432 -1.969921,-0.22162 -1.305061,1.47744 -0.172377,-0.9357 1.009575,-1.99454 -2.01916,-0.0985 -1.206573,0.0738 0.369365,1.20656 0.68947,1.10808 0.02461,1.03421 c 0,0 -1.231201,-1.7483 -1.35432,-1.79755 -0.123118,-0.0492 -1.96991,0.0246 -1.96991,0.0246 l -1.428189,1.42819 -0.02471,1.92067 1.428189,1.37894 2.166917,-0.68947 -0.886466,1.52669 0.147747,1.72367 1.502058,0.93571 1.896052,0.0738 1.231192,-0.93571 0.172367,-1.67443 -0.64022,-1.28043 z"
     id="path984"
     inkscape:connector-curvature="0" />
  <path
     style="fill:#000000;fill-opacity:1;stroke:none;stroke-width:1.24910307;stroke-linecap:butt;stroke-linejoin:miter;stroke-miterlimit:4;stroke-dasharray:none;stroke-opacity:1"
     d="m 71.784266,108.29941 c 0,0 3.852482,-1.22152 3.946441,-1.2685 0.09392,-0.047 0.56377,-4.74512 0.56377,-4.74512 l -1.879247,-2.58397 -3.758515,-0.422833 -2.490016,2.818883 -0.328865,-1.78529 1.926237,-3.805494 -3.852473,-0.187927 -2.30209,0.140948 0.704728,2.302079 1.315477,2.114174 0.04701,1.97322 c 0,0 -2.349069,-3.335687 -2.583974,-3.429645 -0.234906,-0.09392 -3.758505,0.04701 -3.758505,0.04701 l -2.724922,2.724925 -0.04701,3.66453 2.724923,2.63096 4.134358,-1.31548 -1.691331,2.91285 0.281885,3.28869 2.86587,1.78529 3.617557,0.14095 2.349069,-1.78529 0.328864,-3.19474 -1.221508,-2.44302 z"
     id="path1029"
     inkscape:connector-curvature="0" />
  <path
     inkscape:transform-center-y="8.6539105"
     inkscape:transform-center-x="-61.747803"
     inkscape:connector-curvature="0"
     id="path985"
     d="m 53.807064,113.60839 c 0,0 2.693191,-3.34074 3.13754,-3.83456 0.444348,-0.49383 6.806023,-6.52114 6.806023,-6.52114 l 2.442947,-1.06171 1.194076,-0.37897 -0.988019,0.81714 -1.709953,0.37292 -1.818929,1.45968 -4.336899,4.17028 -0.840332,2.35601 -2.807781,2.57623 c 0,0 -2.584246,3.34606 -2.700233,3.66822 -0.116056,0.32211 1.62163,-3.62405 1.62163,-3.62405 z"
     style="fill:url(#radialGradient997-3);fill-opacity:1;stroke:#b1b2b2;stroke-width:0.07877786;stroke-linecap:butt;stroke-linejoin:miter;stroke-miterlimit:4;stroke-dasharray:none;stroke-opacity:1" />
  <path
     style="fill:#000000;fill-opacity:1;stroke:none;stroke-width:0.11242112px;stroke-linecap:butt;stroke-linejoin:miter;stroke-opacity:1"
     d="M 9.2276191,2.447258 11.493186,2.8447227 9.1481251,21.12828 6.7235701,20.691065 Z"
     id="path1121"
     inkscape:connector-curvature="0" />
  <path
     style="fill:#000000;fill-opacity:1;stroke:none;stroke-width:0.11242112px;stroke-linecap:butt;stroke-linejoin:miter;stroke-opacity:1"
     d="m 11.850909,11.827512 7.194181,-5.8030378 1.430891,1.7488626 -6.240254,5.1273422 6.001772,6.319753 -1.748866,1.510383 -6.836459,-7.353171 z"
     id="path1123"
     inkscape:connector-curvature="0" />
  <path
     inkscape:connector-curvature="0"
     id="path1125"
     d="m 33.396247,34.548202 7.300545,1.280783 -7.556705,58.916648 -7.812856,-1.408883 z"
     style="fill:#000000;fill-opacity:1;stroke:none;stroke-width:0.3622641px;stroke-linecap:butt;stroke-linejoin:miter;stroke-opacity:1" />
  <path
     inkscape:transform-center-y="39.455032"
     inkscape:transform-center-x="51.439837"
     inkscape:connector-curvature="0"
     id="path979"
     d="m 49.698451,27.89389 5.753507,-5.059918 c 0,0 7.89239,-2.345486 9.405868,-3.290132 1.513479,-0.944626 8.49658,-0.980335 9.215813,-1.217853 0.719242,-0.237497 1.806834,-0.427915 1.806834,-0.427915 l -0.408749,-2.073938 -0.233801,1.243018 -0.555032,0.827565 -3.482806,0.183708 -5.822173,-0.02551 -6.965242,3.527275 -3.947034,1.472148 -3.646606,2.753499 c 0,0 -2.768255,4.902458 -3.499581,6.171719 -0.731337,1.269272 -9.150512,7.500907 -9.150512,7.500907 l -5.2647,4.867824 2.936122,-2.350144 8.246246,-6.987541 4.65381,-3.837747 1.244341,-3.524874 z"
     style="fill:url(#radialGradient991-5);fill-opacity:1;stroke:#b1b2b2;stroke-width:0.06302228;stroke-linecap:butt;stroke-linejoin:miter;stroke-miterlimit:4;stroke-dasharray:none;stroke-opacity:1" />
  <path
     inkscape:transform-center-y="-0.14453284"
     inkscape:transform-center-x="-0.18684645"
     inkscape:connector-curvature="0"
     id="path977"
     d="m 27.334257,51.40736 -2.822989,-1.272646 -2.169449,-0.171423 -1.768243,-1.097085 -0.91187,-0.3505 -2.37159,-1.31383 c 0,0 -2.394521,-1.49813 -2.505023,-1.604122 -0.110452,-0.106032 -3.928129,-2.033159 -3.928129,-2.033159 l 3.228243,1.461674 3.306512,1.549248 3.067216,1.070065 c 0,0 1.233794,1.4331 1.394971,1.525291 0.161238,0.09201 2.440958,0.669039 2.643671,0.613863 0.202702,-0.05515 4.48074,2.263719 4.48074,2.263719 l 3.048533,1.701074 z"
     style="fill:url(#radialGradient989-0);fill-opacity:1;stroke:#b1b2b2;stroke-width:0.07877786;stroke-linecap:butt;stroke-linejoin:miter;stroke-miterlimit:4;stroke-dasharray:none;stroke-dashoffset:0;stroke-opacity:1" />
  <path
     inkscape:connector-curvature="0"
     id="path1127"
     d="M 41.849514,64.775002 65.031932,46.075369 69.642811,51.710878 49.5343,68.233131 68.874329,88.597821 63.238818,93.464861 41.209123,69.770124 Z"
     style="fill:#000000;fill-opacity:1;stroke:none;stroke-width:0.3622641px;stroke-linecap:butt;stroke-linejoin:miter;stroke-opacity:1" />
  <path
     inkscape:transform-center-y="6.6473872"
     inkscape:transform-center-x="101.1027"
     inkscape:connector-curvature="0"
     id="path983"
     d="m 59.204365,57.133995 2.127663,-2.389875 c 0,0 2.195937,-3.233942 2.503527,-3.320174 0.307619,-0.08621 3.919822,-2.650155 3.919822,-2.650155 l 4.299704,-6.540666 3.118214,-7.204775 0.900429,-1.471346 -1.443336,1.240788 -0.595853,1.561166 -2.157617,5.19541 -2.581202,4.204574 -1.701878,2.930901 -2.019481,1.028987 -2.80745,1.972734 -1.925644,3.240907 z"
     style="fill:url(#radialGradient995-4);fill-opacity:1;stroke:#b1b2b2;stroke-width:0.110289;stroke-linecap:butt;stroke-linejoin:miter;stroke-miterlimit:4;stroke-dasharray:none;stroke-opacity:1" />
  <path
     inkscape:transform-center-y="-29.406915"
     inkscape:transform-center-x="-11.904445"
     inkscape:connector-curvature="0"
     id="path981"
     d="m 22.873114,69.617859 c 0.26048,0.03325 5.997312,3.11753 6.238044,3.222427 0.240732,0.104897 5.898613,3.475545 5.898613,3.475545 l 9.211694,2.077751 3.054319,2.614225 -2.806224,-2.815461 -2.812151,-0.69838 -5.820555,-1.104166 -6.15171,-3.814976 -9.790943,-4.587344 z"
     style="fill:url(#radialGradient993-6);fill-opacity:1;stroke:#b1b2b2;stroke-width:0.06302228;stroke-linecap:butt;stroke-linejoin:miter;stroke-miterlimit:4;stroke-dasharray:none;stroke-opacity:1" />
  <path
     style="fill:#000000;fill-opacity:1;stroke:none;stroke-width:0.11277125px;stroke-linecap:butt;stroke-linejoin:miter;stroke-opacity:1"
     d="m 84.558702,129.75036 -2.272628,-0.39871 2.352373,-18.3405 2.432109,0.43859 z"
     id="path1129"
     inkscape:connector-curvature="0" />
  <path
     style="fill:#000000;fill-opacity:1;stroke:none;stroke-width:0.11277125px;stroke-linecap:butt;stroke-linejoin:miter;stroke-opacity:1"
     d="m 81.927246,120.34088 -7.216591,5.82112 -1.435351,-1.75432 6.259701,-5.1433 -6.020476,-6.33944 1.754311,-1.51509 6.857754,7.37607 z"
     id="path1131"
     inkscape:connector-curvature="0" />
</svg>
