<?xml version="1.0" encoding="UTF-8" standalone="no"?>
<!-- Created with Inkscape (http://www.inkscape.org/) -->

<svg
   xmlns:dc="http://purl.org/dc/elements/1.1/"
   xmlns:cc="http://creativecommons.org/ns#"
   xmlns:rdf="http://www.w3.org/1999/02/22-rdf-syntax-ns#"
   xmlns:svg="http://www.w3.org/2000/svg"
   xmlns="http://www.w3.org/2000/svg"
   xmlns:xlink="http://www.w3.org/1999/xlink"
   xmlns:sodipodi="http://sodipodi.sourceforge.net/DTD/sodipodi-0.dtd"
   xmlns:inkscape="http://www.inkscape.org/namespaces/inkscape"
   width="356"
   height="499"
   version="1.1"
   viewBox="0 0 94.192 132.03"
   id="svg61"
   sodipodi:docname="Queen_of_Hearts.svg"
   inkscape:version="0.92.4 (5da689c313, 2019-01-14)">
  <sodipodi:namedview
     pagecolor="#ffffff"
     bordercolor="#666666"
     borderopacity="1"
     objecttolerance="10"
     gridtolerance="10"
     guidetolerance="10"
     inkscape:pageopacity="0"
     inkscape:pageshadow="2"
     inkscape:window-width="1920"
     inkscape:window-height="1017"
     id="namedview63"
     showgrid="false"
     inkscape:zoom="1.6993988"
     inkscape:cx="82.377948"
     inkscape:cy="249.5"
     inkscape:window-x="-8"
     inkscape:window-y="-8"
     inkscape:window-maximized="1"
     inkscape:current-layer="svg61" />
  <defs
     id="defs13">
    <linearGradient
       id="linearGradient1974-8">
      <stop
         stop-color="#565757"
         offset="0"
         id="stop2" />
      <stop
         stop-color="#373838"
         stop-opacity="0"
         offset="1"
         id="stop4" />
    </linearGradient>
    <radialGradient
       id="radialGradient1360"
       cx="161.11"
       cy="166.44"
       r="1.4032"
       gradientTransform="matrix(-.56671 .050266 -.73444 -8.2803 232.39 1566.7)"
       gradientUnits="userSpaceOnUse"
       xlink:href="#linearGradient1974-8" />
    <radialGradient
       id="radialGradient1362"
       cx="49.268"
       cy="149.25"
       r="6.7426"
       gradientTransform="matrix(1.1061 -.95493 3.358 3.8896 -535.57 -262.42)"
       gradientUnits="userSpaceOnUse"
       xlink:href="#linearGradient1974-8" />
    <radialGradient
       id="radialGradient1364"
       cx="138.44"
       cy="235.05"
       r="20.919"
       gradientTransform="matrix(-.21698 -.33554 .75474 -.48807 -86.448 353.66)"
       gradientUnits="userSpaceOnUse"
       xlink:href="#linearGradient1974-8" />
    <radialGradient
       id="radialGradient1366"
       cx="170.35"
       cy="66.049"
       r="12.035"
       gradientTransform="matrix(-.76799 .36121 -.58917 -1.2527 218.68 267.26)"
       gradientUnits="userSpaceOnUse"
       xlink:href="#linearGradient1974-8" />
    <radialGradient
       id="radialGradient1368"
       cx="80.302"
       cy="225.63"
       r="5.5573"
       gradientTransform="matrix(.44195 -.56924 2.2967 1.7831 -470.29 -181.19)"
       gradientUnits="userSpaceOnUse"
       xlink:href="#linearGradient1974-8" />
    <radialGradient
       id="radialGradient1370"
       cx="210.08"
       cy="90.623"
       r=".46312"
       gradientTransform="matrix(.59283 0 0 4.8358 -101.8 -246.45)"
       gradientUnits="userSpaceOnUse"
       xlink:href="#linearGradient1974-8" />
    <radialGradient
       inkscape:collect="always"
       xlink:href="#linearGradient1974-8"
       id="radialGradient1370-4"
       gradientUnits="userSpaceOnUse"
       gradientTransform="matrix(0.59780043,0,0,4.8762694,-103.047,-415.42387)"
       cx="210.08463"
       cy="90.623199"
       fx="210.08463"
       fy="90.623199"
       r="0.46311602" />
    <radialGradient
       inkscape:collect="always"
       xlink:href="#linearGradient1974-8"
       id="radialGradient1366-0"
       gradientUnits="userSpaceOnUse"
       gradientTransform="matrix(-0.7744265,0.36423877,-0.59410536,-1.2631575,247.98687,39.884087)"
       cx="170.35481"
       cy="66.048706"
       fx="170.35481"
       fy="66.048706"
       r="12.034579" />
    <radialGradient
       inkscape:collect="always"
       xlink:href="#linearGradient1974-8"
       id="radialGradient1368-2"
       gradientUnits="userSpaceOnUse"
       gradientTransform="matrix(-0.26239504,0.86935285,-3.4484491,-1.1532847,818.4222,301.86536)"
       cx="80.301682"
       cy="225.62547"
       fx="80.301682"
       fy="225.62547"
       r="5.5573373" />
    <radialGradient
       inkscape:collect="always"
       xlink:href="#linearGradient1974-8"
       id="radialGradient1362-3"
       gradientUnits="userSpaceOnUse"
       gradientTransform="matrix(0.79121921,1.2430704,-4.3712848,2.7823403,669.44115,-398.32693)"
       cx="49.268208"
       cy="149.24762"
       fx="49.268208"
       fy="149.24762"
       r="6.742619" />
    <radialGradient
       inkscape:collect="always"
       xlink:href="#linearGradient1974-8"
       id="radialGradient1360-2"
       gradientUnits="userSpaceOnUse"
       gradientTransform="matrix(-0.78124668,-0.26151011,4.2398665,-10.287094,-544.01191,1774.4323)"
       cx="161.11455"
       cy="166.44328"
       fx="161.11455"
       fy="166.44328"
       r="1.40318" />
    <radialGradient
       inkscape:collect="always"
       xlink:href="#linearGradient1974-8"
       id="radialGradient1364-4"
       gradientUnits="userSpaceOnUse"
       gradientTransform="matrix(-0.26559822,0.30299848,-0.68154994,-0.59742357,274.41036,209.7845)"
       cx="138.43695"
       cy="235.05092"
       fx="138.43695"
       fy="235.05092"
       r="20.918684" />
    <radialGradient
       inkscape:collect="always"
       xlink:href="#linearGradient1974-8"
       id="radialGradient1143"
       gradientUnits="userSpaceOnUse"
       gradientTransform="matrix(-0.18509972,-0.83555035,1.3628558,-0.30191386,-27.217651,219.71517)"
       cx="170.35481"
       cy="66.048706"
       fx="170.35481"
       fy="66.048706"
       r="12.034579" />
  </defs>
  <metadata
     id="metadata15">
    <rdf:RDF>
      <cc:Work
         rdf:about="">
        <dc:format>image/svg+xml</dc:format>
        <dc:type
           rdf:resource="http://purl.org/dc/dcmitype/StillImage" />
        <dc:title />
      </cc:Work>
    </rdf:RDF>
  </metadata>
  <path
     sodipodi:nodetypes="ccccccccccccccccccccccccccccccccccccc"
     inkscape:connector-curvature="0"
     id="path1324"
     d="M 4.8311468,1.3570106 14.793707,2.2499903 25.829431,1.3570106 36.507447,0.46403085 46.827695,1.3570106 H 57.326837 L 67.647115,2.2499903 78.325091,1.3570106 h 10.499152 l 4.292645,4.2862747 V 20.736197 35.82915 l -0.89432,16.700259 0.89432,13.485587 0.89429,17.236071 -0.89429,12.949811 -0.536592,16.343092 0.715446,11.87825 -4.471499,6.2508 H 78.325091 l -10.677976,-0.89298 -10.320278,0.89298 H 46.827695 l -10.677996,0.89295 -10.320268,-0.89295 H 15.330299 L 6.7986203,130.13723 0.53853192,126.38674 0.18080402,112.90114 2.3271115,96.736659 0.53853192,81.10793 V 66.014996 50.922074 L 1.6116656,36.007744 0.53853192,20.736197 V 5.6432853 Z"
     style="fill:#C6C7C7;fill-opacity:1;stroke:#FF8D40;stroke-width:3.55563727;stroke-miterlimit:4;stroke-dasharray:none;stroke-opacity:1" />
  <path
     inkscape:connector-curvature="0"
     id="path1129"
     d="m 26.405844,38.412732 43.120933,-4.582895 3.957957,4.374582 2.499765,51.245199 4.374607,3.124719 -4.374607,7.499293 -7.082656,-4.582918 -45.829033,2.499765 -4.999531,-4.791206 4.166263,-50.828562 z"
     style="fill:#71121c;fill-opacity:1;stroke:none;stroke-width:0.41662762px;stroke-linecap:butt;stroke-linejoin:miter;stroke-opacity:1" />
  <path
     style="fill:url(#radialGradient1370-4);fill-opacity:1;stroke:#7d7f7f;stroke-width:0.03163361;stroke-linecap:butt;stroke-linejoin:miter;stroke-miterlimit:4;stroke-dasharray:none;stroke-opacity:1"
     d="m 22.504247,28.735414 0.111933,-1.528504 -0.335518,-2.982446 0.521922,2.311391 z"
     id="path1348"
     inkscape:connector-curvature="0" />
  <path
     style="fill:#71121c;fill-opacity:1;stroke:none;stroke-width:0.86568642;stroke-linecap:butt;stroke-linejoin:miter;stroke-miterlimit:4;stroke-dasharray:none;stroke-opacity:1"
     d="m 30.838522,18.433931 c 0,0 1.270298,-1.505523 1.411461,-1.693737 0.141053,-0.188215 2.352392,-1.035063 2.352392,-1.035063 l 2.211279,0.329347 2.258309,1.928963 0.658675,1.787839 -0.4705,2.587655 -1.834871,3.011077 -2.681729,4.234323 -3.952048,5.269407 -1.552594,-1.834871 -2.493555,-3.669751 c 0,0 -2.070116,-2.25832 -2.117167,-2.446514 -0.0472,-0.188214 -2.164218,-3.246342 -2.164218,-3.246342 0,0 -1.035052,-2.305351 -1.035052,-2.493545 0,-0.188204 0.423419,-2.35241 0.423419,-2.35241 l 1.317359,-1.976013 1.976034,-0.799818 c 0,0 1.646686,0 1.928982,0.0472 0.282277,0.0472 1.881902,0.799818 1.881902,0.799818 l 1.223277,1.8349 z"
     id="path1308"
     inkscape:connector-curvature="0" />
  <path
     inkscape:connector-curvature="0"
     id="path1131"
     d="m 30.7804,46.745288 34.37177,-3.749648 1.041613,39.787942 -13.332095,-9.99906 -5.416159,7.082676 9.582421,6.874341 -28.9556,2.499775 z"
     style="fill:#C6C7C7;fill-opacity:1;stroke:none;stroke-width:0.41662762px;stroke-linecap:butt;stroke-linejoin:miter;stroke-opacity:1" />
  <path
     style="fill:#570e15;fill-opacity:1;stroke:#b41c2d;stroke-width:0.0158168;stroke-linecap:butt;stroke-linejoin:miter;stroke-miterlimit:4;stroke-dasharray:none;stroke-opacity:1"
     d="m 28.836907,25.606647 c 0,0.149064 -0.335527,1.155706 -0.335527,1.155706 l -0.857459,1.304829 -0.969291,0.969281 1.155705,-1.006582 c 0,0 0.596473,-0.596473 0.671045,-0.745606 0.0746,-0.149044 0.335527,-0.89472 0.335527,-0.89472 z"
     id="path1346"
     inkscape:connector-curvature="0" />
  <path
     style="fill:#570e15;fill-opacity:1;stroke:#b41c2d;stroke-width:0.0158168;stroke-linecap:butt;stroke-linejoin:miter;stroke-miterlimit:4;stroke-dasharray:none;stroke-opacity:1"
     d="m 35.466054,19.085512 -0.410089,1.230258 -0.89473,1.043853 -0.969301,1.491233 -0.521922,1.901292 -1.006582,1.267558 1.714908,-2.124997 0.186374,-1.081154 0.372818,-0.820148 0.633764,-0.820168 0.745607,-0.932021 z"
     id="path1350"
     inkscape:connector-curvature="0" />
  <path
     inkscape:connector-curvature="0"
     id="path1318"
     d="m 10.185875,23.99338 c 0,0 0.688665,-0.816198 0.765187,-0.91822 0.0764,-0.102103 1.275288,-0.561133 1.275288,-0.561133 l 1.198787,0.178584 1.224277,1.045763 0.357078,0.969222 -0.255036,1.402831 -0.994742,1.632366 -1.453832,2.29554 -2.142507,2.856684 -0.841699,-0.994752 -1.3518199,-1.989454 c 0,0 -1.1222548,-1.224297 -1.1477654,-1.32632 -0.025601,-0.101892 -1.1732759,-1.759919 -1.1732759,-1.759919 0,0 -0.5611224,-1.249767 -0.5611224,-1.351819 0,-0.102093 0.2295451,-1.275279 0.2295451,-1.275279 l 0.7141657,-1.071263 1.0712537,-0.4336 c 0,0 0.8927098,0 1.0457531,0.0256 0.1529434,0.0256 1.0202326,0.433579 1.0202326,0.433579 l 0.6631546,0.994752 z"
     style="fill:#71121c;fill-opacity:1;stroke:none;stroke-width:0.46930966;stroke-linecap:butt;stroke-linejoin:miter;stroke-miterlimit:4;stroke-dasharray:none;stroke-opacity:1" />
  <path
     style="fill:#570e15;fill-opacity:1;stroke:#b41c2d;stroke-width:0.0158168;stroke-linecap:butt;stroke-linejoin:miter;stroke-miterlimit:4;stroke-dasharray:none;stroke-opacity:1"
     d="m 12.102447,25.82723 v 0.89629 l -0.263615,1.449872 0.395418,-1.159895 0.0792,-0.790828 z"
     id="path1352"
     inkscape:connector-curvature="0" />
  <path
     inkscape:connector-curvature="0"
     id="path1322"
     d="m 85.777416,107.4056 c 0,0 -0.672295,0.85229 -0.746997,0.95886 -0.0746,0.1064 -1.244917,0.58593 -1.244917,0.58593 l -1.170316,-0.18636 -1.195157,-1.09202 -0.348627,-1.01207 0.249015,-1.46491 0.971082,-1.70459 1.419261,-2.39708 2.091566,-2.98306 0.821668,1.038763 1.3197,2.077437 c 0,0 1.095534,1.27849 1.120454,1.38498 0.0248,0.10641 1.145386,1.8378 1.145386,1.8378 0,0 0.547802,1.30506 0.547802,1.41158 0,0.1064 -0.224105,1.33171 -0.224105,1.33171 l -0.697176,1.11868 -1.045783,0.45278 c 0,0 -0.871489,0 -1.020892,-0.0266 -0.149464,-0.0266 -0.995962,-0.4528 -0.995962,-0.4528 l -0.647395,-1.03872 z"
     style="fill:#71121c;fill-opacity:1;stroke:none;stroke-width:0.47384185;stroke-linecap:butt;stroke-linejoin:miter;stroke-miterlimit:4;stroke-dasharray:none;stroke-opacity:1" />
  <path
     style="fill:#570e15;fill-opacity:1;stroke:#b41c2d;stroke-width:0.02411978;stroke-linecap:butt;stroke-linejoin:miter;stroke-miterlimit:4;stroke-dasharray:none;stroke-opacity:1"
     d="m 86.359879,106.33123 -0.608234,-0.39718 -0.685175,0.36955 c 0,0 -0.8933,0.37443 -0.978392,0.29296 -0.085,-0.0815 -1.220077,-1.9609 -1.330449,-2.04781 -0.110383,-0.0867 0.122993,-0.0867 0.122993,-0.0867 l 0.419759,0.80507 0.680755,1.00315 c 0,0 0.404699,0.0836 0.46566,0.0802 0.0609,-0.004 0.644885,-0.74522 0.644885,-0.74522 0,0 0.631173,-0.14119 0.690975,-0.0649 0.0598,0.0755 0.577243,0.79013 0.577243,0.79013 z"
     id="path1557"
     inkscape:connector-curvature="0" />
  <path
     inkscape:connector-curvature="0"
     id="path1559"
     d="m 84.004036,102.63904 0.986562,0.41595 1.065554,0.92604 c 0,0 1.395201,1.14715 1.534674,1.19084 0.139383,0.0436 2.044265,0.18248 2.224119,0.24965 0.179864,0.0673 -0.190154,-0.17754 -0.190154,-0.17754 l -0.710636,0.0102 -1.135505,-0.15275 c 0,0 -0.646314,-0.37792 -0.742717,-0.44378 -0.0964,-0.0659 -0.980631,-1.09409 -0.980631,-1.09409 0,0 -0.992742,-0.74143 -1.091804,-0.76151 -0.0991,-0.0205 -0.959462,-0.16339 -0.959462,-0.16339 z"
     style="fill:#570e15;fill-opacity:1;stroke:#b41c2d;stroke-width:0.02346663;stroke-linecap:butt;stroke-linejoin:miter;stroke-miterlimit:4;stroke-dasharray:none;stroke-opacity:1" />
  <path
     inkscape:connector-curvature="0"
     id="path1002"
     d="M 11.406582,29.426785 9.5494211,28.103506 7.3108516,25.685202 8.5656893,27.814179 9.9744505,29.065157 Z"
     style="fill:#570e15;fill-opacity:1;stroke:#b41c2d;stroke-width:0.04023476;stroke-linecap:butt;stroke-linejoin:miter;stroke-miterlimit:4;stroke-dasharray:none;stroke-opacity:1" />
  <path
     style="fill:#71121c;fill-opacity:1;stroke:none;stroke-width:0.86568642;stroke-linecap:butt;stroke-linejoin:miter;stroke-miterlimit:4;stroke-dasharray:none;stroke-opacity:1"
     d="m 64.470475,115.61568 c 0,0 -1.270308,1.50553 -1.411471,1.69373 -0.141044,0.18822 -2.352392,1.03506 -2.352392,1.03506 l -2.211279,-0.32935 -2.2583,-1.92895 -0.658675,-1.78784 0.470481,-2.58767 1.83488,-3.01106 2.681729,-4.23434 3.952048,-5.269386 1.552604,1.834866 2.493555,3.66975 c 0,0 2.070106,2.25833 2.117157,2.44652 0.0472,0.1882 2.164218,3.24632 2.164218,3.24632 0,0 1.035053,2.30536 1.035053,2.49356 0,0.18821 -0.42342,2.35241 -0.42342,2.35241 l -1.317349,1.97601 -1.976033,0.79981 c 0,0 -1.646697,0 -1.928983,-0.0472 -0.282276,-0.0472 -1.881902,-0.79981 -1.881902,-0.79981 l -1.223277,-1.83489 z"
     id="path1144"
     inkscape:connector-curvature="0" />
  <path
     style="fill:url(#radialGradient1366-0);fill-opacity:1;stroke:#b1b2b2;stroke-width:0.11071762;stroke-linecap:butt;stroke-linejoin:miter;stroke-miterlimit:4;stroke-dasharray:none;stroke-opacity:1"
     d="m 83.947285,34.509288 -1.252667,-2.957865 c 0,0 -1.988974,-3.382812 -1.934883,-3.698919 0.0541,-0.316107 -0.717996,-4.695434 -0.717996,-4.695434 l -4.0836,-6.713372 -5.194175,-5.927281 -0.947341,-1.449592 0.504691,1.842911 1.159816,1.211936 3.784673,4.191713 2.70373,4.149762 1.926583,2.804336 0.0648,2.27442 0.581933,3.395042 2.111557,3.140669 z"
     id="path1342"
     inkscape:connector-curvature="0" />
  <path
     inkscape:connector-curvature="0"
     id="path1033"
     d="m 64.023985,115.45434 -1.000122,-0.82551 -0.651735,-1.21056 -1.042263,-1.44117 -1.585905,-1.17144 -0.820168,-1.39543 1.3651,2.36496 0.941551,0.56311 0.630934,0.6431 0.537012,0.88655 0.601073,1.03114 z"
     style="fill:#570e15;fill-opacity:1;stroke:#b41c2d;stroke-width:0.0158168;stroke-linecap:butt;stroke-linejoin:miter;stroke-miterlimit:4;stroke-dasharray:none;stroke-opacity:1" />
  <path
     style="fill:url(#radialGradient1368-2);fill-opacity:1;stroke:#b1b2b2;stroke-width:0.09842876;stroke-linecap:butt;stroke-linejoin:miter;stroke-miterlimit:4;stroke-dasharray:none;stroke-opacity:1"
     d="m 26.897634,116.41561 c 0,0 -5.068672,-1.68751 -5.839219,-1.99167 -0.770547,-0.30411 -10.607224,-5.12513 -10.607224,-5.12513 l -2.3415018,-2.41251 -0.9840517,-1.24188 1.3913807,0.802 1.2146169,1.85448 2.5103559,1.49653 6.776139,3.25915 3.087109,-0.0618 4.245193,2.16549 c 0,0 5.024661,1.55635 5.447271,1.54927 0.422559,-0.007 -4.900089,-0.29385 -4.900089,-0.29385 z"
     id="path1344"
     inkscape:connector-curvature="0" />
  <path
     inkscape:connector-curvature="0"
     id="path1115"
     d="m 53.497082,75.857773 c 0,-0.149063 0.335528,-1.155706 0.335528,-1.155706 l 0.857459,-1.304828 0.969291,-0.969282 -1.155705,1.006582 c 0,0 -0.596474,0.596474 -0.671045,0.745607 -0.0746,0.149043 -0.335528,0.89472 -0.335528,0.89472 z"
     style="fill:#570e15;fill-opacity:1;stroke:#b41c2d;stroke-width:0.0158168;stroke-linecap:butt;stroke-linejoin:miter;stroke-miterlimit:4;stroke-dasharray:none;stroke-opacity:1" />
  <path
     inkscape:connector-curvature="0"
     id="path1057"
     d="m 32.794575,43.668099 -0.369058,1.186246 -1.212627,1.581685 c 0,0 -1.476223,2.029835 -1.502593,2.188018 -0.0263,0.158074 0.395418,2.029805 0.342697,2.2407 -0.0528,0.210904 0.237265,-0.289967 0.237265,-0.289967 l -0.263615,-0.659054 -0.131823,-1.159886 c 0,0 0.421769,-0.843569 0.500861,-0.975361 0.0791,-0.131833 1.528964,-1.608056 1.528964,-1.608056 0,0 0.92264,-1.397151 0.92264,-1.502593 0,-0.105383 -0.0528,-1.001732 -0.0528,-1.001732 z"
     style="fill:#570e15;fill-opacity:1;stroke:#b41c2d;stroke-width:0.03163361;stroke-linecap:butt;stroke-linejoin:miter;stroke-miterlimit:4;stroke-dasharray:none;stroke-opacity:1" />
  <path
     style="fill:url(#radialGradient1362-3);fill-opacity:1;stroke:#b1b2b2;stroke-width:0.06326722;stroke-linecap:butt;stroke-linejoin:miter;stroke-miterlimit:4;stroke-dasharray:none;stroke-opacity:1"
     d="M 59.431193,79.124986 52.9282,83.232747 c 0,0 -8.194831,1.078948 -9.844458,1.776453 -1.649616,0.697466 -8.578209,-0.369858 -9.328766,-0.247965 -0.750547,0.121872 -1.858851,0.138893 -1.858851,0.138893 l 0.0778,2.120637 0.428069,-1.195407 0.680975,-0.732776 3.481797,0.367878 5.768018,0.944731 7.462274,-2.396973 4.145502,-0.836152 4.05005,-2.153918 c 0,0 3.518567,-4.423098 4.444058,-5.565943 0.92549,-1.142825 10.256216,-5.991272 10.256216,-5.991272 l 5.988083,-3.994509 -3.281963,1.866232 -9.278705,5.625134 -5.219785,3.069788 -1.79024,3.298003 z"
     id="path1338"
     inkscape:connector-curvature="0" />
  <path
     inkscape:connector-curvature="0"
     id="path1356"
     d="m 30.611977,71.913129 -0.369059,1.186246 -1.212626,1.581685 c 0,0 -1.476223,2.029835 -1.502584,2.188018 -0.0263,0.158074 0.395409,2.029805 0.342698,2.2407 -0.0528,0.210905 0.237265,-0.289967 0.237265,-0.289967 l -0.263626,-0.659054 -0.131823,-1.159886 c 0,0 0.42178,-0.843568 0.500862,-0.975361 0.0791,-0.131833 1.528963,-1.608056 1.528963,-1.608056 0,0 0.922651,-1.397151 0.922651,-1.502593 0,-0.105382 -0.0528,-1.001732 -0.0528,-1.001732 z"
     style="fill:#570e15;fill-opacity:1;stroke:#b41c2d;stroke-width:0.03163361;stroke-linecap:butt;stroke-linejoin:miter;stroke-miterlimit:4;stroke-dasharray:none;stroke-opacity:1" />
  <path
     style="fill:#570e15;fill-opacity:1;stroke:#b41c2d;stroke-width:0.03163361;stroke-linecap:butt;stroke-linejoin:miter;stroke-miterlimit:4;stroke-dasharray:none;stroke-opacity:1"
     d="m 71.304666,78.302304 -0.369058,1.186246 -1.212627,1.581685 c 0,0 -1.476223,2.029835 -1.502583,2.188019 -0.0263,0.158073 0.395408,2.029802 0.342697,2.240697 -0.0528,0.210905 0.237265,-0.289966 0.237265,-0.289966 L 68.536735,84.54993 68.404912,83.390046 c 0,0 0.421779,-0.843568 0.500861,-0.975361 0.0791,-0.131833 1.528964,-1.608056 1.528964,-1.608056 0,0 0.92265,-1.39715 0.92265,-1.502593 0,-0.105382 -0.0528,-1.001732 -0.0528,-1.001732 z"
     id="path1257"
     inkscape:connector-curvature="0" />
  <path
     inkscape:connector-curvature="0"
     id="path1073"
     d="m 70.372575,56.195634 c 0,0.149054 -0.335527,1.155699 -0.335527,1.155699 l -0.857459,1.304829 -0.969292,0.969281 1.155706,-1.006582 c 0,0 0.596473,-0.596473 0.671045,-0.745596 0.0746,-0.149054 0.335527,-0.89473 0.335527,-0.89473 z"
     style="fill:#570e15;fill-opacity:1;stroke:#b41c2d;stroke-width:0.0158168;stroke-linecap:butt;stroke-linejoin:miter;stroke-miterlimit:4;stroke-dasharray:none;stroke-opacity:1" />
  <path
     inkscape:connector-curvature="0"
     id="path1006"
     d="m 69.270771,42.534546 -0.410079,1.230257 -0.89475,1.043863 -0.969291,1.491223 -0.521922,1.901302 -1.006582,1.267558 1.714908,-2.124997 0.186374,-1.081154 0.372818,-0.820148 0.633764,-0.820178 0.745597,-0.932011 z"
     style="fill:#570e15;fill-opacity:1;stroke:#b41c2d;stroke-width:0.0158168;stroke-linecap:butt;stroke-linejoin:miter;stroke-miterlimit:4;stroke-dasharray:none;stroke-opacity:1" />
  <path
     style="fill:url(#radialGradient1360-2);fill-opacity:1;stroke:#b1b2b2;stroke-width:0.10906034;stroke-linecap:butt;stroke-linejoin:miter;stroke-miterlimit:4;stroke-dasharray:none;stroke-dashoffset:0;stroke-opacity:1"
     d="m 32.426037,28.062758 1.558254,-3.819685 0.0243,-2.859973 1.412321,-2.420598 0.415239,-1.228167 1.665077,-3.231742 c 0,0 1.930802,-3.279092 2.073506,-3.433846 0.142823,-0.154863 2.549946,-5.3394778 2.549946,-5.3394778 l -1.79117,4.3686168 -1.910412,4.479399 -1.238267,4.120911 c 0,0 -1.956573,1.751409 -2.073946,1.971293 -0.117043,0.21997 -0.719896,3.262427 -0.618594,3.522983 0.101333,0.260416 -2.827892,6.085545 -2.827892,6.085545 l -2.157938,4.155442 z"
     id="path1336"
     inkscape:connector-curvature="0" />
  <path
     style="fill:#570e15;fill-opacity:1;stroke:#b41c2d;stroke-width:0.0158168;stroke-linecap:butt;stroke-linejoin:miter;stroke-miterlimit:4;stroke-dasharray:none;stroke-opacity:1"
     d="m 62.260886,35.636378 1.000122,0.825508 0.651734,1.210567 1.042263,1.441172 1.585906,1.171436 0.820168,1.395431 -1.3651,-2.364963 -0.941551,-0.563112 -0.630934,-0.643094 -0.537012,-0.88655 -0.601073,-1.031143 z"
     id="path1146"
     inkscape:connector-curvature="0" />
  <path
     style="fill:#71121c;fill-opacity:1;stroke:none;stroke-width:0.1011306px;stroke-linecap:butt;stroke-linejoin:miter;stroke-opacity:1"
     d="M 6.4381123,4.9767686 16.905124,3.864334 17.865865,4.9262035 18.472648,17.365269 19.534522,18.12375 18.472648,19.944101 16.75343,18.831664 5.6290644,19.438446 4.4154976,18.275444 5.4268,5.9375128 Z"
     id="path1133"
     inkscape:connector-curvature="0" />
  <path
     style="fill:#C6C7C7;fill-opacity:1;stroke:none;stroke-width:0.1011306px;stroke-linecap:butt;stroke-linejoin:miter;stroke-opacity:1"
     d="m 7.6870699,6.9993813 8.3432741,-0.9101751 0.252836,9.6579738 -3.236182,-2.427134 -1.314699,1.719222 2.326002,1.668653 -7.0285756,0.606783 z"
     id="path1135"
     inkscape:connector-curvature="0" />
  <path
     inkscape:connector-curvature="0"
     id="path1137"
     d="m 89.168451,126.41004 -10.467012,1.11243 -0.960741,-1.06187 -0.606783,-12.43907 -1.061874,-0.75848 1.061874,-1.82036 1.719218,1.11245 11.124365,-0.60678 1.213567,1.16299 -1.011302,12.33793 z"
     style="fill:#71121c;fill-opacity:1;stroke:none;stroke-width:0.1011306px;stroke-linecap:butt;stroke-linejoin:miter;stroke-opacity:1" />
  <path
     inkscape:connector-curvature="0"
     id="path1139"
     d="m 88.106587,124.38742 -8.343274,0.91017 -0.252836,-9.65797 3.236182,2.42713 1.314699,-1.71922 -2.326002,-1.66865 7.028576,-0.60679 z"
     style="fill:#C6C7C7;fill-opacity:1;stroke:none;stroke-width:0.1011306px;stroke-linecap:butt;stroke-linejoin:miter;stroke-opacity:1" />
  <path
     style="fill:url(#radialGradient1364-4);fill-opacity:1;stroke:#b1b2b2;stroke-width:0.06326722;stroke-linecap:butt;stroke-linejoin:miter;stroke-miterlimit:4;stroke-dasharray:none;stroke-opacity:1"
     d="m 86.699186,118.64311 c -0.245695,-0.0955 -5.088082,-4.48933 -5.297217,-4.6498 -0.209115,-0.16049 -4.905208,-4.81422 -4.905208,-4.81422 l -8.471448,-4.2546 -2.342721,-3.28644 2.052285,3.42241 2.570667,1.36129 5.403329,2.485 5.069612,5.20621 8.428166,6.83979 z"
     id="path1340"
     inkscape:connector-curvature="0" />
  <path
     inkscape:connector-curvature="0"
     id="path1141"
     d="m 14.084011,60.869181 3.16087,-0.571847 c 0,0 3.737283,-1.196735 4.033769,-1.074482 0.296487,0.122263 4.738415,0.331691 4.738415,0.331691 l 7.446815,-2.508024 6.924063,-3.76423 1.622375,-0.605529 -1.908772,0.08725 -1.437242,0.865046 -4.921118,2.770707 -4.642583,1.725422 -3.15924,1.263027 -2.233029,-0.436735 -3.439926,-0.178581 -3.528008,1.369547 z"
     style="fill:url(#radialGradient1143);fill-opacity:1;stroke:#b1b2b2;stroke-width:0.11071762;stroke-linecap:butt;stroke-linejoin:miter;stroke-miterlimit:4;stroke-dasharray:none;stroke-opacity:1" />
</svg>
