<?xml version="1.0" encoding="UTF-8" standalone="no"?>
<!-- Created with Inkscape (http://www.inkscape.org/) -->

<svg
   xmlns:dc="http://purl.org/dc/elements/1.1/"
   xmlns:cc="http://creativecommons.org/ns#"
   xmlns:rdf="http://www.w3.org/1999/02/22-rdf-syntax-ns#"
   xmlns:svg="http://www.w3.org/2000/svg"
   xmlns="http://www.w3.org/2000/svg"
   xmlns:xlink="http://www.w3.org/1999/xlink"
   xmlns:sodipodi="http://sodipodi.sourceforge.net/DTD/sodipodi-0.dtd"
   xmlns:inkscape="http://www.inkscape.org/namespaces/inkscape"
   width="356"
   height="499"
   version="1.1"
   viewBox="0 0 94.192 132.03"
   id="svg63"
   sodipodi:docname="6_of_Diamonds.svg"
   inkscape:version="0.92.4 (5da689c313, 2019-01-14)">
  <sodipodi:namedview
     pagecolor="#ffffff"
     bordercolor="#666666"
     borderopacity="1"
     objecttolerance="10"
     gridtolerance="10"
     guidetolerance="10"
     inkscape:pageopacity="0"
     inkscape:pageshadow="2"
     inkscape:window-width="1920"
     inkscape:window-height="1017"
     id="namedview65"
     showgrid="false"
     inkscape:zoom="1.6993988"
     inkscape:cx="178"
     inkscape:cy="249.5"
     inkscape:window-x="-8"
     inkscape:window-y="-8"
     inkscape:window-maximized="1"
     inkscape:current-layer="svg63" />
  <defs
     id="defs13">
    <linearGradient
       id="linearGradient1974-8">
      <stop
         stop-color="#565757"
         offset="0"
         id="stop2" />
      <stop
         stop-color="#373838"
         stop-opacity="0"
         offset="1"
         id="stop4" />
    </linearGradient>
    <radialGradient
       id="radialGradient3443"
       cx="161.11"
       cy="166.44"
       r="1.4032"
       gradientTransform="matrix(-.56671 .050266 -.73444 -8.2803 230.49 1588.2)"
       gradientUnits="userSpaceOnUse"
       xlink:href="#linearGradient1974-8" />
    <radialGradient
       id="radialGradient3445"
       cx="49.268"
       cy="149.25"
       r="6.7426"
       gradientTransform="matrix(-1.4309 .29626 -1.0418 -5.0319 309.31 964.96)"
       gradientUnits="userSpaceOnUse"
       xlink:href="#linearGradient1974-8" />
    <radialGradient
       id="radialGradient3449"
       cx="170.35"
       cy="66.049"
       r="12.035"
       gradientTransform="matrix(-.76799 .36121 -.58917 -1.2527 179.88 297.12)"
       gradientUnits="userSpaceOnUse"
       xlink:href="#linearGradient1974-8" />
    <radialGradient
       id="radialGradient3451"
       cx="80.302"
       cy="225.63"
       r="5.5573"
       gradientTransform="matrix(-.67181 .26082 -1.0523 -2.7105 356.5 773.82)"
       gradientUnits="userSpaceOnUse"
       xlink:href="#linearGradient1974-8" />
    <radialGradient
       id="radialGradient3560"
       cx="210.08"
       cy="90.623"
       r=".46312"
       gradientTransform="matrix(.59283 0 0 4.8358 -103.95 -246.45)"
       gradientUnits="userSpaceOnUse"
       xlink:href="#linearGradient1974-8" />
    <radialGradient
       id="radialGradient3447"
       cx="138.44"
       cy="235.05"
       r="20.919"
       gradientTransform="matrix(-.21698 -.33554 .75474 -.48807 -116.69 338.64)"
       gradientUnits="userSpaceOnUse"
       xlink:href="#linearGradient1974-8" />
    <radialGradient
       inkscape:collect="always"
       xlink:href="#linearGradient1974-8"
       id="radialGradient3443-8"
       gradientUnits="userSpaceOnUse"
       gradientTransform="matrix(-0.5667215,0.05026662,-0.73445258,-8.2804477,290.21987,1413.5475)"
       cx="161.11455"
       cy="166.44328"
       fx="161.11455"
       fy="166.44328"
       r="1.40318" />
    <radialGradient
       inkscape:collect="always"
       xlink:href="#linearGradient1974-8"
       id="radialGradient3451-0"
       gradientUnits="userSpaceOnUse"
       gradientTransform="matrix(-0.67182383,0.26082961,-1.0523596,-2.7105826,349.77527,682.65674)"
       cx="80.301682"
       cy="225.62547"
       fx="80.301682"
       fy="225.62547"
       r="5.5573373" />
    <radialGradient
       inkscape:collect="always"
       xlink:href="#linearGradient1974-8"
       id="radialGradient3560-5"
       cx="210.08463"
       cy="90.623199"
       fx="210.08463"
       fy="90.623199"
       r="0.46311602"
       gradientTransform="matrix(0.71695298,0,0,5.8481987,-132.15228,-503.60277)"
       gradientUnits="userSpaceOnUse" />
    <radialGradient
       inkscape:collect="always"
       xlink:href="#linearGradient1974-8"
       id="radialGradient3449-6"
       gradientUnits="userSpaceOnUse"
       gradientTransform="matrix(-0.76801073,0.36122121,-0.58918346,-1.2526929,248.55131,110.89995)"
       cx="170.35481"
       cy="66.048706"
       fx="170.35481"
       fy="66.048706"
       r="12.034579" />
    <radialGradient
       inkscape:collect="always"
       xlink:href="#linearGradient1974-8"
       id="radialGradient3445-5"
       gradientUnits="userSpaceOnUse"
       gradientTransform="matrix(-1.4309613,0.29626817,-1.0418337,-5.0320078,239.54415,804.07113)"
       cx="49.268208"
       cy="149.24762"
       fx="49.268208"
       fy="149.24762"
       r="6.742619" />
    <radialGradient
       inkscape:collect="always"
       xlink:href="#linearGradient1974-8"
       id="radialGradient3447-3"
       gradientUnits="userSpaceOnUse"
       gradientTransform="matrix(-0.21698543,-0.33554279,0.75475347,-0.48807639,-115.74941,258.68959)"
       cx="138.43695"
       cy="235.05092"
       fx="138.43695"
       fy="235.05092"
       r="20.918684" />
  </defs>
  <metadata
     id="metadata15">
    <rdf:RDF>
      <cc:Work
         rdf:about="">
        <dc:format>image/svg+xml</dc:format>
        <dc:type
           rdf:resource="http://purl.org/dc/dcmitype/StillImage" />
        <dc:title />
      </cc:Work>
    </rdf:RDF>
  </metadata>
  <path
     style="fill:#8e8f8f;fill-opacity:1;stroke:#000000;stroke-width:0.55563727;stroke-miterlimit:4;stroke-dasharray:none;stroke-opacity:1"
     d="M 4.8599692,1.6326651 14.739998,2.5182547 25.684289,1.6326651 35.712551,1.8696604 53.992315,0.69720445 h 7.418674 L 72.019953,0.64730334 77.74506,1.6326551 h 10.41216 l 4.257074,4.250754 -1.122555,15.7162569 1.122555,14.219535 1.732408,13.007147 -1.732408,16.928634 0.8869,17.093258 0.609843,13.216722 -2.028885,15.833488 0.709536,11.77986 -4.434468,6.199 -17.708781,0.74837 -3.292903,-1.63394 -10.234776,0.88557 -10.599255,1.49674 -10.215345,-1.73373 -10.608965,1.35954 -10.225056,-1.12255 -8.4610067,-0.53134 -6.20822717,-3.7194 L 0.24814729,112.25268 1.6283178,96.596294 0.04162273,83.155067 0.60290513,65.754982 1.5383658,52.09674 0.91879211,36.931775 0.60290513,20.8513 V 5.8834291 Z"
     id="rect855"
     inkscape:connector-curvature="0"
     sodipodi:nodetypes="ccccccccccccccccccccccccccccccccccccc" />
  <path
     style="fill:#71121c;fill-opacity:1;stroke:none;stroke-width:1.5272187;stroke-miterlimit:4;stroke-dasharray:none;stroke-opacity:1"
     inkscape:transform-center-x="-1.1473012e-05"
     d="m 38.669956,26.979805 -3.957797,0.486701 -2.765141,2.953865 -2.426414,4.123291 -1.098594,2.727091 -1.238227,-2.666779 -2.851043,-3.724863 -3.914897,-2.690569 -2.945655,-0.88275 2.885264,-1.450592 3.569549,-2.846772 2.855423,-3.909087 2.2784,-5.511582 1.023703,5.504822 1.671227,3.939067 4.129431,2.422814 z"
     id="path857"
     inkscape:connector-curvature="0"
     sodipodi:nodetypes="ccccccccccccccccc" />
  <path
     sodipodi:nodetypes="ccccccccccccccccc"
     inkscape:connector-curvature="0"
     id="path860"
     d="m 15.590096,29.180294 -1.38288,0.640164 -2.070346,1.36307 -0.988002,2.778022 -0.890839,1.412031 L 9.6705755,33.349716 8.8421072,31.443174 6.1672981,30.027943 4.7531968,29.45997 6.1360474,28.819806 7.884406,27.349523 l 1.5783449,-2.027764 0.5688321,-1.412022 0.641135,1.380801 1.257797,2.817502 2.24544,0.504241 z"
     inkscape:transform-center-x="-1.6029281e-05"
     style="fill:#71121c;fill-opacity:1;stroke:none;stroke-width:1.52837503;stroke-miterlimit:4;stroke-dasharray:none;stroke-opacity:1"
     inkscape:transform-center-y="6.1710918e-06" />
  <path
     inkscape:connector-curvature="0"
     id="path3433"
     d="m 77.176507,49.874961 -0.282606,-3.069888 -0.91588,-1.963453 0.0828,-2.070076 -0.143763,-0.961891 -0.0254,-2.69906 c 0,0 0.122973,-2.809362 0.160574,-2.957085 0.0377,-0.147733 -0.165984,-4.400387 -0.165984,-4.400387 l 0.317677,3.513707 0.280226,3.624471 0.577903,3.18207 c 0,0 -0.636124,1.771929 -0.636914,1.956783 -5.9e-4,0.184854 0.618043,2.442804 0.765297,2.591327 0.147263,0.148524 0.237385,4.992241 0.237385,4.992241 l 0.0221,3.475476 z"
     style="fill:url(#radialGradient3443-8);fill-opacity:1;stroke:#b1b2b2;stroke-width:0.07842885;stroke-linecap:butt;stroke-linejoin:miter;stroke-miterlimit:4;stroke-dasharray:none;stroke-dashoffset:0;stroke-opacity:1"
     sodipodi:nodetypes="cccccccccccccccc" />
  <path
     inkscape:connector-curvature="0"
     id="path3441"
     d="m 59.220001,99.177201 c 0,0 -1.551515,-3.980418 -1.757959,-4.608732 -0.206455,-0.628334 -2.26154,-9.107541 -2.26154,-9.107541 l 0.292866,-2.635669 0.264036,-1.218947 0.216435,1.257978 -0.524732,1.661497 0.359878,2.293811 1.453962,5.810848 1.618646,1.892522 0.834479,3.700782 c 0,0 1.610085,3.88898 1.83081,4.14872 0.220725,0.25976 -2.326881,-3.195269 -2.326881,-3.195269 z"
     style="fill:url(#radialGradient3451-0);fill-opacity:1;stroke:#b1b2b2;stroke-width:0.07842885;stroke-linecap:butt;stroke-linejoin:miter;stroke-miterlimit:4;stroke-dasharray:none;stroke-opacity:1"
     sodipodi:nodetypes="ccccccccccccc" />
  <path
     inkscape:connector-curvature="0"
     id="path3534"
     d="m 29.824961,25.150945 c 0,0.178854 -0.402399,1.38605 -0.402399,1.38605 l -1.028353,1.564905 -1.162505,1.162496 1.38605,-1.207217 c 0,0 0.715376,-0.715366 0.804808,-0.89422 0.0894,-0.178844 0.402399,-1.073073 0.402399,-1.073073 z"
     style="fill:#570e15;fill-opacity:1;stroke:#b41c2d;stroke-width:0.01896938;stroke-linecap:butt;stroke-linejoin:miter;stroke-miterlimit:4;stroke-dasharray:none;stroke-opacity:1"
     sodipodi:nodetypes="cccccccc" />
  <path
     inkscape:connector-curvature="0"
     id="path3544"
     d="m 18.423589,29.085542 0.134143,-1.833161 -0.402399,-3.576889 0.625944,2.772092 z"
     style="fill:url(#radialGradient3560-5);fill-opacity:1;stroke:#7d7f7f;stroke-width:0.03793876;stroke-linecap:butt;stroke-linejoin:miter;stroke-miterlimit:4;stroke-dasharray:none;stroke-opacity:1"
     sodipodi:nodetypes="ccccc" />
  <path
     inkscape:connector-curvature="0"
     id="path3562"
     d="m 28.751887,18.310134 -0.491821,1.475472 -1.073063,1.251908 -1.162496,1.788459 -0.625964,2.280261 -1.207197,1.520193 2.056716,-2.548546 0.223545,-1.296619 0.44712,-0.983651 0.760096,-0.983642 0.89423,-1.117785 z"
     style="fill:#570e15;fill-opacity:1;stroke:#b41c2d;stroke-width:0.01896938;stroke-linecap:butt;stroke-linejoin:miter;stroke-miterlimit:4;stroke-dasharray:none;stroke-opacity:1"
     sodipodi:nodetypes="cccccccccccc" />
  <path
     inkscape:connector-curvature="0"
     id="path3564"
     d="m 10.606046,28.457548 v 1.075744 l -0.316407,1.740178 0.474601,-1.392151 0.0949,-0.949181 z"
     style="fill:#570e15;fill-opacity:1;stroke:#b41c2d;stroke-width:0.01898374;stroke-linecap:butt;stroke-linejoin:miter;stroke-miterlimit:4;stroke-dasharray:none;stroke-opacity:1"
     sodipodi:nodetypes="cccccc" />
  <path
     style="fill:#71121c;fill-opacity:1;stroke:none;stroke-width:1.5272187;stroke-miterlimit:4;stroke-dasharray:none;stroke-opacity:1"
     inkscape:transform-center-x="-1.1473012e-05"
     d="m 76.37392,106.75344 -3.957798,0.4867 -2.765141,2.95386 -2.426414,4.12329 -1.098594,2.7271 -1.238227,-2.66678 -2.851043,-3.72488 -3.914897,-2.69056 -2.945655,-0.88275 2.885264,-1.45059 3.569549,-2.84677 2.855423,-3.909086 2.2784,-5.511582 1.023703,5.504822 1.671227,3.939066 4.129431,2.4228 z"
     id="path1179"
     inkscape:connector-curvature="0"
     sodipodi:nodetypes="ccccccccccccccccc" />
  <path
     style="fill:#570e15;fill-opacity:1;stroke:#b41c2d;stroke-width:0.03137153;stroke-linecap:butt;stroke-linejoin:miter;stroke-miterlimit:4;stroke-dasharray:none;stroke-opacity:1"
     d="m 67.830201,104.29602 -0.365988,1.17643 -1.202587,1.56858 c 0,0 -1.464002,2.01301 -1.490143,2.16987 -0.0262,0.15686 0.392139,2.013 0.339858,2.22214 -0.0523,0.20915 0.235295,-0.28756 0.235295,-0.28756 L 65.0852,110.4919 64.954487,109.34161 c 0,0 0.41828,-0.83657 0.496711,-0.96729 0.0784,-0.13071 1.516294,-1.59471 1.516294,-1.59471 0,0 0.91499,-1.38558 0.91499,-1.49015 0,-0.10458 -0.0523,-0.99344 -0.0523,-0.99344 z"
     id="path3566"
     inkscape:connector-curvature="0"
     sodipodi:nodetypes="ccccccccccscc" />
  <path
     sodipodi:nodetypes="ccccccccccccccccc"
     inkscape:connector-curvature="0"
     id="path1173"
     d="m 36.930388,66.668182 -3.957798,0.486701 -2.765141,2.953865 -2.426413,4.123282 -1.098595,2.7271 -1.238227,-2.666779 -2.851043,-3.724872 -3.914896,-2.69056 -2.945656,-0.882759 2.885264,-1.450582 3.569549,-2.846773 2.855423,-3.909087 2.278401,-5.511582 1.023702,5.504822 1.671227,3.939067 4.129431,2.422804 z"
     inkscape:transform-center-x="-1.1473012e-05"
     style="fill:#71121c;fill-opacity:1;stroke:none;stroke-width:1.5272187;stroke-miterlimit:4;stroke-dasharray:none;stroke-opacity:1" />
  <path
     style="fill:#570e15;fill-opacity:1;stroke:#b41c2d;stroke-width:0.01896938;stroke-linecap:butt;stroke-linejoin:miter;stroke-miterlimit:4;stroke-dasharray:none;stroke-opacity:1"
     d="m 28.085392,64.839322 c 0,0.178854 -0.402398,1.386051 -0.402398,1.386051 l -1.028353,1.564904 -1.162506,1.162496 1.386051,-1.207217 c 0,0 0.715376,-0.715366 0.804808,-0.89422 0.0894,-0.178844 0.402398,-1.073063 0.402398,-1.073063 z"
     id="path1175"
     inkscape:connector-curvature="0"
     sodipodi:nodetypes="cccccccc" />
  <path
     style="fill:#570e15;fill-opacity:1;stroke:#b41c2d;stroke-width:0.01896938;stroke-linecap:butt;stroke-linejoin:miter;stroke-miterlimit:4;stroke-dasharray:none;stroke-opacity:1"
     d="m 29.79051,65.010136 -0.491821,1.475462 -1.073063,1.251908 -1.162496,1.78846 -0.625964,2.28027 -1.207197,1.520184 2.056716,-2.548547 0.223545,-1.296618 0.44712,-0.983652 0.760096,-0.983632 0.89423,-1.117795 z"
     id="path1177"
     inkscape:connector-curvature="0"
     sodipodi:nodetypes="cccccccccccc" />
  <path
     inkscape:transform-center-y="6.1710918e-06"
     style="fill:#71121c;fill-opacity:1;stroke:none;stroke-width:1.52837503;stroke-miterlimit:4;stroke-dasharray:none;stroke-opacity:1"
     inkscape:transform-center-x="-1.6029281e-05"
     d="m 90.733427,101.01626 -1.382881,0.64017 -2.070345,1.36307 -0.988002,2.77802 -0.89084,1.41203 -0.587453,-2.02387 -0.828468,-1.90654 -2.674809,-1.41523 -1.414102,-0.56797 1.382851,-0.64017 1.748359,-1.470279 1.578345,-2.027765 0.568832,-1.412021 0.641134,1.3808 1.257798,2.817503 2.24544,0.504242 z"
     id="path1181"
     inkscape:connector-curvature="0"
     sodipodi:nodetypes="ccccccccccccccccc" />
  <path
     inkscape:connector-curvature="0"
     id="path3439"
     d="m 85.8707,105.56967 -1.242298,-2.93336 c 0,0 -1.972494,-3.354797 -1.918852,-3.668294 0.0537,-0.313477 -0.712046,-4.656533 -0.712046,-4.656533 l -4.04977,-6.657737 -5.151143,-5.87817 -0.939501,-1.437592 0.500521,1.827631 1.150225,1.201906 3.753323,4.156972 2.681309,4.115401 1.910613,2.781092 0.0643,2.25558 0.577113,3.366924 2.094046,3.11464 z"
     style="fill:url(#radialGradient3449-6);fill-opacity:1;stroke:#b1b2b2;stroke-width:0.10980038;stroke-linecap:butt;stroke-linejoin:miter;stroke-miterlimit:4;stroke-dasharray:none;stroke-opacity:1"
     sodipodi:nodetypes="cccccccccccccccc" />
  <path
     sodipodi:nodetypes="ccccccccccccccccc"
     inkscape:connector-curvature="0"
     id="path1120"
     d="m 37.645714,106.75344 -3.957798,0.4867 -2.765141,2.95386 -2.426413,4.12329 -1.098595,2.7271 -1.238227,-2.66678 -2.851043,-3.72488 -3.914897,-2.69056 -2.945655,-0.88275 2.885264,-1.45059 3.569549,-2.84677 2.855423,-3.909086 2.2784,-5.511582 1.023703,5.504822 1.671227,3.939066 4.129431,2.4228 z"
     inkscape:transform-center-x="-1.1473012e-05"
     style="fill:#71121c;fill-opacity:1;stroke:none;stroke-width:1.5272187;stroke-miterlimit:4;stroke-dasharray:none;stroke-opacity:1" />
  <path
     inkscape:connector-curvature="0"
     id="path3435"
     d="M 11.470385,70.481737 9.9496217,63.006861 c 0,0 1.8828213,-7.977886 1.8164903,-9.752835 -0.0663,-1.774939 3.361044,-7.823653 3.512097,-8.562449 0.151064,-0.738797 0.525222,-1.772409 0.525222,-1.772409 l -1.993604,-0.674045 0.957761,0.817498 0.43986,0.889209 -1.566125,3.098939 -2.905334,5.015741 -0.403009,7.762401 -0.6832549,4.137932 0.5722029,4.513049 c 0,0 2.863143,4.818647 3.597179,6.078845 0.734036,1.260208 1.946663,11.617576 1.946663,11.617576 l 1.596916,6.957594 -0.575673,-3.699672 -1.951103,-10.582373 -1.009823,-5.919861 -2.428063,-2.820293 z"
     style="fill:url(#radialGradient3445-5);fill-opacity:1;stroke:#b1b2b2;stroke-width:0.06274307;stroke-linecap:butt;stroke-linejoin:miter;stroke-miterlimit:4;stroke-dasharray:none;stroke-opacity:1"
     sodipodi:nodetypes="ccccccccccccccccccccc" />
  <path
     sodipodi:nodetypes="ccccccccccscc"
     inkscape:connector-curvature="0"
     id="path1122"
     d="m 29.101995,104.29602 -0.365988,1.17643 -1.202587,1.56858 c 0,0 -1.464002,2.01301 -1.490143,2.16987 -0.0262,0.15686 0.392139,2.013 0.339858,2.22214 -0.0523,0.20915 0.235295,-0.28756 0.235295,-0.28756 l -0.261436,-0.65358 -0.130713,-1.15029 c 0,0 0.41828,-0.83657 0.496711,-0.96729 0.0784,-0.13071 1.516294,-1.59471 1.516294,-1.59471 0,0 0.91499,-1.38558 0.91499,-1.49015 0,-0.10458 -0.0523,-0.99344 -0.0523,-0.99344 z"
     style="fill:#570e15;fill-opacity:1;stroke:#b41c2d;stroke-width:0.03137153;stroke-linecap:butt;stroke-linejoin:miter;stroke-miterlimit:4;stroke-dasharray:none;stroke-opacity:1" />
  <path
     inkscape:connector-curvature="0"
     id="path3437"
     d="m 22.10734,104.3546 c 0.157744,-0.20848 5.662516,-3.63577 5.87233,-3.79173 0.209815,-0.15595 5.922831,-3.373203 5.922831,-3.373203 l 6.356361,-6.926823 3.770373,-1.34327 -3.821315,1.029333 -1.995814,2.082896 -3.836125,4.480169 -6.34133,3.423706 -8.810644,6.184282 z"
     style="fill:url(#radialGradient3447-3);fill-opacity:1;stroke:#b1b2b2;stroke-width:0.06274307;stroke-linecap:butt;stroke-linejoin:miter;stroke-miterlimit:4;stroke-dasharray:none;stroke-opacity:1"
     sodipodi:nodetypes="ccccccccccc" />
  <path
     sodipodi:nodetypes="ccccccccccccccccc"
     inkscape:connector-curvature="0"
     id="path1124"
     d="m 75.340147,26.979805 -3.957798,0.486701 -2.765141,2.953865 -2.426413,4.123291 -1.098595,2.727091 -1.238227,-2.666779 -2.851043,-3.724863 -3.914897,-2.690569 -2.945655,-0.88275 2.885264,-1.450592 3.569549,-2.846772 2.855423,-3.909087 2.2784,-5.511582 1.023703,5.504822 1.671227,3.939067 4.129431,2.422814 z"
     inkscape:transform-center-x="-1.1473012e-05"
     style="fill:#71121c;fill-opacity:1;stroke:none;stroke-width:1.5272187;stroke-miterlimit:4;stroke-dasharray:none;stroke-opacity:1" />
  <path
     sodipodi:nodetypes="cccccccc"
     style="fill:#570e15;fill-opacity:1;stroke:#b41c2d;stroke-width:0.01896938;stroke-linecap:butt;stroke-linejoin:miter;stroke-miterlimit:4;stroke-dasharray:none;stroke-opacity:1"
     d="m 66.495151,25.150945 c 0,0.178854 -0.402399,1.38605 -0.402399,1.38605 L 65.0644,28.1019 l -1.162506,1.162496 1.386051,-1.207217 c 0,0 0.715375,-0.715366 0.804807,-0.89422 0.0894,-0.178844 0.402399,-1.073073 0.402399,-1.073073 z"
     id="path1126"
     inkscape:connector-curvature="0" />
  <path
     style="fill:#71121c;fill-opacity:1;stroke:none;stroke-width:1.5272187;stroke-miterlimit:4;stroke-dasharray:none;stroke-opacity:1"
     inkscape:transform-center-x="-1.1473012e-05"
     d="m 76.968243,66.668182 -3.957798,0.486701 -2.765141,2.953865 -2.426413,4.123282 -1.098595,2.7271 -1.238227,-2.666779 -2.851043,-3.724872 -3.914897,-2.69056 -2.945655,-0.882759 2.885264,-1.450582 3.569549,-2.846773 2.855423,-3.909087 2.2784,-5.511582 1.023703,5.504822 1.671227,3.939067 4.129431,2.422804 z"
     id="path1090"
     inkscape:connector-curvature="0"
     sodipodi:nodetypes="ccccccccccccccccc" />
  <path
     sodipodi:nodetypes="cccccccccccc"
     inkscape:connector-curvature="0"
     id="path1092"
     d="m 69.828365,65.010136 -0.491821,1.475462 -1.073064,1.251908 -1.162495,1.78846 -0.625964,2.28027 -1.207197,1.520184 2.056716,-2.548547 0.223545,-1.296618 0.447119,-0.983652 0.760097,-0.983632 0.89423,-1.117795 z"
     style="fill:#570e15;fill-opacity:1;stroke:#b41c2d;stroke-width:0.01896938;stroke-linecap:butt;stroke-linejoin:miter;stroke-miterlimit:4;stroke-dasharray:none;stroke-opacity:1" />
  <path
     inkscape:connector-curvature="0"
     id="path1219"
     d="M 12.820515,4.7359637 5.7645392,17.68949 l 0.631874,1.316409 c 0,0 8.3197438,3.212051 8.5303688,3.212051 0.210634,0 1.263758,-0.263276 1.263758,-0.263276 l 4.581121,-5.581603 -0.421249,-1.527034 -7.055976,-3.001436 -1.105795,2.000954 6.160816,2.474855 -3.212041,3.738622 L 8.2920551,17.478855 14.663496,5.6311235 Z"
     style="fill:#71121c;fill-opacity:1;stroke:none;stroke-width:0.10531315px;stroke-linecap:butt;stroke-linejoin:miter;stroke-opacity:1" />
  <path
     style="fill:#71121c;fill-opacity:1;stroke:none;stroke-width:0.10531315px;stroke-linecap:butt;stroke-linejoin:miter;stroke-opacity:1"
     d="m 80.839468,127.54865 7.055986,-12.95353 -0.631884,-1.31641 c 0,0 -8.319744,-3.21205 -8.530368,-3.21205 -0.210625,-2e-5 -1.263758,0.26328 -1.263758,0.26328 l -4.581111,5.5816 0.421239,1.52703 7.055976,3.00144 1.105794,-2.00095 -6.160806,-2.47486 3.212041,-3.73862 6.845351,2.58018 -6.37144,11.84773 z"
     id="path1221"
     inkscape:connector-curvature="0" />
</svg>
