<?xml version="1.0" encoding="UTF-8" standalone="no"?>
<!-- Created with Inkscape (http://www.inkscape.org/) -->

<svg
   xmlns:dc="http://purl.org/dc/elements/1.1/"
   xmlns:cc="http://creativecommons.org/ns#"
   xmlns:rdf="http://www.w3.org/1999/02/22-rdf-syntax-ns#"
   xmlns:svg="http://www.w3.org/2000/svg"
   xmlns="http://www.w3.org/2000/svg"
   xmlns:xlink="http://www.w3.org/1999/xlink"
   xmlns:sodipodi="http://sodipodi.sourceforge.net/DTD/sodipodi-0.dtd"
   xmlns:inkscape="http://www.inkscape.org/namespaces/inkscape"
   width="356"
   height="499"
   version="1.1"
   viewBox="0 0 94.192 132.03"
   id="svg60"
   sodipodi:docname="7_of_Spades.svg"
   inkscape:version="0.92.4 (5da689c313, 2019-01-14)">
  <sodipodi:namedview
     pagecolor="#ffffff"
     bordercolor="#666666"
     borderopacity="1"
     objecttolerance="10"
     gridtolerance="10"
     guidetolerance="10"
     inkscape:pageopacity="0"
     inkscape:pageshadow="2"
     inkscape:window-width="1920"
     inkscape:window-height="1017"
     id="namedview62"
     showgrid="false"
     inkscape:zoom="1.6993988"
     inkscape:cx="178"
     inkscape:cy="249.5"
     inkscape:window-x="-8"
     inkscape:window-y="-8"
     inkscape:window-maximized="1"
     inkscape:current-layer="svg60" />
  <defs
     id="defs14">
    <linearGradient
       id="linearGradient1974-8">
      <stop
         stop-color="#565757"
         offset="0"
         id="stop2" />
      <stop
         stop-color="#373838"
         stop-opacity="0"
         offset="1"
         id="stop4" />
    </linearGradient>
    <radialGradient
       id="radialGradient3592"
       cx="487.83"
       cy="209.78"
       r="1.5552"
       gradientTransform="matrix(.27936 .48876 -.84722 .48424 90.647 -125.55)"
       gradientUnits="userSpaceOnUse"
       xlink:href="#linearGradient1974-8" />
    <radialGradient
       id="radialGradient1501"
       cx="161.11"
       cy="166.44"
       r="1.4032"
       gradientTransform="matrix(.33729 -.46589 6.8072 4.9282 -1131.7 -533.28)"
       gradientUnits="userSpaceOnUse"
       xlink:href="#linearGradient1974-8" />
    <radialGradient
       id="radialGradient1505"
       cx="138.44"
       cy="235.05"
       r="20.919"
       gradientTransform="matrix(-.21936 -.33921 .76301 -.49342 -116.23 436.51)"
       gradientUnits="userSpaceOnUse"
       xlink:href="#linearGradient1974-8" />
    <radialGradient
       id="radialGradient1509"
       cx="49.268"
       cy="149.25"
       r="6.7426"
       gradientTransform="matrix(1.1182 -.96539 3.3948 3.9322 -484.18 -349.72)"
       gradientUnits="userSpaceOnUse"
       xlink:href="#linearGradient1974-8" />
    <radialGradient
       id="radialGradient1513"
       cx="170.35"
       cy="66.049"
       r="12.035"
       gradientTransform="matrix(-.061902 -.85577 1.3958 -.10097 -57.474 327.71)"
       gradientUnits="userSpaceOnUse"
       xlink:href="#linearGradient1974-8" />
    <radialGradient
       id="radialGradient1519"
       cx="161.11"
       cy="166.44"
       r="1.4032"
       gradientTransform="matrix(-.57292 .050816 -.74249 -8.371 294.5 1665.5)"
       gradientUnits="userSpaceOnUse"
       xlink:href="#linearGradient1974-8" />
    <radialGradient
       id="radialGradient1523"
       cx="80.302"
       cy="225.63"
       r="5.5573"
       gradientTransform="matrix(.44679 -.57548 2.3219 1.8027 -476.37 -107.29)"
       gradientUnits="userSpaceOnUse"
       xlink:href="#linearGradient1974-8" />
    <radialGradient
       inkscape:collect="always"
       xlink:href="#linearGradient1974-8"
       id="radialGradient1501-5"
       gradientUnits="userSpaceOnUse"
       gradientTransform="matrix(0.33730093,-0.46590036,6.8073352,4.9283513,-1116.1969,-622.11725)"
       cx="161.11455"
       cy="166.44328"
       fx="161.11455"
       fy="166.44328"
       r="1.40318" />
    <radialGradient
       inkscape:collect="always"
       xlink:href="#linearGradient1974-8"
       id="radialGradient1509-4"
       gradientUnits="userSpaceOnUse"
       gradientTransform="matrix(1.1182441,-0.9654142,3.3949009,3.9323306,-521.63845,-435.85787)"
       cx="49.268208"
       cy="149.24762"
       fx="49.268208"
       fy="149.24762"
       r="6.742619" />
    <radialGradient
       inkscape:collect="always"
       xlink:href="#linearGradient1974-8"
       id="radialGradient1519-9"
       gradientUnits="userSpaceOnUse"
       gradientTransform="matrix(-0.45131261,-0.35658375,5.2100954,-6.5941918,-718.26029,1192.4389)"
       cx="161.11455"
       cy="166.44328"
       fx="161.11455"
       fy="166.44328"
       r="1.40318" />
    <radialGradient
       inkscape:collect="always"
       xlink:href="#linearGradient1974-8"
       id="radialGradient1523-8"
       gradientUnits="userSpaceOnUse"
       gradientTransform="matrix(0.44680138,-0.5754964,2.3219339,1.8026929,-510.2488,-339.43423)"
       cx="80.301682"
       cy="225.62547"
       fx="80.301682"
       fy="225.62547"
       r="5.5573373" />
    <radialGradient
       inkscape:collect="always"
       xlink:href="#linearGradient1974-8"
       id="radialGradient1505-3"
       gradientUnits="userSpaceOnUse"
       gradientTransform="matrix(-0.2193638,-0.33922068,0.76302634,-0.4934262,-131.10651,206.54809)"
       cx="138.43695"
       cy="235.05092"
       fx="138.43695"
       fy="235.05092"
       r="20.918684" />
    <radialGradient
       inkscape:collect="always"
       xlink:href="#linearGradient1974-8"
       id="radialGradient1513-5"
       gradientUnits="userSpaceOnUse"
       gradientTransform="matrix(-0.06190355,-0.85578423,1.3958591,-0.10097014,-7.8970158,222.41878)"
       cx="170.35481"
       cy="66.048706"
       fx="170.35481"
       fy="66.048706"
       r="12.034579" />
    <radialGradient
       inkscape:collect="always"
       xlink:href="#linearGradient1974-8"
       id="radialGradient3592-8"
       cx="487.82748"
       cy="209.77856"
       fx="487.82748"
       fy="209.77856"
       r="1.5551749"
       gradientTransform="matrix(0.27936242,0.48876949,-0.84723883,0.48425014,108.17703,-285.56924)"
       gradientUnits="userSpaceOnUse" />
  </defs>
  <metadata
     id="metadata16">
    <rdf:RDF>
      <cc:Work
         rdf:about="">
        <dc:format>image/svg+xml</dc:format>
        <dc:type
           rdf:resource="http://purl.org/dc/dcmitype/StillImage" />
        <dc:title></dc:title>
      </cc:Work>
    </rdf:RDF>
  </metadata>
  <path
     sodipodi:nodetypes="ccccccccccccccccccccccccccccccccccccc"
     inkscape:connector-curvature="0"
     id="path1497"
     d="M 4.7218734,1.1898328 14.710184,2.0851326 25.774449,1.1898328 36.480055,0.29454305 46.827004,1.1898328 H 57.353286 L 67.700245,2.0851326 78.405842,1.1898328 h 10.526285 l 4.303755,4.297355 V 20.619142 35.751107 l -0.896619,16.74345 0.896619,13.520458 0.89659,17.280622 -0.89659,12.983297 -0.537981,16.385346 0.717295,11.90896 -4.483069,6.26697 H 78.405842 l -10.705597,-0.8953 -10.346959,0.8953 H 46.827004 l -10.705617,0.89525 -10.346938,-0.89525 H 15.248156 L 6.694417,130.30303 0.41813825,126.54285 0.05950032,113.02237 2.2113479,96.816096 0.41813825,81.14696 V 66.015015 50.883061 L 1.494042,35.930161 0.41813825,20.619142 V 5.4871878 Z"
     style="fill:#C6C7C7;fill-opacity:1;stroke:#FF8D40;stroke-width:3.55563727;stroke-miterlimit:4;stroke-dasharray:none;stroke-opacity:1" />
  <path
     style="fill:#000000;fill-opacity:1;stroke:none;stroke-width:0.88009953;stroke-linecap:butt;stroke-linejoin:miter;stroke-miterlimit:4;stroke-dasharray:none;stroke-opacity:1"
     d="m 19.924969,26.41299 3.652781,-5.343878 2.908684,-4.599791 1.217597,-1.691088 1.555805,2.164608 3.990998,5.140934 2.841043,4.599791 0.0677,2.502826 -1.35288,2.164607 -2.164608,1.082294 h -2.029324 l -1.488173,-1.35287 0.0677,-0.744086 -0.135223,2.029315 0.947011,1.149955 1.014653,0.811718 -5.952662,-0.202924 1.555814,-1.285239 0.405869,-1.488163 -0.47351,-0.541162 -1.217597,1.420532 -1.961673,0.0677 c 0,0 -2.029325,-0.947011 -2.299901,-1.082314 -0.270566,-0.135223 -1.894032,-2.29988 -1.894032,-2.570466 0,-0.270576 0.744096,-2.23224 0.744096,-2.23224 z"
     id="path1487"
     inkscape:connector-curvature="0" />
  <path
     inkscape:connector-curvature="0"
     id="path1491"
     d="m 4.8720067,28.515767 2.0726658,-3.032207 1.6504465,-2.610028 0.6908852,-0.959551 0.8827798,1.228237 2.26458,2.917054 1.612065,2.610028 0.0383,1.420152 -0.767647,1.228237 -1.228237,0.614113 H 10.93638 l -0.844439,-0.767647 0.0383,-0.422199 -0.0767,1.151465 0.537352,0.652505 0.575733,0.46059 -3.3776649,-0.115123 0.8828096,-0.729256 0.230295,-0.844438 -0.2686859,-0.307067 -0.6908853,0.806058 -1.1130846,0.0383 c 0,0 -1.1514854,-0.537372 -1.3049988,-0.614134 -0.1535334,-0.0767 -1.0747238,-1.304989 -1.0747238,-1.458522 0,-0.153534 0.4222094,-1.266638 0.4222094,-1.266638 z"
     style="fill:#000000;fill-opacity:1;stroke:none;stroke-width:0.49938565;stroke-linecap:butt;stroke-linejoin:miter;stroke-miterlimit:4;stroke-dasharray:none;stroke-opacity:1" />
  <path
     inkscape:connector-curvature="0"
     id="path1493"
     d="m 34.802804,104.31153 -3.652771,5.34387 -2.908684,4.5998 -1.217597,1.6911 -1.555814,-2.16461 -3.990988,-5.14094 -2.841053,-4.59979 -0.0677,-2.50284 1.35288,-2.164597 2.164598,-1.082304 h 2.029335 l 1.488163,1.35288 -0.0677,0.744081 0.135223,-2.02932 -0.947011,-1.149945 -1.014662,-0.811728 5.952672,0.202924 -1.555815,1.285239 -0.405869,1.488173 0.473511,0.541152 1.217597,-1.420532 1.961663,-0.0677 c 0,0 2.029335,0.947011 2.299911,1.082304 0.270556,0.135233 1.894022,2.299903 1.894022,2.570463 0,0.27059 -0.744087,2.23226 -0.744087,2.23226 z"
     style="fill:#000000;fill-opacity:1;stroke:none;stroke-width:0.88009953;stroke-linecap:butt;stroke-linejoin:miter;stroke-miterlimit:4;stroke-dasharray:none;stroke-opacity:1" />
  <path
     style="fill:#000000;fill-opacity:1;stroke:none;stroke-width:0.52187294;stroke-linecap:butt;stroke-linejoin:miter;stroke-miterlimit:4;stroke-dasharray:none;stroke-opacity:1"
     d="m 90.177595,103.85039 -2.166008,3.16875 -1.724758,2.72755 -0.721996,1.00275 -0.922563,-1.28353 -2.366533,-3.04842 -1.684657,-2.72753 -0.0401,-1.48411 0.802218,-1.28355 1.283538,-0.64176 h 1.203337 l 0.882439,0.80221 -0.0401,0.44121 0.0801,-1.20332 -0.561552,-0.681901 -0.601663,-0.481311 3.529761,0.120333 -0.922551,0.762109 -0.240655,0.88244 0.280766,0.32089 0.721996,-0.84233 1.163216,-0.0401 c 0,0 1.203326,0.56156 1.36376,0.64178 0.160453,0.0801 1.123115,1.36376 1.123115,1.5242 0,0.16044 -0.44121,1.32366 -0.44121,1.32366 z"
     id="path1495"
     inkscape:connector-curvature="0" />
  <path
     style="fill:url(#radialGradient1501-5);fill-opacity:1;stroke:#b1b2b2;stroke-width:0.0792885;stroke-linecap:butt;stroke-linejoin:miter;stroke-miterlimit:4;stroke-dasharray:none;stroke-dashoffset:0;stroke-opacity:1"
     d="m 65.919296,119.22045 2.530576,1.81928 2.105856,0.60243 1.525184,1.43545 0.829508,0.52789 2.077066,1.76972 c 0,0 2.062846,1.95619 2.150678,2.08281 0.0879,0.12669 3.468806,2.79027 3.468806,2.79027 l -2.892594,-2.08667 -2.952315,-2.18869 -2.811972,-1.66824 c 0,0 -0.930861,-1.66013 -1.071424,-1.78328 -0.140723,-0.12293 -2.27429,-1.14752 -2.485255,-1.13358 -0.210894,0.0145 -3.967977,-3.12807 -3.967977,-3.12807 l -2.667509,-2.2869 z"
     id="path1499"
     inkscape:connector-curvature="0" />
  <path
     style="fill:url(#radialGradient1509-4);fill-opacity:1;stroke:#b1b2b2;stroke-width:0.0634308;stroke-linecap:butt;stroke-linejoin:miter;stroke-miterlimit:4;stroke-dasharray:none;stroke-opacity:1"
     d="m 40.583646,99.946165 5.019301,5.854535 c 0,0 2.26034,7.97269 3.19182,9.50785 0.931451,1.53517 0.87881,8.56342 1.108715,9.29028 0.229885,0.72686 0.407709,1.82383 0.407709,1.82383 l 2.092416,-0.38507 -1.248027,-0.25106 -0.825799,-0.56912 -0.140573,-3.50742 0.0995,-5.85912 -3.461466,-7.05461 -1.431462,-3.99098 -2.72485,-3.7049 c 0,0 -4.898728,-2.848162 -6.166846,-3.600309 -1.268088,-0.752126 -7.432775,-9.304255 -7.432775,-9.304255 l -4.832206,-5.360199 2.327931,2.984756 6.927633,8.387735 3.803274,4.732295 3.531648,1.297017 z"
     id="path1507"
     inkscape:connector-curvature="0" />
  <path
     style="fill:url(#radialGradient1519-9);fill-opacity:1;stroke:#b1b2b2;stroke-width:0.0792885;stroke-linecap:butt;stroke-linejoin:miter;stroke-miterlimit:4;stroke-dasharray:none;stroke-dashoffset:0;stroke-opacity:1"
     d="m 72.104322,42.524113 1.924023,-2.451884 0.690405,-2.078666 1.498243,-1.463532 0.562293,-0.806588 1.855481,-2.000834 c 0,0 2.041155,-1.978804 2.171358,-2.061246 0.130243,-0.0825 2.933605,-3.348454 2.933605,-3.348454 l -2.206419,2.802332 -2.310831,2.857723 -1.78494,2.739381 c 0,0 -1.697787,0.860259 -1.82673,0.995522 -0.128763,0.135383 -1.242107,2.224049 -1.237037,2.435414 0.005,0.211284 -3.292063,3.832994 -3.292063,3.832994 l -2.396993,2.569037 z"
     id="path1517"
     inkscape:connector-curvature="0" />
  <path
     style="fill:url(#radialGradient1523-8);fill-opacity:1;stroke:#b1b2b2;stroke-width:0.0792885;stroke-linecap:butt;stroke-linejoin:miter;stroke-miterlimit:4;stroke-dasharray:none;stroke-opacity:1"
     d="m 45.076625,15.318435 c 0,0 3.415056,2.643988 3.920777,3.081378 0.505721,0.43736 6.696838,6.719739 6.696838,6.719739 l 1.116725,2.437294 0.404978,1.194086 -0.841818,-0.978042 -0.409109,-1.713318 -1.504863,-1.801489 -4.282325,-4.281635 -2.387473,-0.798988 -2.647958,-2.774441 c 0,0 -3.418256,-2.534286 -3.744703,-2.644698 -0.326417,-0.110343 3.678931,1.560114 3.678931,1.560114 z"
     id="path1521"
     inkscape:connector-curvature="0" />
  <path
     style="fill:#000000;fill-opacity:1;stroke:none;stroke-width:0.88009953;stroke-linecap:butt;stroke-linejoin:miter;stroke-miterlimit:4;stroke-dasharray:none;stroke-opacity:1"
     d="m 18.702942,66.391724 3.652771,-5.343868 2.908684,-4.599792 1.217597,-1.691097 1.555815,2.164607 3.990988,5.140934 2.841053,4.599792 0.0677,2.502835 -1.35288,2.164598 -2.164598,1.082304 h -2.029334 l -1.488163,-1.35288 0.0677,-0.744077 -0.135223,2.029315 0.947011,1.149946 1.014663,0.811728 -5.952672,-0.202925 1.555814,-1.285238 0.405869,-1.488173 -0.47351,-0.541152 -1.217597,1.420531 -1.961663,0.0677 c 0,0 -2.029335,-0.947011 -2.299911,-1.082304 -0.270556,-0.135233 -1.894022,-2.299891 -1.894022,-2.570467 0,-0.270586 0.744086,-2.232249 0.744086,-2.232249 z"
     id="path1060"
     inkscape:connector-curvature="0" />
  <path
     style="fill:url(#radialGradient1505-3);fill-opacity:1;stroke:#b1b2b2;stroke-width:0.0634308;stroke-linecap:butt;stroke-linejoin:miter;stroke-miterlimit:4;stroke-dasharray:none;stroke-opacity:1"
     d="m 8.2612586,50.52144 c 0.1595035,-0.210765 5.7245764,-3.675631 5.9367014,-3.833315 0.212104,-0.157653 5.987742,-3.410165 5.987742,-3.410165 l 6.426032,-7.002755 3.811724,-1.358 -3.863215,1.040623 -2.017705,2.105727 -3.878145,4.52927 -6.410852,3.461226 -8.9072168,6.252088 z"
     id="path1503"
     inkscape:connector-curvature="0" />
  <path
     style="fill:#000000;fill-opacity:1;stroke:none;stroke-width:0.88009953;stroke-linecap:butt;stroke-linejoin:miter;stroke-miterlimit:4;stroke-dasharray:none;stroke-opacity:1"
     d="m 73.531014,104.31153 -3.652771,5.34387 -2.908684,4.5998 -1.217597,1.6911 -1.555814,-2.16461 -3.990992,-5.14094 -2.841053,-4.59979 -0.0677,-2.50284 1.35288,-2.164597 2.164598,-1.082304 h 2.029335 l 1.488167,1.35288 -0.0677,0.744081 0.135223,-2.02932 -0.947011,-1.149945 -1.014666,-0.811728 5.952675,0.202924 -1.555814,1.285239 -0.405869,1.488173 0.473511,0.541152 1.217596,-1.420532 1.961664,-0.0677 c 0,0 2.029335,0.947011 2.299911,1.082304 0.270556,0.135233 1.894021,2.299903 1.894021,2.570463 0,0.27059 -0.744086,2.23226 -0.744086,2.23226 z"
     id="path1167"
     inkscape:connector-curvature="0" />
  <path
     inkscape:connector-curvature="0"
     id="path1169"
     d="m 57.343526,26.41299 3.652781,-5.343878 2.908684,-4.599791 1.217597,-1.691088 1.555805,2.164608 3.990998,5.140934 2.841043,4.599791 0.0677,2.502826 -1.35288,2.164607 -2.164608,1.082294 h -2.029325 l -1.488172,-1.35287 0.0677,-0.744086 -0.135223,2.029315 0.947011,1.149955 1.014652,0.811718 -5.952661,-0.202924 1.555814,-1.285239 0.405869,-1.488163 -0.47351,-0.541162 -1.217597,1.420532 -1.961673,0.0677 c 0,0 -2.029325,-0.947011 -2.299901,-1.082314 -0.270566,-0.135223 -1.894032,-2.29988 -1.894032,-2.570466 0,-0.270576 0.744096,-2.23224 0.744096,-2.23224 z"
     style="fill:#000000;fill-opacity:1;stroke:none;stroke-width:0.88009953;stroke-linecap:butt;stroke-linejoin:miter;stroke-miterlimit:4;stroke-dasharray:none;stroke-opacity:1" />
  <path
     inkscape:connector-curvature="0"
     id="path995"
     d="m 58.655905,66.391724 3.652771,-5.343868 2.908684,-4.599792 1.217597,-1.691097 1.555815,2.164607 3.990988,5.140934 2.841053,4.599792 0.0677,2.502835 -1.35288,2.164598 -2.164598,1.082304 H 69.3437 l -1.488162,-1.35288 0.0677,-0.744077 -0.135223,2.029315 0.947011,1.149946 1.014662,0.811728 -5.952671,-0.202925 1.555814,-1.285238 0.405869,-1.488173 -0.47351,-0.541152 -1.217597,1.420531 -1.961663,0.0677 c 0,0 -2.029335,-0.947011 -2.299911,-1.082304 -0.270556,-0.135233 -1.894022,-2.299891 -1.894022,-2.570467 0,-0.270586 0.744086,-2.232249 0.744086,-2.232249 z"
     style="fill:#000000;fill-opacity:1;stroke:none;stroke-width:0.88009953;stroke-linecap:butt;stroke-linejoin:miter;stroke-miterlimit:4;stroke-dasharray:none;stroke-opacity:1" />
  <path
     style="fill:url(#radialGradient1513-5);fill-opacity:1;stroke:#b1b2b2;stroke-width:0.11100388;stroke-linecap:butt;stroke-linejoin:miter;stroke-miterlimit:4;stroke-dasharray:none;stroke-opacity:1"
     d="m 56.209501,70.867743 3.218721,-0.106883 c 0,0 3.881496,-0.642734 4.157792,-0.47827 0.276356,0.164323 4.651953,1.019212 4.651953,1.019212 l 7.752171,-1.403111 7.416584,-2.72539 1.697528,-0.364338 -1.906122,-0.191484 -1.551645,0.648724 -5.285076,2.031615 -4.856548,1.035293 -3.317743,0.792687 -2.151458,-0.758526 -3.386224,-0.678205 -3.699052,0.844638 z"
     id="path1511"
     inkscape:connector-curvature="0" />
  <path
     inkscape:connector-curvature="0"
     id="path3582"
     d="m 64.92758,73.907862 c 0,0 0.037,0.831868 0.0183,0.979762 -0.0183,0.147823 -0.0183,1.737666 -0.0183,1.737666 l 0.184824,-1.737666 -0.0555,-1.016723 0.0142,-0.600783 -0.0414,-0.0831 z"
     style="display:inline;fill:#0d0d0d;fill-opacity:0;stroke:#b1b2b2;stroke-width:0.03137152;stroke-linecap:butt;stroke-linejoin:miter;stroke-miterlimit:4;stroke-dasharray:none;stroke-opacity:1" />
  <path
     inkscape:connector-curvature="0"
     id="path3584"
     d="m 65.8415,55.280935 0.221815,-0.378948 0.425199,-0.471401 0.817988,-0.439029 0.341978,-0.147824 -0.355838,0.203345 -0.522221,0.485261 -0.360468,0.124842 c 0,0 -0.254176,0.240306 -0.281917,0.263406 -0.0277,0.0232 -0.258815,0.46215 -0.258815,0.46215 z"
     style="display:inline;fill:url(#radialGradient3592-8);fill-opacity:1;stroke:#b1b2b2;stroke-width:0.03137152;stroke-linecap:butt;stroke-linejoin:miter;stroke-miterlimit:4;stroke-dasharray:none;stroke-opacity:1" />
  <path
     style="fill:#000000;fill-opacity:1;stroke:none;stroke-width:0.88009953;stroke-linecap:butt;stroke-linejoin:miter;stroke-miterlimit:4;stroke-dasharray:none;stroke-opacity:1"
     d="m 37.763927,46.786357 3.65278,-5.343878 2.908685,-4.599791 1.217596,-1.691088 1.555805,2.164608 3.990998,5.140934 2.841043,4.599791 0.0677,2.502826 -1.35288,2.164608 -2.164607,1.082294 h -2.029325 l -1.488173,-1.35287 0.0677,-0.744087 -0.135223,2.029315 0.947011,1.149955 1.014653,0.811718 -5.952662,-0.202924 1.555815,-1.285238 0.405869,-1.488163 -0.473511,-0.541162 -1.217597,1.420531 -1.961673,0.0677 c 0,0 -2.029325,-0.947011 -2.299901,-1.082314 C 38.643466,51.453901 37.02,49.289243 37.02,49.018657 c 0,-0.270576 0.744097,-2.23224 0.744097,-2.23224 z"
     id="path1103"
     inkscape:connector-curvature="0" />
  <path
     inkscape:connector-curvature="0"
     id="path1121"
     d="M 7.1135692,3.5363767 19.879811,4.7838933 20.669919,6.2809143 13.392728,21.958036 11.147198,21.001607 17.883797,6.946257 6.8640637,5.948246 Z"
     style="fill:#000000;fill-opacity:1;stroke:none;stroke-width:0.11761697px;stroke-linecap:butt;stroke-linejoin:miter;stroke-opacity:1" />
  <path
     style="fill:#000000;fill-opacity:1;stroke:none;stroke-width:0.11761697px;stroke-linecap:butt;stroke-linejoin:miter;stroke-opacity:1"
     d="m 86.303109,128.58748 -12.766242,-1.24751 -0.790107,-1.49702 7.27719,-15.67713 2.24553,0.95643 -6.736599,14.05535 11.019734,0.99801 z"
     id="path1123"
     inkscape:connector-curvature="0" />
</svg>
