<?xml version="1.0" encoding="UTF-8" standalone="no"?>
<!-- Created with Inkscape (http://www.inkscape.org/) -->

<svg
   xmlns:dc="http://purl.org/dc/elements/1.1/"
   xmlns:cc="http://creativecommons.org/ns#"
   xmlns:rdf="http://www.w3.org/1999/02/22-rdf-syntax-ns#"
   xmlns:svg="http://www.w3.org/2000/svg"
   xmlns="http://www.w3.org/2000/svg"
   xmlns:xlink="http://www.w3.org/1999/xlink"
   xmlns:sodipodi="http://sodipodi.sourceforge.net/DTD/sodipodi-0.dtd"
   xmlns:inkscape="http://www.inkscape.org/namespaces/inkscape"
   width="356"
   height="499"
   version="1.1"
   viewBox="0 0 94.192 132.03"
   id="svg63"
   sodipodi:docname="Jack_of_Diamonds.svg"
   inkscape:version="0.92.4 (5da689c313, 2019-01-14)">
  <sodipodi:namedview
     pagecolor="#ffffff"
     bordercolor="#666666"
     borderopacity="1"
     objecttolerance="10"
     gridtolerance="10"
     guidetolerance="10"
     inkscape:pageopacity="0"
     inkscape:pageshadow="2"
     inkscape:window-width="1920"
     inkscape:window-height="1017"
     id="namedview65"
     showgrid="false"
     inkscape:zoom="1.6993988"
     inkscape:cx="178"
     inkscape:cy="249.5"
     inkscape:window-x="-8"
     inkscape:window-y="-8"
     inkscape:window-maximized="1"
     inkscape:current-layer="svg63" />
  <defs
     id="defs13">
    <linearGradient
       id="linearGradient1974-8">
      <stop
         stop-color="#565757"
         offset="0"
         id="stop2" />
      <stop
         stop-color="#373838"
         stop-opacity="0"
         offset="1"
         id="stop4" />
    </linearGradient>
    <radialGradient
       id="radialGradient3443"
       cx="161.11"
       cy="166.44"
       r="1.4032"
       gradientTransform="matrix(-.56671 .050266 -.73444 -8.2803 230.49 1588.2)"
       gradientUnits="userSpaceOnUse"
       xlink:href="#linearGradient1974-8" />
    <radialGradient
       id="radialGradient3445"
       cx="49.268"
       cy="149.25"
       r="6.7426"
       gradientTransform="matrix(-1.4309 .29626 -1.0418 -5.0319 309.31 964.96)"
       gradientUnits="userSpaceOnUse"
       xlink:href="#linearGradient1974-8" />
    <radialGradient
       id="radialGradient3449"
       cx="170.35"
       cy="66.049"
       r="12.035"
       gradientTransform="matrix(-.76799 .36121 -.58917 -1.2527 179.88 297.12)"
       gradientUnits="userSpaceOnUse"
       xlink:href="#linearGradient1974-8" />
    <radialGradient
       id="radialGradient3451"
       cx="80.302"
       cy="225.63"
       r="5.5573"
       gradientTransform="matrix(-.67181 .26082 -1.0523 -2.7105 356.5 773.82)"
       gradientUnits="userSpaceOnUse"
       xlink:href="#linearGradient1974-8" />
    <radialGradient
       id="radialGradient3560"
       cx="210.08"
       cy="90.623"
       r=".46312"
       gradientTransform="matrix(.59283 0 0 4.8358 -103.95 -246.45)"
       gradientUnits="userSpaceOnUse"
       xlink:href="#linearGradient1974-8" />
    <radialGradient
       id="radialGradient3447"
       cx="138.44"
       cy="235.05"
       r="20.919"
       gradientTransform="matrix(-.21698 -.33554 .75474 -.48807 -116.69 338.64)"
       gradientUnits="userSpaceOnUse"
       xlink:href="#linearGradient1974-8" />
    <radialGradient
       inkscape:collect="always"
       xlink:href="#linearGradient1974-8"
       id="radialGradient3447-5"
       gradientUnits="userSpaceOnUse"
       gradientTransform="matrix(-0.21698543,-0.33554279,0.75475347,-0.48807639,-123.20196,282.77468)"
       cx="138.43695"
       cy="235.05092"
       fx="138.43695"
       fy="235.05092"
       r="20.918684" />
    <radialGradient
       inkscape:collect="always"
       xlink:href="#linearGradient1974-8"
       id="radialGradient3449-1"
       gradientUnits="userSpaceOnUse"
       gradientTransform="matrix(-0.76801073,0.36122121,-0.58918346,-1.2526929,243.08613,36.487526)"
       cx="170.35481"
       cy="66.048706"
       fx="170.35481"
       fy="66.048706"
       r="12.034579" />
    <radialGradient
       inkscape:collect="always"
       xlink:href="#linearGradient1974-8"
       id="radialGradient3443-1"
       gradientUnits="userSpaceOnUse"
       gradientTransform="matrix(-0.5667215,0.05026662,-0.73445258,-8.2804477,293.22852,1427.3301)"
       cx="161.11455"
       cy="166.44328"
       fx="161.11455"
       fy="166.44328"
       r="1.40318" />
    <radialGradient
       inkscape:collect="always"
       xlink:href="#linearGradient1974-8"
       id="radialGradient3451-1"
       gradientUnits="userSpaceOnUse"
       gradientTransform="matrix(-0.36400943,-0.62199395,2.5095359,-1.4686554,-508.73504,483.4652)"
       cx="80.301682"
       cy="225.62547"
       fx="80.301682"
       fy="225.62547"
       r="5.5573373" />
    <radialGradient
       inkscape:collect="always"
       xlink:href="#linearGradient1974-8"
       id="radialGradient3560-1"
       cx="210.08463"
       cy="90.623199"
       fx="210.08463"
       fy="90.623199"
       r="0.46311602"
       gradientTransform="matrix(0.71695298,0,0,5.8481987,-81.163721,-481.05818)"
       gradientUnits="userSpaceOnUse" />
    <radialGradient
       inkscape:collect="always"
       xlink:href="#linearGradient1974-8"
       id="radialGradient3445-2"
       gradientUnits="userSpaceOnUse"
       gradientTransform="matrix(-1.4309613,0.29626817,-1.0418337,-5.0320078,263.7021,807.04762)"
       cx="49.268208"
       cy="149.24762"
       fx="49.268208"
       fy="149.24762"
       r="6.742619" />
  </defs>
  <metadata
     id="metadata15">
    <rdf:RDF>
      <cc:Work
         rdf:about="">
        <dc:format>image/svg+xml</dc:format>
        <dc:type
           rdf:resource="http://purl.org/dc/dcmitype/StillImage" />
        <dc:title />
      </cc:Work>
    </rdf:RDF>
  </metadata>
  <path
     style="fill:#C6C7C7;fill-opacity:1;stroke:#FF8D40;stroke-width:3.55563727;stroke-miterlimit:4;stroke-dasharray:none;stroke-opacity:1"
     d="M 4.8599705,1.6326635 14.740009,2.518253 25.684301,1.6326635 35.712552,1.8696587 53.992316,0.69720279 H 61.411 l 10.608955,-0.0499011 5.725116,0.98535181 h 10.41215 l 4.257074,4.2507539 -1.122544,15.7162556 1.122544,14.219534 1.732409,13.007147 -1.732409,16.92864 0.88691,17.093247 0.609833,13.216722 -2.028884,15.833487 0.709535,11.77986 -4.434468,6.199 -17.708781,0.74837 -3.292893,-1.63394 -10.234786,0.88557 -10.599254,1.49674 -10.215346,-1.73372 -10.608964,1.35954 L 15.272141,129.8773 6.8111336,129.34596 0.60290639,125.62656 0.24814855,112.25267 1.628319,96.596285 0.04162398,83.155058 0.60290639,65.754974 1.5383671,52.096737 0.91879337,36.931772 0.60290639,20.851296 V 5.8834274 Z"
     id="rect855"
     inkscape:connector-curvature="0"
     sodipodi:nodetypes="ccccccccccccccccccccccccccccccccccccc" />
  <path
     sodipodi:nodetypes="ccccccccccccccccc"
     inkscape:connector-curvature="0"
     id="path860"
     d="m 15.590108,29.18029 -1.382891,0.640164 -2.070336,1.363071 -0.988002,2.778021 L 10.25803,35.373577 9.6705868,33.349712 8.8421185,31.44317 6.1673094,30.027939 4.7532081,29.459966 6.1360587,28.819802 7.8844173,27.34952 l 1.5783449,-2.027765 0.5688328,-1.412021 0.641134,1.3808 1.257798,2.817503 2.245439,0.504241 z"
     inkscape:transform-center-x="-1.6029281e-05"
     style="fill:#71121c;fill-opacity:1;stroke:none;stroke-width:1.52837503;stroke-miterlimit:4;stroke-dasharray:none;stroke-opacity:1"
     inkscape:transform-center-y="6.1710918e-06" />
  <path
     inkscape:connector-curvature="0"
     id="path3564"
     d="m 10.606047,28.457544 v 1.075744 l -0.316407,1.740179 0.474611,-1.392151 0.0949,-0.949181 z"
     style="fill:#570e15;fill-opacity:1;stroke:#b41c2d;stroke-width:0.01898374;stroke-linecap:butt;stroke-linejoin:miter;stroke-miterlimit:4;stroke-dasharray:none;stroke-opacity:1"
     sodipodi:nodetypes="cccccc" />
  <path
     style="fill:#71121c;fill-opacity:1;stroke:none;stroke-width:1.5272187;stroke-miterlimit:4;stroke-dasharray:none;stroke-opacity:1"
     inkscape:transform-center-x="-1.1473012e-05"
     d="m 75.338258,109.71871 -3.957787,0.4867 -2.765152,2.95386 -2.426403,4.12328 -1.098594,2.7271 -1.238228,-2.66678 -2.851043,-3.72487 -3.914896,-2.69056 -2.945665,-0.88276 2.885263,-1.45058 3.569559,-2.84677 2.855413,-3.90909 2.278401,-5.511581 1.023702,5.504821 1.671227,3.93907 4.129441,2.4228 z"
     id="path1179"
     inkscape:connector-curvature="0"
     sodipodi:nodetypes="ccccccccccccccccc" />
  <path
     style="fill:#570e15;fill-opacity:1;stroke:#b41c2d;stroke-width:0.03137153;stroke-linecap:butt;stroke-linejoin:miter;stroke-miterlimit:4;stroke-dasharray:none;stroke-opacity:1"
     d="m 67.168727,107.0742 -0.365978,1.17642 -1.202586,1.56859 c 0,0 -1.464013,2.013 -1.490153,2.16987 -0.0262,0.15685 0.392139,2.01299 0.339867,2.22213 -0.0523,0.20915 0.235296,-0.28756 0.235296,-0.28756 l -0.261436,-0.65358 -0.130713,-1.15029 c 0,0 0.418279,-0.83657 0.496711,-0.96728 0.0784,-0.13072 1.516293,-1.59472 1.516293,-1.59472 0,0 0.914991,-1.38558 0.914991,-1.49015 0,-0.10457 -0.0523,-0.99343 -0.0523,-0.99343 z"
     id="path3566"
     inkscape:connector-curvature="0"
     sodipodi:nodetypes="ccccccccccscc" />
  <path
     inkscape:transform-center-y="6.1710918e-06"
     style="fill:#71121c;fill-opacity:1;stroke:none;stroke-width:1.52837503;stroke-miterlimit:4;stroke-dasharray:none;stroke-opacity:1"
     inkscape:transform-center-x="-1.6029281e-05"
     d="m 90.733428,101.01625 -1.38288,0.64017 -2.070346,1.36307 -0.988002,2.77802 -0.89084,1.41203 -0.587443,-2.02387 -0.828478,-1.90654 -2.674799,-1.41523 -1.414111,-0.56797 1.38286,-0.64017 1.748349,-1.470278 1.578345,-2.027764 0.568842,-1.412022 0.641135,1.380801 1.257787,2.817502 2.24544,0.504241 z"
     id="path1181"
     inkscape:connector-curvature="0"
     sodipodi:nodetypes="ccccccccccccccccc" />
  <path
     inkscape:connector-curvature="0"
     id="path3437"
     d="m 14.654777,128.43969 c 0.157743,-0.20848 5.662515,-3.63576 5.87233,-3.79172 0.209814,-0.15596 5.922831,-3.37321 5.922831,-3.37321 l 6.35636,-6.92682 3.770373,-1.34327 -3.821314,1.02933 -1.995814,2.0829 -3.836125,4.48017 -6.34133,3.4237 -8.810645,6.18429 z"
     style="fill:url(#radialGradient3447-5);fill-opacity:1;stroke:#b1b2b2;stroke-width:0.06274307;stroke-linecap:butt;stroke-linejoin:miter;stroke-miterlimit:4;stroke-dasharray:none;stroke-opacity:1"
     sodipodi:nodetypes="ccccccccccc" />
  <path
     sodipodi:nodetypes="ccccccccccccccccc"
     inkscape:connector-curvature="0"
     id="path1062"
     d="m 41.097051,25.873019 -3.957787,0.486701 -2.765151,2.953865 -2.426404,4.123283 -1.098594,2.727111 -1.238228,-2.666789 -2.851043,-3.724875 -3.914896,-2.690559 -2.945665,-0.88276 2.885264,-1.450582 3.569558,-2.846773 2.855414,-3.909086 2.2784,-5.511582 1.023703,5.504822 1.671226,3.939067 4.129442,2.422803 z"
     inkscape:transform-center-x="-1.1473012e-05"
     style="fill:#71121c;fill-opacity:1;stroke:none;stroke-width:1.5272187;stroke-miterlimit:4;stroke-dasharray:none;stroke-opacity:1" />
  <path
     inkscape:connector-curvature="0"
     id="path3439"
     d="m 80.40551,31.157248 -1.242287,-2.933365 c 0,0 -1.972504,-3.354794 -1.918853,-3.668291 0.0537,-0.313477 -0.712056,-4.656537 -0.712056,-4.656537 L 72.482555,13.241318 67.331411,7.3631481 66.39191,5.9255563 l 0.500511,1.8276304 1.150236,1.2019066 3.753323,4.1569717 2.681309,4.115401 1.910612,2.781092 0.0643,2.255579 0.577112,3.366929 2.094047,3.114639 z"
     style="fill:url(#radialGradient3449-1);fill-opacity:1;stroke:#b1b2b2;stroke-width:0.10980038;stroke-linecap:butt;stroke-linejoin:miter;stroke-miterlimit:4;stroke-dasharray:none;stroke-opacity:1"
     sodipodi:nodetypes="cccccccccccccccc" />
  <path
     sodipodi:nodetypes="cccccccccccc"
     inkscape:connector-curvature="0"
     id="path1081"
     d="m 61.180245,111.69998 0.491821,-1.47546 1.073064,-1.2519 1.162505,-1.78846 0.625954,-2.28027 1.207197,-1.52018 -2.056716,2.54854 -0.223544,1.29662 -0.44712,0.98365 -0.760097,0.98363 -0.89423,1.11779 z"
     style="fill:#570e15;fill-opacity:1;stroke:#b41c2d;stroke-width:0.01896938;stroke-linecap:butt;stroke-linejoin:miter;stroke-miterlimit:4;stroke-dasharray:none;stroke-opacity:1" />
  <path
     inkscape:connector-curvature="0"
     id="path3433"
     d="m 80.185165,63.657517 -0.282606,-3.069893 -0.91588,-1.963453 0.0828,-2.070076 -0.143763,-0.961891 -0.0254,-2.699064 c 0,0 0.122982,-2.809362 0.160583,-2.957085 0.0377,-0.147733 -0.165983,-4.400387 -0.165983,-4.400387 l 0.317667,3.513707 0.280236,3.62447 0.577893,3.182075 c 0,0 -0.636114,1.771929 -0.636904,1.956783 -5.91e-4,0.184854 0.618033,2.442804 0.765286,2.591327 0.147274,0.148524 0.237396,4.992246 0.237396,4.992246 l 0.0221,3.475476 z"
     style="fill:url(#radialGradient3443-1);fill-opacity:1;stroke:#b1b2b2;stroke-width:0.07842885;stroke-linecap:butt;stroke-linejoin:miter;stroke-miterlimit:4;stroke-dasharray:none;stroke-dashoffset:0;stroke-opacity:1"
     sodipodi:nodetypes="cccccccccccccccc" />
  <path
     inkscape:connector-curvature="0"
     id="path1171"
     d="M 10.582397,5.5645554 18.699926,6.1276208 18.512242,8.0045043 15.649989,7.8637392 15.884594,17.951999 15.22769,18.890441 9.5501141,20.626559 9.0339627,18.65583 13.86695,17.295088 13.585413,7.7229711 10.207019,7.5352849 10.629318,5.7053205 Z"
     style="fill:#71121c;fill-opacity:1;stroke:none;stroke-width:0.09384426px;stroke-linecap:butt;stroke-linejoin:miter;stroke-opacity:1" />
  <path
     style="fill:#71121c;fill-opacity:1;stroke:none;stroke-width:0.09384426px;stroke-linecap:butt;stroke-linejoin:miter;stroke-opacity:1"
     d="m 84.232525,126.41149 -8.11753,-0.56306 0.187694,-1.87688 2.862244,0.14076 -0.234606,-10.08826 0.656905,-0.93844 5.677585,-1.73612 0.516142,1.97073 -4.832977,1.36074 0.281526,9.57212 3.378395,0.18769 -0.422299,1.82996 z"
     id="path1174"
     inkscape:connector-curvature="0" />
  <path
     style="fill:#71121c;fill-opacity:1;stroke:none;stroke-width:0.39537251px;stroke-linecap:butt;stroke-linejoin:miter;stroke-opacity:1"
     d="m 36.311636,38.760548 34.199705,2.372221 -0.790737,7.907434 -12.058857,-0.593044 0.988422,42.502561 -2.767601,3.953718 -23.920039,7.314392 -2.174548,-8.302844 20.36168,-5.732887 -1.186116,-40.327985 -14.233414,-0.790769 1.779179,-7.709752 z"
     id="path1176"
     inkscape:connector-curvature="0" />
  <path
     inkscape:connector-curvature="0"
     id="path3441"
     d="m 21.320044,104.10741 c 0,0 3.684202,-2.16277 4.271855,-2.46618 0.587673,-0.30343 8.634,-3.676405 8.634,-3.676405 l 2.648779,-0.128552 1.245387,0.0675 -1.207776,0.413079 -1.723668,-0.254775 -2.207779,0.718875 -5.506962,2.356548 -1.612065,1.89813 -3.521758,1.41046 c 0,0 -3.584639,2.2061 -3.806124,2.46519 -0.221485,0.25911 2.786101,-2.80388 2.786111,-2.80387 z"
     style="fill:url(#radialGradient3451-1);fill-opacity:1;stroke:#b1b2b2;stroke-width:0.07842885;stroke-linecap:butt;stroke-linejoin:miter;stroke-miterlimit:4;stroke-dasharray:none;stroke-opacity:1"
     sodipodi:nodetypes="ccccccccccccc" />
  <path
     inkscape:connector-curvature="0"
     id="path3544"
     d="m 69.412137,51.630145 0.134143,-1.83317 -0.402399,-3.576879 0.625944,2.772091 z"
     style="fill:url(#radialGradient3560-1);fill-opacity:1;stroke:#7d7f7f;stroke-width:0.03793876;stroke-linecap:butt;stroke-linejoin:miter;stroke-miterlimit:4;stroke-dasharray:none;stroke-opacity:1"
     sodipodi:nodetypes="ccccc" />
  <path
     inkscape:connector-curvature="0"
     id="path3435"
     d="m 35.62835,73.458234 -1.520773,-7.474875 c 0,0 1.882831,-7.97789 1.8165,-9.752839 -0.0663,-1.774939 3.361044,-7.823653 3.512098,-8.562449 0.151053,-0.738797 0.525211,-1.772409 0.525211,-1.772409 l -1.993604,-0.674045 0.957761,0.817498 0.43987,0.889209 -1.566135,3.098939 -2.905324,5.015741 -0.403019,7.762404 -0.683255,4.137932 0.572213,4.51305 c 0,0 2.863133,4.818646 3.597179,6.078844 0.734037,1.260208 1.946663,11.617577 1.946663,11.617577 l 1.596916,6.957593 -0.575683,-3.699671 -1.951093,-10.582374 -1.009833,-5.919861 -2.428063,-2.820292 z"
     style="fill:url(#radialGradient3445-2);fill-opacity:1;stroke:#b1b2b2;stroke-width:0.06274307;stroke-linecap:butt;stroke-linejoin:miter;stroke-miterlimit:4;stroke-dasharray:none;stroke-opacity:1"
     sodipodi:nodetypes="ccccccccccccccccccccc" />
  <path
     style="fill:#570e15;fill-opacity:1;stroke:#b41c2d;stroke-width:0.01896938;stroke-linecap:butt;stroke-linejoin:miter;stroke-miterlimit:4;stroke-dasharray:none;stroke-opacity:1"
     d="m 56.204175,69.460645 -0.491821,1.475463 -1.073063,1.251908 -1.162506,1.788459 -0.625954,2.280271 -1.207197,1.520183 2.056716,-2.548546 0.223545,-1.296619 0.44712,-0.983652 0.760096,-0.983631 0.89423,-1.117795 z"
     id="path1064"
     inkscape:connector-curvature="0"
     sodipodi:nodetypes="cccccccccccc" />
  <path
     sodipodi:nodetypes="cccccccc"
     style="fill:#570e15;fill-opacity:1;stroke:#b41c2d;stroke-width:0.01896938;stroke-linecap:butt;stroke-linejoin:miter;stroke-miterlimit:4;stroke-dasharray:none;stroke-opacity:1"
     d="m 56.705366,43.143006 c 0,0.178854 -0.402409,1.38605 -0.402409,1.38605 l -1.028352,1.564905 -1.162506,1.162496 1.386061,-1.207217 c 0,0 0.715365,-0.715366 0.804797,-0.89422 0.0894,-0.178844 0.402409,-1.073073 0.402409,-1.073073 z"
     id="path1126"
     inkscape:connector-curvature="0" />
</svg>
