<?xml version="1.0" encoding="UTF-8" standalone="no"?>
<!-- Created with Inkscape (http://www.inkscape.org/) -->

<svg
   xmlns:dc="http://purl.org/dc/elements/1.1/"
   xmlns:cc="http://creativecommons.org/ns#"
   xmlns:rdf="http://www.w3.org/1999/02/22-rdf-syntax-ns#"
   xmlns:svg="http://www.w3.org/2000/svg"
   xmlns="http://www.w3.org/2000/svg"
   xmlns:xlink="http://www.w3.org/1999/xlink"
   xmlns:sodipodi="http://sodipodi.sourceforge.net/DTD/sodipodi-0.dtd"
   xmlns:inkscape="http://www.inkscape.org/namespaces/inkscape"
   width="356"
   height="499"
   version="1.1"
   viewBox="0 0 94.192 132.03"
   id="svg65"
   sodipodi:docname="skin_4.svg"
   inkscape:version="0.92.4 (5da689c313, 2019-01-14)">
  <sodipodi:namedview
     pagecolor="#ffffff"
     bordercolor="#666666"
     borderopacity="1"
     objecttolerance="10"
     gridtolerance="10"
     guidetolerance="10"
     inkscape:pageopacity="0"
     inkscape:pageshadow="2"
     inkscape:window-width="1920"
     inkscape:window-height="1017"
     id="namedview67"
     showgrid="false"
     inkscape:zoom="1.6993988"
     inkscape:cx="178"
     inkscape:cy="249.5"
     inkscape:window-x="-8"
     inkscape:window-y="-8"
     inkscape:window-maximized="1"
     inkscape:current-layer="svg65" />
  <defs
     id="defs13">
    <linearGradient
       id="linearGradient1974-8">
      <stop
         stop-color="#565757"
         offset="0"
         id="stop2" />
      <stop
         stop-color="#373838"
         stop-opacity="0"
         offset="1"
         id="stop4" />
    </linearGradient>
    <radialGradient
       id="radialGradient1996"
       cx="55.241"
       cy="82.346"
       r="17.586"
       gradientTransform="matrix(.25704 .23241 -.70952 .7847 61.433 111.81)"
       gradientUnits="userSpaceOnUse"
       xlink:href="#linearGradient1974-8" />
    <radialGradient
       id="radialGradient2968"
       cx="161.11"
       cy="166.44"
       r="1.4032"
       gradientTransform="matrix(.56649 -.052696 .76995 8.277 -139.75 -1129.7)"
       gradientUnits="userSpaceOnUse"
       xlink:href="#linearGradient1974-8" />
    <radialGradient
       id="radialGradient3016"
       cx="49.268"
       cy="149.25"
       r="6.7426"
       gradientTransform="matrix(1.4296 -.3024 1.0634 5.0274 -215.89 -506.1)"
       gradientUnits="userSpaceOnUse"
       xlink:href="#linearGradient1974-8" />
    <radialGradient
       id="radialGradient3026"
       cx="138.44"
       cy="235.05"
       r="20.919"
       gradientTransform="matrix(.21842 .3346 -.75264 .4913 212.78 118.4)"
       gradientUnits="userSpaceOnUse"
       xlink:href="#linearGradient1974-8" />
    <radialGradient
       id="radialGradient3328"
       cx="170.35"
       cy="66.049"
       r="12.035"
       gradientTransform="matrix(.76644 -.3645 .59454 1.2501 -83.601 161.19)"
       gradientUnits="userSpaceOnUse"
       xlink:href="#linearGradient1974-8" />
    <radialGradient
       id="radialGradient3429"
       cx="80.302"
       cy="225.63"
       r="5.5573"
       gradientTransform="matrix(.67068 -.2637 1.064 2.706 -262.26 -314.75)"
       gradientUnits="userSpaceOnUse"
       xlink:href="#linearGradient1974-8" />
    <radialGradient
       inkscape:collect="always"
       xlink:href="#linearGradient1974-8"
       id="radialGradient2968-6"
       cx="161.11455"
       cy="166.44328"
       fx="161.11455"
       fy="166.44328"
       r="1.40318"
       gradientTransform="matrix(0.56650068,-0.05269703,0.76996376,8.2772214,-202.99466,-1275.9728)"
       gradientUnits="userSpaceOnUse" />
    <radialGradient
       inkscape:collect="always"
       xlink:href="#linearGradient1974-8"
       id="radialGradient1518"
       gradientUnits="userSpaceOnUse"
       gradientTransform="matrix(-0.38543189,0.10542244,-0.23713206,-0.86697162,128.51644,216.57612)"
       cx="138.43695"
       cy="235.05092"
       fx="138.43695"
       fy="235.05092"
       r="20.918684" />
    <radialGradient
       inkscape:collect="always"
       xlink:href="#linearGradient1974-8"
       id="radialGradient3429-7"
       cx="80.301682"
       cy="225.62547"
       fx="80.301682"
       fy="225.62547"
       r="5.5573373"
       gradientTransform="matrix(0.67069883,-0.26370892,1.0639765,2.7060437,-215.68351,-543.5362)"
       gradientUnits="userSpaceOnUse" />
    <radialGradient
       inkscape:collect="always"
       xlink:href="#linearGradient1974-8"
       id="radialGradient1996-4"
       cx="55.241447"
       cy="82.345695"
       fx="55.241447"
       fy="82.345695"
       r="17.586334"
       gradientTransform="matrix(0.25704001,0.23241328,-0.70952116,0.78470269,426.82261,36.002995)"
       gradientUnits="userSpaceOnUse" />
    <radialGradient
       inkscape:collect="always"
       xlink:href="#linearGradient1974-8"
       id="radialGradient3328-4"
       cx="170.35481"
       cy="66.048706"
       fx="170.35481"
       fy="66.048706"
       r="12.034579"
       gradientTransform="matrix(-0.33440457,0.7800608,-1.2723475,-0.54544319,167.33434,-79.832304)"
       gradientUnits="userSpaceOnUse" />
    <radialGradient
       inkscape:collect="always"
       xlink:href="#linearGradient1974-8"
       id="radialGradient3016-1"
       cx="49.268208"
       cy="149.24762"
       fx="49.268208"
       fy="149.24762"
       r="6.742619"
       gradientTransform="matrix(-1.3413353,-0.57986588,2.0391116,-4.7168361,-194.30464,831.85894)"
       gradientUnits="userSpaceOnUse" />
  </defs>
  <metadata
     id="metadata15">
    <rdf:RDF>
      <cc:Work
         rdf:about="">
        <dc:format>image/svg+xml</dc:format>
        <dc:type
           rdf:resource="http://purl.org/dc/dcmitype/StillImage" />
        <dc:title />
      </cc:Work>
    </rdf:RDF>
  </metadata>
  <path
     style="fill:#8e8f8f;fill-opacity:1;stroke:#000017;stroke-width:0.55563727;stroke-miterlimit:4;stroke-dasharray:none;stroke-opacity:1"
     d="M 5.4238703,1.6597882 15.246717,2.5485788 26.127658,1.6597882 36.655931,0.77099851 46.831445,1.6597882 H 57.183354 L 67.358899,2.5485788 77.887142,1.6597882 H 88.23904 l 4.232454,4.2661902 V 20.94823 35.970492 l -0.881769,16.622062 0.881769,13.422446 0.881759,17.155339 -0.881759,12.889175 -0.529062,16.266546 0.705416,11.82264 -4.408808,6.22151 H 77.887142 l -10.528243,-0.88879 -10.175545,0.88879 H 46.831445 L 36.303203,131.259 26.127658,130.37021 H 15.775779 L 7.3637332,129.83694 1.1914168,126.10403 0.83871897,112.68158 2.9549457,96.592786 1.1914168,81.037242 V 66.015 50.992738 L 2.2495302,36.148256 1.1914168,20.94823 V 5.9259784 Z"
     id="path1094"
     inkscape:connector-curvature="0"
     sodipodi:nodetypes="ccccccccccccccccccccccccccccccccccccc" />
  <path
     style="fill:url(#radialGradient2968-6);fill-opacity:1;stroke:#b1b2b2;stroke-width:0.07842885;stroke-linecap:butt;stroke-linejoin:miter;stroke-miterlimit:4;stroke-dasharray:none;stroke-dashoffset:0;stroke-opacity:1"
     d="m 15.896042,86.773269 0.295776,3.068658 0.924291,1.959503 -0.0739,2.070416 0.147883,0.961261 0.037,2.69893 c 0,0 -0.110912,2.809863 -0.147883,2.957733 -0.037,0.1479 0.184854,4.39964 0.184854,4.39964 l -0.332737,-3.51231 -0.295777,-3.623228 -0.591543,-3.17957 c 0,0 0.628514,-1.77464 0.628514,-1.959494 0,-0.184864 -0.628514,-2.440134 -0.776407,-2.588017 -0.147884,-0.147893 -0.258796,-4.99119 -0.258796,-4.99119 l -0.037,-3.475337 z"
     id="path2960"
     inkscape:connector-curvature="0" />
  <path
     style="fill:url(#radialGradient1518);fill-opacity:1;stroke:#b1b2b2;stroke-width:0.06274307;stroke-linecap:butt;stroke-linejoin:miter;stroke-miterlimit:4;stroke-dasharray:none;stroke-opacity:1"
     d="m 23.06549,38.520311 c -0.151053,-0.213385 -1.754279,-6.496574 -1.83953,-6.743699 -0.0852,-0.247146 -1.425322,-6.665358 -1.425322,-6.665358 l -4.681713,-8.152653 -0.140884,-4.000035 -0.173773,3.953703 1.38227,2.532012 3.111209,5.010809 1.34696,7.079546 3.232121,10.267727 z"
     id="path3018"
     inkscape:connector-curvature="0" />
  <path
     style="fill:url(#radialGradient3429-7);fill-opacity:1;stroke:#b1b2b2;stroke-width:0.07842885;stroke-linecap:butt;stroke-linejoin:miter;stroke-miterlimit:4;stroke-dasharray:none;stroke-opacity:1"
     d="m 77.37186,38.691688 c 0,0 1.568575,3.973727 1.77772,4.601161 0.209144,0.627434 2.30058,9.09776 2.30058,9.09776 l -0.281566,2.636899 -0.258795,1.220067 -0.221835,-1.257038 0.517601,-1.663727 -0.369718,-2.292251 -1.478863,-5.804567 -1.626756,-1.885552 -0.850349,-3.697171 c 0,0 -1.626756,-3.882036 -1.84859,-4.140842 -0.221825,-0.258796 2.340571,3.185261 2.340571,3.185261 z"
     id="path3421"
     inkscape:connector-curvature="0" />
  <g
     id="g1466"
     transform="matrix(-0.85098799,-0.52522723,0.52522723,-0.85098799,337.71185,417.2604)">
    <path
       inkscape:connector-curvature="0"
       id="path1214"
       d="m 388.03058,102.84808 c -0.44365,1.03518 -1.92248,1.7746 -1.92248,1.7746 l -2.36614,4.73228 -2.51402,5.91534 -3.99286,4.28862 -4.28862,6.80265 3.5492,-4.88016 2.51403,-3.25344 3.5492,-3.10555 1.7746,-4.43651 2.07037,-5.17592 7.39418,-4.73228 z"
       style="fill:url(#radialGradient1996-4);fill-opacity:1;stroke:none;stroke-width:0.15685423px;stroke-linecap:butt;stroke-linejoin:miter;stroke-opacity:1" />
    <path
       inkscape:connector-curvature="0"
       id="path1216"
       d="m 373.90223,124.99482 4.39192,-5.80361 4.28734,-4.02592 3.86908,-9.77725 7.21529,-4.54877"
       style="fill:none;stroke:#b1b2b2;stroke-width:0.10979795;stroke-linecap:butt;stroke-linejoin:miter;stroke-miterlimit:4;stroke-dasharray:none;stroke-opacity:1" />
    <path
       inkscape:connector-curvature="0"
       id="path1218"
       d="m 393.48286,100.91769 -5.54218,1.93454 -0.4967,0.83655 -0.75813,0.65356 -0.60128,0.28757 -2.32667,4.75791 -1.98682,4.4442 -0.60127,1.43784 -2.71881,2.98023 -1.28098,1.28097 -4.10435,6.53559"
       style="fill:none;stroke:#b1b2b2;stroke-width:0.10979795;stroke-linecap:butt;stroke-linejoin:miter;stroke-miterlimit:4;stroke-dasharray:none;stroke-opacity:1" />
  </g>
  <path
     style="fill:#6a6f7c;fill-opacity:1;stroke:none;stroke-width:0.26458916px;stroke-linecap:butt;stroke-linejoin:miter;stroke-opacity:1"
     d="m 34.583265,47.750937 c 0,0 0.374208,4.630552 0.374208,4.817646 0,0.187094 -0.327427,4.116041 -0.327427,4.396677 0,0.280637 0.280646,4.209593 0.280646,4.209593 l -0.187084,1.122555 -1.029013,0.0468 c 0,0 0.233865,-2.619298 0.233865,-2.806392 0,-0.187094 -0.327427,-5.051501 -0.327427,-5.051501 l 0.140333,-3.274123 0.0935,-2.478985 z"
     id="path1026"
     inkscape:connector-curvature="0" />
  <path
     style="fill:#6a6f7c;fill-opacity:1;stroke:none;stroke-width:0.26458916px;stroke-linecap:butt;stroke-linejoin:miter;stroke-opacity:1"
     d="m 34.630046,67.442462 c -0.0935,0.187094 0.187094,2.24511 0.187094,2.24511 0,0 0.140333,2.899944 0.140333,3.133809 0,0.233865 -0.0935,3.133799 -0.187084,3.554758 -0.0936,0.42096 0.0935,3.788634 0.0935,4.022499 0,0.233865 -0.187094,1.917703 -0.187094,1.917703 l -0.982232,-1.309649 0.561272,-3.741863 c 0,0 -0.420969,-4.256354 -0.420969,-4.583771 0,-0.327418 -0.0935,-3.788624 -0.0935,-3.788624 v -1.449972 z"
     id="path1028"
     inkscape:connector-curvature="0" />
  <path
     style="fill:#6a6f7c;fill-opacity:1;stroke:none;stroke-width:0.26458916px;stroke-linecap:butt;stroke-linejoin:miter;stroke-opacity:1"
     d="m 17.744923,68.190828 c 0.280646,0 2.29189,2.759621 2.29189,2.759621 0,0 3.133799,3.788634 3.320884,3.975718 0.187094,0.187094 2.151587,4.022499 2.151587,4.022499 l 3.788634,4.724095 4.116021,4.770865 1.169326,3.227351 -0.748367,1.496743 c 0,0 -1.777369,-2.666068 -1.82415,-2.853163 -0.0468,-0.187094 -2.525746,-4.490229 -2.525746,-4.490229 0,0 -1.917712,-2.666069 -2.385433,-3.040257 -0.46774,-0.374188 -3.601529,-4.630552 -3.601529,-4.630552 0,0 -1.403201,-3.320894 -1.496753,-3.507988 -0.0935,-0.187094 -2.525746,-2.71285 -2.525746,-2.71285 L 17.18364,69.079518 Z"
     id="path1030"
     inkscape:connector-curvature="0" />
  <path
     style="fill:#6a6f7c;fill-opacity:1;stroke:none;stroke-width:0.26458916px;stroke-linecap:butt;stroke-linejoin:miter;stroke-opacity:1"
     d="m 40.102517,98.733733 c 0,0 1.683847,2.619297 1.82416,2.806397 0.140313,0.18709 2.011244,2.80639 2.011244,2.99348 0,0.1871 0.982232,2.33866 1.075764,2.52575 0.0936,0.18709 2.151588,1.63706 2.338682,1.9177 0.187094,0.28065 3.227351,4.81765 3.227351,4.81765 l 0.841929,1.07577 -1.075794,0.0935 -1.917722,-3.04026 -2.806392,-3.22735 -2.385423,-2.66608 c 0,0 -0.88868,-2.89993 -0.982242,-3.08702 -0.0935,-0.1871 -2.432204,-2.66607 -2.432204,-2.66607 z"
     id="path1032"
     inkscape:connector-curvature="0" />
  <path
     style="fill:#6a6f7c;fill-opacity:1;stroke:none;stroke-width:0.26458916px;stroke-linecap:butt;stroke-linejoin:miter;stroke-opacity:1"
     d="m 34.583265,104.06587 c 0,0 0.280656,2.15157 0.280656,2.33866 0,0.1871 0.233865,2.85318 0.233865,2.85318 l -0.0468,3.27412 -0.233865,2.33865 h -1.169326 c 0,0 0.327397,-2.47897 0.280646,-2.66607 -0.0468,-0.18709 -0.0468,-4.537 -0.0468,-4.537 l -0.280646,-1.87093 z"
     id="path1034"
     inkscape:connector-curvature="0" />
  <path
     style="fill:#6a6f7c;fill-opacity:1;stroke:none;stroke-width:0.26458916px;stroke-linecap:butt;stroke-linejoin:miter;stroke-opacity:1"
     d="m 72.422801,14.121011 -2.993486,6.4547 -4.116051,8.886908 -4.303125,8.138537 c 0,0 -2.993476,5.893426 -3.087038,6.267614 -0.0935,0.374178 -2.71283,6.361152 -2.71283,6.361152 L 48.8491,61.736126 h -2.338652 l 2.151558,-2.993476 5.42569,-9.354647 2.71286,-7.483706 5.519222,-10.196563 c 0,0 4.677333,-9.074 4.770865,-9.635279 0.0935,-0.561278 3.274132,-6.454703 3.274132,-6.454703 z"
     id="path1036"
     inkscape:connector-curvature="0" />
  <path
     style="fill:#6a6f7c;fill-opacity:1;stroke:none;stroke-width:0.26458916px;stroke-linecap:butt;stroke-linejoin:miter;stroke-opacity:1"
     d="m 46.228152,14.123755 -1.653676,4.167279 c 0,0 -2.050566,5.225636 -2.315162,5.424078 -0.264585,0.198442 -2.447444,2.645892 -2.447444,2.645892 l 0.132293,-2.44745 c 0,0 1.389091,-2.381303 1.653677,-2.910481 0.264596,-0.529178 2.778191,-5.291783 2.778191,-5.291783 z"
     id="path1038"
     inkscape:connector-curvature="0" />
  <path
     style="fill:#6a6f7c;fill-opacity:1;stroke:none;stroke-width:0.26458916px;stroke-linecap:butt;stroke-linejoin:miter;stroke-opacity:1"
     d="m 46.323354,67.021503 -1.075794,2.993486 -1.730598,3.835395 -2.058025,3.414445 -1.590285,3.274132 0.0935,-2.29189 1.496733,-2.806392 2.2919,-3.60154 1.216097,-3.414445 0.467721,-1.35642 z"
     id="path1040"
     inkscape:connector-curvature="0" />
  <path
     style="fill:#6a6f7c;fill-opacity:1;stroke:none;stroke-width:0.26458916px;stroke-linecap:butt;stroke-linejoin:miter;stroke-opacity:1"
     d="m 34.652376,15.049816 -0.992212,0.926063 -0.0661,4.233426 c 0,0 0.793767,2.778186 0.727616,3.042776 -0.0661,0.264589 -1.256798,5.953257 -1.256798,6.548582 0,0.595326 0.396889,4.961047 0.396889,4.961047 l -1.918272,4.828752 -4.101131,8.40071 c 0,0 -2.315161,4.233424 -2.513606,4.696454 -0.198434,0.46303 -3.108918,6.614736 -3.108918,6.614736 0,0 -3.307363,3.968838 -3.439656,4.365717 -0.132293,0.396888 -1.058364,3.6381 -1.058364,3.6381 l -0.198434,2.116717 0.92606,-1.32295 1.32294,-3.042777 2.050575,-2.579737 1.984414,-3.770403 1.785979,-4.696454 4.233424,-7.342352 2.71204,-4.762606 1.719828,-3.241216 1.058353,-2.44745 0.264596,-6.217846 -0.132293,-3.042776 0.264586,-3.836543 -0.330737,-3.439659 -0.132293,-3.17507 z"
     id="path1042"
     inkscape:connector-curvature="0" />
  <path
     style="fill:#6a6f7c;fill-opacity:1;stroke:none;stroke-width:0.26458916px;stroke-linecap:butt;stroke-linejoin:miter;stroke-opacity:1"
     d="m 52.497411,66.413449 3.367664,-0.0935 4.303145,0.0935 c 0,0 2.432214,0.233865 2.666079,0.280636 0.233875,0.0468 3.648311,-0.608043 3.835405,-0.561272 0.187094,0.0468 5.378919,0.654824 5.378919,0.654824 l -0.841929,1.449962 -2.432204,-0.327407 -3.367664,-0.280636 -6.220838,-0.140323 -5.425689,-0.0468 h -2.011255 z"
     id="path1044"
     inkscape:connector-curvature="0" />
  <path
     style="fill:#6a6f7c;fill-opacity:1;stroke:none;stroke-width:0.26458916px;stroke-linecap:butt;stroke-linejoin:miter;stroke-opacity:1"
     d="m 72.157895,66.843149 -1.984424,3.439656 -2.513595,5.88711 c 0,0 -2.315151,4.431868 -2.579747,4.762605 -0.264586,0.330737 -4.233424,7.937675 -4.233424,7.937675 l -1.785979,3.902697 -1.918273,4.564161 -2.778181,4.233427 -2.513596,5.22563 -1.124505,-1.38909 2.050566,-3.17507 3.241221,-6.019402 c 0,0 2.844333,-5.291787 3.042768,-5.556373 0.198444,-0.264586 2.910484,-5.093343 2.910484,-5.093343 0,0 1.785979,-3.968837 1.852121,-4.233423 0.0662,-0.264596 1.852131,-3.770394 1.852131,-3.770394 l 2.315151,-5.622524 2.182858,-3.704252 z"
     id="path1046"
     inkscape:connector-curvature="0" />
  <path
     style="fill:#6a6f7c;fill-opacity:1;stroke:none;stroke-width:0.26458916px;stroke-linecap:butt;stroke-linejoin:miter;stroke-opacity:1"
     d="m 34.718528,91.582235 -2.050566,3.968838 -1.785979,4.431868 c 0,0 -2.645889,5.291789 -2.71204,5.556369 -0.0662,0.2646 -3.373515,6.74703 -3.373515,6.74703 l -0.661474,1.91828 H 22.61357 l 1.78598,-3.17507 1.785979,-4.76261 2.844333,-5.22564 2.645888,-5.424075 2.050566,-3.439666 z"
     id="path1048"
     inkscape:connector-curvature="0" />
  <path
     style="fill:#9da1ad;fill-opacity:1;stroke:none;stroke-width:0.26458916px;stroke-linecap:butt;stroke-linejoin:miter;stroke-opacity:1"
     d="m 51.387646,16.108173 -1.852131,3.968838 -2.447444,4.828752 -2.381303,3.571954 -1.719828,4.034985 -2.844332,4.961048 -0.463041,-0.26459 c 0,0 2.24901,-3.505807 2.381303,-3.90269 0.132303,-0.396884 2.71204,-5.820962 2.71204,-5.820962 l 2.24901,-3.638102 1.653686,-3.90269 c 0,0 1.190646,-2.116714 1.256798,-2.381302 0.0661,-0.264589 1.455242,-1.455241 1.455242,-1.455241 z"
     id="path1051"
     inkscape:connector-curvature="0"
     sodipodi:nodetypes="ccccccccccccc" />
  <path
     style="fill:#9da1ad;fill-opacity:1;stroke:none;stroke-width:0.26458916px;stroke-linecap:butt;stroke-linejoin:miter;stroke-opacity:1"
     d="m 40.055736,15.056473 0.374188,2.619301 -0.233875,3.975722 -0.140313,4.630546 -0.327398,0.14032 0.0468,-2.525752 -0.0468,-3.18058 0.374179,-3.367669 -0.467741,-1.964475 z"
     id="path1053"
     inkscape:connector-curvature="0" />
  <path
     style="fill:url(#radialGradient3328-4);fill-opacity:1;stroke:#b1b2b2;stroke-width:0.10980038;stroke-linecap:butt;stroke-linejoin:miter;stroke-miterlimit:4;stroke-dasharray:none;stroke-opacity:1"
     d="m 42.154942,24.203791 -2.876694,-1.36843 c 0,0 -3.702481,-1.198696 -3.870545,-1.468712 -0.168034,-0.270026 -3.62439,-3.009007 -3.62439,-3.009007 l -7.448935,-2.28906 -7.754791,-0.974842 -1.657057,-0.45108 1.587825,1.034203 1.658127,0.134983 5.566713,0.616024 4.737545,1.296748 3.275282,0.810828 1.545764,1.643896 2.667199,2.134318 3.63392,0.93841 z"
     id="path3320"
     inkscape:connector-curvature="0" />
  <path
     style="fill:#9da1ad;fill-opacity:1;stroke:none;stroke-width:0.26458916px;stroke-linecap:butt;stroke-linejoin:miter;stroke-opacity:1"
     d="m 26.846994,62.444351 1.124505,-2.017494 0.892989,-2.017485 2.282081,-4.431868 c 0,0 1.422171,-2.71204 1.488313,-2.844333 0.0661,-0.132302 0.959141,-2.083646 0.959141,-2.083646 l 0.959131,-1.488312 0.0992,0.46303 -1.091424,1.554464 -0.694555,1.752899 -1.289869,2.645898 -1.719828,3.175071 -1.620606,2.943555 -0.92607,2.017484 -0.198434,0.363818 z"
     id="path1055"
     inkscape:connector-curvature="0" />
  <path
     style="fill:#9da1ad;fill-opacity:1;stroke:none;stroke-width:0.26458916px;stroke-linecap:butt;stroke-linejoin:miter;stroke-opacity:1"
     d="m 40.076456,67.33925 v 1.785979 l -0.0992,2.282081 0.0661,2.116716 0.0992,2.844333 c 0,0 -0.165374,2.017495 -0.165374,2.215939 0,0.198435 -0.0661,2.083636 -0.0661,2.083636 h -0.231525 l 0.165374,-1.587535 0.0992,-4.167282 -0.264596,-2.050565 0.0331,-2.116717 0.0992,-3.505798 z"
     id="path1057"
     inkscape:connector-curvature="0" />
  <path
     style="fill:#9da1ad;fill-opacity:1;stroke:none;stroke-width:0.26458916px;stroke-linecap:butt;stroke-linejoin:miter;stroke-opacity:1"
     d="m 24.829509,67.703068 1.223717,2.28208 2.513606,3.538878 1.918262,2.381303 1.752909,2.215929 1.124505,2.017494 1.521383,2.149788 -0.396878,0.0661 -1.124505,-1.455242 c 0,0 -0.760697,-1.488313 -0.859919,-1.686757 -0.0992,-0.198444 -1.256798,-1.785979 -1.389091,-1.918272 -0.132293,-0.132293 -1.223727,-1.554465 -1.223727,-1.554465 L 28.831418,74.251592 27.971499,73.22631 26.284741,70.944229 25.32561,69.15825 24.39955,67.636866 Z"
     id="path1059"
     inkscape:connector-curvature="0" />
  <path
     style="fill:#9da1ad;fill-opacity:1;stroke:none;stroke-width:0.26458916px;stroke-linecap:butt;stroke-linejoin:miter;stroke-opacity:1"
     d="m 40.804102,91.016153 c 0.280646,0.140323 0.8887,1.075784 0.8887,1.075784 l 1.82416,2.572527 2.946705,3.64831 2.338672,3.648306 2.572527,3.22736 0.982232,1.96447 -0.654835,-0.23387 -0.982232,-1.59029 -1.216107,-2.1048 -1.777379,-2.38543 -2.011244,-2.478975 -1.35642,-2.385433 -3.13382,-3.601539 -0.701585,-1.590285 z"
     id="path1061"
     inkscape:connector-curvature="0" />
  <path
     style="fill:#9da1ad;fill-opacity:1;stroke:none;stroke-width:0.26458916px;stroke-linecap:butt;stroke-linejoin:miter;stroke-opacity:1"
     d="m 52.310316,66.366678 -0.748366,1.216097 -1.075784,2.666079 -1.216107,2.478975 -1.216107,2.666079 -0.982231,2.058015 -2.525746,5.004731 -1.777379,3.928947 -2.385433,4.583781 0.608053,0.514501 0.467721,-1.496743 0.795137,-1.964473 1.309669,-2.666069 1.309639,-2.759621 1.262878,-2.291891 1.029013,-2.151567 0.888679,-1.917693 1.309659,-2.853173 1.309639,-2.666069 1.169326,-2.385432 0.8887,-1.683838 z"
     id="path1063"
     inkscape:connector-curvature="0" />
  <path
     style="fill:#9da1ad;fill-opacity:1;stroke:none;stroke-width:0.26458916px;stroke-linecap:butt;stroke-linejoin:miter;stroke-opacity:1"
     d="m 39.681557,39.612405 0.187095,2.432205 c 0,0 0.187084,2.946715 0.187084,3.133809 0,0.187084 -0.280617,2.525747 -0.280617,2.712841 0,0.187094 0.0935,3.18058 0.0935,3.18058 l -0.374189,0.561283 c 0,0 0.0468,-2.011255 0,-2.338662 -0.0468,-0.327417 0.0936,-3.13381 0.0936,-3.320905 0,-0.187094 -0.140343,-3.975717 -0.140343,-3.975717 V 39.84627 Z"
     id="path1065"
     inkscape:connector-curvature="0" />
  <path
     style="fill:#9da1ad;fill-opacity:1;stroke:none;stroke-width:0.26458916px;stroke-linecap:butt;stroke-linejoin:miter;stroke-opacity:1"
     d="m 63.722979,43.775218 -0.982242,2.291891 -1.309629,2.525746 -1.917722,3.414446 c 0,0 -1.029013,2.759621 -1.169326,2.946715 -0.140313,0.187094 -1.637066,2.572527 -1.637066,2.572527 l -0.935451,1.777379 -0.233875,-0.561272 1.403201,-2.619308 2.525736,-4.95796 1.730628,-2.385433 1.122545,-2.666069 0.93548,-2.338662 z"
     id="path1068"
     inkscape:connector-curvature="0" />
  <path
     style="fill:#9da1ad;fill-opacity:1;stroke:none;stroke-width:0.26458916px;stroke-linecap:butt;stroke-linejoin:miter;stroke-opacity:1"
     d="m 63.395571,61.549042 4.583772,-0.0468 3.882186,0.280646 3.414445,-0.0936 1.82415,-0.140313 -1.403191,0.514501 -3.040267,-0.187094 -2.946725,0.187094 -3.274102,-0.280636 -2.525776,0.233865 -2.572517,-0.233865 -1.917692,-0.654825 z"
     id="path1070"
     inkscape:connector-curvature="0" />
  <path
     style="fill:#9da1ad;fill-opacity:1;stroke:none;stroke-width:0.26458916px;stroke-linecap:butt;stroke-linejoin:miter;stroke-opacity:1"
     d="m 79.953277,62.858681 -1.777379,3.18058 -1.496733,2.572527 -1.777379,3.367674 -1.637066,3.695082 c 0,0 -1.496754,3.320893 -1.637067,3.507987 -0.140303,0.187095 -1.543504,2.899944 -1.543504,2.899944 0,0 1.35642,-1.82416 1.449952,-2.011254 0.0936,-0.187094 1.403191,-2.759621 1.403191,-2.759621 l 1.964494,-3.648301 1.496733,-2.946715 c 0,0 1.262878,-2.899944 1.309659,-3.087028 0.0468,-0.187094 1.637046,-3.320903 1.777379,-3.507997 0.140313,-0.187085 0.46772,-1.262878 0.46772,-1.262878 z"
     id="path1072"
     inkscape:connector-curvature="0" />
  <path
     style="fill:#9da1ad;fill-opacity:1;stroke:none;stroke-width:0.26458916px;stroke-linecap:butt;stroke-linejoin:miter;stroke-opacity:1"
     d="m 64.939086,92.512896 c 0,0 -1.496734,3.087028 -1.496734,3.320893 0,0.233866 -2.151587,2.946715 -2.151587,2.946715 l -2.946705,6.174066 c 0,0 -2.338652,3.88218 -2.478985,4.11604 -0.140313,0.23387 -3.087018,4.49022 -3.087018,4.49022 l -1.403191,1.26288 0.93545,-0.14031 1.262888,-1.26288 c 0,0 1.683818,-2.47899 1.824161,-2.66608 0.140303,-0.1871 1.449972,-2.47898 1.637066,-2.71284 0.187084,-0.23387 2.432174,-3.69508 2.432174,-3.69508 0,0 1.590315,-3.92896 1.730628,-4.25637 0.140313,-0.327404 2.198338,-2.946712 2.291871,-3.180577 0.0936,-0.233865 1.403201,-3.133799 1.403201,-3.133799 z"
     id="path1074"
     inkscape:connector-curvature="0" />
  <path
     style="fill:#9da1ad;fill-opacity:1;stroke:none;stroke-width:0.26458916px;stroke-linecap:butt;stroke-linejoin:miter;stroke-opacity:1"
     d="m 74.013086,23.288557 -1.777379,2.993485 -1.683847,3.133806 -2.572517,5.051504 -0.701586,1.917703 c 0,0 0.935461,-1.59029 0.982232,-1.777384 0.0468,-0.187093 2.058005,-4.022496 2.198339,-4.256361 0.140313,-0.233865 2.011254,-3.882174 2.011254,-3.882174 l 1.35641,-2.525755 z"
     id="path1076"
     inkscape:connector-curvature="0" />
  <path
     style="fill:#9da1ad;fill-opacity:1;stroke:none;stroke-width:0.26458916px;stroke-linecap:butt;stroke-linejoin:miter;stroke-opacity:1"
     d="m 40.149298,55.983029 -0.0468,2.245109 -0.233865,3.695082 -0.0468,-1.870931 v -3.320894 z"
     id="path1078"
     inkscape:connector-curvature="0" />
  <path
     style="fill:#9da1ad;fill-opacity:1;stroke:none;stroke-width:0.26458916px;stroke-linecap:butt;stroke-linejoin:miter;stroke-opacity:1"
     d="m 39.681557,104.76748 0.0468,2.52574 0.374179,2.33866 0.0468,3.18058 -0.0936,2.1048 -0.467711,-0.0468 c 0,0 0.0935,-1.59029 0.0935,-1.77738 0,-0.18709 -0.140313,-3.41444 -0.140313,-3.60153 0,-0.18709 -0.327427,-2.80639 -0.327427,-2.80639 l 0.0936,-1.73061 z"
     id="path1080"
     inkscape:connector-curvature="0" />
  <path
     style="fill:url(#radialGradient3016-1);fill-opacity:1;stroke:#b1b2b2;stroke-width:0.06274307;stroke-linecap:butt;stroke-linejoin:miter;stroke-miterlimit:4;stroke-dasharray:none;stroke-opacity:1"
     d="m 40.613278,100.43248 3.051007,-6.991254 c 0,0 6.125506,-5.44701 7.091227,-6.937713 0.965761,-1.490693 7.24664,-4.471289 7.794822,-4.98911 0.548192,-0.517802 1.448372,-1.148685 1.448372,-1.148685 l -1.244177,-1.697288 0.314027,1.219427 -0.151034,0.980482 -3.062547,1.636126 -5.260076,2.435214 -4.790616,6.121045 -2.937105,2.993796 -2.125227,4.022229 c 0,0 -0.42596,5.588871 -0.549432,7.042031 -0.123473,1.45317 -5.083133,10.62636 -5.083133,10.62636 l -2.691389,6.6117 1.654936,-3.35859 4.48461,-9.7817 2.575526,-5.42505 -0.366358,-3.70343 z"
     id="path3000"
     inkscape:connector-curvature="0" />
</svg>
