<?xml version="1.0" encoding="UTF-8"?>
<!-- Created with Inkscape (http://www.inkscape.org/) -->
<svg width="356" height="499" version="1.1" viewBox="0 0 94.192 132.03" xmlns="http://www.w3.org/2000/svg" xmlns:cc="http://creativecommons.org/ns#" xmlns:dc="http://purl.org/dc/elements/1.1/" xmlns:osb="http://www.openswatchbook.org/uri/2009/osb" xmlns:rdf="http://www.w3.org/1999/02/22-rdf-syntax-ns#" xmlns:xlink="http://www.w3.org/1999/xlink">
 <defs>
  <linearGradient id="linearGradient1974-8">
   <stop stop-color="#565757" offset="0"/>
   <stop stop-color="#373838" stop-opacity="0" offset="1"/>
  </linearGradient>
  <radialGradient id="radialGradient3592" cx="487.83" cy="209.78" r="1.5552" gradientTransform="matrix(.27936 .48876 -.84722 .48424 90.647 -125.55)" gradientUnits="userSpaceOnUse" xlink:href="#linearGradient1974-8"/>
  <radialGradient id="radialGradient1501" cx="161.11" cy="166.44" r="1.4032" gradientTransform="matrix(.33729 -.46589 6.8072 4.9282 -1131.7 -533.28)" gradientUnits="userSpaceOnUse" xlink:href="#linearGradient1974-8"/>
  <radialGradient id="radialGradient1505" cx="138.44" cy="235.05" r="20.919" gradientTransform="matrix(-.21936 -.33921 .76301 -.49342 -116.23 436.51)" gradientUnits="userSpaceOnUse" xlink:href="#linearGradient1974-8"/>
  <radialGradient id="radialGradient1509" cx="49.268" cy="149.25" r="6.7426" gradientTransform="matrix(1.1182 -.96539 3.3948 3.9322 -484.18 -349.72)" gradientUnits="userSpaceOnUse" xlink:href="#linearGradient1974-8"/>
  <radialGradient id="radialGradient1513" cx="170.35" cy="66.049" r="12.035" gradientTransform="matrix(-.061902 -.85577 1.3958 -.10097 -57.474 327.71)" gradientUnits="userSpaceOnUse" xlink:href="#linearGradient1974-8"/>
  <radialGradient id="radialGradient1519" cx="161.11" cy="166.44" r="1.4032" gradientTransform="matrix(-.57292 .050816 -.74249 -8.371 294.5 1665.5)" gradientUnits="userSpaceOnUse" xlink:href="#linearGradient1974-8"/>
  <radialGradient id="radialGradient1523" cx="80.302" cy="225.63" r="5.5573" gradientTransform="matrix(.44679 -.57548 2.3219 1.8027 -476.37 -107.29)" gradientUnits="userSpaceOnUse" xlink:href="#linearGradient1974-8"/>
 </defs>
 <metadata>
  <rdf:RDF>
   <cc:Work rdf:about="">
    <dc:format>image/svg+xml</dc:format>
    <dc:type rdf:resource="http://purl.org/dc/dcmitype/StillImage"/>
    <dc:title/>
   </cc:Work>
  </rdf:RDF>
 </metadata>
 <g transform="translate(0 -164.97)">
  <g>
   <path d="m48.192 216.06s0.037 0.83185 0.0183 0.97974c-0.0183 0.14782-0.0183 1.7376-0.0183 1.7376l0.18482-1.7376-0.0555-1.0167 0.0142-0.60077-0.0414-0.0831z" fill-opacity="0" stroke="#b1b2b2" stroke-width=".031371"/>
   <path d="m48.312 215.29 0.22181-0.37894 0.42519-0.47139 0.81797-0.43902 0.34197-0.14782-0.35583 0.20334-0.52221 0.48525-0.36046 0.12484s-0.25417 0.2403-0.28191 0.2634c-0.0277 0.0232-0.25881 0.46214-0.25881 0.46214z" fill="url(#radialGradient3592)" stroke="#b1b2b2" stroke-width=".031371"/>
   <path d="m4.7226 166.16 9.9881 0.89528 11.064-0.89528 10.705-0.89526 10.347 0.89526h10.526l10.347 0.89528 10.705-0.89528h10.526l4.3037 4.2973v30.263l-0.8966 16.743 0.8966 13.52 0.89657 17.28-0.89657 12.983-0.53797 16.385 0.71728 11.909-4.483 6.2668h-10.526l-10.705-0.89528-10.347 0.89528h-10.526l-10.705 0.89523-10.347-0.89523h-10.526l-8.5536-0.53717-6.2761-3.7601-0.35863-13.52 2.1518-16.206-1.7932-15.669v-30.263l1.0759-14.953-1.0759-15.311v-15.132z" fill="#8e8f8f" stroke="#060000" stroke-width=".55563"/>
  </g>
  <g>
   <path d="m19.925 191.39 3.6527-5.3438 2.9086-4.5997 1.2176-1.6911 1.5558 2.1646 3.9909 5.1408 2.841 4.5997 0.0677 2.5028-1.3528 2.1646-2.1646 1.0823h-2.0293l-1.4881-1.3528 0.0677-0.74406-0.13522 2.0293 0.94699 1.1499 1.0146 0.8117-5.9525-0.20291 1.5558-1.2852 0.40586-1.4881-0.4735-0.54114-1.2176 1.4205-1.9616 0.0677s-2.0293-0.94699-2.2998-1.0823c-0.27056-0.13522-1.894-2.2998-1.894-2.5704 0-0.27057 0.74408-2.2322 0.74408-2.2322z"/>
   <path d="m4.8728 193.49 2.0726-3.0322 1.6504-2.61 0.69087-0.95953 0.88276 1.2282 2.2645 2.917 1.612 2.61 0.0383 1.4201-0.76763 1.2282-1.2282 0.6141h-1.1514l-0.84442-0.76763 0.0383-0.4222-0.0767 1.1514 0.53734 0.65249 0.57572 0.46057-3.3776-0.11512 0.88279-0.72923 0.23029-0.84442-0.26868-0.30706-0.69087 0.80603-1.1131 0.0383s-1.1515-0.53736-1.305-0.61412c-0.15353-0.0767-1.0747-1.305-1.0747-1.4585s0.4222-1.2666 0.4222-1.2666z"/>
   <path d="m75.214 269.28-3.6527 5.3438-2.9086 4.5997-1.2176 1.691-1.5558-2.1646-3.9909-5.1408-2.841-4.5997-0.0677-2.5028 1.3528-2.1646 2.1646-1.0823h2.0293l1.4881 1.3528-0.0677 0.74407 0.13522-2.0293-0.94699-1.1499-1.0146-0.8117 5.9525 0.20292-1.5558 1.2852-0.40586 1.4881 0.4735 0.54115 1.2176-1.4205 1.9616-0.0677s2.0293 0.94699 2.2999 1.0823c0.27055 0.13522 1.894 2.2998 1.894 2.5704s-0.74407 2.2322-0.74407 2.2322z"/>
   <path d="m90.428 267.39-2.166 3.1687-1.7247 2.7275-0.72198 1.0027-0.92254-1.2835-2.3665-3.0484-1.6846-2.7275-0.0401-1.4841 0.8022-1.2835 1.2835-0.64175h1.2033l0.88242 0.8022-0.0401 0.4412 0.0801-1.2033-0.56154-0.68189-0.60165-0.4813 3.5297 0.12032-0.92253 0.7621-0.24065 0.88242 0.28076 0.32089 0.72198-0.84232 1.1632-0.0401s1.2033 0.56153 1.3637 0.64175c0.16045 0.0801 1.1231 1.3637 1.1231 1.5242 0 0.16043-0.4412 1.3236-0.4412 1.3236z"/>
  </g>
  <g stroke="#b1b2b2">
   <path d="m50.39 208.05 2.5305 1.8192 2.1058 0.60242 1.5252 1.4354 0.82949 0.52788 2.077 1.7697s2.0628 1.9562 2.1506 2.0828c0.0879 0.12669 3.4687 2.7902 3.4687 2.7902l-2.8925-2.0866-2.9522-2.1886-2.8119-1.6682s-0.93084-1.6601-1.0714-1.7832c-0.14072-0.12293-2.2742-1.1475-2.4852-1.1336-0.21089 0.0145-3.9679-3.128-3.9679-3.128l-2.6674-2.2868z" fill="url(#radialGradient1501)" stroke-width=".079375"/>
   <path d="m23.137 280.49c0.1595-0.21075 5.7244-3.6755 5.9366-3.8332 0.2121-0.15765 5.9876-3.4101 5.9876-3.4101l6.4259-7.0026 3.8116-1.358-3.8631 1.0406-2.0177 2.1057-3.8781 4.5292-6.4107 3.4612-8.907 6.2519z" fill="url(#radialGradient1505)" stroke-width=".063429"/>
   <path d="m78.03 186.07 5.0192 5.8544s2.2603 7.9725 3.1918 9.5076c0.93143 1.5351 0.87879 8.5632 1.1087 9.2901 0.22988 0.72684 0.4077 1.8238 0.4077 1.8238l2.0924-0.38505-1.248-0.25106-0.82578-0.5691-0.14057-3.5074 0.0995-5.859-3.4614-7.0544-1.4314-3.9909-2.7248-3.7048s-4.8986-2.8481-6.1667-3.6002c-1.2681-0.75211-7.4326-9.3041-7.4326-9.3041l-4.8321-5.3601 2.3279 2.9847 6.9275 8.3876 3.8032 4.7322 3.5316 1.297z" fill="url(#radialGradient1509)" stroke-width=".063429"/>
  </g>
  <path d="m8.9497 203.23 5.3164 2.6371 0.95567-0.23252 1.0083 0.0858 0.63292 0.23118 5.0831-1.6826 4.6162-1.7064 1.4641-0.58207 4.0758-0.14245 1.8313 0.0205 7.6245-1.6549" fill="none" stroke="#b1b2b2" stroke-width=".111"/>
  <g>
   <path d="m78.94 247.46s3.415 2.6439 3.9207 3.0813c0.50571 0.43735 6.6967 6.7196 6.6967 6.7196l1.1167 2.4372 0.40497 1.194-0.8418-0.97801-0.4091-1.7133-1.5048-1.8014-4.2822-4.2815-2.3874-0.79897-2.6479-2.7744s-3.4182-2.5342-3.7446-2.6446c-0.32641-0.11034 3.6788 1.5601 3.6788 1.5601z" fill="url(#radialGradient1523)" stroke="#b1b2b2" stroke-width=".079287"/>
   <path d="m8.1075 173.42 1.1779 1.3743 4.4418-2.8712 3.8528 3.1657-8.7854 9.8407 0.71167 1.7178 11.608-1.2025-0.2454-2.0368-9.0308 1.0307 7.9511-8.9572-0.17178-1.2516-5.2271-4.4418-1.0062-0.0245z"/>
   <path d="m6.6306 176.16 3.2186-0.10687s3.8814-0.64273 4.1577-0.47827c0.27635 0.16432 4.6518 1.0192 4.6518 1.0192l7.752-1.4031 7.4164-2.7253 1.6975-0.36433-1.9061-0.19148-1.5516 0.64871-5.285 2.0316-4.8564 1.0353-3.3177 0.79267-2.1514-0.75851-3.3862-0.67819-3.699 0.84462z" fill="url(#radialGradient1513)" stroke="#b1b2b2" stroke-width=".111"/>
   <path d="m88.466 289.07-1.1779-1.3743-4.4418 2.8712-3.8528-3.1657 8.7854-9.8407-0.71167-1.7178-11.608 1.2025 0.2454 2.0368 9.0308-1.0307-7.9511 8.9572 0.17178 1.2516 5.2271 4.4418 1.0062 0.0245z"/>
   <path d="m79.126 286.95-0.28568-3.1035-0.92592-1.9849 0.0837-2.0927-0.14533-0.97242-0.0257-2.7286s0.12437-2.8401 0.16238-2.9894c0.038-0.14942-0.16773-4.4485-0.16773-4.4485l0.32114 3.5522 0.2833 3.6641 0.58423 3.2169s-0.64307 1.7913-0.64388 1.9782c-6e-4 0.18684 0.6248 2.4695 0.77366 2.6197 0.14882 0.15006 0.24 5.0469 0.24 5.0469l0.0224 3.5135z" fill="url(#radialGradient1519)" stroke="#b1b2b2" stroke-width=".079287"/>
  </g>
 </g>
</svg>
