<?xml version="1.0" encoding="UTF-8" standalone="no"?>
<!-- Created with Inkscape (http://www.inkscape.org/) -->

<svg
   xmlns:dc="http://purl.org/dc/elements/1.1/"
   xmlns:cc="http://creativecommons.org/ns#"
   xmlns:rdf="http://www.w3.org/1999/02/22-rdf-syntax-ns#"
   xmlns:svg="http://www.w3.org/2000/svg"
   xmlns="http://www.w3.org/2000/svg"
   xmlns:xlink="http://www.w3.org/1999/xlink"
   xmlns:sodipodi="http://sodipodi.sourceforge.net/DTD/sodipodi-0.dtd"
   xmlns:inkscape="http://www.inkscape.org/namespaces/inkscape"
   width="356"
   height="499"
   version="1.1"
   viewBox="0 0 94.192 132.03"
   id="svg63"
   sodipodi:docname="5_of_Diamonds.svg"
   inkscape:version="0.92.4 (5da689c313, 2019-01-14)">
  <sodipodi:namedview
     pagecolor="#ffffff"
     bordercolor="#666666"
     borderopacity="1"
     objecttolerance="10"
     gridtolerance="10"
     guidetolerance="10"
     inkscape:pageopacity="0"
     inkscape:pageshadow="2"
     inkscape:window-width="1920"
     inkscape:window-height="1017"
     id="namedview65"
     showgrid="false"
     inkscape:zoom="1.6993988"
     inkscape:cx="178"
     inkscape:cy="249.5"
     inkscape:window-x="-8"
     inkscape:window-y="-8"
     inkscape:window-maximized="1"
     inkscape:current-layer="svg63" />
  <defs
     id="defs13">
    <linearGradient
       id="linearGradient1974-8">
      <stop
         stop-color="#565757"
         offset="0"
         id="stop2" />
      <stop
         stop-color="#373838"
         stop-opacity="0"
         offset="1"
         id="stop4" />
    </linearGradient>
    <radialGradient
       id="radialGradient3443"
       cx="161.11"
       cy="166.44"
       r="1.4032"
       gradientTransform="matrix(-.56671 .050266 -.73444 -8.2803 230.49 1588.2)"
       gradientUnits="userSpaceOnUse"
       xlink:href="#linearGradient1974-8" />
    <radialGradient
       id="radialGradient3445"
       cx="49.268"
       cy="149.25"
       r="6.7426"
       gradientTransform="matrix(-1.4309 .29626 -1.0418 -5.0319 309.31 964.96)"
       gradientUnits="userSpaceOnUse"
       xlink:href="#linearGradient1974-8" />
    <radialGradient
       id="radialGradient3449"
       cx="170.35"
       cy="66.049"
       r="12.035"
       gradientTransform="matrix(-.76799 .36121 -.58917 -1.2527 179.88 297.12)"
       gradientUnits="userSpaceOnUse"
       xlink:href="#linearGradient1974-8" />
    <radialGradient
       id="radialGradient3451"
       cx="80.302"
       cy="225.63"
       r="5.5573"
       gradientTransform="matrix(-.67181 .26082 -1.0523 -2.7105 356.5 773.82)"
       gradientUnits="userSpaceOnUse"
       xlink:href="#linearGradient1974-8" />
    <radialGradient
       id="radialGradient3560"
       cx="210.08"
       cy="90.623"
       r=".46312"
       gradientTransform="matrix(.59283 0 0 4.8358 -103.95 -246.45)"
       gradientUnits="userSpaceOnUse"
       xlink:href="#linearGradient1974-8" />
    <radialGradient
       id="radialGradient3447"
       cx="138.44"
       cy="235.05"
       r="20.919"
       gradientTransform="matrix(-.21698 -.33554 .75474 -.48807 -116.69 338.64)"
       gradientUnits="userSpaceOnUse"
       xlink:href="#linearGradient1974-8" />
    <radialGradient
       inkscape:collect="always"
       xlink:href="#linearGradient1974-8"
       id="radialGradient3443-3"
       gradientUnits="userSpaceOnUse"
       gradientTransform="matrix(-0.5667215,0.05026662,-0.73445258,-8.2804477,261.40756,1459.3852)"
       cx="161.11455"
       cy="166.44328"
       fx="161.11455"
       fy="166.44328"
       r="1.40318" />
    <radialGradient
       inkscape:collect="always"
       xlink:href="#linearGradient1974-8"
       id="radialGradient3445-5"
       gradientUnits="userSpaceOnUse"
       gradientTransform="matrix(-1.4309613,0.29626817,-1.0418337,-5.0320078,311.57487,764.40745)"
       cx="49.268208"
       cy="149.24762"
       fx="49.268208"
       fy="149.24762"
       r="6.742619" />
    <radialGradient
       inkscape:collect="always"
       xlink:href="#linearGradient1974-8"
       id="radialGradient3449-1"
       gradientUnits="userSpaceOnUse"
       gradientTransform="matrix(-0.76801073,0.36122121,-0.58918346,-1.2526929,196.53951,67.681499)"
       cx="170.35481"
       cy="66.048706"
       fx="170.35481"
       fy="66.048706"
       r="12.034579" />
    <radialGradient
       inkscape:collect="always"
       xlink:href="#linearGradient1974-8"
       id="radialGradient3451-1"
       gradientUnits="userSpaceOnUse"
       gradientTransform="matrix(-0.67182383,0.26082961,-1.0523596,-2.7105826,338.92389,611.18728)"
       cx="80.301682"
       cy="225.62547"
       fx="80.301682"
       fy="225.62547"
       r="5.5573373" />
    <radialGradient
       inkscape:collect="always"
       xlink:href="#linearGradient1974-8"
       id="radialGradient3560-9"
       cx="210.08463"
       cy="90.623199"
       fx="210.08463"
       fy="90.623199"
       r="0.46311602"
       gradientTransform="matrix(0.71695298,0,0,5.8481987,-132.15228,-503.60278)"
       gradientUnits="userSpaceOnUse" />
    <radialGradient
       inkscape:collect="always"
       xlink:href="#linearGradient1974-8"
       id="radialGradient3447-1"
       gradientUnits="userSpaceOnUse"
       gradientTransform="matrix(-0.21698543,-0.33554279,0.75475347,-0.48807639,-117.24616,232.87077)"
       cx="138.43695"
       cy="235.05092"
       fx="138.43695"
       fy="235.05092"
       r="20.918684" />
  </defs>
  <metadata
     id="metadata15">
    <rdf:RDF>
      <cc:Work
         rdf:about="">
        <dc:format>image/svg+xml</dc:format>
        <dc:type
           rdf:resource="http://purl.org/dc/dcmitype/StillImage" />
        <dc:title />
      </cc:Work>
    </rdf:RDF>
  </metadata>
  <path
     style="fill:#8e8f8f;fill-opacity:1;stroke:#000012;stroke-width:0.55563727;stroke-miterlimit:4;stroke-dasharray:none;stroke-opacity:1"
     d="M 4.8599644,1.6326598 14.739993,2.5182394 25.684285,1.6326598 35.712546,1.8696451 53.99231,0.69719917 h 7.418674 l 10.608965,-0.0499011 5.725106,0.98534173 h 10.41216 l 4.257074,4.250754 -1.122555,15.7162672 1.122555,14.219524 1.732409,13.007158 -1.732409,16.928624 0.8869,17.093268 0.609843,13.216722 -2.028884,15.833493 0.709535,11.77986 -4.434468,6.19899 -17.708781,0.74837 -3.292903,-1.63394 -10.234776,0.88557 -10.599254,1.49675 L 36.106155,129.64032 25.49719,130.99986 15.272134,129.8773 6.8111275,129.34596 0.60290031,125.62656 0.24814247,112.25267 1.628313,96.596288 0.0416179,83.155061 0.60290031,65.754967 1.538361,52.096725 0.91878729,36.93177 0.60290031,20.851285 V 5.8833938 Z"
     id="rect855"
     inkscape:connector-curvature="0"
     sodipodi:nodetypes="ccccccccccccccccccccccccccccccccccccc" />
  <path
     style="fill:#71121c;fill-opacity:1;stroke:none;stroke-width:1.5272187;stroke-miterlimit:4;stroke-dasharray:none;stroke-opacity:1"
     inkscape:transform-center-x="-1.1473012e-05"
     d="m 38.669952,26.9798 -3.957798,0.486701 -2.765141,2.953865 -2.426414,4.123281 -1.098594,2.7271 -1.238227,-2.666779 -2.851043,-3.724872 -3.914897,-2.690559 -2.945655,-0.88276 2.885264,-1.450582 3.569549,-2.846773 2.855423,-3.909086 2.2784,-5.511582 1.023703,5.504822 1.671227,3.939067 4.129431,2.422803 z"
     id="path857"
     inkscape:connector-curvature="0"
     sodipodi:nodetypes="ccccccccccccccccc" />
  <path
     sodipodi:nodetypes="ccccccccccccccccc"
     inkscape:connector-curvature="0"
     id="path860"
     d="m 15.590092,29.180289 -1.382881,0.640164 -2.070346,1.36307 -0.988002,2.778021 -0.890839,1.412031 L 9.6705707,33.349711 8.8421024,31.443169 6.1672933,30.027937 4.753192,29.459965 l 1.3828506,-0.640164 1.7483586,-1.470283 1.5783449,-2.027765 0.5688329,-1.412021 0.641134,1.380801 1.257798,2.817502 2.245439,0.504241 z"
     inkscape:transform-center-x="-1.6029281e-05"
     style="fill:#71121c;fill-opacity:1;stroke:none;stroke-width:1.52837503;stroke-miterlimit:4;stroke-dasharray:none;stroke-opacity:1"
     inkscape:transform-center-y="6.1710918e-06" />
  <path
     inkscape:connector-curvature="0"
     id="path3433"
     d="m 48.364206,95.712689 -0.282606,-3.069888 -0.915881,-1.963453 0.0828,-2.070076 -0.143763,-0.961891 -0.0254,-2.69906 c 0,0 0.122973,-2.809362 0.160574,-2.957085 0.0377,-0.147734 -0.165984,-4.400388 -0.165984,-4.400388 l 0.317677,3.513708 0.280227,3.62447 0.577902,3.182071 c 0,0 -0.636124,1.771929 -0.636914,1.956783 -5.9e-4,0.184854 0.618044,2.442804 0.765297,2.591327 0.147263,0.148523 0.237385,4.99224 0.237385,4.99224 l 0.0221,3.475473 z"
     style="fill:url(#radialGradient3443-3);fill-opacity:1;stroke:#b1b2b2;stroke-width:0.07842885;stroke-linecap:butt;stroke-linejoin:miter;stroke-miterlimit:4;stroke-dasharray:none;stroke-dashoffset:0;stroke-opacity:1"
     sodipodi:nodetypes="cccccccccccccccc" />
  <path
     inkscape:connector-curvature="0"
     id="path3435"
     d="M 83.501112,30.818055 81.980349,23.34318 c 0,0 1.882821,-7.977887 1.81649,-9.752836 -0.0663,-1.774939 3.361044,-7.8236528 3.512097,-8.5624491 C 87.46,4.2890985 87.834158,3.2554857 87.834158,3.2554857 l -1.993604,-0.6740449 0.957761,0.8174981 0.43986,0.8892096 -1.566125,3.0989385 -2.905334,5.015741 -0.403009,7.762401 -0.683255,4.137932 0.572203,4.51305 c 0,0 2.863143,4.818646 3.597179,6.078844 0.734036,1.260208 1.946663,11.617577 1.946663,11.617577 L 89.393413,53.470225 88.81774,49.770554 86.866637,39.18818 85.856814,33.268319 83.428751,30.448027 Z"
     style="fill:url(#radialGradient3445-5);fill-opacity:1;stroke:#b1b2b2;stroke-width:0.06274307;stroke-linecap:butt;stroke-linejoin:miter;stroke-miterlimit:4;stroke-dasharray:none;stroke-opacity:1"
     sodipodi:nodetypes="ccccccccccccccccccccc" />
  <path
     inkscape:connector-curvature="0"
     id="path3439"
     d="m 33.858895,62.351222 -1.242297,-2.933365 c 0,0 -1.972494,-3.354794 -1.918853,-3.668291 0.0537,-0.313477 -0.712045,-4.656533 -0.712045,-4.656533 l -4.04977,-6.657737 -5.151144,-5.87817 -0.9395,-1.437592 0.500521,1.82763 1.150225,1.201907 3.753323,4.156972 2.681309,4.115401 1.910612,2.781091 0.0643,2.25558 0.577113,3.366925 2.094046,3.114638 z"
     style="fill:url(#radialGradient3449-1);fill-opacity:1;stroke:#b1b2b2;stroke-width:0.10980038;stroke-linecap:butt;stroke-linejoin:miter;stroke-miterlimit:4;stroke-dasharray:none;stroke-opacity:1"
     sodipodi:nodetypes="cccccccccccccccc" />
  <path
     inkscape:connector-curvature="0"
     id="path3441"
     d="m 48.368616,27.707736 c 0,0 -1.551514,-3.980418 -1.757959,-4.608732 -0.206455,-0.628334 -2.26154,-9.107541 -2.26154,-9.107541 l 0.292867,-2.635668 0.264035,-1.218947 0.216435,1.257978 -0.524731,1.661496 0.359878,2.293811 1.453962,5.810848 1.618645,1.892522 0.834479,3.700782 c 0,0 1.610085,3.888976 1.83081,4.148722 0.220725,0.259755 -2.326881,-3.195271 -2.326881,-3.195271 z"
     style="fill:url(#radialGradient3451-1);fill-opacity:1;stroke:#b1b2b2;stroke-width:0.07842885;stroke-linecap:butt;stroke-linejoin:miter;stroke-miterlimit:4;stroke-dasharray:none;stroke-opacity:1"
     sodipodi:nodetypes="ccccccccccccc" />
  <path
     inkscape:connector-curvature="0"
     id="path3534"
     d="m 29.824956,25.15094 c 0,0.178854 -0.402399,1.38605 -0.402399,1.38605 l -1.028353,1.564895 -1.162505,1.162505 1.38605,-1.207216 c 0,0 0.715376,-0.715366 0.804808,-0.89422 0.0894,-0.178844 0.402399,-1.073074 0.402399,-1.073074 z"
     style="fill:#570e15;fill-opacity:1;stroke:#b41c2d;stroke-width:0.01896938;stroke-linecap:butt;stroke-linejoin:miter;stroke-miterlimit:4;stroke-dasharray:none;stroke-opacity:1"
     sodipodi:nodetypes="cccccccc" />
  <path
     inkscape:connector-curvature="0"
     id="path3544"
     d="m 18.423584,29.085537 0.134143,-1.833161 -0.402399,-3.576889 0.625944,2.772091 z"
     style="fill:url(#radialGradient3560-9);fill-opacity:1;stroke:#7d7f7f;stroke-width:0.03793876;stroke-linecap:butt;stroke-linejoin:miter;stroke-miterlimit:4;stroke-dasharray:none;stroke-opacity:1"
     sodipodi:nodetypes="ccccc" />
  <path
     inkscape:connector-curvature="0"
     id="path3562"
     d="m 28.751882,18.310128 -0.49182,1.475473 -1.073064,1.251908 -1.162496,1.788459 -0.625964,2.280261 -1.207196,1.520193 2.056715,-2.548546 0.223545,-1.296619 0.44712,-0.983652 0.760097,-0.983641 0.894229,-1.117785 z"
     style="fill:#570e15;fill-opacity:1;stroke:#b41c2d;stroke-width:0.01896938;stroke-linecap:butt;stroke-linejoin:miter;stroke-miterlimit:4;stroke-dasharray:none;stroke-opacity:1"
     sodipodi:nodetypes="cccccccccccc" />
  <path
     inkscape:connector-curvature="0"
     id="path3564"
     d="m 10.606041,28.457543 v 1.075743 l -0.316407,1.740179 0.474601,-1.392151 0.0949,-0.949181 z"
     style="fill:#570e15;fill-opacity:1;stroke:#b41c2d;stroke-width:0.01898374;stroke-linecap:butt;stroke-linejoin:miter;stroke-miterlimit:4;stroke-dasharray:none;stroke-opacity:1"
     sodipodi:nodetypes="cccccc" />
  <path
     style="fill:#71121c;fill-opacity:1;stroke:none;stroke-width:1.5272187;stroke-miterlimit:4;stroke-dasharray:none;stroke-opacity:1"
     inkscape:transform-center-x="-1.1473012e-05"
     d="m 76.373915,106.75343 -3.957798,0.4867 -2.765141,2.95387 -2.426413,4.12328 -1.098595,2.7271 -1.238227,-2.66678 -2.851043,-3.72487 -3.914897,-2.69056 -2.945655,-0.88276 2.885264,-1.45058 3.569549,-2.84677 2.855423,-3.909091 2.2784,-5.511582 1.023703,5.504822 1.671227,3.939071 4.129431,2.4228 z"
     id="path1179"
     inkscape:connector-curvature="0"
     sodipodi:nodetypes="ccccccccccccccccc" />
  <path
     style="fill:#570e15;fill-opacity:1;stroke:#b41c2d;stroke-width:0.03137153;stroke-linecap:butt;stroke-linejoin:miter;stroke-miterlimit:4;stroke-dasharray:none;stroke-opacity:1"
     d="m 67.830196,104.29602 -0.365988,1.17642 -1.202587,1.56859 c 0,0 -1.464002,2.013 -1.490143,2.16987 -0.0262,0.15685 0.392139,2.01299 0.339858,2.22214 -0.0523,0.20914 0.235295,-0.28757 0.235295,-0.28757 l -0.261436,-0.65357 -0.130713,-1.1503 c 0,0 0.41828,-0.83657 0.496711,-0.96728 0.0784,-0.13071 1.516294,-1.59472 1.516294,-1.59472 0,0 0.91499,-1.38558 0.91499,-1.49015 0,-0.10457 -0.0523,-0.99343 -0.0523,-0.99343 z"
     id="path3566"
     inkscape:connector-curvature="0"
     sodipodi:nodetypes="ccccccccccscc" />
  <path
     sodipodi:nodetypes="ccccccccccccccccc"
     inkscape:connector-curvature="0"
     id="path1173"
     d="m 57.323494,66.668177 -3.957798,0.486701 -2.765141,2.953865 -2.426413,4.123281 -1.098595,2.727101 -1.238227,-2.666779 -2.851043,-3.724873 -3.914897,-2.690559 -2.945655,-0.88276 2.885264,-1.450582 3.569549,-2.846773 2.855423,-3.909086 2.2784,-5.511582 1.023703,5.504822 1.671227,3.939067 4.129431,2.422803 z"
     inkscape:transform-center-x="-1.1473012e-05"
     style="fill:#71121c;fill-opacity:1;stroke:none;stroke-width:1.5272187;stroke-miterlimit:4;stroke-dasharray:none;stroke-opacity:1" />
  <path
     inkscape:connector-curvature="0"
     id="path3437"
     d="m 20.610592,78.535779 c 0.157744,-0.208474 5.662516,-3.63576 5.87233,-3.791723 0.209815,-0.155954 5.922831,-3.373205 5.922831,-3.373205 l 6.356361,-6.926823 3.770373,-1.34327 -3.821315,1.029333 -1.995814,2.082896 -3.836124,4.480169 -6.341331,3.423706 -8.810644,6.184286 z"
     style="fill:url(#radialGradient3447-1);fill-opacity:1;stroke:#b1b2b2;stroke-width:0.06274307;stroke-linecap:butt;stroke-linejoin:miter;stroke-miterlimit:4;stroke-dasharray:none;stroke-opacity:1"
     sodipodi:nodetypes="ccccccccccc" />
  <path
     style="fill:#570e15;fill-opacity:1;stroke:#b41c2d;stroke-width:0.01896938;stroke-linecap:butt;stroke-linejoin:miter;stroke-miterlimit:4;stroke-dasharray:none;stroke-opacity:1"
     d="m 48.478498,64.839317 c 0,0.178854 -0.402399,1.38605 -0.402399,1.38605 l -1.028352,1.564895 -1.162506,1.162506 1.386051,-1.207217 c 0,0 0.715375,-0.715366 0.804807,-0.89422 0.0894,-0.178844 0.402399,-1.073074 0.402399,-1.073074 z"
     id="path1175"
     inkscape:connector-curvature="0"
     sodipodi:nodetypes="cccccccc" />
  <path
     style="fill:#570e15;fill-opacity:1;stroke:#b41c2d;stroke-width:0.01896938;stroke-linecap:butt;stroke-linejoin:miter;stroke-miterlimit:4;stroke-dasharray:none;stroke-opacity:1"
     d="m 50.183616,65.01012 -0.491821,1.475473 -1.073064,1.251908 -1.162495,1.788459 -0.625964,2.280261 -1.207197,1.520193 2.056716,-2.548546 0.223545,-1.296619 0.44712,-0.983651 0.760096,-0.983642 0.89423,-1.117785 z"
     id="path1177"
     inkscape:connector-curvature="0"
     sodipodi:nodetypes="cccccccccccc" />
  <path
     inkscape:transform-center-y="6.1710918e-06"
     style="fill:#71121c;fill-opacity:1;stroke:none;stroke-width:1.52837503;stroke-miterlimit:4;stroke-dasharray:none;stroke-opacity:1"
     inkscape:transform-center-x="-1.6029281e-05"
     d="m 90.733422,101.01626 -1.38288,0.64016 -2.070346,1.36307 -0.988002,2.77802 -0.89084,1.41203 -0.587453,-2.02386 -0.828468,-1.90654 -2.674809,-1.41524 -1.414101,-0.56797 1.38285,-0.64016 1.748359,-1.470284 1.578345,-2.027765 0.568832,-1.412021 0.641134,1.3808 1.257798,2.817502 2.24544,0.504238 z"
     id="path1181"
     inkscape:connector-curvature="0"
     sodipodi:nodetypes="ccccccccccccccccc" />
  <path
     sodipodi:nodetypes="ccccccccccccccccc"
     inkscape:connector-curvature="0"
     id="path1120"
     d="m 37.645709,106.75343 -3.957798,0.4867 -2.765141,2.95387 -2.426413,4.12328 -1.098595,2.7271 -1.238227,-2.66678 -2.851043,-3.72487 -3.914896,-2.69056 -2.945656,-0.88276 2.885264,-1.45058 3.569549,-2.84677 2.855423,-3.909091 2.278401,-5.511582 1.023702,5.504822 1.671227,3.939071 4.129431,2.4228 z"
     inkscape:transform-center-x="-1.1473012e-05"
     style="fill:#71121c;fill-opacity:1;stroke:none;stroke-width:1.5272187;stroke-miterlimit:4;stroke-dasharray:none;stroke-opacity:1" />
  <path
     sodipodi:nodetypes="ccccccccccscc"
     inkscape:connector-curvature="0"
     id="path1122"
     d="m 29.10199,104.29602 -0.365988,1.17642 -1.202587,1.56859 c 0,0 -1.464002,2.013 -1.490142,2.16987 -0.0262,0.15685 0.392138,2.01299 0.339857,2.22214 -0.0523,0.20914 0.235295,-0.28757 0.235295,-0.28757 l -0.261436,-0.65357 -0.130712,-1.1503 c 0,0 0.418279,-0.83657 0.496711,-0.96728 0.0784,-0.13071 1.516293,-1.59472 1.516293,-1.59472 0,0 0.91499,-1.38558 0.91499,-1.49015 0,-0.10457 -0.0523,-0.99343 -0.0523,-0.99343 z"
     style="fill:#570e15;fill-opacity:1;stroke:#b41c2d;stroke-width:0.03137153;stroke-linecap:butt;stroke-linejoin:miter;stroke-miterlimit:4;stroke-dasharray:none;stroke-opacity:1" />
  <path
     sodipodi:nodetypes="ccccccccccccccccc"
     inkscape:connector-curvature="0"
     id="path1124"
     d="m 75.340142,26.9798 -3.957798,0.486701 -2.765141,2.953865 -2.426413,4.123281 -1.098595,2.7271 -1.238227,-2.666779 -2.851043,-3.724872 -3.914896,-2.690559 -2.945655,-0.88276 2.885263,-1.450582 3.569549,-2.846773 2.855423,-3.909086 2.278401,-5.511582 1.023702,5.504822 1.671227,3.939067 4.129431,2.422803 z"
     inkscape:transform-center-x="-1.1473012e-05"
     style="fill:#71121c;fill-opacity:1;stroke:none;stroke-width:1.5272187;stroke-miterlimit:4;stroke-dasharray:none;stroke-opacity:1" />
  <path
     sodipodi:nodetypes="cccccccc"
     style="fill:#570e15;fill-opacity:1;stroke:#b41c2d;stroke-width:0.01896938;stroke-linecap:butt;stroke-linejoin:miter;stroke-miterlimit:4;stroke-dasharray:none;stroke-opacity:1"
     d="m 66.495146,25.15094 c 0,0.178854 -0.402398,1.38605 -0.402398,1.38605 l -1.028353,1.564895 -1.162506,1.162505 1.386051,-1.207216 c 0,0 0.715376,-0.715366 0.804808,-0.89422 0.0894,-0.178844 0.402398,-1.073074 0.402398,-1.073074 z"
     id="path1126"
     inkscape:connector-curvature="0" />
  <path
     inkscape:connector-curvature="0"
     id="path1030"
     d="m 83.183955,118.87405 0.331818,4.52341 -6.913753,1.92295 0.418439,1.82435 7.991377,-2.10609 0.579503,-0.85945 -0.516222,-6.65694 -1.111714,-0.864 -7.913425,1.3458 0.756306,-5.06144 9.794207,-0.371 -0.164404,-1.92763 -10.683526,0.46846 -0.820628,0.74802 -0.89161,7.31584 0.989122,0.93206 z"
     style="fill:#71121c;fill-opacity:1;stroke:none;stroke-width:0.09619173px;stroke-linecap:butt;stroke-linejoin:miter;stroke-opacity:1" />
  <path
     style="fill:#71121c;fill-opacity:1;stroke:none;stroke-width:0.09619173px;stroke-linecap:butt;stroke-linejoin:miter;stroke-opacity:1"
     d="M 10.118921,13.079053 9.7871033,8.5556428 16.700856,6.6326903 16.282417,4.80834 8.2910402,6.9144366 l -0.5795028,0.859449 0.5162214,6.6569374 1.1117146,0.863999 7.9134246,-1.3458 -0.756306,5.061442 -9.7942069,0.370998 0.1644036,1.927633 10.6835263,-0.468461 0.820628,-0.748016 0.89161,-7.315842 -0.989122,-0.93206 z"
     id="path1032"
     inkscape:connector-curvature="0" />
</svg>
