<?xml version="1.0" encoding="UTF-8" standalone="no"?>
<!-- Created with Inkscape (http://www.inkscape.org/) -->

<svg
   xmlns:dc="http://purl.org/dc/elements/1.1/"
   xmlns:cc="http://creativecommons.org/ns#"
   xmlns:rdf="http://www.w3.org/1999/02/22-rdf-syntax-ns#"
   xmlns:svg="http://www.w3.org/2000/svg"
   xmlns="http://www.w3.org/2000/svg"
   xmlns:xlink="http://www.w3.org/1999/xlink"
   xmlns:sodipodi="http://sodipodi.sourceforge.net/DTD/sodipodi-0.dtd"
   xmlns:inkscape="http://www.inkscape.org/namespaces/inkscape"
   width="356"
   height="499"
   version="1.1"
   viewBox="0 0 94.192 132.03"
   id="svg50"
   sodipodi:docname="7_of_Clubs.svg"
   inkscape:version="0.92.4 (5da689c313, 2019-01-14)">
  <sodipodi:namedview
     pagecolor="#ffffff"
     bordercolor="#666666"
     borderopacity="1"
     objecttolerance="10"
     gridtolerance="10"
     guidetolerance="10"
     inkscape:pageopacity="0"
     inkscape:pageshadow="2"
     inkscape:window-width="1920"
     inkscape:window-height="1017"
     id="namedview52"
     showgrid="false"
     inkscape:zoom="1.6993988"
     inkscape:cx="178"
     inkscape:cy="249.5"
     inkscape:window-x="-8"
     inkscape:window-y="-8"
     inkscape:window-maximized="1"
     inkscape:current-layer="svg50" />
  <defs
     id="defs12">
    <linearGradient
       id="linearGradient1974-8">
      <stop
         stop-color="#565757"
         offset="0"
         id="stop2" />
      <stop
         stop-color="#373838"
         stop-opacity="0"
         offset="1"
         id="stop4" />
    </linearGradient>
    <radialGradient
       id="radialGradient989"
       cx="161.11"
       cy="166.44"
       r="1.4032"
       gradientTransform="matrix(-.3255 -.46662 6.8178 -4.756 -1044.3 1110.6)"
       gradientUnits="userSpaceOnUse"
       xlink:href="#linearGradient1974-8" />
    <radialGradient
       id="radialGradient991"
       cx="49.268"
       cy="149.25"
       r="6.7426"
       gradientTransform="matrix(-.9688 -1.094 3.847 -3.4068 -506.44 808.37)"
       gradientUnits="userSpaceOnUse"
       xlink:href="#linearGradient1974-8" />
    <radialGradient
       id="radialGradient993"
       cx="138.44"
       cy="235.05"
       r="20.919"
       gradientTransform="matrix(.18315 -.35514 .79883 .41196 -155.53 159.67)"
       gradientUnits="userSpaceOnUse"
       xlink:href="#linearGradient1974-8" />
    <radialGradient
       id="radialGradient997"
       cx="80.302"
       cy="225.63"
       r="5.5573"
       gradientTransform="matrix(-.56044 -.45306 1.8279 -2.2612 -282.69 777.76)"
       gradientUnits="userSpaceOnUse"
       xlink:href="#linearGradient1974-8" />
    <radialGradient
       id="radialGradient995"
       cx="170.35"
       cy="66.049"
       r="12.035"
       gradientTransform="matrix(-.69538 -.48656 .79362 -1.1342 97.189 356.23)"
       gradientUnits="userSpaceOnUse"
       xlink:href="#linearGradient1974-8" />
    <radialGradient
       inkscape:collect="always"
       xlink:href="#linearGradient1974-8"
       id="radialGradient993-5"
       gradientUnits="userSpaceOnUse"
       gradientTransform="matrix(0.18314951,-0.3551449,0.79884552,0.41196752,-191.60656,74.72611)"
       cx="138.43695"
       cy="235.05092"
       fx="138.43695"
       fy="235.05092"
       r="20.918684" />
    <radialGradient
       inkscape:collect="always"
       xlink:href="#linearGradient1974-8"
       id="radialGradient995-6"
       gradientUnits="userSpaceOnUse"
       gradientTransform="matrix(-0.69539273,-0.48656985,0.79363807,-1.1342466,103.59385,191.97659)"
       cx="170.35481"
       cy="66.048706"
       fx="170.35481"
       fy="66.048706"
       r="12.034579" />
    <radialGradient
       inkscape:collect="always"
       xlink:href="#linearGradient1974-8"
       id="radialGradient997-7"
       gradientUnits="userSpaceOnUse"
       gradientTransform="matrix(-0.56045633,-0.45306515,1.8279652,-2.2612523,-322.79445,660.73589)"
       cx="80.301682"
       cy="225.62547"
       fx="80.301682"
       fy="225.62547"
       r="5.5573373" />
    <radialGradient
       inkscape:collect="always"
       xlink:href="#linearGradient1974-8"
       id="radialGradient989-6"
       gradientUnits="userSpaceOnUse"
       gradientTransform="matrix(-0.2355511,0.51789544,-7.567043,-3.4416705,1372.0995,524.75799)"
       cx="161.11455"
       cy="166.44328"
       fx="161.11455"
       fy="166.44328"
       r="1.40318" />
    <radialGradient
       inkscape:collect="always"
       xlink:href="#linearGradient1974-8"
       id="radialGradient991-3"
       gradientUnits="userSpaceOnUse"
       gradientTransform="matrix(-0.96881746,-1.0939916,3.8470464,-3.4068688,-479.95477,639.02554)"
       cx="49.268208"
       cy="149.24762"
       fx="49.268208"
       fy="149.24762"
       r="6.742619" />
  </defs>
  <metadata
     id="metadata14">
    <rdf:RDF>
      <cc:Work
         rdf:about="">
        <dc:format>image/svg+xml</dc:format>
        <dc:type
           rdf:resource="http://purl.org/dc/dcmitype/StillImage" />
        <dc:title />
      </cc:Work>
    </rdf:RDF>
  </metadata>
  <path
     sodipodi:nodetypes="ccccccccccccccccccccccccccccccccccccc"
     inkscape:connector-curvature="0"
     id="path963"
     d="M 5.1001679,1.2386929 13.403821,0.80161326 25.844326,1.2386929 36.42332,0.9482065 46.307819,2.418869 56.960524,1.2386929 l 11.646767,-0.0175 9.332657,1.037123 10.136794,-1.0195726 4.240683,4.2745045 -1.019572,15.2083752 2.128727,15.449252 -1.881712,16.543546 0.88348,13.448587 -0.630644,17.399944 -0.0349,15.36508 2.162638,14.647928 -1.431362,10.39037 -4.417387,6.23364 -10.704827,0.7764 -10.216016,-0.17018 -11.595826,-0.11442 -8.784524,0.53722 -11.616477,-0.0489 -12.864044,-0.31461 -8.097689,-1.27217 -7.1535182,0.0724 L 0.85943416,125.92552 1.393366,117.24626 2.5008504,98.873081 0.85943416,80.770921 0.26069093,69.140404 1.4140164,56.32454 1.7873547,37.382012 1.7221532,20.721673 0.85943416,5.5132974 Z"
     style="display:inline;fill:#8e8f8f;fill-opacity:1;stroke:#00000d;stroke-width:0.55563727;stroke-miterlimit:4;stroke-dasharray:none;stroke-opacity:1" />
  <path
     inkscape:transform-center-y="-29.406915"
     inkscape:transform-center-x="-11.904445"
     inkscape:connector-curvature="0"
     id="path981"
     d="m 10.853775,117.54643 c 0.259326,0.0331 5.970742,3.10372 6.210407,3.20815 0.239666,0.10444 5.87248,3.46015 5.87248,3.46015 l 9.170883,2.06855 3.040787,2.60264 -2.793792,-2.80299 -2.799692,-0.69528 -5.794768,-1.09928 -6.124455,-3.79807 -9.7475655,-4.56702 z"
     style="fill:url(#radialGradient993-5);fill-opacity:1;stroke:#b1b2b2;stroke-width:0.06274307;stroke-linecap:butt;stroke-linejoin:miter;stroke-miterlimit:4;stroke-dasharray:none;stroke-opacity:1" />
  <path
     inkscape:transform-center-y="14.492117"
     inkscape:transform-center-x="100.27922"
     inkscape:connector-curvature="0"
     id="path983"
     d="m 27.295568,48.199071 1.926733,-2.536856 c 0,0 1.929123,-3.379925 2.227749,-3.489337 0.298647,-0.109393 3.685382,-2.934005 3.685382,-2.934005 l 3.761133,-6.824951 2.537006,-7.392613 0.779777,-1.530124 -1.336499,1.343329 -0.470501,1.595686 -1.739188,5.323817 -2.23635,4.373167 -1.462212,3.040877 -1.924753,1.177736 -2.633758,2.175468 -1.660306,3.365905 z"
     style="fill:url(#radialGradient995-6);fill-opacity:1;stroke:#b1b2b2;stroke-width:0.10980038;stroke-linecap:butt;stroke-linejoin:miter;stroke-miterlimit:4;stroke-dasharray:none;stroke-opacity:1" />
  <path
     inkscape:transform-center-y="8.6539105"
     inkscape:transform-center-x="-61.747803"
     inkscape:connector-curvature="0"
     id="path985"
     d="m 38.845224,118.43762 c 0,0 2.681259,-3.32593 3.123639,-3.81756 0.442379,-0.49165 6.775869,-6.49225 6.775869,-6.49225 l 2.432124,-1.05701 1.188786,-0.3773 -0.983641,0.81353 -1.702378,0.37127 -1.81087,1.45321 -4.317685,4.1518 -0.836609,2.34558 -2.795342,2.56481 c 0,0 -2.572796,3.33124 -2.688269,3.65197 -0.115543,0.32068 1.614446,-3.608 1.614446,-3.608 z"
     style="fill:url(#radialGradient997-7);fill-opacity:1;stroke:#b1b2b2;stroke-width:0.07842885;stroke-linecap:butt;stroke-linejoin:miter;stroke-miterlimit:4;stroke-dasharray:none;stroke-opacity:1" />
  <path
     inkscape:connector-curvature="0"
     id="path976"
     d="m 21.802427,23.104516 c 0,0 -3.835405,1.216107 -3.928957,1.262878 -0.0935,0.0468 -0.561262,4.724094 -0.561262,4.724094 l 1.870921,2.572517 3.741853,0.42096 2.478985,-2.806382 0.327407,1.777369 -1.917703,3.788634 3.835405,0.187094 2.291891,-0.140323 -0.701596,-2.291881 -1.309649,-2.104797 -0.0468,-1.964473 c 0,0 2.338662,3.320893 2.572527,3.414446 0.233865,0.0935 3.741853,-0.0468 3.741853,-0.0468 l 2.71285,-2.712839 0.0468,-3.648321 -2.71285,-2.619288 -4.116041,1.309649 1.683837,-2.899944 -0.280646,-3.274122 -2.853163,-1.77738 -3.60153,-0.140323 -2.338661,1.777379 -0.327418,3.180581 1.216107,2.432203 z"
     style="fill:#000000;fill-opacity:1;stroke:none;stroke-width:1.24356914;stroke-linecap:butt;stroke-linejoin:miter;stroke-miterlimit:4;stroke-dasharray:none;stroke-opacity:1" />
  <path
     style="fill:#000000;fill-opacity:1;stroke:none;stroke-width:0.66503304;stroke-linecap:butt;stroke-linejoin:miter;stroke-miterlimit:4;stroke-dasharray:none;stroke-opacity:1"
     d="m 6.6923631,26.88498 c 0,0 -2.0510854,0.650344 -2.1011265,0.675355 -0.050001,0.025 -0.3001566,2.526335 -0.3001566,2.526335 l 1.0005321,1.375731 2.0010642,0.225125 1.3256993,-1.500803 0.1750939,0.950501 -1.0255327,2.026084 2.0510754,0.100053 1.2256568,-0.075 -0.375198,-1.225647 -0.7003755,-1.125605 -0.025001,-1.050553 c 0,0 1.2506785,1.775939 1.3757405,1.82597 0.125063,0.05 2.001055,-0.025 2.001055,-0.025 l 1.450772,-1.450772 0.025,-1.951034 -1.450762,-1.400741 -2.201179,0.700376 0.90049,-1.550824 -0.150083,-1.750929 -1.525824,-0.950511 -1.9260026,-0.075 -1.2506777,0.950511 -0.1750838,1.700898 0.6503343,1.300689 z"
     id="path978"
     inkscape:connector-curvature="0" />
  <path
     style="fill:#000000;fill-opacity:1;stroke:none;stroke-width:1.24356914;stroke-linecap:butt;stroke-linejoin:miter;stroke-miterlimit:4;stroke-dasharray:none;stroke-opacity:1"
     d="m 62.020916,63.310665 c 0,0 -3.835395,1.216097 -3.928947,1.262878 -0.0935,0.0468 -0.561272,4.724094 -0.561272,4.724094 l 1.870931,2.572527 3.741853,0.420949 2.478984,-2.806382 0.327418,1.777369 -1.917713,3.788634 3.835395,0.187094 2.291891,-0.140313 -0.701596,-2.29189 -1.309649,-2.104797 -0.0468,-1.964473 c 0,0 2.338652,3.320893 2.572517,3.414445 0.233875,0.0935 3.741863,-0.0468 3.741863,-0.0468 l 2.71285,-2.71285 0.0468,-3.648301 -2.71285,-2.619297 -4.116051,1.309648 1.683847,-2.899944 -0.280646,-3.274122 -2.853163,-1.777379 -3.60153,-0.140323 -2.338672,1.777379 -0.327407,3.18058 1.216107,2.432204 z"
     id="path980"
     inkscape:connector-curvature="0" />
  <path
     inkscape:connector-curvature="0"
     id="path982"
     d="m 33.630858,110.22489 c 0,0 3.835415,-1.21611 3.928957,-1.26288 0.0935,-0.0468 0.561273,-4.72409 0.561273,-4.72409 l -1.870922,-2.57253 -3.741862,-0.42096 -2.478985,2.8064 -0.327407,-1.77738 1.917702,-3.788638 -3.835405,-0.187094 -2.29189,0.140323 0.701605,2.291879 1.309649,2.10481 0.0468,1.96447 c 0,0 -2.338662,-3.3209 -2.572527,-3.41444 -0.233865,-0.0935 -3.741853,0.0468 -3.741853,0.0468 l -2.712849,2.71285 -0.0468,3.6483 2.71285,2.6193 4.116041,-1.30965 -1.683837,2.89994 0.280636,3.27412 2.853173,1.77738 3.60153,0.14033 2.338662,-1.77738 0.327407,-3.18058 -1.216097,-2.43221 z"
     style="fill:#000000;fill-opacity:1;stroke:none;stroke-width:1.24356914;stroke-linecap:butt;stroke-linejoin:miter;stroke-miterlimit:4;stroke-dasharray:none;stroke-opacity:1" />
  <path
     style="fill:#000000;fill-opacity:1;stroke:none;stroke-width:0.65178198;stroke-linecap:butt;stroke-linejoin:miter;stroke-miterlimit:4;stroke-dasharray:none;stroke-opacity:1"
     d="m 88.515461,106.161 c 0,0 2.010225,-0.63737 2.059256,-0.66189 0.049,-0.0245 0.294166,-2.47601 0.294166,-2.47601 l -0.980581,-1.34832 -1.961194,-0.22063 -1.299278,1.47089 -0.171614,-0.93156 1.005102,-1.9857 -2.010214,-0.09811 -1.201227,0.0735 0.367728,1.20121 0.686415,1.10318 0.0245,1.02962 c 0,0 -1.225747,-1.74055 -1.34832,-1.78958 -0.122573,-0.049 -1.961183,0.0245 -1.961183,0.0245 l -1.421862,1.42186 -0.0246,1.91216 1.421861,1.37283 2.157318,-0.68641 -0.88254,1.51992 0.147094,1.71604 1.495403,0.93156 1.887651,0.0735 1.225737,-0.93156 0.171604,-1.66702 -0.637384,-1.27475 z"
     id="path984"
     inkscape:connector-curvature="0" />
  <path
     style="fill:#000000;fill-opacity:1;stroke:none;stroke-width:1.24356914;stroke-linecap:butt;stroke-linejoin:miter;stroke-miterlimit:4;stroke-dasharray:none;stroke-opacity:1"
     d="m 61.279009,23.104516 c 0,0 -3.835404,1.216107 -3.928956,1.262878 -0.0935,0.0468 -0.561263,4.724094 -0.561263,4.724094 l 1.870922,2.572517 3.741852,0.42096 2.478985,-2.806382 0.327407,1.777369 -1.917702,3.788634 3.835405,0.187094 2.29189,-0.140323 -0.701595,-2.291881 -1.309649,-2.104797 -0.0468,-1.964473 c 0,0 2.338661,3.320893 2.572527,3.414446 0.233865,0.0935 3.741852,-0.0468 3.741852,-0.0468 l 2.71285,-2.712839 0.0468,-3.648321 -2.71285,-2.619288 -4.116041,1.309649 1.683838,-2.899944 -0.280647,-3.274122 -2.853163,-1.77738 -3.601529,-0.140323 -2.338662,1.777379 -0.327417,3.180581 1.216107,2.432203 z"
     id="path1027"
     inkscape:connector-curvature="0" />
  <path
     inkscape:transform-center-y="-0.14453284"
     inkscape:transform-center-x="-0.18684645"
     inkscape:connector-curvature="0"
     id="path977"
     d="m 80.531465,38.093684 -2.810482,-1.267008 -2.159838,-0.170663 -1.760409,-1.092225 -0.90783,-0.348947 -2.361082,-1.308009 c 0,0 -2.383913,-1.491493 -2.493925,-1.597015 -0.109963,-0.105563 -3.910727,-2.024155 -3.910727,-2.024155 l 3.213941,1.455202 3.291863,1.542384 3.053628,1.065324 c 0,0 1.228327,1.426751 1.38879,1.518533 0.160524,0.0916 2.430144,0.666075 2.631958,0.611144 0.201805,-0.0549 4.460889,2.25369 4.460889,2.25369 l 3.035027,1.693537 z"
     style="fill:url(#radialGradient989-6);fill-opacity:1;stroke:#b1b2b2;stroke-width:0.07842885;stroke-linecap:butt;stroke-linejoin:miter;stroke-miterlimit:4;stroke-dasharray:none;stroke-dashoffset:0;stroke-opacity:1" />
  <path
     style="fill:#000000;fill-opacity:1;stroke:none;stroke-width:1.24356914;stroke-linecap:butt;stroke-linejoin:miter;stroke-miterlimit:4;stroke-dasharray:none;stroke-opacity:1"
     d="m 72.049077,110.35718 c 0,0 3.835415,-1.2161 3.928957,-1.26287 0.0935,-0.0468 0.561273,-4.7241 0.561273,-4.7241 l -1.870922,-2.57252 -3.741862,-0.42096 -2.478985,2.80639 -0.327407,-1.77738 1.917702,-3.788635 -3.835405,-0.187094 -2.29189,0.140323 0.701605,2.291876 1.309649,2.10481 0.0468,1.96447 c 0,0 -2.338662,-3.3209 -2.572527,-3.41444 -0.233865,-0.0935 -3.741853,0.0468 -3.741853,0.0468 l -2.712849,2.71285 -0.0468,3.6483 2.712849,2.6193 4.116041,-1.30965 -1.683837,2.89994 0.280636,3.27413 2.853173,1.77738 3.60153,0.14032 2.338662,-1.77738 0.327407,-3.18058 -1.216097,-2.4322 z"
     id="path1029"
     inkscape:connector-curvature="0" />
  <path
     inkscape:connector-curvature="0"
     id="path1050"
     d="m 22.464832,63.310665 c 0,0 -3.835395,1.216097 -3.928947,1.262878 -0.0935,0.0468 -0.561273,4.724094 -0.561273,4.724094 l 1.870932,2.572527 3.741852,0.420949 2.478985,-2.806382 0.327417,1.777369 -1.917712,3.788634 3.835395,0.187094 2.29189,-0.140313 -0.701595,-2.29189 -1.309649,-2.104797 -0.0468,-1.964473 c 0,0 2.338652,3.320893 2.572517,3.414445 0.233875,0.0935 3.741863,-0.0468 3.741863,-0.0468 l 2.71285,-2.71285 0.0468,-3.648301 -2.71285,-2.619297 -4.116051,1.309648 1.683847,-2.899944 -0.280646,-3.274122 -2.853163,-1.777379 -3.60153,-0.140323 -2.338672,1.777379 -0.327407,3.18058 1.216107,2.432204 z"
     style="fill:#000000;fill-opacity:1;stroke:none;stroke-width:1.24356914;stroke-linecap:butt;stroke-linejoin:miter;stroke-miterlimit:4;stroke-dasharray:none;stroke-opacity:1" />
  <path
     inkscape:transform-center-y="39.455032"
     inkscape:transform-center-x="51.439837"
     inkscape:connector-curvature="0"
     id="path979"
     d="m 42.985965,76.260961 5.728017,-5.037501 c 0,0 7.857423,-2.335092 9.364197,-3.275553 1.506773,-0.940441 8.458937,-0.975991 9.174982,-1.212457 0.716056,-0.236445 1.79883,-0.426019 1.79883,-0.426019 l -0.406939,-2.064746 -0.232765,1.237508 -0.552572,0.823898 -3.467377,0.182894 -5.796378,-0.0254 -6.934383,3.511648 -3.929547,1.465622 -3.63045,2.741301 c 0,0 -2.755991,4.880738 -3.484077,6.144376 -0.728096,1.263648 -9.109972,7.467675 -9.109972,7.467675 l -5.241375,4.846257 2.923114,-2.339732 8.209712,-6.956584 4.633192,-3.820744 1.238827,-3.509258 z"
     style="fill:url(#radialGradient991-3);fill-opacity:1;stroke:#b1b2b2;stroke-width:0.06274307;stroke-linecap:butt;stroke-linejoin:miter;stroke-miterlimit:4;stroke-dasharray:none;stroke-opacity:1" />
  <path
     inkscape:connector-curvature="0"
     id="path1082"
     d="m 42.008454,42.74926 c 0,0 -3.835405,1.216107 -3.928957,1.262878 -0.0935,0.0468 -0.561263,4.724095 -0.561263,4.724095 l 1.870922,2.572516 3.741852,0.42096 2.478985,-2.806382 0.327407,1.777369 -1.917702,3.788634 3.835405,0.187094 2.29189,-0.140323 -0.701595,-2.291881 -1.309649,-2.104796 -0.0468,-1.964474 c 0,0 2.338662,3.320894 2.572527,3.414446 0.233865,0.0935 3.741852,-0.0468 3.741852,-0.0468 l 2.71285,-2.71284 0.0468,-3.648321 -2.71285,-2.619288 -4.11604,1.309649 1.683837,-2.899944 -0.280646,-3.274122 -2.853164,-1.77738 -3.601529,-0.140323 -2.338662,1.77738 -0.327417,3.18058 1.216107,2.432204 z"
     style="fill:#000000;fill-opacity:1;stroke:none;stroke-width:1.24356914;stroke-linecap:butt;stroke-linejoin:miter;stroke-miterlimit:4;stroke-dasharray:none;stroke-opacity:1" />
  <path
     style="fill:#000000;fill-opacity:1;stroke:none;stroke-width:0.11761697px;stroke-linecap:butt;stroke-linejoin:miter;stroke-opacity:1"
     d="M 7.6204936,3.5561831 20.386736,4.8036997 21.176843,6.3007208 13.899652,21.977842 11.654123,21.021413 18.390722,6.9660635 7.3709881,5.9680524 Z"
     id="path1116"
     inkscape:connector-curvature="0" />
  <path
     inkscape:connector-curvature="0"
     id="path1118"
     d="m 86.810034,128.60729 -12.766243,-1.24751 -0.790107,-1.49702 7.277191,-15.67713 2.245529,0.95643 -6.736598,14.05535 11.019733,0.99801 z"
     style="fill:#000000;fill-opacity:1;stroke:none;stroke-width:0.11761697px;stroke-linecap:butt;stroke-linejoin:miter;stroke-opacity:1" />
</svg>
