<?xml version="1.0" encoding="UTF-8" standalone="no"?>
<!-- Created with Inkscape (http://www.inkscape.org/) -->

<svg
   xmlns:dc="http://purl.org/dc/elements/1.1/"
   xmlns:cc="http://creativecommons.org/ns#"
   xmlns:rdf="http://www.w3.org/1999/02/22-rdf-syntax-ns#"
   xmlns:svg="http://www.w3.org/2000/svg"
   xmlns="http://www.w3.org/2000/svg"
   xmlns:xlink="http://www.w3.org/1999/xlink"
   xmlns:sodipodi="http://sodipodi.sourceforge.net/DTD/sodipodi-0.dtd"
   xmlns:inkscape="http://www.inkscape.org/namespaces/inkscape"
   width="356"
   height="499"
   version="1.1"
   viewBox="0 0 94.192 132.03"
   id="svg50"
   sodipodi:docname="9_of_Clubs.svg"
   inkscape:version="0.92.4 (5da689c313, 2019-01-14)">
  <sodipodi:namedview
     pagecolor="#ffffff"
     bordercolor="#666666"
     borderopacity="1"
     objecttolerance="10"
     gridtolerance="10"
     guidetolerance="10"
     inkscape:pageopacity="0"
     inkscape:pageshadow="2"
     inkscape:window-width="1920"
     inkscape:window-height="1017"
     id="namedview52"
     showgrid="false"
     inkscape:zoom="1.6993988"
     inkscape:cx="178"
     inkscape:cy="249.5"
     inkscape:window-x="-8"
     inkscape:window-y="-8"
     inkscape:window-maximized="1"
     inkscape:current-layer="svg50" />
  <defs
     id="defs12">
    <linearGradient
       id="linearGradient1974-8">
      <stop
         stop-color="#565757"
         offset="0"
         id="stop2" />
      <stop
         stop-color="#373838"
         stop-opacity="0"
         offset="1"
         id="stop4" />
    </linearGradient>
    <radialGradient
       id="radialGradient989"
       cx="161.11"
       cy="166.44"
       r="1.4032"
       gradientTransform="matrix(-.3255 -.46662 6.8178 -4.756 -1044.3 1110.6)"
       gradientUnits="userSpaceOnUse"
       xlink:href="#linearGradient1974-8" />
    <radialGradient
       id="radialGradient991"
       cx="49.268"
       cy="149.25"
       r="6.7426"
       gradientTransform="matrix(-.9688 -1.094 3.847 -3.4068 -506.44 808.37)"
       gradientUnits="userSpaceOnUse"
       xlink:href="#linearGradient1974-8" />
    <radialGradient
       id="radialGradient993"
       cx="138.44"
       cy="235.05"
       r="20.919"
       gradientTransform="matrix(.18315 -.35514 .79883 .41196 -155.53 159.67)"
       gradientUnits="userSpaceOnUse"
       xlink:href="#linearGradient1974-8" />
    <radialGradient
       id="radialGradient997"
       cx="80.302"
       cy="225.63"
       r="5.5573"
       gradientTransform="matrix(-.56044 -.45306 1.8279 -2.2612 -282.69 777.76)"
       gradientUnits="userSpaceOnUse"
       xlink:href="#linearGradient1974-8" />
    <radialGradient
       id="radialGradient995"
       cx="170.35"
       cy="66.049"
       r="12.035"
       gradientTransform="matrix(-.69538 -.48656 .79362 -1.1342 97.189 356.23)"
       gradientUnits="userSpaceOnUse"
       xlink:href="#linearGradient1974-8" />
    <radialGradient
       inkscape:collect="always"
       xlink:href="#linearGradient1974-8"
       id="radialGradient993-1"
       gradientUnits="userSpaceOnUse"
       gradientTransform="matrix(0.18314951,-0.3551449,0.79884552,0.41196752,-165.0394,-33.600624)"
       cx="138.43695"
       cy="235.05092"
       fx="138.43695"
       fy="235.05092"
       r="20.918684" />
    <radialGradient
       inkscape:collect="always"
       xlink:href="#linearGradient1974-8"
       id="radialGradient989-8"
       gradientUnits="userSpaceOnUse"
       gradientTransform="matrix(-0.2355511,0.51789544,-7.567043,-3.4416705,1332.2487,521.57741)"
       cx="161.11455"
       cy="166.44328"
       fx="161.11455"
       fy="166.44328"
       r="1.40318" />
    <radialGradient
       inkscape:collect="always"
       xlink:href="#linearGradient1974-8"
       id="radialGradient995-3"
       gradientUnits="userSpaceOnUse"
       gradientTransform="matrix(-0.69539273,-0.48656985,0.79363807,-1.1342466,84.697481,267.93626)"
       cx="170.35481"
       cy="66.048706"
       fx="170.35481"
       fy="66.048706"
       r="12.034579" />
    <radialGradient
       inkscape:collect="always"
       xlink:href="#linearGradient1974-8"
       id="radialGradient997-5"
       gradientUnits="userSpaceOnUse"
       gradientTransform="matrix(-0.56045633,-0.45306515,1.8279652,-2.2612523,-309.88505,600.6791)"
       cx="80.301682"
       cy="225.62547"
       fx="80.301682"
       fy="225.62547"
       r="5.5573373" />
    <radialGradient
       inkscape:collect="always"
       xlink:href="#linearGradient1974-8"
       id="radialGradient991-2"
       gradientUnits="userSpaceOnUse"
       gradientTransform="matrix(-0.96881746,-1.0939916,3.8470464,-3.4068688,-479.95478,677.19247)"
       cx="49.268208"
       cy="149.24762"
       fx="49.268208"
       fy="149.24762"
       r="6.742619" />
  </defs>
  <metadata
     id="metadata14">
    <rdf:RDF>
      <cc:Work
         rdf:about="">
        <dc:format>image/svg+xml</dc:format>
        <dc:type
           rdf:resource="http://purl.org/dc/dcmitype/StillImage" />
        <dc:title />
      </cc:Work>
    </rdf:RDF>
  </metadata>
  <path
     sodipodi:nodetypes="ccccccccccccccccccccccccccccccccccccc"
     inkscape:connector-curvature="0"
     id="path963"
     d="M 5.1001617,1.2386939 13.403815,0.80161423 25.84432,1.2386939 36.423314,0.94820747 46.307812,2.41887 56.960518,1.2386939 l 11.646767,-0.0175 9.332656,1.0371229 10.136794,-1.0195725 4.240684,4.2745045 -1.019572,15.2083752 2.128727,15.449252 -1.881712,16.543545 0.88348,13.448588 -0.630644,17.399941 -0.0349,15.36508 2.162638,14.64792 -1.431362,10.39037 -4.417388,6.23365 -10.704826,0.7764 -10.216016,-0.17019 -11.595826,-0.11441 -8.784524,0.53721 -11.616477,-0.0489 -12.864044,-0.31461 -8.097689,-1.27217 -7.1535183,0.0724 L 0.85942798,125.92552 1.3933598,117.24625 2.5008443,98.873079 0.85942798,80.770919 0.26068475,69.140404 1.4140102,56.324541 1.7873485,37.382013 1.722147,20.721674 0.85942798,5.5132984 Z"
     style="display:inline;fill:#C6C7C7;fill-opacity:1;stroke:#FF8D40;stroke-width:3.55563727;stroke-miterlimit:4;stroke-dasharray:none;stroke-opacity:1" />
  <path
     inkscape:transform-center-y="-29.406915"
     inkscape:transform-center-x="-11.904445"
     inkscape:connector-curvature="0"
     id="path981"
     d="m 37.420956,9.2196993 c 0.259326,0.033101 5.970742,3.1037187 6.210407,3.2081507 0.239666,0.104432 5.87248,3.460147 5.87248,3.460147 l 9.170883,2.068545 3.040787,2.602648 -2.793792,-2.802992 -2.799692,-0.695285 -5.794768,-1.099275 -6.124455,-3.798074 -9.747566,-4.5670206 z"
     style="fill:url(#radialGradient993-1);fill-opacity:1;stroke:#b1b2b2;stroke-width:0.06274307;stroke-linecap:butt;stroke-linejoin:miter;stroke-miterlimit:4;stroke-dasharray:none;stroke-opacity:1" />
  <path
     inkscape:connector-curvature="0"
     id="path976"
     d="m 21.802421,23.104517 c 0,0 -3.835405,1.216107 -3.928957,1.262878 -0.0935,0.0468 -0.561262,4.724094 -0.561262,4.724094 l 1.870921,2.572517 3.741853,0.42096 2.478984,-2.806382 0.327408,1.777369 -1.917703,3.788634 3.835405,0.187094 2.291891,-0.140323 -0.701596,-2.291881 -1.309649,-2.104797 -0.0468,-1.964473 c 0,0 2.338662,3.320893 2.572527,3.414445 0.233865,0.0935 3.741853,-0.0468 3.741853,-0.0468 l 2.71285,-2.71284 0.0468,-3.64832 -2.71285,-2.619288 -4.116041,1.309649 1.683837,-2.899944 -0.280646,-3.274123 -2.853163,-1.777379 -3.60153,-0.140323 -2.338662,1.777379 -0.327417,3.180581 1.216107,2.432203 z"
     style="fill:#000000;fill-opacity:1;stroke:none;stroke-width:1.24356914;stroke-linecap:butt;stroke-linejoin:miter;stroke-miterlimit:4;stroke-dasharray:none;stroke-opacity:1" />
  <path
     style="fill:#000000;fill-opacity:1;stroke:none;stroke-width:0.66503304;stroke-linecap:butt;stroke-linejoin:miter;stroke-miterlimit:4;stroke-dasharray:none;stroke-opacity:1"
     d="m 6.6923569,26.884981 c 0,0 -2.0510853,0.650344 -2.1011264,0.675355 -0.050001,0.025 -0.3001567,2.526335 -0.3001567,2.526335 l 1.0005321,1.375731 2.0010643,0.225125 1.3256993,-1.500803 0.1750938,0.950501 -1.0255326,2.026084 2.0510753,0.100053 1.225657,-0.075 -0.375198,-1.225647 -0.7003757,-1.125605 -0.025001,-1.050553 c 0,0 1.2506777,1.775939 1.3757407,1.82597 0.125063,0.05 2.001054,-0.025 2.001054,-0.025 l 1.450772,-1.450772 0.025,-1.951034 -1.450762,-1.400741 -2.201179,0.700376 0.90049,-1.550824 -0.150083,-1.750929 -1.525824,-0.950511 -1.9260028,-0.075 -1.2506777,0.950511 -0.1750838,1.700898 0.6503343,1.300689 z"
     id="path978"
     inkscape:connector-curvature="0" />
  <path
     style="fill:#000000;fill-opacity:1;stroke:none;stroke-width:1.24356914;stroke-linecap:butt;stroke-linejoin:miter;stroke-miterlimit:4;stroke-dasharray:none;stroke-opacity:1"
     d="m 41.772402,63.539677 c 0,0 -3.835395,1.216097 -3.928947,1.262878 -0.0935,0.0468 -0.561272,4.724094 -0.561272,4.724094 l 1.870931,2.572527 3.741853,0.420949 2.478985,-2.806382 0.327417,1.777369 -1.917712,3.788634 3.835394,0.187094 2.291891,-0.140313 -0.701596,-2.29189 -1.309648,-2.104797 -0.0468,-1.964473 c 0,0 2.338651,3.320893 2.572516,3.414445 0.233876,0.0935 3.741863,-0.0468 3.741863,-0.0468 l 2.71285,-2.71285 0.0468,-3.648301 -2.71285,-2.619297 -4.116051,1.309649 1.683847,-2.899945 -0.280646,-3.274122 -2.853163,-1.777379 -3.60153,-0.140323 -2.338671,1.777379 -0.327407,3.18058 1.216106,2.432204 z"
     id="path980"
     inkscape:connector-curvature="0" />
  <path
     inkscape:connector-curvature="0"
     id="path982"
     d="m 33.630852,110.22489 c 0,0 3.835415,-1.21611 3.928957,-1.26288 0.0935,-0.0468 0.561272,-4.72409 0.561272,-4.72409 l -1.870921,-2.57253 -3.741863,-0.42096 -2.478984,2.80639 -0.327408,-1.77738 1.917703,-3.78863 -3.835405,-0.187094 -2.291891,0.140323 0.701606,2.291881 1.309649,2.10481 0.0468,1.96447 c 0,0 -2.338662,-3.3209 -2.572527,-3.41445 -0.233865,-0.0935 -3.741853,0.0468 -3.741853,0.0468 l -2.71285,2.71285 -0.0468,3.6483 2.71285,2.61929 4.116041,-1.30965 -1.683837,2.89995 0.280636,3.27412 2.853173,1.77738 3.60153,0.14032 2.338662,-1.77738 0.327407,-3.18058 -1.216097,-2.4322 z"
     style="fill:#000000;fill-opacity:1;stroke:none;stroke-width:1.24356914;stroke-linecap:butt;stroke-linejoin:miter;stroke-miterlimit:4;stroke-dasharray:none;stroke-opacity:1" />
  <path
     style="fill:#000000;fill-opacity:1;stroke:none;stroke-width:0.65178198;stroke-linecap:butt;stroke-linejoin:miter;stroke-miterlimit:4;stroke-dasharray:none;stroke-opacity:1"
     d="m 88.515455,106.161 c 0,0 2.010225,-0.63737 2.059256,-0.6619 0.049,-0.0245 0.294166,-2.476 0.294166,-2.476 l -0.980582,-1.34832 -1.961193,-0.22063 -1.299279,1.47089 -0.171613,-0.93156 1.005102,-1.98571 -2.010215,-0.0981 -1.201226,0.0735 0.367728,1.20122 0.686415,1.10317 0.0245,1.02963 c 0,0 -1.225747,-1.74055 -1.34832,-1.78958 -0.122573,-0.049 -1.961183,0.0245 -1.961183,0.0245 l -1.421862,1.42186 -0.0246,1.91216 1.421861,1.37283 2.157318,-0.68641 -0.88254,1.51992 0.147093,1.71604 1.495403,0.93156 1.887652,0.0735 1.225737,-0.93156 0.171604,-1.66702 -0.637384,-1.27476 z"
     id="path984"
     inkscape:connector-curvature="0" />
  <path
     style="fill:#000000;fill-opacity:1;stroke:none;stroke-width:1.24356914;stroke-linecap:butt;stroke-linejoin:miter;stroke-miterlimit:4;stroke-dasharray:none;stroke-opacity:1"
     d="m 61.279003,23.104517 c 0,0 -3.835405,1.216107 -3.928957,1.262878 -0.0935,0.0468 -0.561262,4.724094 -0.561262,4.724094 l 1.870921,2.572517 3.741853,0.42096 2.478985,-2.806382 0.327407,1.777369 -1.917702,3.788634 3.835404,0.187094 2.291891,-0.140323 -0.701595,-2.291881 -1.309649,-2.104797 -0.0468,-1.964473 c 0,0 2.338661,3.320893 2.572526,3.414445 0.233866,0.0935 3.741853,-0.0468 3.741853,-0.0468 l 2.71285,-2.71284 0.0468,-3.64832 -2.71285,-2.619288 -4.116041,1.309649 1.683837,-2.899944 -0.280646,-3.274123 -2.853163,-1.777379 -3.601529,-0.140323 -2.338662,1.777379 -0.327417,3.180581 1.216107,2.432203 z"
     id="path1027"
     inkscape:connector-curvature="0" />
  <path
     inkscape:transform-center-y="-0.14453284"
     inkscape:transform-center-x="-0.18684645"
     inkscape:connector-curvature="0"
     id="path977"
     d="m 40.680688,34.913113 -2.810482,-1.267008 -2.159838,-0.170664 -1.760409,-1.092224 -0.90783,-0.348948 -2.361082,-1.308008 c 0,0 -2.383913,-1.491493 -2.493925,-1.597016 -0.109963,-0.105562 -3.910727,-2.024154 -3.910727,-2.024154 l 3.213942,1.455202 3.291862,1.542384 3.053628,1.065323 c 0,0 1.228327,1.426752 1.38879,1.518534 0.160524,0.0916 2.430144,0.666075 2.631959,0.611143 0.201804,-0.0549 4.460888,2.25369 4.460888,2.25369 l 3.035027,1.693538 z"
     style="fill:url(#radialGradient989-8);fill-opacity:1;stroke:#b1b2b2;stroke-width:0.07842885;stroke-linecap:butt;stroke-linejoin:miter;stroke-miterlimit:4;stroke-dasharray:none;stroke-dashoffset:0;stroke-opacity:1" />
  <path
     style="fill:#000000;fill-opacity:1;stroke:none;stroke-width:1.24356914;stroke-linecap:butt;stroke-linejoin:miter;stroke-miterlimit:4;stroke-dasharray:none;stroke-opacity:1"
     d="m 72.049071,110.35718 c 0,0 3.835415,-1.2161 3.928957,-1.26288 0.0935,-0.0468 0.561272,-4.72409 0.561272,-4.72409 l -1.870921,-2.57253 -3.741863,-0.42096 -2.478984,2.8064 -0.327408,-1.77738 1.917703,-3.788637 -3.835405,-0.187094 -2.291891,0.140323 0.701606,2.291878 1.309649,2.10481 0.0468,1.96447 c 0,0 -2.338662,-3.3209 -2.572527,-3.41444 -0.233865,-0.0935 -3.741853,0.0468 -3.741853,0.0468 l -2.71285,2.71285 -0.0468,3.6483 2.71285,2.6193 4.116041,-1.30965 -1.683837,2.89994 0.280636,3.27412 2.853173,1.77738 3.60153,0.14033 2.338662,-1.77738 0.327407,-3.18058 -1.216097,-2.43221 z"
     id="path1029"
     inkscape:connector-curvature="0" />
  <path
     inkscape:connector-curvature="0"
     id="path1050"
     d="m 22.277731,48.904519 c 0,0 -3.835394,1.216097 -3.928947,1.262878 -0.0935,0.0468 -0.561272,4.724095 -0.561272,4.724095 l 1.870931,2.572526 3.741853,0.42095 2.478985,-2.806382 0.327417,1.777369 -1.917712,3.788634 3.835395,0.187094 2.29189,-0.140313 -0.701595,-2.291891 -1.309649,-2.104796 -0.0468,-1.964474 c 0,0 2.338651,3.320894 2.572517,3.414446 0.233875,0.0935 3.741862,-0.0468 3.741862,-0.0468 l 2.71285,-2.71285 0.0468,-3.648301 -2.71285,-2.619298 -4.116051,1.309649 1.683848,-2.899944 -0.280647,-3.274122 -2.853163,-1.77738 -3.601529,-0.140323 -2.338672,1.77738 -0.327407,3.18058 1.216107,2.432204 z"
     style="fill:#000000;fill-opacity:1;stroke:none;stroke-width:1.24356914;stroke-linecap:butt;stroke-linejoin:miter;stroke-miterlimit:4;stroke-dasharray:none;stroke-opacity:1" />
  <path
     inkscape:transform-center-y="14.492117"
     inkscape:transform-center-x="100.27922"
     inkscape:connector-curvature="0"
     id="path983"
     d="m 8.3991946,124.15875 1.9267324,-2.53686 c 0,0 1.929123,-3.37992 2.227749,-3.48934 0.298647,-0.10939 3.685382,-2.93399 3.685382,-2.93399 l 3.761133,-6.82495 2.537006,-7.39261 0.779777,-1.530129 -1.336499,1.343329 -0.470501,1.59569 -1.739188,5.32381 -2.23635,4.37317 -1.462212,3.04088 -1.924752,1.17772 -2.633759,2.17547 -1.6603063,3.36591 z"
     style="fill:url(#radialGradient995-3);fill-opacity:1;stroke:#b1b2b2;stroke-width:0.10980038;stroke-linecap:butt;stroke-linejoin:miter;stroke-miterlimit:4;stroke-dasharray:none;stroke-opacity:1" />
  <path
     inkscape:connector-curvature="0"
     id="path1082"
     d="m 61.466107,46.865303 c 0,0 -3.835404,1.216107 -3.928956,1.262878 -0.0935,0.0468 -0.561263,4.724099 -0.561263,4.724099 l 1.870921,2.572516 3.741853,0.42096 2.478985,-2.806382 0.327407,1.777369 -1.917702,3.788634 3.835405,0.187094 2.29189,-0.140323 -0.701595,-2.291881 -1.309649,-2.104796 -0.0468,-1.964474 c 0,0 2.338661,3.320894 2.572527,3.414446 0.233865,0.0935 3.741852,-0.0468 3.741852,-0.0468 l 2.71285,-2.71284 0.0468,-3.648325 -2.71285,-2.619288 -4.116041,1.309649 1.683838,-2.899944 -0.280647,-3.274122 -2.853163,-1.77738 -3.601529,-0.140323 -2.338662,1.777379 -0.327417,3.180581 1.216107,2.432204 z"
     style="fill:#000000;fill-opacity:1;stroke:none;stroke-width:1.24356914;stroke-linecap:butt;stroke-linejoin:miter;stroke-miterlimit:4;stroke-dasharray:none;stroke-opacity:1" />
  <path
     inkscape:transform-center-y="8.6539105"
     inkscape:transform-center-x="-61.747803"
     inkscape:connector-curvature="0"
     id="path985"
     d="m 51.754623,58.380837 c 0,0 2.681259,-3.325934 3.123639,-3.817565 0.44238,-0.491651 6.77587,-6.492253 6.77587,-6.492253 l 2.432123,-1.057003 1.188787,-0.377299 -0.983642,0.813528 -1.702378,0.371268 -1.81087,1.453212 -4.317685,4.151802 -0.836609,2.345572 -2.795342,2.564817 c 0,0 -2.572796,3.331233 -2.688269,3.65197 -0.115542,0.320678 1.614446,-3.607999 1.614446,-3.607999 z"
     style="fill:url(#radialGradient997-5);fill-opacity:1;stroke:#b1b2b2;stroke-width:0.07842885;stroke-linecap:butt;stroke-linejoin:miter;stroke-miterlimit:4;stroke-dasharray:none;stroke-opacity:1" />
  <path
     inkscape:transform-center-y="39.455032"
     inkscape:transform-center-x="51.439837"
     inkscape:connector-curvature="0"
     id="path979"
     d="m 42.985959,114.42789 5.728017,-5.0375 c 0,0 7.857423,-2.33509 9.364196,-3.27555 1.506774,-0.94044 8.458937,-0.97599 9.174983,-1.21246 0.716056,-0.23644 1.79883,-0.42602 1.79883,-0.42602 l -0.406939,-2.06474 -0.232765,1.2375 -0.552572,0.8239 -3.467377,0.1829 -5.796378,-0.0254 -6.934383,3.51164 -3.929547,1.46563 -3.63045,2.7413 c 0,0 -2.755991,4.88073 -3.484077,6.14437 -0.728096,1.26365 -9.109972,7.46768 -9.109972,7.46768 l -5.241376,4.84625 2.923115,-2.33973 8.209711,-6.95658 4.633193,-3.82075 1.238827,-3.50925 z"
     style="fill:url(#radialGradient991-2);fill-opacity:1;stroke:#b1b2b2;stroke-width:0.06274307;stroke-linecap:butt;stroke-linejoin:miter;stroke-miterlimit:4;stroke-dasharray:none;stroke-opacity:1" />
  <path
     style="fill:#000000;fill-opacity:1;stroke:none;stroke-width:1.24356914;stroke-linecap:butt;stroke-linejoin:miter;stroke-miterlimit:4;stroke-dasharray:none;stroke-opacity:1"
     d="m 33.197993,83.937618 c 0,0 3.835404,-1.216106 3.928956,-1.262877 0.0935,-0.0468 0.561263,-4.7241 0.561263,-4.7241 l -1.870921,-2.572517 -3.741853,-0.420959 -2.478985,2.806382 -0.327407,-1.777369 1.917702,-3.788631 -3.835405,-0.187094 -2.29189,0.140323 0.701595,2.291878 1.309649,2.104796 0.0468,1.964474 c 0,0 -2.338661,-3.320894 -2.572527,-3.414446 -0.233865,-0.0935 -3.741852,0.0468 -3.741852,0.0468 l -2.71285,2.71284 -0.0468,3.648326 2.71285,2.619288 4.116041,-1.309649 -1.683838,2.899944 0.280647,3.274122 2.853163,1.777379 3.601529,0.140324 2.338662,-1.77738 0.327417,-3.18058 -1.216107,-2.432204 z"
     id="path1049"
     inkscape:connector-curvature="0" />
  <path
     style="fill:#000000;fill-opacity:1;stroke:none;stroke-width:0.10881402px;stroke-linecap:butt;stroke-linejoin:miter;stroke-opacity:1"
     d="M 15.805258,13.654881 14.99735,15.770819 8.1878799,12.423795 7.918584,11.038816 11.996564,5.3834955 12.996826,5.0372508 21.422102,6.9993002 22.114588,8.3073341 15.574423,23.041945 13.458486,22.195573 19.690884,8.7305225 13.227651,7.4609624 10.496181,11.231173 Z"
     id="path1224"
     inkscape:connector-curvature="0" />
  <path
     inkscape:connector-curvature="0"
     id="path1226"
     d="m 80.774654,119.47965 0.807908,-2.11593 6.80946,3.34702 0.269306,1.38497 -4.07799,5.65533 -1.000262,0.34624 -8.425266,-1.96205 -0.692495,-1.30803 6.540164,-14.73461 2.115937,0.84637 -6.232388,13.46505 6.463223,1.26956 2.73148,-3.77021 z"
     style="fill:#000000;fill-opacity:1;stroke:none;stroke-width:0.10881402px;stroke-linecap:butt;stroke-linejoin:miter;stroke-opacity:1" />
  <path
     inkscape:connector-curvature="0"
     id="path1247"
     d="m 72.487481,83.937618 c 0,0 3.835405,-1.216106 3.928957,-1.262877 0.0935,-0.0468 0.561262,-4.7241 0.561262,-4.7241 l -1.870921,-2.572517 -3.741853,-0.420959 -2.478985,2.806382 -0.327407,-1.777369 1.917702,-3.788631 -3.835404,-0.187094 -2.291891,0.140323 0.701596,2.291878 1.309649,2.104796 0.0468,1.964474 c 0,0 -2.338662,-3.320894 -2.572527,-3.414446 -0.233865,-0.0935 -3.741853,0.0468 -3.741853,0.0468 l -2.71285,2.71284 -0.0468,3.648326 2.71285,2.619288 4.116041,-1.309649 -1.683837,2.899944 0.280646,3.274122 2.853163,1.777379 3.60153,0.140324 2.338661,-1.77738 0.327417,-3.18058 -1.216106,-2.432204 z"
     style="fill:#000000;fill-opacity:1;stroke:none;stroke-width:1.24356914;stroke-linecap:butt;stroke-linejoin:miter;stroke-miterlimit:4;stroke-dasharray:none;stroke-opacity:1" />
</svg>
