<?xml version="1.0" encoding="UTF-8" standalone="no"?>
<!-- Created with Inkscape (http://www.inkscape.org/) -->

<svg
   xmlns:dc="http://purl.org/dc/elements/1.1/"
   xmlns:cc="http://creativecommons.org/ns#"
   xmlns:rdf="http://www.w3.org/1999/02/22-rdf-syntax-ns#"
   xmlns:svg="http://www.w3.org/2000/svg"
   xmlns="http://www.w3.org/2000/svg"
   xmlns:xlink="http://www.w3.org/1999/xlink"
   xmlns:sodipodi="http://sodipodi.sourceforge.net/DTD/sodipodi-0.dtd"
   xmlns:inkscape="http://www.inkscape.org/namespaces/inkscape"
   width="356"
   height="499"
   version="1.1"
   viewBox="0 0 94.192 132.03"
   id="svg60"
   sodipodi:docname="Jack_of_Spades.svg"
   inkscape:version="0.92.4 (5da689c313, 2019-01-14)">
  <sodipodi:namedview
     pagecolor="#ffffff"
     bordercolor="#666666"
     borderopacity="1"
     objecttolerance="10"
     gridtolerance="10"
     guidetolerance="10"
     inkscape:pageopacity="0"
     inkscape:pageshadow="2"
     inkscape:window-width="1920"
     inkscape:window-height="1017"
     id="namedview62"
     showgrid="false"
     inkscape:zoom="1.6993988"
     inkscape:cx="178"
     inkscape:cy="249.5"
     inkscape:window-x="-8"
     inkscape:window-y="-8"
     inkscape:window-maximized="1"
     inkscape:current-layer="svg60" />
  <defs
     id="defs14">
    <linearGradient
       id="linearGradient1974-8">
      <stop
         stop-color="#565757"
         offset="0"
         id="stop2" />
      <stop
         stop-color="#373838"
         stop-opacity="0"
         offset="1"
         id="stop4" />
    </linearGradient>
    <radialGradient
       id="radialGradient3592"
       cx="487.83"
       cy="209.78"
       r="1.5552"
       gradientTransform="matrix(.27936 .48876 -.84722 .48424 90.647 -125.55)"
       gradientUnits="userSpaceOnUse"
       xlink:href="#linearGradient1974-8" />
    <radialGradient
       id="radialGradient1501"
       cx="161.11"
       cy="166.44"
       r="1.4032"
       gradientTransform="matrix(.33729 -.46589 6.8072 4.9282 -1131.7 -533.28)"
       gradientUnits="userSpaceOnUse"
       xlink:href="#linearGradient1974-8" />
    <radialGradient
       id="radialGradient1505"
       cx="138.44"
       cy="235.05"
       r="20.919"
       gradientTransform="matrix(-.21936 -.33921 .76301 -.49342 -116.23 436.51)"
       gradientUnits="userSpaceOnUse"
       xlink:href="#linearGradient1974-8" />
    <radialGradient
       id="radialGradient1509"
       cx="49.268"
       cy="149.25"
       r="6.7426"
       gradientTransform="matrix(1.1182 -.96539 3.3948 3.9322 -484.18 -349.72)"
       gradientUnits="userSpaceOnUse"
       xlink:href="#linearGradient1974-8" />
    <radialGradient
       id="radialGradient1513"
       cx="170.35"
       cy="66.049"
       r="12.035"
       gradientTransform="matrix(-.061902 -.85577 1.3958 -.10097 -57.474 327.71)"
       gradientUnits="userSpaceOnUse"
       xlink:href="#linearGradient1974-8" />
    <radialGradient
       id="radialGradient1519"
       cx="161.11"
       cy="166.44"
       r="1.4032"
       gradientTransform="matrix(-.57292 .050816 -.74249 -8.371 294.5 1665.5)"
       gradientUnits="userSpaceOnUse"
       xlink:href="#linearGradient1974-8" />
    <radialGradient
       id="radialGradient1523"
       cx="80.302"
       cy="225.63"
       r="5.5573"
       gradientTransform="matrix(.44679 -.57548 2.3219 1.8027 -476.37 -107.29)"
       gradientUnits="userSpaceOnUse"
       xlink:href="#linearGradient1974-8" />
    <radialGradient
       inkscape:collect="always"
       xlink:href="#linearGradient1974-8"
       id="radialGradient1501-4"
       gradientUnits="userSpaceOnUse"
       gradientTransform="matrix(0.33730093,-0.46590036,6.8073352,4.9283513,-1156.424,-694.58826)"
       cx="161.11455"
       cy="166.44328"
       fx="161.11455"
       fy="166.44328"
       r="1.40318" />
    <radialGradient
       inkscape:collect="always"
       xlink:href="#linearGradient1974-8"
       id="radialGradient3592-5"
       cx="487.82748"
       cy="209.77856"
       fx="487.82748"
       fy="209.77856"
       r="1.5551749"
       gradientTransform="matrix(0.27936242,0.48876949,-0.84723883,0.48425014,108.17703,-285.56925)"
       gradientUnits="userSpaceOnUse" />
    <radialGradient
       inkscape:collect="always"
       xlink:href="#linearGradient1974-8"
       id="radialGradient1513-3"
       gradientUnits="userSpaceOnUse"
       gradientTransform="matrix(-0.06190355,-0.85578423,1.3958591,-0.10097014,-34.838375,169.47152)"
       cx="170.35481"
       cy="66.048706"
       fx="170.35481"
       fy="66.048706"
       r="12.034579" />
    <radialGradient
       inkscape:collect="always"
       xlink:href="#linearGradient1974-8"
       id="radialGradient1523-3"
       gradientUnits="userSpaceOnUse"
       gradientTransform="matrix(0.44680138,-0.5754964,2.3219339,1.8026929,-484.20302,-242.2271)"
       cx="80.301682"
       cy="225.62547"
       fx="80.301682"
       fy="225.62547"
       r="5.5573373" />
    <radialGradient
       inkscape:collect="always"
       xlink:href="#linearGradient1974-8"
       id="radialGradient1244"
       gradientUnits="userSpaceOnUse"
       gradientTransform="matrix(-0.2193638,-0.33922068,0.76302634,-0.4934262,-78.547672,204.28701)"
       cx="138.43695"
       cy="235.05092"
       fx="138.43695"
       fy="235.05092"
       r="20.918684" />
    <radialGradient
       inkscape:collect="always"
       xlink:href="#linearGradient1974-8"
       id="radialGradient1509-2"
       gradientUnits="userSpaceOnUse"
       gradientTransform="matrix(1.1182441,-0.9654142,3.3949009,3.9323306,-514.12547,-468.75905)"
       cx="49.268208"
       cy="149.24762"
       fx="49.268208"
       fy="149.24762"
       r="6.742619" />
    <radialGradient
       inkscape:collect="always"
       xlink:href="#linearGradient1974-8"
       id="radialGradient1519-8"
       gradientUnits="userSpaceOnUse"
       gradientTransform="matrix(-0.45131261,-0.35658375,5.2100954,-6.5941918,-768.48456,1234.6617)"
       cx="161.11455"
       cy="166.44328"
       fx="161.11455"
       fy="166.44328"
       r="1.40318" />
    <radialGradient
       inkscape:collect="always"
       xlink:href="#linearGradient1974-8"
       id="radialGradient1113"
       gradientUnits="userSpaceOnUse"
       gradientTransform="matrix(0.50775076,-0.27022992,3.9483672,7.4188178,-660.9842,-1173.737)"
       cx="161.11455"
       cy="166.44328"
       fx="161.11455"
       fy="166.44328"
       r="1.40318" />
  </defs>
  <metadata
     id="metadata16">
    <rdf:RDF>
      <cc:Work
         rdf:about="">
        <dc:format>image/svg+xml</dc:format>
        <dc:type
           rdf:resource="http://purl.org/dc/dcmitype/StillImage" />
        <dc:title />
      </cc:Work>
    </rdf:RDF>
  </metadata>
  <path
     sodipodi:nodetypes="ccccccccccccccccccccccccccccccccccccc"
     inkscape:connector-curvature="0"
     id="path1497"
     d="M 4.721878,1.1898351 14.710189,2.0851349 25.774453,1.1898351 36.48006,0.29454536 46.827009,1.1898351 H 57.353291 L 67.70025,2.0851349 78.405846,1.1898351 h 10.526286 l 4.303747,4.297355 V 20.619145 35.751109 l -0.89661,16.74345 0.89661,13.520464 0.89659,17.280612 -0.89659,12.983297 -0.537982,16.385338 0.717296,11.90897 -4.483061,6.26697 H 78.405846 l -10.705596,-0.8953 -10.346959,0.8953 H 46.827009 l -10.705617,0.89525 -10.346939,-0.89525 H 15.248161 L 6.6944216,130.30302 0.4181422,126.54285 0.05950427,113.02237 2.2113518,96.816093 0.4181422,81.146957 V 66.015023 50.883063 L 1.494046,35.930163 0.4181422,20.619145 V 5.4871901 Z"
     style="fill:#C6C7C7;fill-opacity:1;stroke:#FF8D40;stroke-width:3.55563727;stroke-miterlimit:4;stroke-dasharray:none;stroke-opacity:1" />
  <path
     style="fill:#000000;fill-opacity:1;stroke:none;stroke-width:0.88009953;stroke-linecap:butt;stroke-linejoin:miter;stroke-miterlimit:4;stroke-dasharray:none;stroke-opacity:1"
     d="m 19.924974,24.167879 3.652781,-5.343878 2.908684,-4.599792 1.217597,-1.691087 1.555804,2.164608 3.990998,5.140933 2.841043,4.599792 0.0677,2.502825 -1.35288,2.164608 -2.164608,1.082294 H 30.61277 l -1.488173,-1.35287 0.0677,-0.744086 -0.135223,2.029314 0.947011,1.149956 1.014652,0.811718 -5.952661,-0.202925 1.555814,-1.285238 0.405869,-1.488163 -0.473511,-0.541162 -1.217596,1.420532 -1.961674,0.0677 c 0,0 -2.029325,-0.947011 -2.299901,-1.082314 -0.270566,-0.135223 -1.894031,-2.299881 -1.894031,-2.570467 0,-0.270576 0.744096,-2.232239 0.744096,-2.232239 z"
     id="path1487"
     inkscape:connector-curvature="0" />
  <path
     inkscape:connector-curvature="0"
     id="path1491"
     d="m 4.8720113,28.515769 2.0726658,-3.032207 1.6504465,-2.610028 0.6908853,-0.959551 0.8827791,1.228237 2.26458,2.917055 1.612066,2.610027 0.0383,1.420152 -0.767647,1.228237 -1.228237,0.614114 h -1.151466 l -0.844438,-0.767647 0.0383,-0.4222 -0.0767,1.151466 0.537352,0.652504 0.575732,0.46059 -3.3776642,-0.115122 0.8828095,-0.729256 0.2302951,-0.844439 -0.268686,-0.307067 -0.6908852,0.806058 -1.1130846,0.0383 c 0,0 -1.1514855,-0.537372 -1.3049989,-0.614134 -0.1535334,-0.0767 -1.0747237,-1.304989 -1.0747237,-1.458522 0,-0.153533 0.4222093,-1.266638 0.4222093,-1.266638 z"
     style="fill:#000000;fill-opacity:1;stroke:none;stroke-width:0.49938565;stroke-linecap:butt;stroke-linejoin:miter;stroke-miterlimit:4;stroke-dasharray:none;stroke-opacity:1" />
  <path
     style="fill:#000000;fill-opacity:1;stroke:none;stroke-width:0.52187294;stroke-linecap:butt;stroke-linejoin:miter;stroke-miterlimit:4;stroke-dasharray:none;stroke-opacity:1"
     d="m 90.1776,103.85039 -2.166008,3.16875 -1.724758,2.72755 -0.721996,1.00275 -0.922564,-1.28354 -2.366532,-3.04841 -1.684657,-2.72753 -0.0401,-1.48412 0.802218,-1.28355 1.283538,-0.64175 h 1.203336 l 0.88244,0.80221 -0.0401,0.44121 0.0801,-1.20332 -0.561553,-0.681904 -0.601663,-0.481311 3.529761,0.120333 -0.92255,0.762102 -0.240656,0.88244 0.280767,0.3209 0.721996,-0.84234 1.163215,-0.0401 c 0,0 1.203327,0.56155 1.36376,0.64178 0.160454,0.0801 1.123115,1.36376 1.123115,1.5242 0,0.16043 -0.441209,1.32366 -0.441209,1.32366 z"
     id="path1495"
     inkscape:connector-curvature="0" />
  <path
     style="fill:url(#radialGradient1501-4);fill-opacity:1;stroke:#b1b2b2;stroke-width:0.0792885;stroke-linecap:butt;stroke-linejoin:miter;stroke-miterlimit:4;stroke-dasharray:none;stroke-dashoffset:0;stroke-opacity:1"
     d="m 25.692066,46.749446 2.530576,1.81928 2.105857,0.602434 1.525184,1.435441 0.829508,0.527892 2.077066,1.769719 c 0,0 2.062845,1.956193 2.150677,2.082816 0.0879,0.126683 3.468807,2.790272 3.468807,2.790272 L 37.487147,55.690624 34.534832,53.501935 31.72286,51.833698 c 0,0 -0.930861,-1.660136 -1.071424,-1.783279 -0.140723,-0.122933 -2.27429,-1.147525 -2.485255,-1.133585 -0.210895,0.0145 -3.967978,-3.128069 -3.967978,-3.128069 l -2.667509,-2.286901 z"
     id="path1499"
     inkscape:connector-curvature="0" />
  <path
     inkscape:connector-curvature="0"
     id="path3582"
     d="m 64.927585,73.907867 c 0,0 0.037,0.831869 0.0183,0.979762 -0.0183,0.147823 -0.0183,1.737668 -0.0183,1.737668 l 0.184824,-1.737668 -0.0555,-1.016723 0.0142,-0.600783 -0.0414,-0.0831 z"
     style="display:inline;fill:#0d0d0d;fill-opacity:0;stroke:#b1b2b2;stroke-width:0.03137152;stroke-linecap:butt;stroke-linejoin:miter;stroke-miterlimit:4;stroke-dasharray:none;stroke-opacity:1" />
  <path
     inkscape:connector-curvature="0"
     id="path3584"
     d="m 65.841505,55.280941 0.221815,-0.378949 0.425199,-0.4714 0.817988,-0.43903 0.341978,-0.147823 -0.355838,0.203344 -0.522222,0.485261 -0.360468,0.124843 c 0,0 -0.254175,0.240305 -0.281916,0.263406 -0.0277,0.0232 -0.258816,0.46215 -0.258816,0.46215 z"
     style="display:inline;fill:url(#radialGradient3592-5);fill-opacity:1;stroke:#b1b2b2;stroke-width:0.03137152;stroke-linecap:butt;stroke-linejoin:miter;stroke-miterlimit:4;stroke-dasharray:none;stroke-opacity:1" />
  <path
     style="fill:url(#radialGradient1513-3);fill-opacity:1;stroke:#b1b2b2;stroke-width:0.11100388;stroke-linecap:butt;stroke-linejoin:miter;stroke-miterlimit:4;stroke-dasharray:none;stroke-opacity:1"
     d="m 29.268142,17.920473 3.218722,-0.106882 c 0,0 3.881495,-0.642735 4.157791,-0.478271 0.276357,0.164324 4.651953,1.019212 4.651953,1.019212 l 7.752172,-1.403111 7.416584,-2.72539 1.697527,-0.364338 -1.906122,-0.191484 -1.551644,0.648724 -5.285077,2.031615 -4.856548,1.035293 -3.317743,0.792688 -2.151457,-0.758527 -3.386225,-0.678205 -3.699052,0.844638 z"
     id="path1511"
     inkscape:connector-curvature="0" />
  <path
     inkscape:connector-curvature="0"
     id="path1051"
     d="M 7.3335267,5.8143403 15.451053,6.3774058 15.263367,8.2542893 12.401118,8.1135242 12.635725,18.201784 11.978816,19.140226 6.3012389,20.876344 5.7850945,18.905615 10.618074,17.544873 10.336541,7.972756 6.9581474,7.7850699 7.3804478,5.9551055 Z"
     style="fill:#000000;fill-opacity:1;stroke:none;stroke-width:0.09384426px;stroke-linecap:butt;stroke-linejoin:miter;stroke-opacity:1" />
  <path
     inkscape:connector-curvature="0"
     id="path1080"
     d="m 76.205314,115.22205 -3.652781,5.34388 -2.908684,4.59979 -1.217597,1.69109 -1.555805,-2.16461 -3.990998,-5.14093 -2.841043,-4.5998 -0.0677,-2.50282 1.35288,-2.16461 2.164608,-1.08229 h 2.029325 l 1.488172,1.35287 -0.0677,0.74408 0.135223,-2.02931 -0.947011,-1.14996 -1.014652,-0.81171 5.952661,0.20292 -1.555814,1.28524 -0.405869,1.48816 0.47351,0.54116 1.217597,-1.42053 1.961674,-0.0677 c 0,0 2.029324,0.94701 2.2999,1.08231 0.270566,0.13523 1.894032,2.29988 1.894032,2.57047 0,0.27058 -0.744096,2.23224 -0.744096,2.23224 z"
     style="fill:#000000;fill-opacity:1;stroke:none;stroke-width:0.88009953;stroke-linecap:butt;stroke-linejoin:miter;stroke-miterlimit:4;stroke-dasharray:none;stroke-opacity:1" />
  <path
     style="fill:#000000;fill-opacity:1;stroke:none;stroke-width:0.09384426px;stroke-linecap:butt;stroke-linejoin:miter;stroke-opacity:1"
     d="m 85.746258,126.39669 -8.117527,-0.56307 0.187686,-1.87688 2.86225,0.14077 -0.234608,-10.08827 0.656909,-0.93844 5.677577,-1.73612 0.516145,1.97074 -4.83298,1.36074 0.281533,9.57211 3.378394,0.18769 -0.4223,1.82996 z"
     id="path1083"
     inkscape:connector-curvature="0" />
  <path
     style="fill:url(#radialGradient1523-3);fill-opacity:1;stroke:#b1b2b2;stroke-width:0.0792885;stroke-linecap:butt;stroke-linejoin:miter;stroke-miterlimit:4;stroke-dasharray:none;stroke-opacity:1"
     d="m 71.122418,112.52558 c 0,0 3.415056,2.64399 3.920777,3.08138 0.505721,0.43736 6.696838,6.71974 6.696838,6.71974 l 1.116725,2.43729 0.404979,1.19409 -0.841819,-0.97804 -0.409109,-1.71332 -1.504863,-1.80149 -4.282325,-4.28164 -2.387473,-0.79898 -2.647958,-2.77445 c 0,0 -3.418256,-2.53428 -3.744703,-2.64469 -0.326417,-0.11035 3.678931,1.56011 3.678931,1.56011 z"
     id="path1521"
     inkscape:connector-curvature="0" />
  <path
     style="fill:#000000;fill-opacity:1;stroke:none;stroke-width:0.39537251px;stroke-linecap:butt;stroke-linejoin:miter;stroke-opacity:1"
     d="M 34.3857,40.862458 68.585409,43.234679 67.794675,51.142113 55.735817,50.549069 56.724233,93.05163 53.956632,97.005348 30.036598,104.31974 27.862045,96.016896 48.223729,90.284009 47.03761,49.956024 32.8042,49.165255 34.583381,41.455503 Z"
     id="path1085"
     inkscape:connector-curvature="0" />
  <path
     style="fill:url(#radialGradient1244);fill-opacity:1;stroke:#b1b2b2;stroke-width:0.0634308;stroke-linecap:butt;stroke-linejoin:miter;stroke-miterlimit:4;stroke-dasharray:none;stroke-opacity:1"
     d="m 60.8201,48.26036 c 0.159503,-0.210764 5.724576,-3.675631 5.936701,-3.833314 0.212105,-0.157654 5.987742,-3.410163 5.987742,-3.410163 l 6.426032,-7.002754 3.811725,-1.358 -3.863216,1.040623 -2.017704,2.105726 -3.878146,4.52927 -6.410852,3.461224 -8.907217,6.252088 z"
     id="path1503"
     inkscape:connector-curvature="0" />
  <path
     style="fill:url(#radialGradient1509-2);fill-opacity:1;stroke:#b1b2b2;stroke-width:0.0634308;stroke-linecap:butt;stroke-linejoin:miter;stroke-miterlimit:4;stroke-dasharray:none;stroke-opacity:1"
     d="m 48.096628,67.044976 5.0193,5.854539 c 0,0 2.26034,7.972686 3.191821,9.50785 0.931451,1.535164 0.878809,8.563419 1.108715,9.290275 0.229885,0.726856 0.407709,1.823831 0.407709,1.823831 l 2.092416,-0.385069 -1.248028,-0.251065 -0.825798,-0.569113 -0.140573,-3.507428 0.0995,-5.859119 -3.461466,-7.054606 -1.431462,-3.990978 -2.72485,-3.704902 c 0,0 -4.898729,-2.848163 -6.166847,-3.600313 -1.268088,-0.752126 -7.432774,-9.304255 -7.432774,-9.304255 l -4.832207,-5.360189 2.327932,2.984746 6.927633,8.387736 3.803274,4.732297 3.531648,1.297019 z"
     id="path1507"
     inkscape:connector-curvature="0" />
  <path
     style="fill:url(#radialGradient1519-8);fill-opacity:1;stroke:#b1b2b2;stroke-width:0.0792885;stroke-linecap:butt;stroke-linejoin:miter;stroke-miterlimit:4;stroke-dasharray:none;stroke-dashoffset:0;stroke-opacity:1"
     d="m 21.88006,84.746907 1.924023,-2.451884 0.690405,-2.078666 1.498243,-1.463533 0.562293,-0.806588 1.855481,-2.000834 c 0,0 2.041155,-1.978804 2.171357,-2.061245 0.130243,-0.0825 2.933605,-3.348454 2.933605,-3.348454 l -2.206418,2.802332 -2.310831,2.857723 -1.78494,2.73938 c 0,0 -1.697787,0.860259 -1.82673,0.995522 -0.128763,0.135383 -1.242108,2.224049 -1.237038,2.435414 0.005,0.211285 -3.292062,3.832995 -3.292062,3.832995 l -2.396993,2.569037 z"
     id="path1517"
     inkscape:connector-curvature="0" />
  <path
     inkscape:connector-curvature="0"
     id="path1111"
     d="m 74.983322,11.729969 1.473407,2.746392 1.626739,1.466707 0.739075,1.959701 0.513059,0.838766 1.0878,2.502566 c 0,0 0.993094,2.663783 1.01634,2.816129 0.02329,0.152406 1.889342,4.030951 1.889342,4.030951 L 81.648052,24.945473 79.958196,21.6819 78.165642,18.947496 c 0,0 -0.106437,-1.900315 -0.178569,-2.072708 -0.07231,-0.172277 -1.538447,-2.030371 -1.734072,-2.110568 -0.195525,-0.08023 -2.189255,-4.553756 -2.189255,-4.553756 l -1.39086,-3.2266128 z"
     style="fill:url(#radialGradient1113);fill-opacity:1;stroke:#b1b2b2;stroke-width:0.0792885;stroke-linecap:butt;stroke-linejoin:miter;stroke-miterlimit:4;stroke-dasharray:none;stroke-dashoffset:0;stroke-opacity:1" />
</svg>
