<?xml version="1.0" encoding="UTF-8" standalone="no"?>
<!-- Created with Inkscape (http://www.inkscape.org/) -->

<svg
   xmlns:dc="http://purl.org/dc/elements/1.1/"
   xmlns:cc="http://creativecommons.org/ns#"
   xmlns:rdf="http://www.w3.org/1999/02/22-rdf-syntax-ns#"
   xmlns:svg="http://www.w3.org/2000/svg"
   xmlns="http://www.w3.org/2000/svg"
   xmlns:xlink="http://www.w3.org/1999/xlink"
   xmlns:sodipodi="http://sodipodi.sourceforge.net/DTD/sodipodi-0.dtd"
   xmlns:inkscape="http://www.inkscape.org/namespaces/inkscape"
   width="356"
   height="499"
   version="1.1"
   viewBox="0 0 94.192 132.03"
   id="svg63"
   sodipodi:docname="King_of_Diamonds.svg"
   inkscape:version="0.92.4 (5da689c313, 2019-01-14)">
  <sodipodi:namedview
     pagecolor="#ffffff"
     bordercolor="#666666"
     borderopacity="1"
     objecttolerance="10"
     gridtolerance="10"
     guidetolerance="10"
     inkscape:pageopacity="0"
     inkscape:pageshadow="2"
     inkscape:window-width="1920"
     inkscape:window-height="1017"
     id="namedview65"
     showgrid="false"
     inkscape:zoom="1.6993988"
     inkscape:cx="-13.244104"
     inkscape:cy="249.5"
     inkscape:window-x="-8"
     inkscape:window-y="-8"
     inkscape:window-maximized="1"
     inkscape:current-layer="svg63" />
  <defs
     id="defs13">
    <linearGradient
       id="linearGradient1974-8">
      <stop
         stop-color="#565757"
         offset="0"
         id="stop2" />
      <stop
         stop-color="#373838"
         stop-opacity="0"
         offset="1"
         id="stop4" />
    </linearGradient>
    <radialGradient
       id="radialGradient3443"
       cx="161.11"
       cy="166.44"
       r="1.4032"
       gradientTransform="matrix(-.56671 .050266 -.73444 -8.2803 230.49 1588.2)"
       gradientUnits="userSpaceOnUse"
       xlink:href="#linearGradient1974-8" />
    <radialGradient
       id="radialGradient3445"
       cx="49.268"
       cy="149.25"
       r="6.7426"
       gradientTransform="matrix(-1.4309 .29626 -1.0418 -5.0319 309.31 964.96)"
       gradientUnits="userSpaceOnUse"
       xlink:href="#linearGradient1974-8" />
    <radialGradient
       id="radialGradient3449"
       cx="170.35"
       cy="66.049"
       r="12.035"
       gradientTransform="matrix(-.76799 .36121 -.58917 -1.2527 179.88 297.12)"
       gradientUnits="userSpaceOnUse"
       xlink:href="#linearGradient1974-8" />
    <radialGradient
       id="radialGradient3451"
       cx="80.302"
       cy="225.63"
       r="5.5573"
       gradientTransform="matrix(-.67181 .26082 -1.0523 -2.7105 356.5 773.82)"
       gradientUnits="userSpaceOnUse"
       xlink:href="#linearGradient1974-8" />
    <radialGradient
       id="radialGradient3560"
       cx="210.08"
       cy="90.623"
       r=".46312"
       gradientTransform="matrix(.59283 0 0 4.8358 -103.95 -246.45)"
       gradientUnits="userSpaceOnUse"
       xlink:href="#linearGradient1974-8" />
    <radialGradient
       id="radialGradient3447"
       cx="138.44"
       cy="235.05"
       r="20.919"
       gradientTransform="matrix(-.21698 -.33554 .75474 -.48807 -116.69 338.64)"
       gradientUnits="userSpaceOnUse"
       xlink:href="#linearGradient1974-8" />
    <radialGradient
       inkscape:collect="always"
       xlink:href="#linearGradient1974-8"
       id="radialGradient3451-5"
       gradientUnits="userSpaceOnUse"
       gradientTransform="matrix(-0.36562931,-0.62476188,2.5207035,-1.475191,-486.4024,396.24627)"
       cx="80.301682"
       cy="225.62547"
       fx="80.301682"
       fy="225.62547"
       r="5.5573373" />
    <radialGradient
       inkscape:collect="always"
       xlink:href="#linearGradient1974-8"
       id="radialGradient3447-6"
       gradientUnits="userSpaceOnUse"
       gradientTransform="matrix(-0.21795103,-0.33703598,0.7581122,-0.49024838,-117.57034,280.54455)"
       cx="138.43695"
       cy="235.05092"
       fx="138.43695"
       fy="235.05092"
       r="20.918684" />
    <radialGradient
       inkscape:collect="always"
       xlink:href="#linearGradient1974-8"
       id="radialGradient3560-2"
       cx="210.08463"
       cy="90.623199"
       fx="210.08463"
       fy="90.623199"
       r="0.46311602"
       gradientTransform="matrix(0.7201435,0,0,5.8742238,-75.345033,-451.92124)"
       gradientUnits="userSpaceOnUse" />
    <radialGradient
       inkscape:collect="always"
       xlink:href="#linearGradient1974-8"
       id="radialGradient3443-9"
       gradientUnits="userSpaceOnUse"
       gradientTransform="matrix(-0.56924347,0.05049031,-0.73772097,-8.3172965,300.52538,1439.7776)"
       cx="161.11455"
       cy="166.44328"
       fx="161.11455"
       fy="166.44328"
       r="1.40318" />
    <radialGradient
       inkscape:collect="always"
       xlink:href="#linearGradient1974-8"
       id="radialGradient3445-9"
       gradientUnits="userSpaceOnUse"
       gradientTransform="matrix(-1.3886568,-0.47550523,1.6721248,-4.8832433,-158.31526,830.33954)"
       cx="49.268208"
       cy="149.24762"
       fx="49.268208"
       fy="149.24762"
       r="6.742619" />
    <radialGradient
       inkscape:collect="always"
       xlink:href="#linearGradient1974-8"
       id="radialGradient3449-8"
       gradientUnits="userSpaceOnUse"
       gradientTransform="matrix(-0.77142846,0.36282868,-0.59180539,-1.2582675,224.41406,69.243068)"
       cx="170.35481"
       cy="66.048706"
       fx="170.35481"
       fy="66.048706"
       r="12.034579" />
  </defs>
  <metadata
     id="metadata15">
    <rdf:RDF>
      <cc:Work
         rdf:about="">
        <dc:format>image/svg+xml</dc:format>
        <dc:type
           rdf:resource="http://purl.org/dc/dcmitype/StillImage" />
        <dc:title />
      </cc:Work>
    </rdf:RDF>
  </metadata>
  <path
     style="fill:#C6C7C7;fill-opacity:1;stroke:#FF8D40;stroke-width:3.55563727;stroke-miterlimit:4;stroke-dasharray:none;stroke-opacity:1"
     d="M 4.6720142,1.3461567 14.59602,2.2356873 25.589015,1.3461567 35.661893,1.5842056 54.023004,0.40653317 h 7.451698 L 72.130867,0.35641 77.881461,1.3461477 h 10.458485 l 4.276019,4.2696702 -1.12754,15.7861931 1.12754,14.282813 1.740117,13.06503 -1.740117,17.00397 0.890856,17.169316 0.612548,13.275538 -2.037914,15.903952 0.712693,11.83228 -4.454202,6.22658 -17.787587,0.7517 -3.307546,-1.64121 -10.280332,0.88951 -10.646422,1.50341 -10.260806,-1.74145 -10.656175,1.36559 L 15.13052,130.16149 6.6318602,129.62779 0.39600578,125.89183 0.03966923,112.45843 1.4259816,96.732374 -0.16777439,83.231332 0.39600578,65.753823 1.3356294,52.0348 0.71329849,36.802349 0.39600578,20.650314 V 5.615836 Z"
     id="rect855"
     inkscape:connector-curvature="0"
     sodipodi:nodetypes="ccccccccccccccccccccccccccccccccccccc" />
  <path
     style="fill:#71121c;fill-opacity:1;stroke:none;stroke-width:1.53401494;stroke-miterlimit:4;stroke-dasharray:none;stroke-opacity:1"
     inkscape:transform-center-x="-1.1473012e-05"
     d="m 38.632459,26.806092 -3.9754,0.488867 -2.777446,2.96701 -2.437211,4.14164 -1.103484,2.739226 -1.243737,-2.678646 -2.863731,-3.741438 -3.932318,-2.702544 -2.958773,-0.886678 2.898103,-1.457047 3.585444,-2.859442 2.86812,-3.92648 2.288539,-5.536109 1.028259,5.529319 1.678674,3.956594 4.147807,2.433596 z"
     id="path857"
     inkscape:connector-curvature="0"
     sodipodi:nodetypes="ccccccccccccccccc" />
  <path
     sodipodi:nodetypes="ccccccccccccccccc"
     inkscape:connector-curvature="0"
     id="path860"
     d="m 15.449902,29.016373 -1.389045,0.643013 -2.079549,1.369135 -0.992399,2.790384 -0.894814,1.418315 -0.5900567,-2.032871 -0.8321551,-1.915027 -2.6867123,-1.421529 -1.4203941,-0.5705 1.3890044,-0.643013 1.756139,-1.476825 1.5853686,-2.036789 0.571364,-1.418305 0.6439872,1.386945 1.263395,2.830041 2.255432,0.506485 z"
     inkscape:transform-center-x="-1.6029281e-05"
     style="fill:#71121c;fill-opacity:1;stroke:none;stroke-width:1.53517652;stroke-miterlimit:4;stroke-dasharray:none;stroke-opacity:1"
     inkscape:transform-center-y="6.1710918e-06" />
  <path
     inkscape:connector-curvature="0"
     id="path3534"
     d="m 29.748113,24.969093 c 0,0.179649 -0.4042,1.392219 -0.4042,1.392219 l -1.032919,1.571868 -1.167689,1.167669 1.392229,-1.212589 c 0,0 0.718549,-0.718549 0.808379,-0.898199 0.0898,-0.179639 0.4042,-1.077849 0.4042,-1.077849 z"
     style="fill:#570e15;fill-opacity:1;stroke:#b41c2d;stroke-width:0.01905379;stroke-linecap:butt;stroke-linejoin:miter;stroke-miterlimit:4;stroke-dasharray:none;stroke-opacity:1"
     sodipodi:nodetypes="cccccccc" />
  <path
     inkscape:connector-curvature="0"
     id="path3562"
     d="m 28.670254,18.097841 -0.494,1.482036 -1.077839,1.257479 -1.167669,1.796418 -0.628749,2.290408 -1.212569,1.526959 2.065868,-2.559888 0.22454,-1.302388 0.449109,-0.98803 0.76348,-0.988019 0.898209,-1.122759 z"
     style="fill:#570e15;fill-opacity:1;stroke:#b41c2d;stroke-width:0.01905379;stroke-linecap:butt;stroke-linejoin:miter;stroke-miterlimit:4;stroke-dasharray:none;stroke-opacity:1"
     sodipodi:nodetypes="cccccccccccc" />
  <path
     inkscape:connector-curvature="0"
     id="path3564"
     d="m 10.443662,28.290411 v 1.080531 l -0.317815,1.747921 0.476722,-1.398346 0.09532,-0.953405 z"
     style="fill:#570e15;fill-opacity:1;stroke:#b41c2d;stroke-width:0.01906822;stroke-linecap:butt;stroke-linejoin:miter;stroke-miterlimit:4;stroke-dasharray:none;stroke-opacity:1"
     sodipodi:nodetypes="cccccc" />
  <path
     style="fill:#71121c;fill-opacity:1;stroke:none;stroke-width:1.53401494;stroke-miterlimit:4;stroke-dasharray:none;stroke-opacity:1"
     inkscape:transform-center-x="-1.1473012e-05"
     d="m 75.463937,109.91319 -3.9754,0.48887 -2.777456,2.96701 -2.437201,4.14163 -1.103484,2.73923 -1.243737,-2.67864 -2.863731,-3.74145 -3.932318,-2.70253 -2.958773,-0.88669 2.898103,-1.45704 3.585444,-2.85944 2.86812,-3.92648 2.288539,-5.536112 1.028259,5.529322 1.678664,3.95659 4.147817,2.43359 z"
     id="path1179"
     inkscape:connector-curvature="0"
     sodipodi:nodetypes="ccccccccccccccccc" />
  <path
     style="fill:#570e15;fill-opacity:1;stroke:#b41c2d;stroke-width:0.03151114;stroke-linecap:butt;stroke-linejoin:miter;stroke-miterlimit:4;stroke-dasharray:none;stroke-opacity:1"
     d="m 67.258052,107.25691 -0.367607,1.18166 -1.207938,1.57557 c 0,0 -1.470528,2.02196 -1.496785,2.17952 -0.02632,0.15756 0.393884,2.02196 0.34138,2.23203 -0.05253,0.21008 0.236343,-0.28884 0.236343,-0.28884 l -0.2626,-0.65649 -0.131294,-1.15541 c 0,0 0.42014,-0.84029 0.498921,-0.97159 0.07875,-0.13129 1.523041,-1.60181 1.523041,-1.60181 0,0 0.919062,-1.39175 0.919062,-1.49678 0,-0.10504 -0.05253,-0.99786 -0.05253,-0.99786 z"
     id="path3566"
     inkscape:connector-curvature="0"
     sodipodi:nodetypes="ccccccccccscc" />
  <path
     inkscape:transform-center-y="6.1710918e-06"
     style="fill:#71121c;fill-opacity:1;stroke:none;stroke-width:1.53517652;stroke-miterlimit:4;stroke-dasharray:none;stroke-opacity:1"
     inkscape:transform-center-x="-1.6029281e-05"
     d="m 90.927618,101.17201 -1.389035,0.64301 -2.079559,1.36914 -0.992398,2.79038 -0.894804,1.41832 -0.590058,-2.03287 -0.832165,-1.91503 -2.686702,-1.42153 -1.420404,-0.5705 1.389014,-0.64301 1.756129,-1.476826 1.585369,-2.036789 0.571374,-1.418305 0.643987,1.386945 1.263385,2.830045 2.255432,0.50648 z"
     id="path1181"
     inkscape:connector-curvature="0"
     sodipodi:nodetypes="ccccccccccccccccc" />
  <path
     inkscape:connector-curvature="0"
     id="path3441"
     d="m 46.011484,15.200292 c 0,0 3.700596,-2.172393 4.290864,-2.47716 0.590288,-0.304777 8.672423,-3.6927602 8.672423,-3.6927602 l 2.660566,-0.1291249 1.25093,0.067802 -1.213152,0.4149174 -1.731338,-0.2559094 -2.217604,0.7220749 -5.531468,2.3670292 -1.61924,1.906578 -3.53743,1.416738 c 0,0 -3.600591,2.215916 -3.823061,2.476165 -0.222471,0.260258 2.7985,-2.816359 2.79851,-2.81635 z"
     style="fill:url(#radialGradient3451-5);fill-opacity:1;stroke:#b1b2b2;stroke-width:0.07877786;stroke-linecap:butt;stroke-linejoin:miter;stroke-miterlimit:4;stroke-dasharray:none;stroke-opacity:1"
     sodipodi:nodetypes="ccccccccccccc" />
  <path
     inkscape:connector-curvature="0"
     id="path3437"
     d="m 20.899877,125.52275 c 0.158445,-0.2094 5.687714,-3.65194 5.898462,-3.8086 0.210749,-0.15664 5.949188,-3.38821 5.949188,-3.38821 l 6.384647,-6.95765 3.787152,-1.34925 -3.83832,1.03391 -2.004695,2.09217 -3.853196,4.50011 -6.36955,3.43894 -8.849853,6.21181 z"
     style="fill:url(#radialGradient3447-6);fill-opacity:1;stroke:#b1b2b2;stroke-width:0.06302228;stroke-linecap:butt;stroke-linejoin:miter;stroke-miterlimit:4;stroke-dasharray:none;stroke-opacity:1"
     sodipodi:nodetypes="ccccccccccc" />
  <path
     inkscape:connector-curvature="0"
     id="path3544"
     d="m 75.900903,83.137595 0.13474,-1.841328 -0.40419,-3.592797 0.62873,2.784427 z"
     style="fill:url(#radialGradient3560-2);fill-opacity:1;stroke:#7d7f7f;stroke-width:0.03810759;stroke-linecap:butt;stroke-linejoin:miter;stroke-miterlimit:4;stroke-dasharray:none;stroke-opacity:1"
     sodipodi:nodetypes="ccccc" />
  <path
     inkscape:connector-curvature="0"
     id="path3433"
     d="m 86.533955,70.036481 -0.283864,-3.083548 -0.919956,-1.972191 0.08317,-2.079288 -0.144403,-0.966173 -0.02551,-2.71107 c 0,0 0.12353,-2.821864 0.161298,-2.970244 0.03787,-0.148391 -0.166722,-4.41997 -0.166722,-4.41997 l 0.319081,3.529344 0.281483,3.6406 0.580464,3.19623 c 0,0 -0.638944,1.779815 -0.639738,1.965492 -5.93e-4,0.185676 0.620784,2.453674 0.768693,2.602858 0.147928,0.149185 0.238451,5.014457 0.238451,5.014457 l 0.0222,3.490946 z"
     style="fill:url(#radialGradient3443-9);fill-opacity:1;stroke:#b1b2b2;stroke-width:0.07877786;stroke-linecap:butt;stroke-linejoin:miter;stroke-miterlimit:4;stroke-dasharray:none;stroke-dashoffset:0;stroke-opacity:1"
     sodipodi:nodetypes="cccccccccccccccc" />
  <path
     inkscape:connector-curvature="0"
     id="path1171"
     d="M 8.8751683,3.5619594 11.140735,3.959424 8.7956744,22.242982 6.3711193,21.805766 Z"
     style="fill:#71121c;fill-opacity:1;stroke:none;stroke-width:0.11242112px;stroke-linecap:butt;stroke-linejoin:miter;stroke-opacity:1" />
  <path
     inkscape:connector-curvature="0"
     id="path1173"
     d="m 11.498458,12.942213 7.194181,-5.8030375 1.430891,1.7488626 -6.240254,5.1273419 6.001773,6.319753 -1.748867,1.510383 -6.836459,-7.35317 z"
     style="fill:#71121c;fill-opacity:1;stroke:none;stroke-width:0.11242112px;stroke-linecap:butt;stroke-linejoin:miter;stroke-opacity:1" />
  <path
     style="fill:#71121c;fill-opacity:1;stroke:none;stroke-width:0.3622641px;stroke-linecap:butt;stroke-linejoin:miter;stroke-opacity:1"
     d="m 33.043796,35.662903 7.300545,1.280784 -7.556705,58.916644 -7.812856,-1.408882 z"
     id="path1175"
     inkscape:connector-curvature="0" />
  <path
     inkscape:connector-curvature="0"
     id="path3435"
     d="m 19.582441,79.481527 2.507093,-7.240173 c 0,0 5.706949,-5.934796 6.557135,-7.503292 0.850205,-1.568469 6.906118,-5.045637 7.414462,-5.607149 0.508343,-0.561512 1.360316,-1.26384 1.360316,-1.26384 l -1.378979,-1.602094 0.410065,1.196493 -0.07433,0.993694 -2.938533,1.878502 -5.076422,2.850995 -4.317363,6.505122 -2.70646,3.228207 -1.812801,4.194448 c 0,0 0.01165,5.630006 0.002,7.094868 C 19.518574,85.67216 15.27159,95.24691 15.27159,95.24691 l -2.176772,6.83188 1.393926,-3.493004 3.7239,-10.146857 2.15376,-5.634497 -0.657226,-3.679824 z"
     style="fill:url(#radialGradient3445-9);fill-opacity:1;stroke:#b1b2b2;stroke-width:0.06302228;stroke-linecap:butt;stroke-linejoin:miter;stroke-miterlimit:4;stroke-dasharray:none;stroke-opacity:1"
     sodipodi:nodetypes="ccccccccccccccccccccc" />
  <path
     style="fill:#71121c;fill-opacity:1;stroke:none;stroke-width:0.3622641px;stroke-linecap:butt;stroke-linejoin:miter;stroke-opacity:1"
     d="M 41.497064,65.889704 64.679481,47.190071 69.29036,52.825579 49.181849,69.347831 68.521879,89.712519 62.886367,94.579559 40.856672,70.884824 Z"
     id="path1177"
     inkscape:connector-curvature="0" />
  <path
     inkscape:connector-curvature="0"
     id="path3439"
     d="m 61.009501,63.88907 -1.247816,-2.946419 c 0,0 -1.981282,-3.369723 -1.927392,-3.684615 0.05394,-0.314872 -0.715224,-4.677259 -0.715224,-4.677259 l -4.067781,-6.687365 -5.174067,-5.904328 -0.943682,-1.443988 0.502738,1.835763 1.155354,1.207256 3.770026,4.17547 2.693241,4.133715 1.919115,2.793468 0.06459,2.265617 0.579681,3.381912 2.103365,3.128499 z"
     style="fill:url(#radialGradient3449-8);fill-opacity:1;stroke:#b1b2b2;stroke-width:0.110289;stroke-linecap:butt;stroke-linejoin:miter;stroke-miterlimit:4;stroke-dasharray:none;stroke-opacity:1"
     sodipodi:nodetypes="cccccccccccccccc" />
  <path
     inkscape:connector-curvature="0"
     id="path1180"
     d="m 84.206251,130.86506 -2.272628,-0.39871 2.352374,-18.3405 2.432108,0.43858 z"
     style="fill:#71121c;fill-opacity:1;stroke:none;stroke-width:0.11277125px;stroke-linecap:butt;stroke-linejoin:miter;stroke-opacity:1" />
  <path
     inkscape:connector-curvature="0"
     id="path1182"
     d="m 81.574795,121.45558 -7.216591,5.82112 -1.435351,-1.75432 6.259701,-5.1433 -6.020475,-6.33944 1.75431,-1.51509 6.857754,7.37607 z"
     style="fill:#71121c;fill-opacity:1;stroke:none;stroke-width:0.11277125px;stroke-linecap:butt;stroke-linejoin:miter;stroke-opacity:1" />
</svg>
