<?xml version="1.0" encoding="UTF-8" standalone="no"?>
<!-- Created with Inkscape (http://www.inkscape.org/) -->

<svg
   xmlns:dc="http://purl.org/dc/elements/1.1/"
   xmlns:cc="http://creativecommons.org/ns#"
   xmlns:rdf="http://www.w3.org/1999/02/22-rdf-syntax-ns#"
   xmlns:svg="http://www.w3.org/2000/svg"
   xmlns="http://www.w3.org/2000/svg"
   xmlns:xlink="http://www.w3.org/1999/xlink"
   xmlns:sodipodi="http://sodipodi.sourceforge.net/DTD/sodipodi-0.dtd"
   xmlns:inkscape="http://www.inkscape.org/namespaces/inkscape"
   width="356"
   height="499"
   version="1.1"
   viewBox="0 0 94.192 132.03"
   id="svg61"
   sodipodi:docname="King_of_Hearts.svg"
   inkscape:version="0.92.4 (5da689c313, 2019-01-14)">
  <sodipodi:namedview
     pagecolor="#ffffff"
     bordercolor="#666666"
     borderopacity="1"
     objecttolerance="10"
     gridtolerance="10"
     guidetolerance="10"
     inkscape:pageopacity="0"
     inkscape:pageshadow="2"
     inkscape:window-width="1920"
     inkscape:window-height="1017"
     id="namedview63"
     showgrid="false"
     inkscape:zoom="1.6993988"
     inkscape:cx="-13.244104"
     inkscape:cy="249.5"
     inkscape:window-x="-8"
     inkscape:window-y="-8"
     inkscape:window-maximized="1"
     inkscape:current-layer="svg61" />
  <defs
     id="defs13">
    <linearGradient
       id="linearGradient1974-8">
      <stop
         stop-color="#565757"
         offset="0"
         id="stop2" />
      <stop
         stop-color="#373838"
         stop-opacity="0"
         offset="1"
         id="stop4" />
    </linearGradient>
    <radialGradient
       id="radialGradient1360"
       cx="161.11"
       cy="166.44"
       r="1.4032"
       gradientTransform="matrix(-.56671 .050266 -.73444 -8.2803 232.39 1566.7)"
       gradientUnits="userSpaceOnUse"
       xlink:href="#linearGradient1974-8" />
    <radialGradient
       id="radialGradient1362"
       cx="49.268"
       cy="149.25"
       r="6.7426"
       gradientTransform="matrix(1.1061 -.95493 3.358 3.8896 -535.57 -262.42)"
       gradientUnits="userSpaceOnUse"
       xlink:href="#linearGradient1974-8" />
    <radialGradient
       id="radialGradient1364"
       cx="138.44"
       cy="235.05"
       r="20.919"
       gradientTransform="matrix(-.21698 -.33554 .75474 -.48807 -86.448 353.66)"
       gradientUnits="userSpaceOnUse"
       xlink:href="#linearGradient1974-8" />
    <radialGradient
       id="radialGradient1366"
       cx="170.35"
       cy="66.049"
       r="12.035"
       gradientTransform="matrix(-.76799 .36121 -.58917 -1.2527 218.68 267.26)"
       gradientUnits="userSpaceOnUse"
       xlink:href="#linearGradient1974-8" />
    <radialGradient
       id="radialGradient1368"
       cx="80.302"
       cy="225.63"
       r="5.5573"
       gradientTransform="matrix(.44195 -.56924 2.2967 1.7831 -470.29 -181.19)"
       gradientUnits="userSpaceOnUse"
       xlink:href="#linearGradient1974-8" />
    <radialGradient
       id="radialGradient1370"
       cx="210.08"
       cy="90.623"
       r=".46312"
       gradientTransform="matrix(.59283 0 0 4.8358 -101.8 -246.45)"
       gradientUnits="userSpaceOnUse"
       xlink:href="#linearGradient1974-8" />
    <radialGradient
       inkscape:collect="always"
       xlink:href="#linearGradient1974-8"
       id="radialGradient1370-5"
       gradientUnits="userSpaceOnUse"
       gradientTransform="matrix(0.6004607,0,0,4.8979692,-103.71515,-417.56631)"
       cx="210.08463"
       cy="90.623199"
       fx="210.08463"
       fy="90.623199"
       r="0.46311602" />
    <radialGradient
       inkscape:collect="always"
       xlink:href="#linearGradient1974-8"
       id="radialGradient1344"
       gradientUnits="userSpaceOnUse"
       gradientTransform="matrix(-0.77787278,0.36585967,-0.59674919,-1.2687787,181.79149,72.278902)"
       cx="170.35481"
       cy="66.048706"
       fx="170.35481"
       fy="66.048706"
       r="12.034579" />
    <radialGradient
       inkscape:collect="always"
       xlink:href="#linearGradient1974-8"
       id="radialGradient1362-7"
       gradientUnits="userSpaceOnUse"
       gradientTransform="matrix(0.79474021,1.2486022,-4.3907374,2.794722,678.06299,-444.93161)"
       cx="49.268208"
       cy="149.24762"
       fx="49.268208"
       fy="149.24762"
       r="6.742619" />
    <radialGradient
       inkscape:collect="always"
       xlink:href="#linearGradient1974-8"
       id="radialGradient1237"
       gradientUnits="userSpaceOnUse"
       gradientTransform="matrix(0.16848795,0.36798161,-0.82771977,0.37898859,198.82704,-118.16225)"
       cx="138.43695"
       cy="235.05092"
       fx="138.43695"
       fy="235.05092"
       r="20.918684" />
    <radialGradient
       inkscape:collect="always"
       xlink:href="#linearGradient1974-8"
       id="radialGradient1360-3"
       gradientUnits="userSpaceOnUse"
       gradientTransform="matrix(-0.7847233,-0.26267385,4.2587343,-10.332873,-558.10584,1861.7152)"
       cx="161.11455"
       cy="166.44328"
       fx="161.11455"
       fy="166.44328"
       r="1.40318" />
    <radialGradient
       inkscape:collect="always"
       xlink:href="#linearGradient1974-8"
       id="radialGradient1368-7"
       gradientUnits="userSpaceOnUse"
       gradientTransform="matrix(0.17959166,0.89427515,-3.6005952,0.61279741,869.70643,-92.622205)"
       cx="80.301682"
       cy="225.62547"
       fx="80.301682"
       fy="225.62547"
       r="5.5573373" />
  </defs>
  <metadata
     id="metadata15">
    <rdf:RDF>
      <cc:Work
         rdf:about="">
        <dc:format>image/svg+xml</dc:format>
        <dc:type
           rdf:resource="http://purl.org/dc/dcmitype/StillImage" />
        <dc:title />
      </cc:Work>
    </rdf:RDF>
  </metadata>
  <path
     sodipodi:nodetypes="ccccccccccccccccccccccccccccccccccccc"
     inkscape:connector-curvature="0"
     id="path1324"
     d="M 4.6430596,1.0692778 14.649954,1.9662377 25.734788,1.0692778 36.460322,0.17232801 46.826497,1.0692778 H 57.372361 L 67.738565,1.9662377 78.464059,1.0692778 h 10.545875 l 4.311747,4.3053552 v 15.160075 15.160115 l -0.8983,16.774581 0.8983,13.545599 0.89827,17.312773 -0.89827,13.007437 -0.53898,16.415817 0.71863,11.93111 -4.491397,6.27862 H 78.464059 L 67.738565,130.0638 57.372361,130.96076 H 46.826497 l -10.725514,0.89692 -10.366195,-0.89692 H 15.188934 L 6.6192886,130.42258 0.33134218,126.6554 -0.02797761,113.10978 2.127881,96.873375 0.33134218,81.175098 V 66.015003 50.854908 L 1.4092514,35.874217 0.33134218,20.534708 V 5.374633 Z"
     style="fill:#8e8f8f;fill-opacity:1;stroke:#000000;stroke-width:0.55563727;stroke-miterlimit:4;stroke-dasharray:none;stroke-opacity:1" />
  <path
     style="fill:url(#radialGradient1370-5);fill-opacity:1;stroke:#7d7f7f;stroke-width:0.03177438;stroke-linecap:butt;stroke-linejoin:miter;stroke-miterlimit:4;stroke-dasharray:none;stroke-opacity:1"
     d="m 22.394808,28.569516 0.11243,-1.535304 -0.33701,-2.995717 0.524243,2.321682 z"
     id="path1348"
     inkscape:connector-curvature="0" />
  <path
     style="fill:#71121c;fill-opacity:1;stroke:none;stroke-width:0.86953878;stroke-linecap:butt;stroke-linejoin:miter;stroke-miterlimit:4;stroke-dasharray:none;stroke-opacity:1"
     d="m 25.646585,23.80882 c 0,0 1.275952,-1.512213 1.417743,-1.701267 0.141681,-0.189054 2.36286,-1.039673 2.36286,-1.039673 l 2.221119,0.330817 2.26836,1.937543 0.661606,1.7958 -0.472595,2.599167 -1.843035,3.024477 -2.693664,4.253164 -3.969634,5.292857 -1.559503,-1.843031 -2.504652,-3.686081 c 0,0 -2.079328,-2.26837 -2.126588,-2.457405 -0.04741,-0.189054 -2.173849,-3.260792 -2.173849,-3.260792 0,0 -1.039659,-2.315611 -1.039659,-2.504635 0,-0.189044 0.425303,-2.362882 0.425303,-2.362882 l 1.323222,-1.984804 1.984827,-0.803378 c 0,0 1.654015,0 1.937567,0.0474 0.283532,0.0474 1.890276,0.803378 1.890276,0.803378 l 1.228721,1.843061 z"
     id="path1308"
     inkscape:connector-curvature="0" />
  <path
     style="fill:#570e15;fill-opacity:1;stroke:#b41c2d;stroke-width:0.01588719;stroke-linecap:butt;stroke-linejoin:miter;stroke-miterlimit:4;stroke-dasharray:none;stroke-opacity:1"
     d="m 24.433364,28.621557 c 0,0.149733 -0.337021,1.160855 -0.337021,1.160855 l -0.861275,1.310629 -0.973604,0.973602 1.160848,-1.011062 c 0,0 0.599128,-0.599134 0.674031,-0.748927 0.07493,-0.149703 0.337021,-0.8987 0.337021,-0.8987 z"
     id="path1346"
     inkscape:connector-curvature="0" />
  <path
     style="fill:#570e15;fill-opacity:1;stroke:#b41c2d;stroke-width:0.01588719;stroke-linecap:butt;stroke-linejoin:miter;stroke-miterlimit:4;stroke-dasharray:none;stroke-opacity:1"
     d="m 31.279937,29.024646 -0.411914,1.235727 -0.898711,1.048503 -0.973616,1.497873 -0.524243,1.909752 -1.011061,1.273199 1.722539,-2.134458 0.187203,-1.085964 0.374477,-0.823798 0.636585,-0.823818 0.748925,-0.936171 z"
     id="path1350"
     inkscape:connector-curvature="0" />
  <path
     inkscape:connector-curvature="0"
     id="path1318"
     d="m 8.8940668,25.309784 c 0,0 0.6917297,-0.819829 0.768592,-0.922301 0.076742,-0.102562 1.2809632,-0.563632 1.2809632,-0.563632 l 1.204121,0.179374 1.229725,1.050423 0.358667,0.973531 -0.25617,1.409072 -0.999168,1.639636 -1.460303,2.305751 -2.1520413,2.869393 -0.8454443,-0.999172 -1.3578356,-1.998314 c 0,0 -1.1272489,-1.229737 -1.152873,-1.33222 -0.025715,-0.102342 -1.1784971,-1.767749 -1.1784971,-1.767749 0,0 -0.5636195,-1.255327 -0.5636195,-1.35783 0,-0.102552 0.2305666,-1.280958 0.2305666,-1.280958 l 0.7173439,-1.076034 1.0760209,-0.435529 c 0,0 0.8966824,0 1.0504068,0.0257 0.153624,0.0257 1.0247726,0.43551 1.0247726,0.43551 l 0.6661058,0.999172 z"
     style="fill:#71121c;fill-opacity:1;stroke:none;stroke-width:0.47139814;stroke-linecap:butt;stroke-linejoin:miter;stroke-miterlimit:4;stroke-dasharray:none;stroke-opacity:1" />
  <path
     style="fill:#570e15;fill-opacity:1;stroke:#b41c2d;stroke-width:0.01588719;stroke-linecap:butt;stroke-linejoin:miter;stroke-miterlimit:4;stroke-dasharray:none;stroke-opacity:1"
     d="m 10.819168,27.151794 v 0.90028 l -0.264789,1.456322 0.397178,-1.165055 0.07955,-0.794348 z"
     id="path1352"
     inkscape:connector-curvature="0" />
  <path
     style="fill:#71121c;fill-opacity:1;stroke:none;stroke-width:0.83823729;stroke-linecap:butt;stroke-linejoin:miter;stroke-miterlimit:4;stroke-dasharray:none;stroke-opacity:1"
     d="m 66.069002,108.86933 c 0,0 -1.230027,1.45779 -1.366705,1.64003 -0.136538,0.18225 -2.277762,1.00225 -2.277762,1.00225 l -2.141173,-0.3189 -2.186706,-1.86785 -0.63779,-1.73112 0.455579,-2.5056 1.77667,-2.9156 2.596721,-4.100058 3.826729,-5.102343 1.503373,1.776729 2.41448,3.553349 c 0,0 2.004475,2.186733 2.050038,2.368963 0.0455,0.18224 2.09561,3.1434 2.09561,3.1434 0,0 1.002232,2.23225 1.002232,2.41448 0,0.18226 -0.409985,2.2778 -0.409985,2.2778 l -1.275589,1.91338 -1.913379,0.77447 c 0,0 -1.5945,0 -1.867827,-0.0457 -0.273327,-0.0457 -1.822243,-0.77445 -1.822243,-0.77445 l -1.184453,-1.77675 z"
     id="path1320"
     inkscape:connector-curvature="0" />
  <path
     inkscape:connector-curvature="0"
     id="path1322"
     d="m 85.949547,107.58979 c 0,0 -0.675286,0.85609 -0.75032,0.96312 -0.07493,0.10689 -1.250458,0.58855 -1.250458,0.58855 l -1.175524,-0.1872 -1.200475,-1.09687 -0.350178,-1.01657 0.250123,-1.47144 0.975403,-1.71218 1.425577,-2.40774 2.100874,-2.996334 0.825325,1.043393 1.325571,2.086671 c 0,0 1.10041,1.28418 1.125441,1.39115 0.02491,0.10689 1.150483,1.84598 1.150483,1.84598 0,0 0.55024,1.31087 0.55024,1.41786 0,0.10688 -0.225102,1.33764 -0.225102,1.33764 l -0.700279,1.12365 -1.050436,0.45479 c 0,0 -0.875368,0 -1.025436,-0.0267 -0.150129,-0.0267 -1.000394,-0.45481 -1.000394,-0.45481 l -0.650275,-1.04334 z"
     style="fill:#71121c;fill-opacity:1;stroke:none;stroke-width:0.47595051;stroke-linecap:butt;stroke-linejoin:miter;stroke-miterlimit:4;stroke-dasharray:none;stroke-opacity:1" />
  <path
     inkscape:connector-curvature="0"
     id="path1356"
     d="m 65.398778,101.44367 -0.370701,1.19152 -1.218023,1.58873 c 0,0 -1.482792,2.03886 -1.509269,2.19775 -0.02642,0.15878 0.397167,2.03883 0.344222,2.25067 -0.05303,0.21184 0.23832,-0.29126 0.23832,-0.29126 l -0.264798,-0.66199 -0.132409,-1.16504 c 0,0 0.423656,-0.84733 0.503089,-0.9797 0.07945,-0.13243 1.535768,-1.61522 1.535768,-1.61522 0,0 0.926756,-1.40336 0.926756,-1.50927 0,-0.10585 -0.05304,-1.00619 -0.05304,-1.00619 z"
     style="fill:#570e15;fill-opacity:1;stroke:#b41c2d;stroke-width:0.03177438;stroke-linecap:butt;stroke-linejoin:miter;stroke-miterlimit:4;stroke-dasharray:none;stroke-opacity:1" />
  <path
     style="fill:#570e15;fill-opacity:1;stroke:#b41c2d;stroke-width:0.02422711;stroke-linecap:butt;stroke-linejoin:miter;stroke-miterlimit:4;stroke-dasharray:none;stroke-opacity:1"
     d="m 86.534602,106.51065 -0.610939,-0.39895 -0.688225,0.37119 c 0,0 -0.897275,0.3761 -0.982745,0.29426 -0.08538,-0.0819 -1.225507,-1.96962 -1.336371,-2.05692 -0.110873,-0.0871 0.123541,-0.0871 0.123541,-0.0871 l 0.421627,0.80864 0.683784,1.00763 c 0,0 0.4065,0.084 0.467733,0.0806 0.06117,-0.004 0.647754,-0.74854 0.647754,-0.74854 0,0 0.633983,-0.14181 0.69405,-0.0652 0.06007,0.0758 0.579811,0.79364 0.579811,0.79364 z"
     id="path1557"
     inkscape:connector-curvature="0" />
  <path
     inkscape:connector-curvature="0"
     id="path1559"
     d="m 84.168277,102.80203 0.990952,0.4178 1.070295,0.93016 c 0,0 1.401409,1.15225 1.541503,1.19613 0.140003,0.0438 2.053363,0.1833 2.234017,0.25077 0.180665,0.0676 -0.191,-0.17834 -0.191,-0.17834 l -0.713798,0.0102 -1.140558,-0.15342 c 0,0 -0.649191,-0.37961 -0.746022,-0.44575 -0.09683,-0.0662 -0.984996,-1.09896 -0.984996,-1.09896 0,0 -0.99716,-0.74473 -1.096663,-0.7649 -0.09954,-0.0206 -0.96373,-0.16412 -0.96373,-0.16412 z"
     style="fill:#570e15;fill-opacity:1;stroke:#b41c2d;stroke-width:0.02357106;stroke-linecap:butt;stroke-linejoin:miter;stroke-miterlimit:4;stroke-dasharray:none;stroke-opacity:1" />
  <path
     inkscape:connector-curvature="0"
     id="path1002"
     d="m 10.308133,31.519071 -1.8654259,-1.32917 -2.2485313,-2.429063 1.2604218,2.138457 1.4150303,1.256538 z"
     style="fill:#570e15;fill-opacity:1;stroke:#b41c2d;stroke-width:0.0404138;stroke-linecap:butt;stroke-linejoin:miter;stroke-miterlimit:4;stroke-dasharray:none;stroke-opacity:1" />
  <path
     style="fill:url(#radialGradient1344);fill-opacity:1;stroke:#b1b2b2;stroke-width:0.11121033;stroke-linecap:butt;stroke-linejoin:miter;stroke-miterlimit:4;stroke-dasharray:none;stroke-opacity:1"
     d="m 17.021915,66.880182 -1.258242,-2.971035 c 0,0 -1.997825,-3.397866 -1.943493,-3.715383 0.05434,-0.317507 -0.721192,-4.716324 -0.721192,-4.716324 L 8.997216,48.734191 3.7799266,42.78054 2.8283699,41.324497 l 0.5069371,1.851111 1.164977,1.217327 3.8015158,4.210363 2.7157612,4.168232 1.935156,2.816813 0.06509,2.28454 0.584522,3.410156 2.120954,3.154649 z"
     id="path1342"
     inkscape:connector-curvature="0" />
  <path
     style="fill:url(#radialGradient1362-7);fill-opacity:1;stroke:#b1b2b2;stroke-width:0.06354877;stroke-linecap:butt;stroke-linejoin:miter;stroke-miterlimit:4;stroke-dasharray:none;stroke-opacity:1"
     d="m 65.338414,34.64502 -6.531934,4.126041 c 0,0 -8.231299,1.083744 -9.888265,1.784349 -1.656958,0.700576 -8.616384,-0.371498 -9.37028,-0.249065 -0.753887,0.122413 -1.867124,0.139513 -1.867124,0.139513 l 0.07815,2.130077 0.429975,-1.200726 0.684005,-0.736047 3.497291,0.369518 5.793686,0.948941 7.495483,-2.407643 4.16395,-0.839868 4.068072,-2.163508 c 0,0 3.534226,-4.442778 4.463834,-5.590714 0.92961,-1.147905 10.301858,-6.017933 10.301858,-6.017933 l 6.01473,-4.012278 -3.296567,1.874531 -9.319997,5.650165 -5.243014,3.083448 -1.798206,3.312683 z"
     id="path1338"
     inkscape:connector-curvature="0" />
  <path
     style="fill:#71121c;fill-opacity:1;stroke:none;stroke-width:0.11242111px;stroke-linecap:butt;stroke-linejoin:miter;stroke-opacity:1"
     d="M 9.0143523,2.5348202 11.279919,2.932289 8.9348584,21.215843 6.5103033,20.778623 Z"
     id="path1225"
     inkscape:connector-curvature="0" />
  <path
     style="fill:#71121c;fill-opacity:1;stroke:none;stroke-width:0.11242111px;stroke-linecap:butt;stroke-linejoin:miter;stroke-opacity:1"
     d="m 11.637642,11.915078 7.194182,-5.8030387 1.43089,1.7488586 -6.240253,5.1273431 6.001771,6.31975 -1.748866,1.510383 -6.836459,-7.353162 z"
     id="path1227"
     inkscape:connector-curvature="0" />
  <path
     style="fill:url(#radialGradient1237);fill-opacity:1;stroke:#b1b2b2;stroke-width:0.06354877;stroke-linecap:butt;stroke-linejoin:miter;stroke-miterlimit:4;stroke-dasharray:none;stroke-opacity:1"
     d="m 38.125697,16.395227 c -0.188529,0.185904 -6.206142,2.817282 -6.439189,2.942975 -0.233058,0.125652 -6.428714,2.516115 -6.428714,2.516115 l -7.382047,6.014483 -3.975049,0.795828 3.980252,-0.473751 2.30445,-1.796229 4.498881,-3.930247 6.855544,-2.505616 9.733467,-4.911958 z"
     id="path1340"
     inkscape:connector-curvature="0" />
  <path
     inkscape:connector-curvature="0"
     id="path1229"
     d="M 33.18298,34.63577 40.483525,35.916548 32.926819,94.8332 25.113964,93.424319 Z"
     style="fill:#71121c;fill-opacity:1;stroke:none;stroke-width:0.36226413px;stroke-linecap:butt;stroke-linejoin:miter;stroke-opacity:1" />
  <path
     style="fill:url(#radialGradient1360-3);fill-opacity:1;stroke:#b1b2b2;stroke-width:0.10954567;stroke-linecap:butt;stroke-linejoin:miter;stroke-miterlimit:4;stroke-dasharray:none;stroke-dashoffset:0;stroke-opacity:1"
     d="m 20.89731,107.57423 1.565189,-3.83668 0.02441,-2.87271 1.418605,-2.43136 0.417087,-1.233628 1.672487,-3.246121 c 0,0 1.939395,-3.293693 2.082733,-3.449127 0.143459,-0.155553 2.561294,-5.363248 2.561294,-5.363248 l -1.79914,4.388057 -1.918914,4.499339 -1.243778,4.139252 c 0,0 -1.96528,1.759199 -2.083175,1.980066 -0.117563,0.22094 -0.7231,3.27694 -0.621347,3.53866 0.101784,0.26156 -2.840476,6.11262 -2.840476,6.11262 l -2.167541,4.17393 z"
     id="path1336"
     inkscape:connector-curvature="0" />
  <path
     inkscape:connector-curvature="0"
     id="path1231"
     d="m 41.636248,64.862568 23.182416,-18.699634 4.61088,5.635505 -20.10851,16.522255 19.340028,20.3647 -5.635511,4.867038 -22.029694,-23.694744 z"
     style="fill:#71121c;fill-opacity:1;stroke:none;stroke-width:0.36226413px;stroke-linecap:butt;stroke-linejoin:miter;stroke-opacity:1" />
  <path
     style="fill:#71121c;fill-opacity:1;stroke:none;stroke-width:0.11277124px;stroke-linecap:butt;stroke-linejoin:miter;stroke-opacity:1"
     d="m 84.345436,129.83792 -2.27263,-0.3987 2.352374,-18.3405 2.432109,0.43859 z"
     id="path1233"
     inkscape:connector-curvature="0" />
  <path
     style="fill:#71121c;fill-opacity:1;stroke:none;stroke-width:0.11277124px;stroke-linecap:butt;stroke-linejoin:miter;stroke-opacity:1"
     d="m 81.71398,120.42846 -7.216592,5.82111 -1.435351,-1.75432 6.259701,-5.1433 -6.020475,-6.33944 1.75431,-1.51509 6.857754,7.37607 z"
     id="path1235"
     inkscape:connector-curvature="0" />
  <path
     style="fill:url(#radialGradient1368-7);fill-opacity:1;stroke:#b1b2b2;stroke-width:0.09886678;stroke-linecap:butt;stroke-linejoin:miter;stroke-miterlimit:4;stroke-dasharray:none;stroke-opacity:1"
     d="m 80.82245,118.23276 c 0,0 -5.288688,0.90747 -6.115247,1.00325 -0.826531,0.0958 -11.822871,0.48766 -11.822871,0.48766 l -3.216973,-1.02698 -1.460031,-0.63352 1.612319,0.0509 1.954522,1.0668 2.932447,0.13574 7.545666,-0.32474 2.704742,-1.51771 4.785889,-0.0939 c 0,0 5.187558,-1.00278 5.558479,-1.20933 0.370861,-0.20654 -4.478942,2.06188 -4.478942,2.06188 z"
     id="path1344"
     inkscape:connector-curvature="0" />
</svg>
