<?xml version="1.0" encoding="UTF-8" standalone="no"?>
<!-- Created with Inkscape (http://www.inkscape.org/) -->

<svg
   xmlns:dc="http://purl.org/dc/elements/1.1/"
   xmlns:cc="http://creativecommons.org/ns#"
   xmlns:rdf="http://www.w3.org/1999/02/22-rdf-syntax-ns#"
   xmlns:svg="http://www.w3.org/2000/svg"
   xmlns="http://www.w3.org/2000/svg"
   xmlns:xlink="http://www.w3.org/1999/xlink"
   xmlns:sodipodi="http://sodipodi.sourceforge.net/DTD/sodipodi-0.dtd"
   xmlns:inkscape="http://www.inkscape.org/namespaces/inkscape"
   width="356"
   height="499"
   version="1.1"
   viewBox="0 0 94.192 132.03"
   id="svg60"
   sodipodi:docname="Queen_of_Spades.svg"
   inkscape:version="0.92.4 (5da689c313, 2019-01-14)">
  <sodipodi:namedview
     pagecolor="#ffffff"
     bordercolor="#666666"
     borderopacity="1"
     objecttolerance="10"
     gridtolerance="10"
     guidetolerance="10"
     inkscape:pageopacity="0"
     inkscape:pageshadow="2"
     inkscape:window-width="1920"
     inkscape:window-height="1017"
     id="namedview62"
     showgrid="false"
     inkscape:zoom="1.6993988"
     inkscape:cx="82.377948"
     inkscape:cy="249.5"
     inkscape:window-x="-8"
     inkscape:window-y="-8"
     inkscape:window-maximized="1"
     inkscape:current-layer="svg60" />
  <defs
     id="defs14">
    <linearGradient
       id="linearGradient1974-8">
      <stop
         stop-color="#565757"
         offset="0"
         id="stop2" />
      <stop
         stop-color="#373838"
         stop-opacity="0"
         offset="1"
         id="stop4" />
    </linearGradient>
    <radialGradient
       id="radialGradient3592"
       cx="487.83"
       cy="209.78"
       r="1.5552"
       gradientTransform="matrix(.27936 .48876 -.84722 .48424 90.647 -125.55)"
       gradientUnits="userSpaceOnUse"
       xlink:href="#linearGradient1974-8" />
    <radialGradient
       id="radialGradient1501"
       cx="161.11"
       cy="166.44"
       r="1.4032"
       gradientTransform="matrix(.33729 -.46589 6.8072 4.9282 -1131.7 -533.28)"
       gradientUnits="userSpaceOnUse"
       xlink:href="#linearGradient1974-8" />
    <radialGradient
       id="radialGradient1505"
       cx="138.44"
       cy="235.05"
       r="20.919"
       gradientTransform="matrix(-.21936 -.33921 .76301 -.49342 -116.23 436.51)"
       gradientUnits="userSpaceOnUse"
       xlink:href="#linearGradient1974-8" />
    <radialGradient
       id="radialGradient1509"
       cx="49.268"
       cy="149.25"
       r="6.7426"
       gradientTransform="matrix(1.1182 -.96539 3.3948 3.9322 -484.18 -349.72)"
       gradientUnits="userSpaceOnUse"
       xlink:href="#linearGradient1974-8" />
    <radialGradient
       id="radialGradient1513"
       cx="170.35"
       cy="66.049"
       r="12.035"
       gradientTransform="matrix(-.061902 -.85577 1.3958 -.10097 -57.474 327.71)"
       gradientUnits="userSpaceOnUse"
       xlink:href="#linearGradient1974-8" />
    <radialGradient
       id="radialGradient1519"
       cx="161.11"
       cy="166.44"
       r="1.4032"
       gradientTransform="matrix(-.57292 .050816 -.74249 -8.371 294.5 1665.5)"
       gradientUnits="userSpaceOnUse"
       xlink:href="#linearGradient1974-8" />
    <radialGradient
       id="radialGradient1523"
       cx="80.302"
       cy="225.63"
       r="5.5573"
       gradientTransform="matrix(.44679 -.57548 2.3219 1.8027 -476.37 -107.29)"
       gradientUnits="userSpaceOnUse"
       xlink:href="#linearGradient1974-8" />
    <radialGradient
       inkscape:collect="always"
       xlink:href="#linearGradient1974-8"
       id="radialGradient1501-8"
       gradientUnits="userSpaceOnUse"
       gradientTransform="matrix(0.33730093,-0.46590036,6.8073352,4.9283513,-1136.8443,-710.46361)"
       cx="161.11455"
       cy="166.44328"
       fx="161.11455"
       fy="166.44328"
       r="1.40318" />
    <radialGradient
       inkscape:collect="always"
       xlink:href="#linearGradient1974-8"
       id="radialGradient3592-5"
       cx="487.82748"
       cy="209.77856"
       fx="487.82748"
       fy="209.77856"
       r="1.5551749"
       gradientTransform="matrix(0.27936242,0.48876949,-0.84723883,0.48425014,108.17703,-285.56925)"
       gradientUnits="userSpaceOnUse" />
    <radialGradient
       inkscape:collect="always"
       xlink:href="#linearGradient1974-8"
       id="radialGradient1513-2"
       gradientUnits="userSpaceOnUse"
       gradientTransform="matrix(-0.06190355,-0.85578423,1.3958591,-0.10097014,-34.838375,169.47152)"
       cx="170.35481"
       cy="66.048706"
       fx="170.35481"
       fy="66.048706"
       r="12.034579" />
    <radialGradient
       inkscape:collect="always"
       xlink:href="#linearGradient1974-8"
       id="radialGradient1523-9"
       gradientUnits="userSpaceOnUse"
       gradientTransform="matrix(0.44680138,-0.5754964,2.3219339,1.8026929,-484.20302,-242.2271)"
       cx="80.301682"
       cy="225.62547"
       fx="80.301682"
       fy="225.62547"
       r="5.5573373" />
    <radialGradient
       inkscape:collect="always"
       xlink:href="#linearGradient1974-8"
       id="radialGradient1244"
       gradientUnits="userSpaceOnUse"
       gradientTransform="matrix(-0.2193638,-0.33922068,0.76302634,-0.4934262,-72.991299,230.21675)"
       cx="138.43695"
       cy="235.05092"
       fx="138.43695"
       fy="235.05092"
       r="20.918684" />
    <radialGradient
       inkscape:collect="always"
       xlink:href="#linearGradient1974-8"
       id="radialGradient1509-2"
       gradientUnits="userSpaceOnUse"
       gradientTransform="matrix(1.1182441,-0.9654142,3.3949009,3.9323306,-523.65068,-442.56472)"
       cx="49.268208"
       cy="149.24762"
       fx="49.268208"
       fy="149.24762"
       r="6.742619" />
    <radialGradient
       inkscape:collect="always"
       xlink:href="#linearGradient1974-8"
       id="radialGradient1519-5"
       gradientUnits="userSpaceOnUse"
       gradientTransform="matrix(-0.45131261,-0.35658375,5.2100954,-6.5941918,-774.83471,1201.5881)"
       cx="161.11455"
       cy="166.44328"
       fx="161.11455"
       fy="166.44328"
       r="1.40318" />
    <radialGradient
       inkscape:collect="always"
       xlink:href="#linearGradient1974-8"
       id="radialGradient1113"
       gradientUnits="userSpaceOnUse"
       gradientTransform="matrix(0.50775076,-0.27022992,3.9483672,7.4188178,-660.9842,-1173.737)"
       cx="161.11455"
       cy="166.44328"
       fx="161.11455"
       fy="166.44328"
       r="1.40318" />
  </defs>
  <metadata
     id="metadata16">
    <rdf:RDF>
      <cc:Work
         rdf:about="">
        <dc:format>image/svg+xml</dc:format>
        <dc:type
           rdf:resource="http://purl.org/dc/dcmitype/StillImage" />
        <dc:title />
      </cc:Work>
    </rdf:RDF>
  </metadata>
  <path
     sodipodi:nodetypes="ccccccccccccccccccccccccccccccccccccc"
     inkscape:connector-curvature="0"
     id="path1497"
     d="M 4.7218787,1.1898351 14.710189,2.0851349 25.774454,1.1898351 36.480061,0.29454535 46.827009,1.1898351 H 57.353292 L 67.700251,2.0851349 78.405847,1.1898351 h 10.526286 l 4.303747,4.297355 V 20.619145 35.751109 l -0.89661,16.74345 0.89661,13.520464 0.896589,17.280612 -0.896589,12.983297 -0.537982,16.385338 0.717296,11.90897 -4.483061,6.26697 H 78.405847 l -10.705596,-0.8953 -10.346959,0.8953 H 46.827009 l -10.705616,0.89525 -10.346939,-0.89525 H 15.248161 L 6.6944223,130.30302 0.41814252,126.54285 0.05950459,113.02237 2.2113521,96.816093 0.41814252,81.146957 V 66.015023 50.883063 L 1.4940463,35.930163 0.41814252,20.619145 V 5.4871901 Z"
     style="fill:#8e8f8f;fill-opacity:1;stroke:#000011;stroke-width:0.55563727;stroke-miterlimit:4;stroke-dasharray:none;stroke-opacity:1" />
  <path
     style="fill:#000000;fill-opacity:1;stroke:none;stroke-width:0.1011306px;stroke-linecap:butt;stroke-linejoin:miter;stroke-opacity:1"
     d="m 89.180881,126.0798 -10.467016,1.11243 -0.96074,-1.06186 -0.606784,-12.43907 -1.061872,-0.75848 1.061872,-1.82035 1.719218,1.11243 11.124369,-0.60678 1.213567,1.16301 -1.011305,12.33793 z"
     id="path1051"
     inkscape:connector-curvature="0" />
  <path
     style="fill:#000000;fill-opacity:1;stroke:none;stroke-width:0.42677879px;stroke-linecap:butt;stroke-linejoin:miter;stroke-opacity:1"
     d="m 26.145843,34.924145 44.171601,-4.694559 4.054397,4.481169 2.560672,52.493796 4.481182,3.200851 -4.481182,7.68202 -7.255231,-4.694564 -46.945678,2.560676 -5.121344,-4.907978 4.267785,-52.066998 z"
     id="path1032"
     inkscape:connector-curvature="0" />
  <path
     style="fill:#000000;fill-opacity:1;stroke:none;stroke-width:0.88009953;stroke-linecap:butt;stroke-linejoin:miter;stroke-miterlimit:4;stroke-dasharray:none;stroke-opacity:1"
     d="m 19.924975,24.167879 3.65278,-5.343878 2.908685,-4.599792 1.217597,-1.691087 1.555804,2.164608 3.990998,5.140933 2.841043,4.599792 0.0677,2.502825 -1.352879,2.164608 -2.164608,1.082294 H 30.61277 l -1.488173,-1.35287 0.0677,-0.744086 -0.135223,2.029314 0.94701,1.149956 1.014653,0.811718 -5.952662,-0.202925 1.555815,-1.285238 0.405869,-1.488163 -0.473511,-0.541162 -1.217597,1.420532 -1.961673,0.0677 c 0,0 -2.029325,-0.947011 -2.299901,-1.082314 -0.270566,-0.135223 -1.894032,-2.299881 -1.894032,-2.570467 0,-0.270576 0.744097,-2.232239 0.744097,-2.232239 z"
     id="path1487"
     inkscape:connector-curvature="0" />
  <path
     style="fill:#8e8f8f;fill-opacity:1;stroke:none;stroke-width:0.42677879px;stroke-linecap:butt;stroke-linejoin:miter;stroke-opacity:1"
     d="M 30.627008,43.459723 65.83627,39.618715 66.903222,80.376094 53.246295,70.133407 47.698177,77.388654 57.51408,84.430493 27.852952,86.991166 Z"
     id="path1034"
     inkscape:connector-curvature="0" />
  <path
     inkscape:connector-curvature="0"
     id="path1491"
     d="m 4.872012,28.515769 2.0726659,-3.032207 1.6504464,-2.610028 0.6908853,-0.959551 0.8827794,1.228237 2.26458,2.917055 1.612066,2.610027 0.0383,1.420152 -0.767647,1.228237 -1.228237,0.614114 h -1.151466 l -0.844439,-0.767647 0.0383,-0.4222 -0.0767,1.151466 0.537351,0.652504 0.575733,0.46059 -3.3776645,-0.115122 0.8828095,-0.729256 0.2302951,-0.844439 -0.2686859,-0.307067 -0.6908853,0.806058 -1.1130846,0.0383 c 0,0 -1.1514854,-0.537372 -1.3049988,-0.614134 -0.1535334,-0.0767 -1.0747238,-1.304989 -1.0747238,-1.458522 0,-0.153533 0.4222093,-1.266638 0.4222093,-1.266638 z"
     style="fill:#000000;fill-opacity:1;stroke:none;stroke-width:0.49938565;stroke-linecap:butt;stroke-linejoin:miter;stroke-miterlimit:4;stroke-dasharray:none;stroke-opacity:1" />
  <path
     style="fill:#000000;fill-opacity:1;stroke:none;stroke-width:0.52187294;stroke-linecap:butt;stroke-linejoin:miter;stroke-miterlimit:4;stroke-dasharray:none;stroke-opacity:1"
     d="m 90.1776,103.85039 -2.166008,3.16875 -1.724758,2.72755 -0.721996,1.00275 -0.922563,-1.28354 -2.366532,-3.04841 -1.684658,-2.72753 -0.0401,-1.48412 0.802217,-1.28355 1.283539,-0.64175 h 1.203336 l 0.88244,0.80221 -0.0401,0.44121 0.0801,-1.20332 -0.561553,-0.681904 -0.601663,-0.481311 3.529761,0.120333 -0.922551,0.762102 -0.240655,0.88244 0.280766,0.3209 0.721996,-0.84234 1.163216,-0.0401 c 0,0 1.203327,0.56155 1.36376,0.64178 0.160454,0.0801 1.123115,1.36376 1.123115,1.5242 0,0.16043 -0.44121,1.32366 -0.44121,1.32366 z"
     id="path1495"
     inkscape:connector-curvature="0" />
  <path
     style="fill:#8e8f8f;fill-opacity:1;stroke:none;stroke-width:0.1011306px;stroke-linecap:butt;stroke-linejoin:miter;stroke-opacity:1"
     d="m 88.119013,124.05719 -8.343278,0.91018 -0.252827,-9.65798 3.23618,2.42714 1.314696,-1.71923 -2.326001,-1.66865 7.028577,-0.60678 z"
     id="path1053"
     inkscape:connector-curvature="0" />
  <path
     style="fill:url(#radialGradient1501-8);fill-opacity:1;stroke:#b1b2b2;stroke-width:0.0792885;stroke-linecap:butt;stroke-linejoin:miter;stroke-miterlimit:4;stroke-dasharray:none;stroke-dashoffset:0;stroke-opacity:1"
     d="m 45.271667,30.874095 2.530576,1.81928 2.105856,0.602434 1.525184,1.435441 0.829508,0.527892 2.077066,1.769719 c 0,0 2.062846,1.956193 2.150678,2.082816 0.0879,0.126683 3.468806,2.790272 3.468806,2.790272 L 57.066748,39.815273 54.114432,37.626584 51.30246,35.958348 c 0,0 -0.93086,-1.660137 -1.071424,-1.78328 -0.140723,-0.122933 -2.27429,-1.147525 -2.485254,-1.133585 -0.210895,0.0145 -3.967978,-3.128069 -3.967978,-3.128069 l -2.667509,-2.286901 z"
     id="path1499"
     inkscape:connector-curvature="0" />
  <path
     inkscape:connector-curvature="0"
     id="path3582"
     d="m 64.927585,73.907867 c 0,0 0.037,0.831869 0.0183,0.979762 -0.0183,0.147823 -0.0183,1.737668 -0.0183,1.737668 l 0.184824,-1.737668 -0.0555,-1.016723 0.0142,-0.600783 -0.0414,-0.0831 z"
     style="display:inline;fill:#0d0d0d;fill-opacity:0;stroke:#b1b2b2;stroke-width:0.03137152;stroke-linecap:butt;stroke-linejoin:miter;stroke-miterlimit:4;stroke-dasharray:none;stroke-opacity:1" />
  <path
     inkscape:connector-curvature="0"
     id="path3584"
     d="m 65.841505,55.280941 0.221815,-0.378949 0.4252,-0.4714 0.817988,-0.43903 0.341977,-0.147823 -0.355837,0.203344 -0.522222,0.485261 -0.360468,0.124843 c 0,0 -0.254176,0.240305 -0.281916,0.263406 -0.0277,0.0232 -0.258816,0.46215 -0.258816,0.46215 z"
     style="display:inline;fill:url(#radialGradient3592-5);fill-opacity:1;stroke:#b1b2b2;stroke-width:0.03137152;stroke-linecap:butt;stroke-linejoin:miter;stroke-miterlimit:4;stroke-dasharray:none;stroke-opacity:1" />
  <path
     style="fill:url(#radialGradient1513-2);fill-opacity:1;stroke:#b1b2b2;stroke-width:0.11100388;stroke-linecap:butt;stroke-linejoin:miter;stroke-miterlimit:4;stroke-dasharray:none;stroke-opacity:1"
     d="m 29.268143,17.920473 3.218721,-0.106882 c 0,0 3.881496,-0.642735 4.157792,-0.478271 0.276356,0.164324 4.651953,1.019212 4.651953,1.019212 l 7.752171,-1.403111 7.416584,-2.72539 1.697528,-0.364338 -1.906122,-0.191484 -1.551645,0.648724 -5.285076,2.031615 -4.856548,1.035293 -3.317743,0.792688 -2.151458,-0.758527 -3.386224,-0.678205 -3.699052,0.844638 z"
     id="path1511"
     inkscape:connector-curvature="0" />
  <path
     inkscape:connector-curvature="0"
     id="path1080"
     d="m 73.40279,110.08409 -3.65278,5.34388 -2.908685,4.59979 -1.217596,1.69109 -1.555805,-2.16461 -3.990998,-5.14093 -2.841043,-4.5998 -0.0677,-2.50282 1.35288,-2.16461 2.164607,-1.08229 h 2.029325 l 1.488173,1.35287 -0.0677,0.74408 0.135223,-2.02931 -0.947011,-1.14996 -1.014653,-0.81171 5.952662,0.20292 -1.555815,1.28524 -0.405868,1.48816 0.47351,0.54116 1.217597,-1.42053 1.961673,-0.0677 c 0,0 2.029325,0.94701 2.299901,1.08231 0.270566,0.13523 1.894032,2.29988 1.894032,2.57047 0,0.27058 -0.744097,2.23224 -0.744097,2.23224 z"
     style="fill:#000000;fill-opacity:1;stroke:none;stroke-width:0.88009953;stroke-linecap:butt;stroke-linejoin:miter;stroke-miterlimit:4;stroke-dasharray:none;stroke-opacity:1" />
  <path
     style="fill:url(#radialGradient1523-9);fill-opacity:1;stroke:#b1b2b2;stroke-width:0.0792885;stroke-linecap:butt;stroke-linejoin:miter;stroke-miterlimit:4;stroke-dasharray:none;stroke-opacity:1"
     d="m 71.122419,112.52558 c 0,0 3.415056,2.64399 3.920777,3.08138 0.505721,0.43736 6.696838,6.71974 6.696838,6.71974 l 1.116724,2.43729 0.404979,1.19409 -0.841818,-0.97804 -0.409109,-1.71332 -1.504863,-1.80149 -4.282325,-4.28164 -2.387473,-0.79898 -2.647958,-2.77445 c 0,0 -3.418256,-2.53428 -3.744703,-2.64469 -0.326417,-0.11035 3.678931,1.56011 3.678931,1.56011 z"
     id="path1521"
     inkscape:connector-curvature="0" />
  <path
     style="fill:url(#radialGradient1244);fill-opacity:1;stroke:#b1b2b2;stroke-width:0.0634308;stroke-linecap:butt;stroke-linejoin:miter;stroke-miterlimit:4;stroke-dasharray:none;stroke-opacity:1"
     d="m 66.376473,74.1901 c 0.159504,-0.210764 5.724577,-3.675631 5.936701,-3.833314 0.212105,-0.157654 5.987743,-3.410163 5.987743,-3.410163 l 6.426032,-7.002754 3.811724,-1.358 -3.863215,1.040623 -2.017705,2.105726 -3.878146,4.52927 -6.410851,3.461224 -8.907217,6.252088 z"
     id="path1503"
     inkscape:connector-curvature="0" />
  <path
     style="fill:url(#radialGradient1509-2);fill-opacity:1;stroke:#b1b2b2;stroke-width:0.0634308;stroke-linecap:butt;stroke-linejoin:miter;stroke-miterlimit:4;stroke-dasharray:none;stroke-opacity:1"
     d="m 38.571418,93.239304 5.019301,5.85454 c 0,0 2.26034,7.972686 3.19182,9.507846 0.931451,1.53517 0.87881,8.56342 1.108715,9.29028 0.229885,0.72686 0.407709,1.82383 0.407709,1.82383 l 2.092416,-0.38507 -1.248028,-0.25106 -0.825798,-0.56912 -0.140573,-3.50742 0.0995,-5.85912 -3.461466,-7.05461 -1.431462,-3.990978 -2.72485,-3.704902 c 0,0 -4.898728,-2.848163 -6.166846,-3.60031 -1.268088,-0.752126 -7.432775,-9.304258 -7.432775,-9.304258 l -4.832206,-5.360189 2.327931,2.984746 6.927633,8.387739 3.803274,4.732294 3.531648,1.297019 z"
     id="path1507"
     inkscape:connector-curvature="0" />
  <path
     style="fill:url(#radialGradient1519-5);fill-opacity:1;stroke:#b1b2b2;stroke-width:0.0792885;stroke-linecap:butt;stroke-linejoin:miter;stroke-miterlimit:4;stroke-dasharray:none;stroke-dashoffset:0;stroke-opacity:1"
     d="m 15.529921,51.673259 1.924022,-2.451884 0.690405,-2.078666 1.498243,-1.463533 0.562293,-0.806587 1.855481,-2.000835 c 0,0 2.041155,-1.978803 2.171358,-2.061245 0.130243,-0.0825 2.933605,-3.348454 2.933605,-3.348454 l -2.206419,2.802332 -2.310831,2.857723 -1.78494,2.73938 c 0,0 -1.697787,0.860259 -1.82673,0.995522 -0.128763,0.135383 -1.242107,2.22405 -1.237037,2.435414 0.005,0.211285 -3.292063,3.832995 -3.292063,3.832995 l -2.396993,2.569037 z"
     id="path1517"
     inkscape:connector-curvature="0" />
  <path
     inkscape:connector-curvature="0"
     id="path1111"
     d="m 74.983322,11.729969 1.473408,2.746392 1.626739,1.466707 0.739074,1.959701 0.51306,0.838766 1.0878,2.502566 c 0,0 0.993094,2.663783 1.01634,2.816129 0.02329,0.152406 1.889342,4.030951 1.889342,4.030951 L 81.648053,24.945473 79.958196,21.6819 78.165643,18.947496 c 0,0 -0.106438,-1.900315 -0.178569,-2.072708 -0.07231,-0.172277 -1.538447,-2.030371 -1.734072,-2.110568 -0.195525,-0.08023 -2.189255,-4.553756 -2.189255,-4.553756 L 72.672886,6.9838512 Z"
     style="fill:url(#radialGradient1113);fill-opacity:1;stroke:#b1b2b2;stroke-width:0.0792885;stroke-linecap:butt;stroke-linejoin:miter;stroke-miterlimit:4;stroke-dasharray:none;stroke-dashoffset:0;stroke-opacity:1" />
  <path
     inkscape:connector-curvature="0"
     id="path1011"
     d="m 7.1971824,5.8600453 10.4670166,-1.1124345 0.96074,1.0618694 0.606783,12.4390658 1.061873,0.758481 -1.061873,1.820351 L 17.512504,19.714941 6.3881356,20.321723 5.1745687,19.158721 6.1858741,6.8207896 Z"
     style="fill:#000000;fill-opacity:1;stroke:none;stroke-width:0.1011306px;stroke-linecap:butt;stroke-linejoin:miter;stroke-opacity:1" />
  <path
     inkscape:connector-curvature="0"
     id="path1013"
     d="m 8.2590509,7.882658 8.3432771,-0.9101751 0.252828,9.6579731 -3.236181,-2.427133 -1.314696,1.719222 2.326002,1.668653 -7.0285776,0.606783 z"
     style="fill:#8e8f8f;fill-opacity:1;stroke:none;stroke-width:0.1011306px;stroke-linecap:butt;stroke-linejoin:miter;stroke-opacity:1" />
</svg>
