<?xml version="1.0" encoding="UTF-8" standalone="no"?>
<!-- Created with Inkscape (http://www.inkscape.org/) -->

<svg
   xmlns:dc="http://purl.org/dc/elements/1.1/"
   xmlns:cc="http://creativecommons.org/ns#"
   xmlns:rdf="http://www.w3.org/1999/02/22-rdf-syntax-ns#"
   xmlns:svg="http://www.w3.org/2000/svg"
   xmlns="http://www.w3.org/2000/svg"
   xmlns:xlink="http://www.w3.org/1999/xlink"
   xmlns:sodipodi="http://sodipodi.sourceforge.net/DTD/sodipodi-0.dtd"
   xmlns:inkscape="http://www.inkscape.org/namespaces/inkscape"
   width="356"
   height="499"
   version="1.1"
   viewBox="0 0 94.192 132.03"
   id="svg65"
   sodipodi:docname="skin_1 — копия.svg"
   inkscape:version="0.92.4 (5da689c313, 2019-01-14)">
  <sodipodi:namedview
     pagecolor="#ffffff"
     bordercolor="#666666"
     borderopacity="1"
     objecttolerance="10"
     gridtolerance="10"
     guidetolerance="10"
     inkscape:pageopacity="0"
     inkscape:pageshadow="2"
     inkscape:window-width="1920"
     inkscape:window-height="1017"
     id="namedview67"
     showgrid="false"
     inkscape:zoom="1.6993988"
     inkscape:cx="178"
     inkscape:cy="249.5"
     inkscape:window-x="-8"
     inkscape:window-y="-8"
     inkscape:window-maximized="1"
     inkscape:current-layer="svg65" />
  <defs
     id="defs13">
    <linearGradient
       id="linearGradient1974-8">
      <stop
         stop-color="#565757"
         offset="0"
         id="stop2" />
      <stop
         stop-color="#373838"
         stop-opacity="0"
         offset="1"
         id="stop4" />
    </linearGradient>
    <radialGradient
       id="radialGradient1996"
       cx="55.241"
       cy="82.346"
       r="17.586"
       gradientTransform="matrix(.25704 .23241 -.70952 .7847 61.433 111.81)"
       gradientUnits="userSpaceOnUse"
       xlink:href="#linearGradient1974-8" />
    <radialGradient
       id="radialGradient2968"
       cx="161.11"
       cy="166.44"
       r="1.4032"
       gradientTransform="matrix(.56649 -.052696 .76995 8.277 -139.75 -1129.7)"
       gradientUnits="userSpaceOnUse"
       xlink:href="#linearGradient1974-8" />
    <radialGradient
       id="radialGradient3016"
       cx="49.268"
       cy="149.25"
       r="6.7426"
       gradientTransform="matrix(1.4296 -.3024 1.0634 5.0274 -215.89 -506.1)"
       gradientUnits="userSpaceOnUse"
       xlink:href="#linearGradient1974-8" />
    <radialGradient
       id="radialGradient3026"
       cx="138.44"
       cy="235.05"
       r="20.919"
       gradientTransform="matrix(.21842 .3346 -.75264 .4913 212.78 118.4)"
       gradientUnits="userSpaceOnUse"
       xlink:href="#linearGradient1974-8" />
    <radialGradient
       id="radialGradient3328"
       cx="170.35"
       cy="66.049"
       r="12.035"
       gradientTransform="matrix(.76644 -.3645 .59454 1.2501 -83.601 161.19)"
       gradientUnits="userSpaceOnUse"
       xlink:href="#linearGradient1974-8" />
    <radialGradient
       id="radialGradient3429"
       cx="80.302"
       cy="225.63"
       r="5.5573"
       gradientTransform="matrix(.67068 -.2637 1.064 2.706 -262.26 -314.75)"
       gradientUnits="userSpaceOnUse"
       xlink:href="#linearGradient1974-8" />
    <radialGradient
       inkscape:collect="always"
       xlink:href="#linearGradient1974-8"
       id="radialGradient2968-6"
       cx="161.11455"
       cy="166.44328"
       fx="161.11455"
       fy="166.44328"
       r="1.40318"
       gradientTransform="matrix(0.56650068,-0.05269703,0.76996376,8.2772214,-209.73,-1353.4293)"
       gradientUnits="userSpaceOnUse" />
    <radialGradient
       inkscape:collect="always"
       xlink:href="#linearGradient1974-8"
       id="radialGradient3016-4"
       cx="49.268208"
       cy="149.24762"
       fx="49.268208"
       fy="149.24762"
       r="6.742619"
       gradientTransform="matrix(1.4296773,-0.30240337,1.0634083,5.0274926,-192.69857,-699.52248)"
       gradientUnits="userSpaceOnUse" />
    <radialGradient
       inkscape:collect="always"
       xlink:href="#linearGradient1974-8"
       id="radialGradient1518"
       gradientUnits="userSpaceOnUse"
       gradientTransform="matrix(0.2184227,0.33460896,-0.75265301,0.49130932,208.29801,-71.648956)"
       cx="138.43695"
       cy="235.05092"
       fx="138.43695"
       fy="235.05092"
       r="20.918684" />
    <radialGradient
       inkscape:collect="always"
       xlink:href="#linearGradient1974-8"
       id="radialGradient3328-7"
       cx="170.35481"
       cy="66.048706"
       fx="170.35481"
       fy="66.048706"
       r="12.034579"
       gradientTransform="matrix(0.81837687,0.22490125,-0.36683368,1.3348444,-34.276342,-16.423501)"
       gradientUnits="userSpaceOnUse" />
    <radialGradient
       inkscape:collect="always"
       xlink:href="#linearGradient1974-8"
       id="radialGradient3429-3"
       cx="80.301682"
       cy="225.62547"
       fx="80.301682"
       fy="225.62547"
       r="5.5573373"
       gradientTransform="matrix(0.67069883,-0.26370892,1.0639765,2.7060437,-284.72075,-471.87966)"
       gradientUnits="userSpaceOnUse" />
    <radialGradient
       inkscape:collect="always"
       xlink:href="#linearGradient1974-8"
       id="radialGradient1996-3"
       cx="55.241447"
       cy="82.345695"
       fx="55.241447"
       fy="82.345695"
       r="17.586334"
       gradientTransform="matrix(0.25704001,0.23241328,-0.70952116,0.78470269,426.82261,36.002995)"
       gradientUnits="userSpaceOnUse" />
  </defs>
  <metadata
     id="metadata15">
    <rdf:RDF>
      <cc:Work
         rdf:about="">
        <dc:format>image/svg+xml</dc:format>
        <dc:type
           rdf:resource="http://purl.org/dc/dcmitype/StillImage" />
        <dc:title />
      </cc:Work>
    </rdf:RDF>
  </metadata>
  <path
     style="fill:#8e8f8f;fill-opacity:1;stroke:#00000c;stroke-width:0.55563727;stroke-miterlimit:4;stroke-dasharray:none;stroke-opacity:1"
     d="M 5.423875,1.6597893 15.246722,2.54858 26.127663,1.6597893 36.655935,0.77099969 46.83145,1.6597893 H 57.183359 L 67.358904,2.54858 77.887146,1.6597893 h 10.351899 l 4.232454,4.2661903 V 20.948232 35.970494 l -0.88177,16.622057 0.88177,13.422447 0.881759,17.155339 -0.881759,12.889175 -0.529062,16.266548 0.705416,11.82263 -4.408808,6.22152 H 77.887146 l -10.528242,-0.88879 -10.175545,0.88879 H 46.83145 L 36.303207,131.259 26.127663,130.37021 H 15.775784 L 7.3637379,129.83694 1.1914215,126.10403 0.83872366,112.68158 2.9549504,96.592783 1.1914215,81.03724 V 66.014998 50.992736 L 2.2495348,36.148258 1.1914215,20.948232 V 5.9259796 Z"
     id="path1094"
     inkscape:connector-curvature="0"
     sodipodi:nodetypes="ccccccccccccccccccccccccccccccccccccc" />
  <path
     style="fill:url(#radialGradient2968-6);fill-opacity:1;stroke:#b1b2b2;stroke-width:0.07842885;stroke-linecap:butt;stroke-linejoin:miter;stroke-miterlimit:4;stroke-dasharray:none;stroke-dashoffset:0;stroke-opacity:1"
     d="m 9.1606976,9.3168525 0.2957765,3.0686595 0.9242909,1.959504 -0.0739,2.070415 0.147883,0.961262 0.037,2.698929 c 0,0 -0.110912,2.809862 -0.147883,2.957736 -0.037,0.147893 0.184854,4.399637 0.184854,4.399637 L 10.19598,23.920687 9.9002039,20.297457 9.3086608,17.117887 c 0,0 0.6285139,-1.774639 0.6285139,-1.959493 0,-0.184864 -0.6285139,-2.440134 -0.7764071,-2.588018 C 9.0128843,12.422483 8.9019719,7.5791841 8.9019719,7.5791841 L 8.864971,4.1038473 Z"
     id="path2960"
     inkscape:connector-curvature="0" />
  <path
     style="fill:url(#radialGradient3016-4);fill-opacity:1;stroke:#b1b2b2;stroke-width:0.06274307;stroke-linecap:butt;stroke-linejoin:miter;stroke-miterlimit:4;stroke-dasharray:none;stroke-opacity:1"
     d="m 38.519736,33.0819 1.552805,7.468275 c 0,0 -1.848581,7.985896 -1.77464,9.760535 0.0739,1.77465 -3.327453,7.838004 -3.475336,8.57744 -0.147894,0.739436 -0.517612,1.774639 -0.517612,1.774639 l 1.996474,0.665495 -0.961261,-0.813388 -0.44366,-0.88731 1.552815,-3.105628 2.883793,-5.028151 0.369709,-7.764062 0.665494,-4.140831 -0.591543,-4.51054 c 0,0 -2.883794,-4.806326 -3.62323,-6.063364 C 35.414108,27.757962 34.15707,17.405883 34.15707,17.405883 l -1.626756,-6.950671 0.591553,3.697169 1.996464,10.573904 1.035213,5.915481 2.440134,2.809852 z"
     id="path3000"
     inkscape:connector-curvature="0" />
  <path
     style="fill:url(#radialGradient1518);fill-opacity:1;stroke:#b1b2b2;stroke-width:0.06274307;stroke-linecap:butt;stroke-linejoin:miter;stroke-miterlimit:4;stroke-dasharray:none;stroke-opacity:1"
     d="m 71.104527,83.275929 c -0.156854,0.209155 -5.646875,3.660021 -5.85601,3.816874 -0.209145,0.156864 -5.90831,3.398585 -5.90831,3.398585 l -6.32659,6.954024 -3.764583,1.35943 3.816864,-1.045713 1.986864,-2.091436 3.816874,-4.49659 6.32659,-3.450866 8.784034,-6.222027 z"
     id="path3018"
     inkscape:connector-curvature="0" />
  <path
     style="fill:url(#radialGradient3328-7);fill-opacity:1;stroke:#b1b2b2;stroke-width:0.10980038;stroke-linecap:butt;stroke-linejoin:miter;stroke-miterlimit:4;stroke-dasharray:none;stroke-opacity:1"
     d="m 85.858883,93.398713 -0.963352,3.036427 c 0,0 -0.682575,3.83136 -0.92715,4.03468 -0.244586,0.20329 -2.486625,4.00088 -2.486625,4.00088 l -1.251838,7.69151 0.0918,7.81528 -0.220885,1.70309 0.808008,-1.71403 -0.0924,-1.66104 -0.148883,-5.59871 0.638564,-4.87013 0.356588,-3.35526 1.417741,-1.7555 1.750639,-2.933346 0.434079,-3.727942 z"
     id="path3320"
     inkscape:connector-curvature="0" />
  <path
     style="fill:url(#radialGradient3429-3);fill-opacity:1;stroke:#b1b2b2;stroke-width:0.07842885;stroke-linecap:butt;stroke-linejoin:miter;stroke-miterlimit:4;stroke-dasharray:none;stroke-opacity:1"
     d="m 8.3346193,110.34824 c 0,0 1.5685747,3.97373 1.7777197,4.60116 0.209144,0.62743 2.30058,9.09775 2.30058,9.09775 l -0.281566,2.6369 -0.258795,1.22007 -0.221835,-1.25704 0.517601,-1.66373 -0.369718,-2.29225 -1.478863,-5.80456 -1.6267558,-1.88555 -0.8503488,-3.69717 c 0,0 -1.6267559,-3.88204 -1.8485908,-4.14084 -0.2218249,-0.2588 2.3405717,3.18526 2.3405717,3.18526 z"
     id="path3421"
     inkscape:connector-curvature="0" />
  <path
     style="fill:#666b7a;fill-opacity:0.88627451;stroke:none;stroke-width:0.26458916px;stroke-linecap:butt;stroke-linejoin:miter;stroke-opacity:1"
     d="m 50.321167,25.015021 7.887575,10.969103 -1.124505,2.315161 -1.124505,-2.844333 -3.17507,-4.828757 -2.284431,-4.058369 z"
     id="path1378"
     inkscape:connector-curvature="0"
     sodipodi:nodetypes="ccccccc" />
  <path
     style="fill:#666b7a;fill-opacity:0.88627451;stroke:none;stroke-width:0.26458916px;stroke-linecap:butt;stroke-linejoin:miter;stroke-opacity:1"
     d="m 62.508317,42.036608 2.083636,2.645888 2.778191,4.06806 2.71204,3.770393 -0.165374,3.108929 c 0,0 -1.256798,-1.951353 -1.35602,-2.116717 -0.0992,-0.165373 -2.315151,-2.943555 -2.414373,-3.141999 -0.0992,-0.198445 -1.752899,-4.134202 -1.752899,-4.134202 l -2.480525,-2.877413 z"
     id="path1380"
     inkscape:connector-curvature="0" />
  <path
     style="fill:#666b7a;fill-opacity:0.88627451;stroke:none;stroke-width:0.26458916px;stroke-linecap:butt;stroke-linejoin:miter;stroke-opacity:1"
     d="m 44.334715,30.283728 0.46772,13.891637 -1.216107,13.798095 -1.216107,-2.385433 0.795148,-7.296611 0.701606,-4.770876 -0.280647,-6.782109 -0.654804,-5.098283 z"
     id="path1382"
     inkscape:connector-curvature="0" />
  <path
     style="fill:#666b7a;fill-opacity:0.88627451;stroke:none;stroke-width:0.26458916px;stroke-linecap:butt;stroke-linejoin:miter;stroke-opacity:1"
     d="m 43.586328,77.571433 v 2.946715 l 2.853173,14.125502 -0.327407,2.432204 -1.683847,-1.683827 0.233875,-3.507998 -2.058025,-10.757827 0.187084,-3.60154 z"
     id="path1384"
     inkscape:connector-curvature="0" />
  <path
     style="fill:#666b7a;fill-opacity:0.88627451;stroke:none;stroke-width:0.26458916px;stroke-linecap:butt;stroke-linejoin:miter;stroke-opacity:1"
     d="m 45.442319,103.71896 -0.396888,4.69645 -0.661475,7.07776 -1.521384,0.99221 0.529172,-5.55637 0.992212,-7.40849 z"
     id="path1386"
     inkscape:connector-curvature="0" />
  <path
     style="fill:#666b7a;fill-opacity:0.88627451;stroke:none;stroke-width:0.26458916px;stroke-linecap:butt;stroke-linejoin:miter;stroke-opacity:1"
     d="m 23.646778,36.678669 2.579747,4.398797 -1.918273,1.752909 c 0,0 -0.727616,-2.414383 -0.727616,-2.546676 0,-0.132293 0.0661,-3.60503 0.0661,-3.60503 z"
     id="path1388"
     inkscape:connector-curvature="0" />
  <path
     style="fill:#666b7a;fill-opacity:0.88627451;stroke:none;stroke-width:0.26458916px;stroke-linecap:butt;stroke-linejoin:miter;stroke-opacity:1"
     d="m 29.533888,46.766132 c 0.132293,0 0.231515,0.396889 0.231515,0.396889 l 1.81905,5.820959 5.655595,6.383221 3.704252,7.640008 -1.091434,0.529182 -1.852121,-4.299575 -1.653687,-3.935767 -5.523292,-5.854039 -1.984424,-6.217838 z"
     id="path1390"
     inkscape:connector-curvature="0" />
  <path
     style="fill:#666b7a;fill-opacity:0.88627451;stroke:none;stroke-width:0.26458916px;stroke-linecap:butt;stroke-linejoin:miter;stroke-opacity:1"
     d="m 50.041031,79.816543 c 0.187094,0.0468 9.822377,4.911188 9.822377,4.911188 l 10.617515,3.320903 -1.262858,0.514502 -10.336899,-3.367675 -8.933667,-4.583771 z"
     id="path1392"
     inkscape:connector-curvature="0" />
  <path
     style="fill:#666b7a;fill-opacity:0.88627451;stroke:none;stroke-width:0.26458916px;stroke-linecap:butt;stroke-linejoin:miter;stroke-opacity:1"
     d="m 23.646778,73.952673 3.803474,0.529182 0.496101,-0.396889 -4.299575,-1.885192 z"
     id="path1394"
     inkscape:connector-curvature="0" />
  <path
     style="fill:#666b7a;fill-opacity:0.88627451;stroke:none;stroke-width:0.26458916px;stroke-linecap:butt;stroke-linejoin:miter;stroke-opacity:1"
     d="m 35.95018,76.664713 7.673089,0.92606 -0.0661,0.760697 -8.830665,-1.124505 z"
     id="path1396"
     inkscape:connector-curvature="0" />
  <path
     style="fill:#666b7a;fill-opacity:0.88627451;stroke:none;stroke-width:0.26458916px;stroke-linecap:butt;stroke-linejoin:miter;stroke-opacity:1"
     d="m 23.547566,85.396156 c 0,0 7.673079,7.937675 7.937675,7.871524 0.264586,-0.0661 4.299565,3.17507 4.299565,3.17507 l 8.202271,6.94547 1.389091,0.26459 -0.0661,1.65369 L 43.59024,103.9174 31.088404,93.664569 23.21688,86.189923 Z"
     id="path1398"
     inkscape:connector-curvature="0" />
  <path
     style="fill:#666b7a;fill-opacity:0.88627451;stroke:none;stroke-width:0.26458916px;stroke-linecap:butt;stroke-linejoin:miter;stroke-opacity:1"
     d="m 51.678097,105.82245 7.624039,2.19834 11.31912,6.92243 -1e-5,1.12256 -11.365881,-7.43694 -7.904675,-1.9177 z"
     id="path1400"
     inkscape:connector-curvature="0" />
  <path
     style="fill:#666b7a;fill-opacity:0.88627451;stroke:none;stroke-width:0.26458916px;stroke-linecap:butt;stroke-linejoin:miter;stroke-opacity:1"
     d="m 69.91681,55.629878 -0.363808,10.252827 0.628404,15.478462 -2.24901,-0.727616 0.132293,-15.147735 0.859919,-11.575776 z"
     id="path1402"
     inkscape:connector-curvature="0"
     sodipodi:nodetypes="ccccccc" />
  <path
     style="fill:#666b7a;fill-opacity:0.88627451;stroke:none;stroke-width:0.26458916px;stroke-linecap:butt;stroke-linejoin:miter;stroke-opacity:1"
     d="m 70.480923,88.048634 0.140333,19.644746 -1.216107,-0.98224 -0.187084,-18.148004 z"
     id="path1404"
     inkscape:connector-curvature="0" />
  <path
     style="fill:#666b7a;fill-opacity:0.88627451;stroke:none;stroke-width:0.26458916px;stroke-linecap:butt;stroke-linejoin:miter;stroke-opacity:1"
     d="m 17.364799,13.470646 -0.43197,34.287698 1.455242,11.77422 -1.058353,8.996029 v 11.906513 l -1.322949,13.494048 1.190656,11.906516 v 10.98045 L 15.477597,114.83171 15.213001,104.11584 14.286941,93.135387 16.800536,78.847571 16.006769,68.528593 17.329718,59.400271 15.477597,48.353677 16.07292,14.353966 Z"
     id="path1406"
     inkscape:connector-curvature="0"
     sodipodi:nodetypes="ccccccccccccccccc" />
  <path
     style="fill:#666b7a;fill-opacity:0.88627451;stroke:none;stroke-width:0.26458916px;stroke-linecap:butt;stroke-linejoin:miter;stroke-opacity:1"
     d="m 66.411003,36.182568 2.645898,-6.680877 1.389091,-2.513596 -0.396879,14.816998 0.46303,0.727616 0.396879,-9.657504 -0.0661,-7.871524 -2.579747,3.439656 -2.844333,6.747019 z"
     id="path1408"
     inkscape:connector-curvature="0" />
  <path
     style="fill:#666b7a;fill-opacity:0.88627451;stroke:none;stroke-width:0.26458916px;stroke-linecap:butt;stroke-linejoin:miter;stroke-opacity:1"
     d="m 56.589276,36.878754 -2.385433,5.659555 -2.806392,7.857893 -1.216107,2.993487 1.262888,-1.309649 6.80246,-16.109446 -1.610645,0.674284 z"
     id="path1410"
     inkscape:connector-curvature="0"
     sodipodi:nodetypes="cccccccc" />
  <path
     style="fill:#9da1ad;fill-opacity:1;stroke:none;stroke-width:0.26458916px;stroke-linecap:butt;stroke-linejoin:miter;stroke-opacity:1"
     d="m 77.075938,13.585699 -0.140313,6.080514 c 0,0 -0.0468,14.078731 0,14.265826 0.0468,0.187094 -0.0468,5.659555 -0.0468,5.659555 l -0.514491,12.020715 0.420959,-1.543514 0.467711,-15.575474 -0.187085,-14.873879 0.327428,-5.89343 z"
     id="path1412"
     inkscape:connector-curvature="0" />
  <path
     style="fill:#9da1ad;fill-opacity:1;stroke:none;stroke-width:0.26458916px;stroke-linecap:butt;stroke-linejoin:miter;stroke-opacity:1"
     d="m 62.482706,41.977026 -5.238606,12.862635 -7.998207,10.991702 -0.0468,-0.654824 5.285377,-6.969214 2.71284,-3.648301 3.695092,-9.635283 z"
     id="path1414"
     inkscape:connector-curvature="0" />
  <path
     style="fill:#9da1ad;fill-opacity:1;stroke:none;stroke-width:0.26458916px;stroke-linecap:butt;stroke-linejoin:miter;stroke-opacity:1"
     d="m 49.386207,68.263567 0.187084,4.349906 c 0,0 -0.327398,-0.420959 -0.327398,-0.608043 0,-0.187094 -0.0935,-3.367674 -0.0935,-3.367674 z"
     id="path1416"
     inkscape:connector-curvature="0" />
  <path
     style="fill:#9da1ad;fill-opacity:1;stroke:none;stroke-width:0.26458916px;stroke-linecap:butt;stroke-linejoin:miter;stroke-opacity:1"
     d="m 76.374353,74.016674 0.420959,11.225568 0.140313,6.78211 -0.0468,11.178798 0.0468,13.33036 -0.374188,-1.02901 c 0,0 0.0936,-4.58377 0.0936,-4.77086 0,-0.1871 0.140313,-8.13854 0.140313,-8.13854 l -0.280646,-6.59502 -0.0468,-9.728825 -0.374188,-9.307875 -0.327397,-7.530477 z"
     id="path1418"
     inkscape:connector-curvature="0" />
  <path
     style="fill:#9da1ad;fill-opacity:1;stroke:none;stroke-width:0.26458916px;stroke-linecap:butt;stroke-linejoin:miter;stroke-opacity:1"
     d="m 53.969998,74.71827 c 0.187094,0 7.998217,3.975718 7.998217,3.975718 l 8.372395,2.71285 -0.514502,0.280636 -8.980468,-3.18057 z"
     id="path1420"
     inkscape:connector-curvature="0" />
  <path
     style="fill:#9da1ad;fill-opacity:1;stroke:none;stroke-width:0.26458916px;stroke-linecap:butt;stroke-linejoin:miter;stroke-opacity:1"
     d="m 49.900718,79.723 0.88868,4.022499 2.011244,10.477192 -0.514491,5.145054 -0.374179,-0.187095 0.654835,-5.051501 -1.590315,-8.372405 -1.403201,-5.986972 z"
     id="path1422"
     inkscape:connector-curvature="0" />
  <path
     style="fill:#9da1ad;fill-opacity:1;stroke:none;stroke-width:0.26458916px;stroke-linecap:butt;stroke-linejoin:miter;stroke-opacity:1"
     d="m 62.014966,102.36123 7.530496,4.49023 1.169326,1.02901 -0.374178,-0.0935 -1.730599,-1.26288 -6.641796,-3.92894 z"
     id="path1424"
     inkscape:connector-curvature="0" />
  <path
     style="fill:#9da1ad;fill-opacity:1;stroke:none;stroke-width:0.26458916px;stroke-linecap:butt;stroke-linejoin:miter;stroke-opacity:1"
     d="m 51.537784,105.72891 -0.187084,2.9467 -0.46774,5.51924 -0.140313,2.43221 -0.187095,-2.05802 0.514492,-5.75311 0.140313,-2.33866 z"
     id="path1426"
     inkscape:connector-curvature="0" />
  <path
     style="fill:#9da1ad;fill-opacity:1;stroke:none;stroke-width:0.26458916px;stroke-linecap:butt;stroke-linejoin:miter;stroke-opacity:1"
     d="m 28.806002,81.406838 6.220837,6.033743 3.367665,2.853163 5.051511,4.256364 2.899954,2.71284 -0.327427,-0.0935 -2.198348,-1.730608 -5.488712,-4.9493 -5.622524,-4.729534 -4.001908,-3.803464 z"
     id="path1428"
     inkscape:connector-curvature="0" />
  <path
     style="fill:#9da1ad;fill-opacity:1;stroke:none;stroke-width:0.26458916px;stroke-linecap:butt;stroke-linejoin:miter;stroke-opacity:1"
     d="m 23.28676,85.289013 -0.795148,8.044988 0.841919,7.577259 0.233875,3.92896 -0.327407,-0.0935 -0.187084,-4.537 -0.935481,-6.641794 0.327427,-3.64831 0.280616,-4.349906 z"
     id="path1430"
     inkscape:connector-curvature="0" />
  <path
     style="fill:#9da1ad;fill-opacity:1;stroke:none;stroke-width:0.26458916px;stroke-linecap:butt;stroke-linejoin:miter;stroke-opacity:1"
     d="m 23.520625,110.12558 c 0.0468,0.28064 0.0468,6.26761 0.0468,6.26761 l -0.420959,-0.14032 0.0468,-3.18057 z"
     id="path1432"
     inkscape:connector-curvature="0" />
  <path
     style="fill:#9da1ad;fill-opacity:1;stroke:none;stroke-width:0.26458916px;stroke-linecap:butt;stroke-linejoin:miter;stroke-opacity:1"
     d="m 23.812151,72.232845 -0.0662,4.99412 -0.198434,-0.0992 -0.0331,-4.99412 z"
     id="path1434"
     inkscape:connector-curvature="0" />
  <path
     style="fill:#9da1ad;fill-opacity:1;stroke:none;stroke-width:0.26458916px;stroke-linecap:butt;stroke-linejoin:miter;stroke-opacity:1"
     d="m 35.024119,70.083057 6.052474,-3.108918 0.0992,0.297656 -5.721746,2.910485 z"
     id="path1436"
     inkscape:connector-curvature="0" />
  <path
     style="fill:#9da1ad;fill-opacity:1;stroke:none;stroke-width:0.26458916px;stroke-linecap:butt;stroke-linejoin:miter;stroke-opacity:1"
     d="m 24.142889,51.925626 0.429959,7.011615 -0.429959,6.35014 -0.297667,-0.165373 0.529182,-6.383211 -0.46303,-6.680878 z"
     id="path1438"
     inkscape:connector-curvature="0" />
  <path
     style="fill:#9da1ad;fill-opacity:1;stroke:none;stroke-width:0.26458916px;stroke-linecap:butt;stroke-linejoin:miter;stroke-opacity:1"
     d="m 50.321687,25.091903 0.514492,6.080515 0.374178,13.14327 -0.631414,8.676422 -0.44435,0.350808 0.280626,-2.24512 0.608054,-7.343392 -0.374189,-10.290098 -0.608053,-8.13854 z"
     id="path1440"
     inkscape:connector-curvature="0"
     sodipodi:nodetypes="cccccccccc" />
  <path
     style="fill:#9da1ad;fill-opacity:1;stroke:none;stroke-width:0.26458916px;stroke-linecap:butt;stroke-linejoin:miter;stroke-opacity:1"
     d="m 44.241163,29.862769 -2.151568,2.71285 -3.554778,4.537 -2.291871,2.666069 -2.24512,2.151567 0.327408,0.327418 2.432203,-2.525756 3.040268,-3.695082 3.320913,-4.162822 1.35641,-1.590285 z"
     id="path1442"
     inkscape:connector-curvature="0" />
  <path
     style="fill:#9da1ad;fill-opacity:1;stroke:none;stroke-width:0.26458916px;stroke-linecap:butt;stroke-linejoin:miter;stroke-opacity:1"
     d="m 35.681674,44.502782 1.730598,5.566013 h -0.327407 l -1.449972,-5.00473 z"
     id="path1444"
     inkscape:connector-curvature="0" />
  <path
     style="fill:#9da1ad;fill-opacity:1;stroke:none;stroke-width:0.26458916px;stroke-linecap:butt;stroke-linejoin:miter;stroke-opacity:1"
     d="m 17.375799,13.486297 5.302907,8.799214 8.372415,14.219054 -0.187084,0.187095 -5.940211,-10.243337 -5.051512,-8.60627 z"
     id="path1446"
     inkscape:connector-curvature="0"
     sodipodi:nodetypes="ccccccc" />
  <path
     style="fill:#9da1ad;fill-opacity:0.88627451;stroke:none;stroke-width:0.26458916px;stroke-linecap:butt;stroke-linejoin:miter;stroke-opacity:1"
     d="m 23.547566,36.612528 2.943545,4.398797 h -0.297657 z"
     id="path1448"
     inkscape:connector-curvature="0"
     sodipodi:nodetypes="cccc" />
  <g
     id="g1466"
     transform="matrix(-0.85098799,-0.52522723,0.52522723,-0.85098799,335.46674,360.94547)">
    <path
       inkscape:connector-curvature="0"
       id="path1214"
       d="m 388.03058,102.84808 c -0.44365,1.03518 -1.92248,1.7746 -1.92248,1.7746 l -2.36614,4.73228 -2.51402,5.91534 -3.99286,4.28862 -4.28862,6.80265 3.5492,-4.88016 2.51403,-3.25344 3.5492,-3.10555 1.7746,-4.43651 2.07037,-5.17592 7.39418,-4.73228 z"
       style="fill:url(#radialGradient1996-3);fill-opacity:1;stroke:none;stroke-width:0.15685423px;stroke-linecap:butt;stroke-linejoin:miter;stroke-opacity:1" />
    <path
       inkscape:connector-curvature="0"
       id="path1216"
       d="m 373.90223,124.99482 4.39192,-5.80361 4.28734,-4.02592 3.86908,-9.77725 7.21529,-4.54877"
       style="fill:none;stroke:#b1b2b2;stroke-width:0.10979795;stroke-linecap:butt;stroke-linejoin:miter;stroke-miterlimit:4;stroke-dasharray:none;stroke-opacity:1" />
    <path
       inkscape:connector-curvature="0"
       id="path1218"
       d="m 393.48286,100.91769 -5.54218,1.93454 -0.4967,0.83655 -0.75813,0.65356 -0.60128,0.28757 -2.32667,4.75791 -1.98682,4.4442 -0.60127,1.43784 -2.71881,2.98023 -1.28098,1.28097 -4.10435,6.53559"
       style="fill:none;stroke:#b1b2b2;stroke-width:0.10979795;stroke-linecap:butt;stroke-linejoin:miter;stroke-miterlimit:4;stroke-dasharray:none;stroke-opacity:1" />
  </g>
  <path
     style="fill:#9da1ad;fill-opacity:0.88627451;stroke:none;stroke-width:0.26458916px;stroke-linecap:butt;stroke-linejoin:miter;stroke-opacity:1"
     d="m 50.041031,13.351834 4.770865,6.828881 4.06927,5.659565 2.338652,3.461216 -0.233845,-0.0468 -2.759631,-3.835395 -3.741853,-5.378918 -3.741842,-5.004741 -0.982232,-1.309649 z"
     id="path1450"
     inkscape:connector-curvature="0" />
  <path
     style="fill:#9da1ad;fill-opacity:0.88627451;stroke:none;stroke-width:0.26458916px;stroke-linecap:butt;stroke-linejoin:miter;stroke-opacity:1"
     d="m 40.803327,53.90419 1.543504,1.590295 1.37983,2.689459 -0.304036,-0.163703 -1.075794,-2.151568 -1.590285,-1.683837 z"
     id="path1452"
     inkscape:connector-curvature="0" />
</svg>
