<?xml version="1.0" encoding="UTF-8" standalone="no"?>
<!-- Created with Inkscape (http://www.inkscape.org/) -->

<svg
   xmlns:dc="http://purl.org/dc/elements/1.1/"
   xmlns:cc="http://creativecommons.org/ns#"
   xmlns:rdf="http://www.w3.org/1999/02/22-rdf-syntax-ns#"
   xmlns:svg="http://www.w3.org/2000/svg"
   xmlns="http://www.w3.org/2000/svg"
   xmlns:xlink="http://www.w3.org/1999/xlink"
   xmlns:sodipodi="http://sodipodi.sourceforge.net/DTD/sodipodi-0.dtd"
   xmlns:inkscape="http://www.inkscape.org/namespaces/inkscape"
   width="356"
   height="499"
   version="1.1"
   viewBox="0 0 94.192 132.03"
   id="svg65"
   sodipodi:docname="skin_9.svg"
   inkscape:version="0.92.4 (5da689c313, 2019-01-14)">
  <sodipodi:namedview
     pagecolor="#ffffff"
     bordercolor="#666666"
     borderopacity="1"
     objecttolerance="10"
     gridtolerance="10"
     guidetolerance="10"
     inkscape:pageopacity="0"
     inkscape:pageshadow="2"
     inkscape:window-width="1920"
     inkscape:window-height="1017"
     id="namedview67"
     showgrid="false"
     inkscape:zoom="1.6993988"
     inkscape:cx="-108.86616"
     inkscape:cy="249.5"
     inkscape:window-x="-8"
     inkscape:window-y="-8"
     inkscape:window-maximized="1"
     inkscape:current-layer="svg65" />
  <defs
     id="defs13">
    <linearGradient
       id="linearGradient1974-8">
      <stop
         stop-color="#565757"
         offset="0"
         id="stop2" />
      <stop
         stop-color="#373838"
         stop-opacity="0"
         offset="1"
         id="stop4" />
    </linearGradient>
    <radialGradient
       id="radialGradient1996"
       cx="55.241"
       cy="82.346"
       r="17.586"
       gradientTransform="matrix(.25704 .23241 -.70952 .7847 61.433 111.81)"
       gradientUnits="userSpaceOnUse"
       xlink:href="#linearGradient1974-8" />
    <radialGradient
       id="radialGradient2968"
       cx="161.11"
       cy="166.44"
       r="1.4032"
       gradientTransform="matrix(.56649 -.052696 .76995 8.277 -139.75 -1129.7)"
       gradientUnits="userSpaceOnUse"
       xlink:href="#linearGradient1974-8" />
    <radialGradient
       id="radialGradient3016"
       cx="49.268"
       cy="149.25"
       r="6.7426"
       gradientTransform="matrix(1.4296 -.3024 1.0634 5.0274 -215.89 -506.1)"
       gradientUnits="userSpaceOnUse"
       xlink:href="#linearGradient1974-8" />
    <radialGradient
       id="radialGradient3026"
       cx="138.44"
       cy="235.05"
       r="20.919"
       gradientTransform="matrix(.21842 .3346 -.75264 .4913 212.78 118.4)"
       gradientUnits="userSpaceOnUse"
       xlink:href="#linearGradient1974-8" />
    <radialGradient
       id="radialGradient3328"
       cx="170.35"
       cy="66.049"
       r="12.035"
       gradientTransform="matrix(.76644 -.3645 .59454 1.2501 -83.601 161.19)"
       gradientUnits="userSpaceOnUse"
       xlink:href="#linearGradient1974-8" />
    <radialGradient
       id="radialGradient3429"
       cx="80.302"
       cy="225.63"
       r="5.5573"
       gradientTransform="matrix(.67068 -.2637 1.064 2.706 -262.26 -314.75)"
       gradientUnits="userSpaceOnUse"
       xlink:href="#linearGradient1974-8" />
    <radialGradient
       inkscape:collect="always"
       xlink:href="#linearGradient1974-8"
       id="radialGradient1488"
       gradientUnits="userSpaceOnUse"
       gradientTransform="matrix(-0.82600414,1.2054634,-4.2390395,-2.9046623,739.87643,454.5225)"
       cx="49.268208"
       cy="149.24762"
       fx="49.268208"
       fy="149.24762"
       r="6.742619" />
    <radialGradient
       inkscape:collect="always"
       xlink:href="#linearGradient1974-8"
       id="radialGradient1996-9"
       cx="55.241447"
       cy="82.345695"
       fx="55.241447"
       fy="82.345695"
       r="17.586334"
       gradientTransform="matrix(-0.09666604,-0.33277797,1.0159188,-0.29510621,188.95708,136.04309)"
       gradientUnits="userSpaceOnUse" />
    <radialGradient
       inkscape:collect="always"
       xlink:href="#linearGradient1974-8"
       id="radialGradient1557"
       gradientUnits="userSpaceOnUse"
       gradientTransform="matrix(-0.32941439,0.22618088,-0.50876018,-0.74096862,241.21402,182.21605)"
       cx="138.43695"
       cy="235.05092"
       fx="138.43695"
       fy="235.05092"
       r="20.918684" />
    <radialGradient
       inkscape:collect="always"
       xlink:href="#linearGradient1974-8"
       id="radialGradient1132"
       gradientUnits="userSpaceOnUse"
       gradientTransform="matrix(-0.68374659,-0.502804,0.82011742,-1.1152505,80.494951,267.06692)"
       cx="170.35481"
       cy="66.048706"
       fx="170.35481"
       fy="66.048706"
       r="12.034579" />
    <radialGradient
       inkscape:collect="always"
       xlink:href="#linearGradient1974-8"
       id="radialGradient1438"
       gradientUnits="userSpaceOnUse"
       gradientTransform="matrix(0.35344726,0.62805601,-2.5339943,1.4260405,558.82144,-343.26529)"
       cx="80.301682"
       cy="225.62547"
       fx="80.301682"
       fy="225.62547"
       r="5.5573373" />
  </defs>
  <metadata
     id="metadata15">
    <rdf:RDF>
      <cc:Work
         rdf:about="">
        <dc:format>image/svg+xml</dc:format>
        <dc:type
           rdf:resource="http://purl.org/dc/dcmitype/StillImage" />
        <dc:title />
      </cc:Work>
    </rdf:RDF>
  </metadata>
  <path
     style="fill:#8e8f8f;fill-opacity:1;stroke:#000000;stroke-width:0.55563727;stroke-miterlimit:4;stroke-dasharray:none;stroke-opacity:1"
     d="M 5.4238715,1.6597881 15.246719,2.5485777 26.127659,1.6597881 36.655932,0.77099846 46.831447,1.6597881 H 57.183355 L 67.3589,2.5485777 77.887143,1.6597881 h 10.351899 l 4.232453,4.2661843 V 20.948224 35.970482 l -0.881769,16.622058 0.881769,13.422456 0.88176,17.155339 -0.88176,12.889179 -0.529061,16.266546 0.705415,11.82265 -4.408807,6.22151 H 77.887143 L 67.3589,129.48143 57.183355,130.37022 H 46.831447 L 36.303204,131.259 26.127659,130.37022 H 15.77578 L 7.3637344,129.83694 1.191418,126.10404 0.83872021,112.68159 2.954947,96.592796 1.191418,81.037248 V 66.014996 50.992724 L 2.2495314,36.148246 1.191418,20.948224 V 5.9259724 Z"
     id="path1094"
     inkscape:connector-curvature="0"
     sodipodi:nodetypes="ccccccccccccccccccccccccccccccccccccc" />
  <path
     style="fill:url(#radialGradient1488);fill-opacity:1;stroke:#b1b2b2;stroke-width:0.06274307;stroke-linecap:butt;stroke-linejoin:miter;stroke-miterlimit:4;stroke-dasharray:none;stroke-opacity:1"
     d="m 66.974922,83.881701 -6.277569,-4.333396 c 0,0 -4.173142,-7.055266 -5.45131,-8.288583 -1.278159,-1.233357 -3.000777,-7.968786 -3.404036,-8.60599 -0.403239,-0.637204 -0.850058,-1.641536 -0.850058,-1.641536 l -1.904153,0.89611 1.257008,-0.0747 0.933411,0.336007 1.019352,3.319184 1.382821,5.629074 5.090342,5.87416 2.375913,3.456076 3.540798,2.856163 c 0,0 5.40386,1.488367 6.806481,1.887836 1.402621,0.399479 9.456239,7.024045 9.456239,7.024045 l 5.973922,3.907737 -2.979506,-2.26749 -8.741843,-6.274839 -4.831417,-3.566783 -3.705042,-0.349638 z"
     id="path3000"
     inkscape:connector-curvature="0" />
  <g
     id="g1391"
     transform="matrix(1.0000221,0,0,1.0000221,-206.5014,20.874547)">
    <path
       inkscape:connector-curvature="0"
       id="path1214"
       d="m 257.07598,99.534167 c 0.92123,-0.6479 2.56802,-0.50042 2.56802,-0.50042 l 4.49898,-2.78429 5.24618,-3.71337 5.65025,-1.55237 7.22234,-3.53639 -5.58339,2.28877 -3.84812,1.44817 -4.65134,0.77863 -3.84026,2.84328 -4.48029,3.31716 -8.77769,0.14349 z"
       style="fill:url(#radialGradient1996-9);fill-opacity:1;stroke:none;stroke-width:0.15685423px;stroke-linecap:butt;stroke-linejoin:miter;stroke-opacity:1" />
    <path
       inkscape:connector-curvature="0"
       id="path1216"
       d="m 280.73059,88.108397 -6.78554,2.63199 -5.76287,1.17416 -8.42763,6.28803 -8.52908,0.0813"
       style="fill:none;stroke:#b1b2b2;stroke-width:0.10979795;stroke-linecap:butt;stroke-linejoin:miter;stroke-miterlimit:4;stroke-dasharray:none;stroke-opacity:1" />
    <path
       inkscape:connector-curvature="0"
       id="path1218"
       d="m 251.42239,98.313247 5.73227,1.2646 0.86205,-0.451 0.9884,-0.15798 0.66271,0.0711 4.47885,-2.82683 4.02489,-2.73837 1.26684,-0.90776 3.87888,-1.10812 1.76286,-0.41728 6.92527,-3.40592"
       style="fill:none;stroke:#b1b2b2;stroke-width:0.10979795;stroke-linecap:butt;stroke-linejoin:miter;stroke-miterlimit:4;stroke-dasharray:none;stroke-opacity:1" />
  </g>
  <path
     style="fill:url(#radialGradient1557);fill-opacity:1;stroke:#b1b2b2;stroke-width:0.06274307;stroke-linecap:butt;stroke-linejoin:miter;stroke-miterlimit:4;stroke-dasharray:none;stroke-opacity:1"
     d="M 83.126039,48.679663 C 82.913274,48.52774 79.335085,43.11983 79.173391,42.914426 79.011728,42.708981 75.637693,37.087127 75.637693,37.087127 l -7.099947,-6.162387 -1.447012,-3.731793 1.134595,3.791394 2.137308,1.937473 4.584531,3.710753 3.597739,6.244248 6.425562,8.636281 z"
     id="path3018"
     inkscape:connector-curvature="0" />
  <path
     style="fill:url(#radialGradient1132);fill-opacity:1;stroke:#b1b2b2;stroke-width:0.10980038;stroke-linecap:butt;stroke-linejoin:miter;stroke-miterlimit:4;stroke-dasharray:none;stroke-opacity:1"
     d="m 7.6022497,121.53327 1.9859239,-2.4908 c 0,0 2.0081344,-3.33356 2.3092614,-3.43593 0.301126,-0.10232 3.753453,-2.84639 3.753453,-2.84639 l 3.920746,-6.73453 2.71033,-7.330837 0.815568,-1.511344 -1.36775,1.311509 -0.507971,1.584152 -1.864012,5.2814 -2.338661,4.31933 -1.533394,3.00558 -1.951963,1.1321 -2.68422,2.11286 -1.739088,3.32591 z"
     id="path3320"
     inkscape:connector-curvature="0" />
  <g
     id="g1706"
     transform="matrix(1.0000221,0,0,1.0000221,-9.7655662,-16.302555)">
    <path
       inkscape:connector-curvature="0"
       id="path1030"
       d="m 33.49372,47.730771 2.38125,2.315104 2.38125,2.976561 1.12448,1.52136 -2.44739,2.84427 -3.57188,3.63802 0.0661,-1.52135 2.24896,-3.37344 2.18281,-1.65365 -2.71198,-3.04271 L 33.22909,49.649 Z"
       style="fill:#6a6f7c;fill-opacity:1;stroke:none;stroke-width:0.26458332px;stroke-linecap:butt;stroke-linejoin:miter;stroke-opacity:1" />
    <path
       style="fill:#9da1ad;fill-opacity:1;stroke:none;stroke-width:0.26458332px;stroke-linecap:butt;stroke-linejoin:miter;stroke-opacity:1"
       d="m 59.68128,47.049517 0.0468,2.759556 -0.14033,3.414373 c 0,0 0,3.18051 0,3.3676 0,0.18708 0.14033,3.92886 0.14033,3.92886 l -0.0468,2.47892 v 2.80633 l -0.37417,-0.18708 -0.0468,-2.89988 0.0468,-2.5257 -0.0468,-3.41436 v -2.52571 l 0.0936,-2.52569 c 0,0 -0.18712,-2.198296 -0.14034,-2.385383 0.0468,-0.187089 0.18709,-2.15152 0.18709,-2.15152 l -0.18709,-2.33861 0.18709,-0.888669 0.32742,0.374176 -0.18709,1.730571 z"
       id="path1040"
       inkscape:connector-curvature="0" />
    <path
       style="fill:#9da1ad;fill-opacity:1;stroke:none;stroke-width:0.26458332px;stroke-linecap:butt;stroke-linejoin:miter;stroke-opacity:1"
       d="m 86.87341,38.073479 -2.38125,2.38125 -1.78594,2.844271 -2.38125,2.778125 -1.71979,2.513542 -1.78594,2.182812 -1.65364,2.248957 -0.52917,0.99219 c 0,0 0.99219,1.91823 1.25677,2.05052 0.26459,0.1323 1.52136,1.7198 1.78594,1.98438 0.26458,0.26458 2.18281,2.51354 2.18281,2.51354 l 2.38125,2.4474 1.78594,1.78593 0.19844,-0.46302 -1.91823,-2.05052 -2.11667,-2.3151 -1.65364,-1.85208 -1.32292,-1.7198 -1.85208,-1.91823 -0.33073,-0.92604 1.9513,-2.215887 1.81901,-2.017448 1.19062,-1.885156 1.88516,-2.38125 1.81901,-2.546615 1.2237,-1.785937 c 0,0 1.48828,-1.5875 1.62057,-1.653646 0.13229,-0.06615 0.33073,-0.992188 0.33073,-0.992188 z"
       id="path1042"
       inkscape:connector-curvature="0" />
    <path
       style="fill:#9da1ad;fill-opacity:1;stroke:none;stroke-width:0.26458332px;stroke-linecap:butt;stroke-linejoin:miter;stroke-opacity:1"
       d="m 37.59477,63.605776 -1.45521,1.45521 -1.45521,1.85208 -1.25677,1.71979 -0.33073,2.51354 -0.13229,3.83646 c 0,0 0.19844,3.90261 0.13229,4.16719 -0.0662,0.26458 0.19844,4.03489 0.19844,4.03489 l 3.83646,3.96876 2.11666,2.05052 2.51354,2.18281 1.78594,2.18281 3.37344,3.63802 3.70417,3.638034 3.24114,3.43958 1.32292,0.7276 -0.0661,-0.85989 -2.24896,-1.98438 -2.57968,-3.042714 -5.39348,-5.53826 -1.73059,-1.91765 -3.1805,-2.94665 -3.27406,-3.27405 -2.47891,-2.57248 -0.37417,-2.94664 v -3.46114 l 0.42092,-4.06918 -0.4677,-2.29184 1.44994,-2.80633 2.24504,-2.57247 1.96446,-2.38538 -0.56129,-0.79512 z"
       id="path1044"
       inkscape:connector-curvature="0" />
    <path
       style="fill:#9da1ad;fill-opacity:1;stroke:none;stroke-width:0.26458332px;stroke-linecap:butt;stroke-linejoin:miter;stroke-opacity:1"
       d="m 33.81628,47.751099 -0.18709,2.104747 0.28062,3.22728 -0.0935,3.78855 0.0468,2.61924 -0.18712,1.73057 -0.60804,-1.02899 0.18712,-5.14494 c 0,0 0.0467,-2.24506 0.0935,-2.43215 0.0468,-0.18709 -0.0935,-2.712787 -0.0935,-2.712787 v -2.478926 z"
       id="path1046"
       inkscape:connector-curvature="0" />
    <path
       inkscape:connector-curvature="0"
       id="path1026"
       d="m 59.42289,44.357334 2.77813,2.381249 1.25677,2.182813 2.51354,2.57969 2.18281,2.05052 0.19844,0.39687 -1.52136,2.31511 -1.91822,2.51354 -2.57969,3.30729 -2.84427,3.3073 -0.0661,-1.7198 2.11667,-2.44739 2.64583,-4.0349 1.98438,-2.57969 -0.0661,-1.78594 -3.96875,-4.034892 -2.71198,-3.042708 z"
       style="fill:#6a6f7c;fill-opacity:1;stroke:none;stroke-width:0.26458332px;stroke-linecap:butt;stroke-linejoin:miter;stroke-opacity:1" />
    <path
       inkscape:connector-curvature="0"
       id="path1028"
       d="m 54.32966,43.894313 0.33073,2.778125 0.0661,3.571875 -0.19844,5.159383 0.46302,3.63802 -0.46302,6.68073 -1.19063,-1.45521 0.26459,-3.50573 0.13229,-4.0349 -0.33073,-4.23333 0.13229,-4.828651 -0.26458,-2.447396 z"
       style="fill:#6a6f7c;fill-opacity:1;stroke:none;stroke-width:0.26458332px;stroke-linecap:butt;stroke-linejoin:miter;stroke-opacity:1" />
    <path
       inkscape:connector-curvature="0"
       id="path1032"
       d="m 42.15883,58.578696 2.38125,2.38125 2.18281,2.91041 3.96875,4.89479 3.37344,4.16719 0.52917,0.8599 0.26458,5.02708 -0.13229,7.2099 -0.0661,5.35781 0.33073,7.01146 -0.33073,5.953124 -1.91823,-1.85208 0.72761,-4.101044 c 0,0 -0.0661,-6.08542 -0.0661,-6.35 0,-0.26459 -0.19844,-11.31094 -0.19844,-11.31094 l 0.33073,-4.23333 -0.52916,-2.05052 -4.10105,-5.68855 -3.70416,-4.89479 -3.50573,-3.30729 -1.12448,-0.99219 z"
       style="fill:#6a6f7c;fill-opacity:1;stroke:none;stroke-width:0.26458332px;stroke-linecap:butt;stroke-linejoin:miter;stroke-opacity:1" />
    <path
       inkscape:connector-curvature="0"
       id="path1034"
       d="m 33.67594,90.360546 2.43216,1.96443 3.36762,3.08696 3.55467,3.55469 4.86431,5.144944 5.51911,5.51911 1.6838,1.12254 -0.18708,5.79974 -0.18709,6.64165 0.0935,6.54811 -0.18709,2.05797 -1.40316,-0.28063 v -5.23849 l 0.46773,-5.42557 -0.8419,-6.45456 0.37417,-2.71278 -6.73518,-7.57709 -4.86431,-4.115954 -4.39658,-4.58368 -2.89989,-2.61924 -0.74835,-0.65481 z"
       style="fill:#6a6f7c;fill-opacity:1;stroke:none;stroke-width:0.26458332px;stroke-linecap:butt;stroke-linejoin:miter;stroke-opacity:1" />
    <path
       inkscape:connector-curvature="0"
       id="path1036"
       d="m 71.19685,58.049526 2.38125,1.52135 1.5875,2.51354 3.77031,4.10105 1.45521,2.18281 -1.52135,0.33073 -1.38907,-2.31511 -2.64583,-2.97656 -2.51354,-2.91042 -2.18281,-1.19062 z"
       style="fill:#6a6f7c;fill-opacity:1;stroke:none;stroke-width:0.26458332px;stroke-linecap:butt;stroke-linejoin:miter;stroke-opacity:1" />
    <path
       inkscape:connector-curvature="0"
       id="path1038"
       d="m 28.34393,32.737233 0.18708,4.303041 0.46773,4.490127 -0.46773,6.361014 -0.0935,8.325451 0.18709,6.73519 -0.0936,6.64165 0.0936,6.73519 0.0935,7.10937 -0.28062,7.39 0.93544,3.92886 -0.0936,11.412414 -0.18708,6.45456 c 0,0 0.37417,6.36102 0.37417,6.82874 0,0.46772 0.0936,7.48355 0.0936,7.48355 l -0.65482,4.11595 -1.4967,-0.28064 1.02899,-4.49013 -0.8419,-7.76417 0.18709,-6.64165 -0.65482,-6.26747 0.46773,-11.599504 -0.46773,-8.32545 -0.28064,-9.54152 0.18711,-6.26747 0.4677,-11.78658 -0.56126,-6.26748 -0.0935,-7.296456 0.0935,-7.202913 0.37418,-4.022408 z"
       style="fill:#6a6f7c;fill-opacity:1;stroke:none;stroke-width:0.26458332px;stroke-linecap:butt;stroke-linejoin:miter;stroke-opacity:1" />
    <path
       inkscape:connector-curvature="0"
       id="path1048"
       d="m 57.30622,32.914104 1.5875,2.116667 2.57969,3.108854 3.83646,4.101042 2.71198,3.241146 2.57969,3.241145 0.79375,1.455209 -0.92605,-0.859896 -2.24895,-2.778125 -3.96875,-4.299479 -3.10886,-3.902604 -2.91041,-3.571875 -1.5875,-1.785938 z"
       style="fill:#9da1ad;fill-opacity:1;stroke:none;stroke-width:0.26458332px;stroke-linecap:butt;stroke-linejoin:miter;stroke-opacity:1" />
    <path
       inkscape:connector-curvature="0"
       id="path1050"
       d="m 59.68128,78.293326 0.28062,4.49013 0.0936,6.45456 -0.37418,5.23848 -0.0935,5.23848 0.28064,4.677224 -0.65482,2.5257 0.18709,-4.95785 -0.56126,-4.303044 0.46773,-5.0514 0.0935,-7.10937 -0.28062,-5.61265 z"
       style="fill:#9da1ad;fill-opacity:1;stroke:none;stroke-width:0.26458332px;stroke-linecap:butt;stroke-linejoin:miter;stroke-opacity:1" />
    <path
       inkscape:connector-curvature="0"
       id="path1052"
       d="m 59.68128,111.40803 0.0935,4.95784 0.0936,5.0514 -0.18709,5.61266 v 4.86431 l -0.93543,-0.46773 c 0,0 0.28062,-4.67721 0.28062,-5.14494 0,-0.46772 0,-4.95785 0,-5.42557 0,-0.46772 -0.0935,-5.79974 -0.0935,-5.79974 l 0.18708,-3.74178 z"
       style="fill:#9da1ad;fill-opacity:1;stroke:none;stroke-width:0.26458332px;stroke-linecap:butt;stroke-linejoin:miter;stroke-opacity:1" />
    <path
       inkscape:connector-curvature="0"
       id="path1054"
       d="m 33.7695,101.02461 0.37417,3.83531 -0.0935,4.2095 -0.18708,4.77076 0.37417,5.98684 v 4.11595 4.77076 l -0.0936,2.33861 -0.65481,-0.18709 c 0,0 0.0935,-3.3676 0.0935,-3.83532 0,-0.46772 -0.18708,-4.30304 -0.18708,-4.86431 0,-0.56126 0.0935,-5.14493 0.0935,-5.14493 l -0.28062,-4.2095 0.28062,-5.23848 v -5.79975 z"
       style="fill:#9da1ad;fill-opacity:1;stroke:none;stroke-width:0.26458332px;stroke-linecap:butt;stroke-linejoin:miter;stroke-opacity:1" />
    <path
       inkscape:connector-curvature="0"
       id="path1056"
       d="m 28.25037,32.784006 c 0,0 1.63703,1.917658 1.82412,1.964431 0.18708,0.04677 2.10476,2.198291 2.10476,2.198291 l 3.27406,4.443356 2.80633,3.461139 -0.32742,0.233863 -2.43216,-2.759559 -2.61924,-3.507912 -2.19829,-2.525697 -2.05796,-2.619243 z"
       style="fill:#9da1ad;fill-opacity:1;stroke:none;stroke-width:0.26458332px;stroke-linecap:butt;stroke-linejoin:miter;stroke-opacity:1" />
  </g>
  <path
     style="fill:url(#radialGradient1438);fill-opacity:1;stroke:#b1b2b2;stroke-width:0.07842885;stroke-linecap:butt;stroke-linejoin:miter;stroke-miterlimit:4;stroke-dasharray:none;stroke-opacity:1"
     d="m 22.431797,27.081703 c 0,0 -3.720232,2.100186 -4.312935,2.393643 -0.592703,0.293446 -8.6948921,3.529978 -8.6948921,3.529978 l -2.6505685,0.0838 -1.2440675,-0.0885 1.2145868,-0.392619 1.719098,0.283866 2.2196193,-0.681465 5.546012,-2.26314 1.643907,-1.870631 3.545078,-1.35075 c 0,0 3.62141,-2.145217 3.847245,-2.400533 0.225825,-0.255316 -2.833083,2.756411 -2.833083,2.756411 z"
     id="path3421"
     inkscape:connector-curvature="0" />
</svg>
