<?xml version="1.0" encoding="UTF-8"?>
<!-- Created with Inkscape (http://www.inkscape.org/) -->
<svg width="356" height="499" version="1.1" viewBox="0 0 94.192 132.03" xmlns="http://www.w3.org/2000/svg" xmlns:cc="http://creativecommons.org/ns#" xmlns:dc="http://purl.org/dc/elements/1.1/" xmlns:osb="http://www.openswatchbook.org/uri/2009/osb" xmlns:rdf="http://www.w3.org/1999/02/22-rdf-syntax-ns#" xmlns:xlink="http://www.w3.org/1999/xlink">
 <defs>
  <linearGradient id="linearGradient1974-8">
   <stop stop-color="#565757" offset="0"/>
   <stop stop-color="#373838" stop-opacity="0" offset="1"/>
  </linearGradient>
  <radialGradient id="radialGradient1996" cx="55.241" cy="82.346" r="17.586" gradientTransform="matrix(.25704 .23241 -.70952 .7847 61.433 111.81)" gradientUnits="userSpaceOnUse" xlink:href="#linearGradient1974-8"/>
  <radialGradient id="radialGradient2968" cx="161.11" cy="166.44" r="1.4032" gradientTransform="matrix(.56649 -.052696 .76995 8.277 -139.75 -1129.7)" gradientUnits="userSpaceOnUse" xlink:href="#linearGradient1974-8"/>
  <radialGradient id="radialGradient3016" cx="49.268" cy="149.25" r="6.7426" gradientTransform="matrix(1.4296 -.3024 1.0634 5.0274 -215.89 -506.1)" gradientUnits="userSpaceOnUse" xlink:href="#linearGradient1974-8"/>
  <radialGradient id="radialGradient3026" cx="138.44" cy="235.05" r="20.919" gradientTransform="matrix(.21842 .3346 -.75264 .4913 212.78 118.4)" gradientUnits="userSpaceOnUse" xlink:href="#linearGradient1974-8"/>
  <radialGradient id="radialGradient3328" cx="170.35" cy="66.049" r="12.035" gradientTransform="matrix(.76644 -.3645 .59454 1.2501 -83.601 161.19)" gradientUnits="userSpaceOnUse" xlink:href="#linearGradient1974-8"/>
  <radialGradient id="radialGradient3429" cx="80.302" cy="225.63" r="5.5573" gradientTransform="matrix(.67068 -.2637 1.064 2.706 -262.26 -314.75)" gradientUnits="userSpaceOnUse" xlink:href="#linearGradient1974-8"/>
 </defs>
 <metadata>
  <rdf:RDF>
   <cc:Work rdf:about="">
    <dc:format>image/svg+xml</dc:format>
    <dc:type rdf:resource="http://purl.org/dc/dcmitype/StillImage"/>
    <dc:title/>
   </cc:Work>
  </rdf:RDF>
 </metadata>
 <g transform="translate(0 -164.97)">
  <path d="m5.4246 166.63 9.8226 0.88877 10.881-0.88877 10.528-0.88877 10.175 0.88877h10.352l10.175 0.88877 10.528-0.88877h10.352l4.2324 4.2661v30.044l-0.88174 16.622 0.88174 13.422 0.88174 17.155-0.88174 12.889-0.52905 16.266 0.70541 11.822-4.4087 6.2214h-10.352l-10.528-0.88877-10.175 0.88877h-10.352l-10.528 0.88877-10.175-0.88877h-10.352l-8.4119-0.53326-6.1722-3.7328-0.35269-13.422 2.1162-16.088-1.7635-15.555v-30.044l1.0581-14.844-1.0581-15.2v-15.022z" fill="#8e8f8f" stroke="#000" stroke-width=".55563"/>
  <g fill="none" stroke="#9da1ad" stroke-width=".37558px">
   <path d="m25.89 216.45 5.2464-6.0881 6.3485-5.5104 5.251-8.6373c0.30611-0.37131 0.38565-0.67722 0.74522-0.69004"/>
   <path d="m50.314 195.96c-0.08827 0.44439 0.9699 11.91 0.9699 11.91l-1.1463 12.621-0.17634 15.642"/>
   <path d="m43.455 256.02-4.8496 6.488-14.901 14.398"/>
  </g>
  <path d="m43.526 194.73 0.8808 13.053-0.83451 13.033-0.285 15.088-1.7902-1.4588 0.61722-11.376 0.88174-9.9542 0.52905-5.2438-0.79358-7.6434-0.0043-3.9271z" fill="#666b7a"/>
  <path d="m50.579 198 6.4367 5.777 4.8496 7.8212 8.2434 7.5154 8.45e-4 -2.005-7.0098-6.5769-5.0259-7.91-7.9357-7.1102z" fill="#666b7a"/>
  <g fill="none">
   <g stroke="#9da1ad">
    <path d="m47.008 181.21 4.8496 5.5992 3.8356 4.666 3.3506 3.0663 4.4969 4.1772 4.7614 7.6434 5.3345 5.066 5.7313 5.5548" stroke-width=".30046"/>
    <path d="m50.522 275.33-0.19425-19.942" stroke-width=".3844px"/>
    <path d="m51.725 245.42 10.537 14.265 12.433 12.798" stroke-width=".37558px"/>
   </g>
   <path d="m16.588 216.71 7.627 7.599 8.4647 8.7544 9.9196 12.443" stroke="#666b7a" stroke-width=".82627"/>
  </g>
  <path d="m50.135 255.36 0.77848 0.0126 6.1934 8.9057 12.971 13.113-1.1968 0.0463-12.363-12.64z" fill="#666b7a"/>
  <path d="m22.641 178.65c-0.44365 1.0352-1.9225 1.7746-1.9225 1.7746l-2.3661 4.7323-2.514 5.9153-3.9929 4.2886-4.2886 6.8026 3.5492-4.8802 2.514-3.2534 3.5492-3.1056 1.7746-4.4365 2.0704-5.1759 7.3942-4.7323z" fill="url(#radialGradient1996)"/>
  <path d="m8.5126 200.8 4.3919-5.8036 4.2873-4.0259 3.8691-9.7772 7.2153-4.5488" fill="none" stroke="#b1b2b2" stroke-width=".1098"/>
  <path d="m28.093 176.72-5.5422 1.9345-0.49671 0.83656-0.75813 0.65356-0.60127 0.28756-2.3267 4.7579-1.9868 4.4442-0.60128 1.4378-2.7188 2.9802-1.281 1.281-4.1044 6.5356" fill="none" stroke="#b1b2b2" stroke-width=".1098"/>
  <g stroke="#b1b2b2">
   <path d="m79.133 233.04 0.29576 3.0686 0.92427 1.9595-0.07394 2.0704 0.14788 0.96124 0.03699 2.6989s-0.11091 2.8098-0.14788 2.9577c-0.03699 0.14789 0.18485 4.3995 0.18485 4.3995l-0.33274-3.5122-0.29576-3.6232-0.59154-3.1795s0.62851-1.7746 0.62851-1.9594-0.62851-2.4401-0.77639-2.588c-0.14789-0.14789-0.2588-4.9911-0.2588-4.9911l-0.03699-3.4753z" fill="url(#radialGradient2968)" stroke-width=".078427"/>
   <path d="m15.321 226.49 1.5528 7.4681s-1.8485 7.9857-1.7746 9.7603c0.07394 1.7746-3.3274 7.8378-3.4753 8.5772-0.14788 0.73942-0.51759 1.7746-0.51759 1.7746l1.9964 0.66547-0.96124-0.81336-0.44365-0.8873 1.5528-3.1056 2.8837-5.028 0.36971-7.7639 0.66548-4.1407-0.59153-4.5104s-2.8837-4.8062-3.6231-6.0632c-0.73942-1.257-1.9964-11.609-1.9964-11.609l-1.6267-6.9505 0.59153 3.6971 1.9964 10.574 1.0352 5.9154 2.4401 2.8098z" fill="url(#radialGradient3016)" stroke-width=".062742"/>
   <path d="m75.594 273.32c-0.15685 0.20914-5.6468 3.6599-5.8559 3.8168-0.20914 0.15685-5.9082 3.3985-5.9082 3.3985l-6.3264 6.9539-3.7645 1.3594 3.8168-1.0457 1.9868-2.0914 3.8168-4.4965 6.3265-3.4508 8.7838-6.2219z" fill="url(#radialGradient3026)" stroke-width=".062742"/>
   <path d="m79.097 165.82 1.2548 2.9279s1.9868 3.3462 1.9345 3.6599c-0.05229 0.31371 0.73199 4.6533 0.73199 4.6533l4.0782 6.6402 5.1762 5.8559 0.94564 1.4335-0.50835-1.8254-1.1553-1.1969-3.771-4.1407-2.6989-4.1038-1.9225-2.7728-0.07394-2.2552-0.59154-3.3644-2.1073-3.1056z" fill="url(#radialGradient3328)" stroke-width=".1098"/>
   <path d="m30.786 267.46s1.5685 3.9736 1.7777 4.601c0.20914 0.62743 2.3005 9.0976 2.3005 9.0976l-0.28156 2.6368-0.2588 1.22-0.22182-1.257 0.51759-1.6637-0.36971-2.2922-1.4788-5.8044-1.6267-1.8855-0.85033-3.6971s-1.6267-3.882-1.8485-4.1407c-0.22183-0.2588 2.3405 3.1852 2.3405 3.1852z" fill="url(#radialGradient3429)" stroke-width=".078427"/>
  </g>
 </g>
</svg>
