<?xml version="1.0" encoding="UTF-8" standalone="no"?>
<!-- Created with Inkscape (http://www.inkscape.org/) -->

<svg
   xmlns:dc="http://purl.org/dc/elements/1.1/"
   xmlns:cc="http://creativecommons.org/ns#"
   xmlns:rdf="http://www.w3.org/1999/02/22-rdf-syntax-ns#"
   xmlns:svg="http://www.w3.org/2000/svg"
   xmlns="http://www.w3.org/2000/svg"
   xmlns:xlink="http://www.w3.org/1999/xlink"
   xmlns:sodipodi="http://sodipodi.sourceforge.net/DTD/sodipodi-0.dtd"
   xmlns:inkscape="http://www.inkscape.org/namespaces/inkscape"
   width="356"
   height="499"
   version="1.1"
   viewBox="0 0 94.192 132.03"
   id="svg65"
   sodipodi:docname="skin_2.svg"
   inkscape:version="0.92.4 (5da689c313, 2019-01-14)">
  <sodipodi:namedview
     pagecolor="#ffffff"
     bordercolor="#666666"
     borderopacity="1"
     objecttolerance="10"
     gridtolerance="10"
     guidetolerance="10"
     inkscape:pageopacity="0"
     inkscape:pageshadow="2"
     inkscape:window-width="1920"
     inkscape:window-height="1017"
     id="namedview67"
     showgrid="false"
     inkscape:zoom="1.6993988"
     inkscape:cx="82.377948"
     inkscape:cy="249.5"
     inkscape:window-x="-8"
     inkscape:window-y="-8"
     inkscape:window-maximized="1"
     inkscape:current-layer="svg65" />
  <defs
     id="defs13">
    <linearGradient
       id="linearGradient1974-8">
      <stop
         stop-color="#565757"
         offset="0"
         id="stop2" />
      <stop
         stop-color="#373838"
         stop-opacity="0"
         offset="1"
         id="stop4" />
    </linearGradient>
    <radialGradient
       id="radialGradient1996"
       cx="55.241"
       cy="82.346"
       r="17.586"
       gradientTransform="matrix(.25704 .23241 -.70952 .7847 61.433 111.81)"
       gradientUnits="userSpaceOnUse"
       xlink:href="#linearGradient1974-8" />
    <radialGradient
       id="radialGradient2968"
       cx="161.11"
       cy="166.44"
       r="1.4032"
       gradientTransform="matrix(.56649 -.052696 .76995 8.277 -139.75 -1129.7)"
       gradientUnits="userSpaceOnUse"
       xlink:href="#linearGradient1974-8" />
    <radialGradient
       id="radialGradient3016"
       cx="49.268"
       cy="149.25"
       r="6.7426"
       gradientTransform="matrix(1.4296 -.3024 1.0634 5.0274 -215.89 -506.1)"
       gradientUnits="userSpaceOnUse"
       xlink:href="#linearGradient1974-8" />
    <radialGradient
       id="radialGradient3026"
       cx="138.44"
       cy="235.05"
       r="20.919"
       gradientTransform="matrix(.21842 .3346 -.75264 .4913 212.78 118.4)"
       gradientUnits="userSpaceOnUse"
       xlink:href="#linearGradient1974-8" />
    <radialGradient
       id="radialGradient3328"
       cx="170.35"
       cy="66.049"
       r="12.035"
       gradientTransform="matrix(.76644 -.3645 .59454 1.2501 -83.601 161.19)"
       gradientUnits="userSpaceOnUse"
       xlink:href="#linearGradient1974-8" />
    <radialGradient
       id="radialGradient3429"
       cx="80.302"
       cy="225.63"
       r="5.5573"
       gradientTransform="matrix(.67068 -.2637 1.064 2.706 -262.26 -314.75)"
       gradientUnits="userSpaceOnUse"
       xlink:href="#linearGradient1974-8" />
    <radialGradient
       inkscape:collect="always"
       xlink:href="#linearGradient1974-8"
       id="radialGradient2968-0"
       cx="161.11455"
       cy="166.44328"
       fx="161.11455"
       fy="166.44328"
       r="1.40318"
       gradientTransform="matrix(0.56650068,-0.05269703,0.76996376,8.2772214,-129.90374,-1298.5487)"
       gradientUnits="userSpaceOnUse" />
    <radialGradient
       inkscape:collect="always"
       xlink:href="#linearGradient1974-8"
       id="radialGradient3016-5"
       cx="49.268208"
       cy="149.24762"
       fx="49.268208"
       fy="149.24762"
       r="6.742619"
       gradientTransform="matrix(0.33213743,1.4230634,-5.004235,1.1679688,769.9326,-121.46389)"
       gradientUnits="userSpaceOnUse" />
    <radialGradient
       inkscape:collect="always"
       xlink:href="#linearGradient1974-8"
       id="radialGradient3429-9"
       cx="80.301682"
       cy="225.62547"
       fx="80.301682"
       fy="225.62547"
       r="5.5573373"
       gradientTransform="matrix(0.67069883,-0.26370892,1.0639765,2.7060437,-282.7251,-532.24828)"
       gradientUnits="userSpaceOnUse" />
    <radialGradient
       inkscape:collect="always"
       xlink:href="#linearGradient1974-8"
       id="radialGradient3328-3"
       cx="170.35481"
       cy="66.048706"
       fx="170.35481"
       fy="66.048706"
       r="12.034579"
       gradientTransform="matrix(0.69433706,0.48807511,-0.79609331,1.1325246,-54.619599,-61.462501)"
       gradientUnits="userSpaceOnUse" />
    <radialGradient
       inkscape:collect="always"
       xlink:href="#linearGradient1974-8"
       id="radialGradient1518"
       gradientUnits="userSpaceOnUse"
       gradientTransform="matrix(0.2184227,0.33460896,-0.75265301,0.49130932,208.298,-71.648954)"
       cx="138.43695"
       cy="235.05092"
       fx="138.43695"
       fy="235.05092"
       r="20.918684" />
    <radialGradient
       inkscape:collect="always"
       xlink:href="#linearGradient1974-8"
       id="radialGradient1996-3"
       cx="55.241447"
       cy="82.345695"
       fx="55.241447"
       fy="82.345695"
       r="17.586334"
       gradientTransform="matrix(0.25704001,0.23241328,-0.70952116,0.78470269,426.82261,36.002995)"
       gradientUnits="userSpaceOnUse" />
  </defs>
  <metadata
     id="metadata15">
    <rdf:RDF>
      <cc:Work
         rdf:about="">
        <dc:format>image/svg+xml</dc:format>
        <dc:type
           rdf:resource="http://purl.org/dc/dcmitype/StillImage" />
        <dc:title />
      </cc:Work>
    </rdf:RDF>
  </metadata>
  <path
     style="fill:#8e8f8f;fill-opacity:1;stroke:#000000;stroke-width:0.55563727;stroke-miterlimit:4;stroke-dasharray:none;stroke-opacity:1"
     d="M 5.423868,1.6597916 15.246715,2.5485822 26.127655,1.6597916 36.655928,0.77100191 46.831443,1.6597916 H 57.183352 L 67.358897,2.5485822 77.887139,1.6597916 h 10.351899 l 4.232454,4.2661902 V 20.948234 35.970496 l -0.88177,16.622057 0.88177,13.422443 0.881759,17.155339 -0.881759,12.889175 -0.529062,16.26655 0.705416,11.82263 -4.408808,6.22152 H 77.887139 l -10.528242,-0.88879 -10.175545,0.88879 H 46.831443 L 36.3032,131.259 26.127655,130.37021 H 15.775777 L 7.3637308,129.83694 1.1914144,126.10402 0.83871662,112.68158 2.9549434,96.592782 1.1914144,81.037238 V 66.014996 50.992738 L 2.2495278,36.14826 1.1914144,20.948234 V 5.9259818 Z"
     id="path1094"
     inkscape:connector-curvature="0"
     sodipodi:nodetypes="ccccccccccccccccccccccccccccccccccccc" />
  <path
     style="fill:url(#radialGradient2968-0);fill-opacity:1;stroke:#b1b2b2;stroke-width:0.07842885;stroke-linecap:butt;stroke-linejoin:miter;stroke-miterlimit:4;stroke-dasharray:none;stroke-dashoffset:0;stroke-opacity:1"
     d="m 88.986955,64.197406 0.295776,3.068667 0.924291,1.959504 -0.0739,2.070415 0.147883,0.961262 0.037,2.698929 c 0,0 -0.110912,2.809862 -0.147883,2.957736 -0.037,0.147893 0.184854,4.399637 0.184854,4.399637 l -0.332737,-3.512308 -0.295777,-3.62323 -0.591543,-3.17957 c 0,0 0.628514,-1.774639 0.628514,-1.959493 0,-0.184864 -0.628514,-2.440134 -0.776407,-2.588017 -0.147884,-0.147894 -0.258796,-4.991201 -0.258796,-4.991201 l -0.037,-3.475337 z"
     id="path2960"
     inkscape:connector-curvature="0" />
  <path
     style="fill:url(#radialGradient3016-5);fill-opacity:1;stroke:#b1b2b2;stroke-width:0.06274307;stroke-linecap:butt;stroke-linejoin:miter;stroke-miterlimit:4;stroke-dasharray:none;stroke-opacity:1"
     d="m 42.306843,124.97438 -7.434294,1.70813 c 0,0 -8.022688,-1.68172 -9.795397,-1.57081 -1.772729,0.11087 -7.905654,-3.16336 -8.648011,-3.29579 -0.742356,-0.13245 -1.785039,-0.48051 -1.785039,-0.48051 l -0.623734,2.00991 0.793167,-0.97801 0.87787,-0.46206 3.137319,1.48774 5.087163,2.77838 7.770081,0.20779 4.153802,0.57903 4.49723,-0.68542 c 0,0 4.745174,-2.98335 5.986522,-3.74884 1.241367,-0.76547 11.564995,-2.238 11.564995,-2.238 l 6.915253,-1.77128 -3.684041,0.66848 -10.529993,2.21643 -5.89261,1.15829 -2.758381,2.49817 z"
     id="path3000"
     inkscape:connector-curvature="0" />
  <path
     style="fill:url(#radialGradient3429-9);fill-opacity:1;stroke:#b1b2b2;stroke-width:0.07842885;stroke-linecap:butt;stroke-linejoin:miter;stroke-miterlimit:4;stroke-dasharray:none;stroke-opacity:1"
     d="m 10.330266,49.979624 c 0,0 1.568575,3.973728 1.77772,4.601162 0.209144,0.627431 2.300581,9.097748 2.300581,9.097748 L 14.127,66.315432 13.868205,67.535499 13.64637,66.278462 14.163971,64.614735 13.794253,62.322484 12.31539,56.517926 10.688634,54.632377 9.8382855,50.935206 c 0,0 -1.6267559,-3.882036 -1.8485908,-4.140842 -0.2218249,-0.258796 2.3405713,3.18526 2.3405713,3.18526 z"
     id="path3421"
     inkscape:connector-curvature="0" />
  <path
     style="fill:#666b7a;fill-opacity:0.88627451;stroke:none;stroke-width:0.26458916px;stroke-linecap:butt;stroke-linejoin:miter;stroke-opacity:1"
     d="m 17.892243,15.253947 0.87309,20.580207 v 6.485884 l -1.621456,24.820973 0.623634,52.635439 -1.995664,-1.87092 V 92.959821 L 15.397668,73.502171 17.2686,50.552119 16.39551,34.337412 16.644966,18.746344 Z"
     id="path1116"
     inkscape:connector-curvature="0" />
  <path
     style="fill:url(#radialGradient3328-3);fill-opacity:1;stroke:#b1b2b2;stroke-width:0.10980038;stroke-linecap:butt;stroke-linejoin:miter;stroke-miterlimit:4;stroke-dasharray:none;stroke-opacity:1"
     d="m 21.36701,82.47993 -1.932232,2.532676 c 0,0 -1.936423,3.375724 -2.2353,3.484487 -0.298866,0.108752 -3.691721,2.926004 -3.691721,2.926004 l -3.7759138,6.816811 -2.5530265,7.387092 -0.7830873,1.52842 1.3393996,-1.34043 0.4740105,-1.59465 1.7506987,-5.320037 2.2458198,-4.368317 1.468802,-3.037697 1.927323,-1.173536 2.638448,-2.169758 1.667597,-3.362304 z"
     id="path3320"
     inkscape:connector-curvature="0" />
  <path
     style="fill:#666b7a;fill-opacity:0.90980392;stroke:none;stroke-width:0.26458916px;stroke-linecap:butt;stroke-linejoin:miter;stroke-opacity:1"
     d="m 46.954006,41.197481 11.225558,5.986969 8.356815,7.358984 -1.995665,0.623642 -3.367664,-3.991312 -7.483715,-5.113871 -8.606271,-4.116042 z"
     id="path1118"
     inkscape:connector-curvature="0" />
  <path
     style="fill:#666b7a;fill-opacity:0.90980392;stroke:none;stroke-width:0.26458916px;stroke-linecap:butt;stroke-linejoin:miter;stroke-opacity:1"
     d="m 68.40729,66.766832 -0.498911,4.989141 2.120397,27.939187 0.124722,4.3655 -0.498911,4.73968 -1.621475,-2.74402 0.623633,-7.483715 -0.748366,-13.844866 -1.122545,-10.726657 0.623634,-5.238596 z"
     id="path1120"
     inkscape:connector-curvature="0" />
  <path
     style="fill:#666b7a;fill-opacity:0.90980392;stroke:none;stroke-width:0.26458916px;stroke-linecap:butt;stroke-linejoin:miter;stroke-opacity:1"
     d="m 47.889456,24.296764 3.055848,4.178405 0.249455,1.122557 -1.184916,0.935466 -0.374178,-2.058023 -2.182758,-3.055849 z"
     id="path1122"
     inkscape:connector-curvature="0" />
  <path
     style="fill:#666b7a;fill-opacity:0.90980392;stroke:none;stroke-width:0.26458916px;stroke-linecap:butt;stroke-linejoin:miter;stroke-opacity:1"
     d="m 36.227349,74.500003 6.922413,11.537385 -0.997812,1.559105 -2.307481,-5.612784 -3.554759,-5.176235 -2.494575,-1.434371 1.309639,-0.686016 z"
     id="path1124"
     inkscape:connector-curvature="0" />
  <path
     style="fill:#666b7a;fill-opacity:0.90980392;stroke:none;stroke-width:0.26458916px;stroke-linecap:butt;stroke-linejoin:miter;stroke-opacity:1"
     d="m 23.972748,59.906761 3.741883,4.802046 4.240753,4.116041 -1.309639,0.686005 -2.868753,-3.866585 -4.05369,-4.178403 z"
     id="path1126"
     inkscape:connector-curvature="0" />
  <path
     style="fill:#666b7a;fill-opacity:0.90980392;stroke:none;stroke-width:0.26458916px;stroke-linecap:butt;stroke-linejoin:miter;stroke-opacity:1"
     d="m 47.737213,91.338975 5.644555,5.86506 4.718534,5.203585 1.543424,2.46949 -1.940313,-1.45523 -4.54212,-4.938997 -3.924737,-4.10113 -2.204929,-2.293111 z"
     id="path1128"
     inkscape:connector-curvature="0" />
  <path
     style="fill:#666b7a;fill-opacity:0.90980392;stroke:none;stroke-width:0.26458916px;stroke-linecap:butt;stroke-linejoin:miter;stroke-opacity:1"
     d="m 37.462336,95.62752 -3.748353,5.98633 -9.481099,8.77555 -0.0441,-2.16082 c 0,0 4.718504,-4.05703 4.894898,-4.14523 0.176404,-0.0882 5.953261,-6.306042 5.953261,-6.306042 L 36.216578,95.6165 Z"
     id="path1130"
     inkscape:connector-curvature="0"
     sodipodi:nodetypes="cccccccc" />
  <path
     style="fill:#666b7a;fill-opacity:0.90980392;stroke:none;stroke-width:0.26458916px;stroke-linecap:butt;stroke-linejoin:miter;stroke-opacity:1"
     d="m 42.357234,100.95238 5.820969,4.7185 6.394221,3.66016 4.233424,2.5136 10.010311,7.76128 -1.411161,-0.2646 -4.321616,-3.35146 -6.570615,-4.23342 -8.378675,-4.98309 -5.644555,-4.14524 -1.190656,-0.79376 0.573262,-1.27885 z"
     id="path1132"
     inkscape:connector-curvature="0"
     sodipodi:nodetypes="ccccccccccccc" />
  <path
     style="fill:#666b7a;fill-opacity:0.90980392;stroke:none;stroke-width:0.26458916px;stroke-linecap:butt;stroke-linejoin:miter;stroke-opacity:1"
     d="m 23.924187,83.754088 3.439656,1.896222 2.73408,1.984414 3.880656,3.968837 3.483767,4.05704 -1.278868,-0.0441 -4.409808,-5.42408 -4.586221,-3.836545 -3.395555,-1.763929 z"
     id="path1134"
     inkscape:connector-curvature="0" />
  <path
     style="fill:#666b7a;fill-opacity:0.90980392;stroke:none;stroke-width:0.26458916px;stroke-linecap:butt;stroke-linejoin:miter;stroke-opacity:1"
     d="m 49.633445,71.803474 6.394221,-4.233424 5.953252,-3.792444 -1.058354,1.543434 -3.439656,2.160808 -5.512271,3.351464 -2.160818,0.837869 z"
     id="path1136"
     inkscape:connector-curvature="0" />
  <path
     style="fill:#666b7a;fill-opacity:0.90980392;stroke:none;stroke-width:0.26458916px;stroke-linecap:butt;stroke-linejoin:miter;stroke-opacity:1"
     d="m 59.952423,65.806121 -2.866403,3.439656 -3.660141,3.792444 -1.36705,2.689989 3.263282,-3.527858 2.954565,-2.866373 3.042767,-4.498019 z"
     id="path1138"
     inkscape:connector-curvature="0" />
  <path
     style="fill:#666b7a;fill-opacity:0.90980392;stroke:none;stroke-width:0.26458916px;stroke-linecap:butt;stroke-linejoin:miter;stroke-opacity:1"
     d="m 53.95437,35.958881 c -0.0312,0.06236 -1.060183,0.888691 -1.060183,0.888691 l 1.839741,1.044601 -0.841919,-1.870926 z"
     id="path1140"
     inkscape:connector-curvature="0" />
  <path
     style="fill:#666b7a;fill-opacity:0.90980392;stroke:none;stroke-width:0.26458916px;stroke-linecap:butt;stroke-linejoin:miter;stroke-opacity:1"
     d="m 40.078334,35.849745 c -0.0468,0.06236 -1.699428,2.073612 -1.699428,2.073612 l 2.463375,-1.340832 z"
     id="path1142"
     inkscape:connector-curvature="0" />
  <path
     style="fill:#666b7a;fill-opacity:0.90980392;stroke:none;stroke-width:0.26458916px;stroke-linecap:butt;stroke-linejoin:miter;stroke-opacity:1"
     d="m 24.50284,22.17638 c 0.0624,0.06236 5.238605,3.804218 5.238605,3.804218 l 5.42569,5.051508 -0.93545,1.559105 -2.307481,-3.554763 -5.238606,-3.928949 -2.120367,-1.434378 z"
     id="path1145"
     inkscape:connector-curvature="0" />
  <path
     style="fill:#666b7a;fill-opacity:0.90980392;stroke:none;stroke-width:0.26458916px;stroke-linecap:butt;stroke-linejoin:miter;stroke-opacity:1"
     d="m 33.732774,31.219197 c 0,0 -2.993487,4.427863 -3.055848,4.67732 -0.0624,0.249458 -5.799878,7.29662 -5.799878,7.29662 l -0.0624,2.120384 1.80855,-2.18275 8.793355,-11.911574 -1.247278,-0.74837 z"
     id="path1147"
     inkscape:connector-curvature="0" />
  <path
     style="fill:#9da1ad;fill-opacity:1;stroke:none;stroke-width:0.26458916px;stroke-linecap:butt;stroke-linejoin:miter;stroke-opacity:1"
     d="m 26.812621,53.442086 4.255474,4.602754 5.556372,6.085544 2.072606,2.381303 0.352808,0.793767 0.308667,-0.264586 -2.028505,-2.469494 -3.968838,-4.321626 -3.571949,-3.836544 -2.563206,-3.263269 z"
     id="path1149"
     inkscape:connector-curvature="0"
     sodipodi:nodetypes="ccccccccccc" />
  <path
     style="fill:#9da1ad;fill-opacity:1;stroke:none;stroke-width:0.26458916px;stroke-linecap:butt;stroke-linejoin:miter;stroke-opacity:1"
     d="m 47.16393,65.541525 11.112746,-7.187999 8.510958,-4.012939 -0.661475,-0.22049 -5.953251,2.91048 -3.17507,1.675727 -9.569322,6.217848 z"
     id="path1151"
     inkscape:connector-curvature="0" />
  <path
     style="fill:#9da1ad;fill-opacity:1;stroke:none;stroke-width:0.26458916px;stroke-linecap:butt;stroke-linejoin:miter;stroke-opacity:1"
     d="m 68.41925,66.776283 c -0.0441,0.220484 -1.003212,1.962373 -1.003212,1.962373 L 63.43616,73.743797 51.750162,85.826704 63.303867,73.302817 67.934179,67.217262 Z"
     id="path1153"
     inkscape:connector-curvature="0"
     sodipodi:nodetypes="ccccccc" />
  <path
     style="fill:#9da1ad;fill-opacity:1;stroke:none;stroke-width:0.26458916px;stroke-linecap:butt;stroke-linejoin:miter;stroke-opacity:1"
     d="m 51.838344,85.782603 11.553735,12.656179 6.526514,10.318978 h -0.48507 L 66.655341,103.95105 62.9952,98.35059 Z"
     id="path1155"
     inkscape:connector-curvature="0" />
  <path
     style="fill:#9da1ad;fill-opacity:1;stroke:none;stroke-width:0.26458916px;stroke-linecap:butt;stroke-linejoin:miter;stroke-opacity:1"
     d="m 45.708688,94.910924 4.05705,3.792444 5.953261,3.880642 4.012909,2.24901 -4.05702,-1.98442 -5.90915,-3.792444 c 0,0 -4.850817,-4.189323 -4.674413,-4.145232 0.176393,0.0441 0.617363,0 0.617363,0 z"
     id="path1157"
     inkscape:connector-curvature="0" />
  <path
     style="fill:url(#radialGradient1518);fill-opacity:1;stroke:#b1b2b2;stroke-width:0.06274307;stroke-linecap:butt;stroke-linejoin:miter;stroke-miterlimit:4;stroke-dasharray:none;stroke-opacity:1"
     d="m 71.104519,83.275927 c -0.156853,0.209155 -5.646874,3.660021 -5.856009,3.816875 -0.209145,0.156863 -5.908311,3.398585 -5.908311,3.398585 l -6.326589,6.954023 -3.764584,1.35943 3.816865,-1.045713 1.986864,-2.091436 3.816874,-4.496589 6.32659,-3.450867 8.784034,-6.222027 z"
     id="path3018"
     inkscape:connector-curvature="0" />
  <path
     style="fill:#9da1ad;fill-opacity:1;stroke:none;stroke-width:0.26458916px;stroke-linecap:butt;stroke-linejoin:miter;stroke-opacity:1"
     d="m 23.848035,83.823459 c 0,0 0.280626,9.167543 0.280626,9.292276 0,0.124722 -0.0312,11.599755 -0.0312,11.599755 l 0.218264,5.79987 c 0,0 -0.46772,0.0935 -0.436549,-0.0312 0.0312,-0.12472 -0.0312,-4.80205 -0.0312,-4.80205 V 95.236102 l -0.0935,-6.236428 -0.249455,-5.176235 z"
     id="path1159"
     inkscape:connector-curvature="0" />
  <path
     style="fill:#9da1ad;fill-opacity:1;stroke:none;stroke-width:0.26458916px;stroke-linecap:butt;stroke-linejoin:miter;stroke-opacity:1"
     d="m 41.902494,100.66181 -0.810728,1.37201 -2.307481,3.86659 -14.842718,13.72014 9.728845,-8.76218 5.488051,-4.95796 3.024647,-5.2386 z"
     id="path1161"
     inkscape:connector-curvature="0" />
  <path
     style="fill:#9da1ad;fill-opacity:1;stroke:none;stroke-width:0.26458916px;stroke-linecap:butt;stroke-linejoin:miter;stroke-opacity:1"
     d="m 28.664752,78.770988 3.836544,2.535646 2.667929,2.138767 4.233424,4.630302 1.411141,1.741889 -0.330737,-0.0882 -3.814475,-4.475969 -2.888443,-2.844333 -3.946798,-2.667939 c 0,0 -1.521393,-0.92606 -1.433171,-0.948111 0.0882,-0.022 0.264586,-0.022 0.264586,-0.022 z"
     id="path1163"
     inkscape:connector-curvature="0" />
  <path
     style="fill:#9da1ad;fill-opacity:1;stroke:none;stroke-width:0.26458916px;stroke-linecap:butt;stroke-linejoin:miter;stroke-opacity:1"
     d="m 24.012379,59.941062 c 0,0.110242 -0.41893,3.153019 -0.41893,3.153019 0,0 -0.330737,4.409818 -0.286626,4.49802 0.0441,0.0882 0.220475,6.460382 0.220475,6.460382 l -0.154333,0.0882 -0.0882,-4.255474 -0.132293,-2.800232 0.242545,-3.395565 c 0,0 0.242555,-3.924736 0.352778,-3.924736 0.110252,0 0.264596,0.176394 0.264596,0.176394 z"
     id="path1165"
     inkscape:connector-curvature="0" />
  <path
     style="fill:#9da1ad;fill-opacity:1;stroke:none;stroke-width:0.26458916px;stroke-linecap:butt;stroke-linejoin:miter;stroke-opacity:1"
     d="m 42.974608,73.126423 c 0.220485,0.0441 4.674413,7.452595 4.674413,7.452595 l 0.176374,-0.308687 -4.353016,-7.201609 z"
     id="path1167"
     inkscape:connector-curvature="0"
     sodipodi:nodetypes="ccccc" />
  <path
     style="fill:#9da1ad;fill-opacity:1;stroke:none;stroke-width:0.26458916px;stroke-linecap:butt;stroke-linejoin:miter;stroke-opacity:1"
     d="m 59.302119,31.094469 1.683837,4.802048 7.795542,7.171891 7.171879,10.851383 -0.187095,0.311822 -7.358992,-11.163205 -7.857874,-7.234254 -1.746208,-4.552591 z"
     id="path1169"
     inkscape:connector-curvature="0" />
  <path
     style="fill:#9da1ad;fill-opacity:1;stroke:none;stroke-width:0.26458916px;stroke-linecap:butt;stroke-linejoin:miter;stroke-opacity:1"
     d="m 56.495727,24.733314 2.931114,-2.6193 13.283594,-9.35464 -0.935451,0.187093 -6.672997,4.989141 -5.86224,4.053679 z"
     id="path1171"
     inkscape:connector-curvature="0" />
  <g
     id="g1466"
     transform="matrix(0.31540604,-0.9489801,0.9489801,0.31540604,-147.93013,353.54318)">
    <path
       inkscape:connector-curvature="0"
       id="path1214"
       d="m 388.03058,102.84808 c -0.44365,1.03518 -1.92248,1.7746 -1.92248,1.7746 l -2.36614,4.73228 -2.51402,5.91534 -3.99286,4.28862 -4.28862,6.80265 3.5492,-4.88016 2.51403,-3.25344 3.5492,-3.10555 1.7746,-4.43651 2.07037,-5.17592 7.39418,-4.73228 z"
       style="fill:url(#radialGradient1996-3);fill-opacity:1;stroke:none;stroke-width:0.15685423px;stroke-linecap:butt;stroke-linejoin:miter;stroke-opacity:1" />
    <path
       inkscape:connector-curvature="0"
       id="path1216"
       d="m 373.90223,124.99482 4.39192,-5.80361 4.28734,-4.02592 3.86908,-9.77725 7.21529,-4.54877"
       style="fill:none;stroke:#b1b2b2;stroke-width:0.10979795;stroke-linecap:butt;stroke-linejoin:miter;stroke-miterlimit:4;stroke-dasharray:none;stroke-opacity:1" />
    <path
       inkscape:connector-curvature="0"
       id="path1218"
       d="m 393.48286,100.91769 -5.54218,1.93454 -0.4967,0.83655 -0.75813,0.65356 -0.60128,0.28757 -2.32667,4.75791 -1.98682,4.4442 -0.60127,1.43784 -2.71881,2.98023 -1.28098,1.28097 -4.10435,6.53559"
       style="fill:none;stroke:#b1b2b2;stroke-width:0.10979795;stroke-linecap:butt;stroke-linejoin:miter;stroke-miterlimit:4;stroke-dasharray:none;stroke-opacity:1" />
  </g>
  <path
     style="fill:#9da1ad;fill-opacity:1;stroke:none;stroke-width:0.26458916px;stroke-linecap:butt;stroke-linejoin:miter;stroke-opacity:1"
     d="M 46.766912,11.636817 56.495727,24.920408 55.809721,24.608585 47.951818,13.320654 46.517426,11.82391 Z"
     id="path1174"
     inkscape:connector-curvature="0" />
  <path
     style="fill:#9da1ad;fill-opacity:1;stroke:none;stroke-width:0.26458916px;stroke-linecap:butt;stroke-linejoin:miter;stroke-opacity:1"
     d="m 46.517426,11.82391 c 0.311847,-0.311821 0,0 0,0 z"
     id="path1176"
     inkscape:connector-curvature="0" />
  <path
     style="fill:#6a6e7c;fill-opacity:0.90980392;stroke:none;stroke-width:0.26458916px;stroke-linecap:butt;stroke-linejoin:miter;stroke-opacity:1"
     d="m 46.548627,11.855092 -3.585949,7.265436 -1.80855,3.991315 -1.029013,1.933292 -0.90429,0.966645 -0.374178,-0.46773 c 0,0 1.496723,-2.463389 1.621455,-2.556937 0.124723,-0.09354 2.120387,-4.365497 2.120387,-4.365497 l 2.899954,-5.643967 0.654805,-0.966645 z"
     id="path1180"
     inkscape:connector-curvature="0" />
  <path
     style="fill:#9da1ad;fill-opacity:1;stroke:none;stroke-width:0.26458916px;stroke-linecap:butt;stroke-linejoin:miter;stroke-opacity:1"
     d="m 17.892243,15.378674 12.285772,3.055849 6.174056,4.739684 3.118209,2.993485 -0.498911,-0.187094 -3.928956,-3.617127 -4.677304,-3.679491 -11.475053,-2.806391 z"
     id="path1183"
     inkscape:connector-curvature="0" />
  <path
     style="fill:#9da1ad;fill-opacity:1;stroke:none;stroke-width:0.26458916px;stroke-linecap:butt;stroke-linejoin:miter;stroke-opacity:1"
     d="m 24.53404,22.269926 0.0624,2.120386 0.187094,9.417004 0.249455,7.265436 -0.187094,4.147223 -0.124733,-0.779553 v -2.369841 l -0.0624,-7.514896 -0.249455,-8.04499 -0.124723,-4.209587 z"
     id="path1185"
     inkscape:connector-curvature="0" />
  <path
     style="fill:#9da1ad;fill-opacity:1;stroke:none;stroke-width:0.26458916px;stroke-linecap:butt;stroke-linejoin:miter;stroke-opacity:1"
     d="m 74.74922,65.720789 -0.417299,6.097545 0.748356,9.666464 0.686005,7.733171 -0.436549,-2.868764 -0.498911,-6.049334 -0.873109,-6.922433 c 0,0 0.187084,-3.866585 0.249455,-4.11604 0.0624,-0.249456 0.374208,-2.556937 0.374208,-2.556937 z"
     id="path1187"
     inkscape:connector-curvature="0"
     sodipodi:nodetypes="cccccccccc" />
  <path
     style="fill:#9da1ad;fill-opacity:1;stroke:none;stroke-width:0.26458916px;stroke-linecap:butt;stroke-linejoin:miter;stroke-opacity:1"
     d="m 34.199054,48.078644 2.337222,-1.675733 4.630312,-2.469498 -0.132293,0.396884 -2.998696,1.411142 -1.675717,1.058356 -1.675727,1.23475 z"
     id="path1189"
     inkscape:connector-curvature="0" />
</svg>
