<?xml version="1.0" encoding="UTF-8" standalone="no"?>
<!-- Created with Inkscape (http://www.inkscape.org/) -->

<svg
   xmlns:dc="http://purl.org/dc/elements/1.1/"
   xmlns:cc="http://creativecommons.org/ns#"
   xmlns:rdf="http://www.w3.org/1999/02/22-rdf-syntax-ns#"
   xmlns:svg="http://www.w3.org/2000/svg"
   xmlns="http://www.w3.org/2000/svg"
   xmlns:xlink="http://www.w3.org/1999/xlink"
   xmlns:sodipodi="http://sodipodi.sourceforge.net/DTD/sodipodi-0.dtd"
   xmlns:inkscape="http://www.inkscape.org/namespaces/inkscape"
   width="356"
   height="499"
   version="1.1"
   viewBox="0 0 94.192 132.03"
   id="svg65"
   sodipodi:docname="skin_7.svg"
   inkscape:version="0.92.4 (5da689c313, 2019-01-14)">
  <sodipodi:namedview
     pagecolor="#ffffff"
     bordercolor="#666666"
     borderopacity="1"
     objecttolerance="10"
     gridtolerance="10"
     guidetolerance="10"
     inkscape:pageopacity="0"
     inkscape:pageshadow="2"
     inkscape:window-width="1920"
     inkscape:window-height="1017"
     id="namedview67"
     showgrid="false"
     inkscape:zoom="1.6993988"
     inkscape:cx="82.377948"
     inkscape:cy="249.5"
     inkscape:window-x="-8"
     inkscape:window-y="-8"
     inkscape:window-maximized="1"
     inkscape:current-layer="svg65" />
  <defs
     id="defs13">
    <linearGradient
       id="linearGradient1974-8">
      <stop
         stop-color="#565757"
         offset="0"
         id="stop2" />
      <stop
         stop-color="#373838"
         stop-opacity="0"
         offset="1"
         id="stop4" />
    </linearGradient>
    <radialGradient
       id="radialGradient1996"
       cx="55.241"
       cy="82.346"
       r="17.586"
       gradientTransform="matrix(.25704 .23241 -.70952 .7847 61.433 111.81)"
       gradientUnits="userSpaceOnUse"
       xlink:href="#linearGradient1974-8" />
    <radialGradient
       id="radialGradient2968"
       cx="161.11"
       cy="166.44"
       r="1.4032"
       gradientTransform="matrix(.56649 -.052696 .76995 8.277 -139.75 -1129.7)"
       gradientUnits="userSpaceOnUse"
       xlink:href="#linearGradient1974-8" />
    <radialGradient
       id="radialGradient3016"
       cx="49.268"
       cy="149.25"
       r="6.7426"
       gradientTransform="matrix(1.4296 -.3024 1.0634 5.0274 -215.89 -506.1)"
       gradientUnits="userSpaceOnUse"
       xlink:href="#linearGradient1974-8" />
    <radialGradient
       id="radialGradient3026"
       cx="138.44"
       cy="235.05"
       r="20.919"
       gradientTransform="matrix(.21842 .3346 -.75264 .4913 212.78 118.4)"
       gradientUnits="userSpaceOnUse"
       xlink:href="#linearGradient1974-8" />
    <radialGradient
       id="radialGradient3328"
       cx="170.35"
       cy="66.049"
       r="12.035"
       gradientTransform="matrix(.76644 -.3645 .59454 1.2501 -83.601 161.19)"
       gradientUnits="userSpaceOnUse"
       xlink:href="#linearGradient1974-8" />
    <radialGradient
       id="radialGradient3429"
       cx="80.302"
       cy="225.63"
       r="5.5573"
       gradientTransform="matrix(.67068 -.2637 1.064 2.706 -262.26 -314.75)"
       gradientUnits="userSpaceOnUse"
       xlink:href="#linearGradient1974-8" />
    <radialGradient
       inkscape:collect="always"
       xlink:href="#linearGradient1974-8"
       id="radialGradient3429-2"
       cx="80.301682"
       cy="225.62547"
       fx="80.301682"
       fy="225.62547"
       r="5.5573373"
       gradientTransform="matrix(0.67069883,-0.26370892,1.0639765,2.7060437,-260.85037,-498.01624)"
       gradientUnits="userSpaceOnUse" />
    <radialGradient
       inkscape:collect="always"
       xlink:href="#linearGradient1974-8"
       id="radialGradient2968-8"
       cx="161.11455"
       cy="166.44328"
       fx="161.11455"
       fy="166.44328"
       r="1.40318"
       gradientTransform="matrix(0.28716898,0.49115575,-7.1763462,4.1958663,1200.0167,-680.31943)"
       gradientUnits="userSpaceOnUse" />
    <radialGradient
       inkscape:collect="always"
       xlink:href="#linearGradient1974-8"
       id="radialGradient1557"
       gradientUnits="userSpaceOnUse"
       gradientTransform="matrix(-0.38543189,0.10542244,-0.23713206,-0.86697162,161.74697,221.01143)"
       cx="138.43695"
       cy="235.05092"
       fx="138.43695"
       fy="235.05092"
       r="20.918684" />
    <radialGradient
       inkscape:collect="always"
       xlink:href="#linearGradient1974-8"
       id="radialGradient3016-9"
       cx="49.268208"
       cy="149.24762"
       fx="49.268208"
       fy="149.24762"
       r="6.742619"
       gradientTransform="matrix(-1.3413353,-0.57986588,2.0391116,-4.7168361,-218.38226,803.2833)"
       gradientUnits="userSpaceOnUse" />
    <radialGradient
       inkscape:collect="always"
       xlink:href="#linearGradient1974-8"
       id="radialGradient3328-5"
       cx="170.35481"
       cy="66.048706"
       fx="170.35481"
       fy="66.048706"
       r="12.034579"
       gradientTransform="matrix(-0.81569128,0.23445471,-0.38241615,-1.330464,242.17426,75.66292)"
       gradientUnits="userSpaceOnUse" />
    <radialGradient
       inkscape:collect="always"
       xlink:href="#linearGradient1974-8"
       id="radialGradient1996-4"
       cx="55.241447"
       cy="82.345695"
       fx="55.241447"
       fy="82.345695"
       r="17.586334"
       gradientTransform="matrix(0.25704001,0.23241328,-0.70952116,0.78470269,426.82261,36.002995)"
       gradientUnits="userSpaceOnUse" />
  </defs>
  <metadata
     id="metadata15">
    <rdf:RDF>
      <cc:Work
         rdf:about="">
        <dc:format>image/svg+xml</dc:format>
        <dc:type
           rdf:resource="http://purl.org/dc/dcmitype/StillImage" />
        <dc:title />
      </cc:Work>
    </rdf:RDF>
  </metadata>
  <path
     style="fill:#8e8f8f;fill-opacity:1;stroke:#00001b;stroke-width:0.55563727;stroke-miterlimit:4;stroke-dasharray:none;stroke-opacity:1"
     d="M 5.4238672,1.6597892 15.246714,2.5485798 26.127655,1.6597892 36.655927,0.77099952 46.831442,1.6597892 H 57.183351 L 67.358896,2.5485798 77.887139,1.6597892 h 10.351898 l 4.232454,4.2661902 V 20.948231 35.970496 l -0.88177,16.622058 0.88177,13.422446 0.881759,17.15534 -0.881759,12.889173 -0.529062,16.266547 0.705416,11.82263 -4.408808,6.22152 H 77.887139 l -10.528243,-0.88879 -10.175545,0.88879 H 46.831442 L 36.3032,131.259 26.127655,130.37021 H 15.775776 L 7.3637301,129.83694 1.1914137,126.10403 0.83871589,112.68158 2.9549427,96.592785 1.1914137,81.037242 V 66.015 50.992738 L 2.2495271,36.14826 1.1914137,20.948231 V 5.9259794 Z"
     id="path1094"
     inkscape:connector-curvature="0"
     sodipodi:nodetypes="ccccccccccccccccccccccccccccccccccccc" />
  <path
     style="fill:url(#radialGradient3429-2);fill-opacity:1;stroke:#b1b2b2;stroke-width:0.07842885;stroke-linecap:butt;stroke-linejoin:miter;stroke-miterlimit:4;stroke-dasharray:none;stroke-opacity:1"
     d="m 32.204999,84.211652 c 0,0 1.568575,3.973727 1.777719,4.601161 0.209145,0.627434 2.300581,9.097761 2.300581,9.097761 l -0.281566,2.636896 -0.258796,1.22007 -0.221835,-1.25704 0.517602,-1.663725 -0.369718,-2.292251 -1.478863,-5.804568 -1.626756,-1.885552 -0.850349,-3.697171 c 0,0 -1.626756,-3.882035 -1.848591,-4.140841 -0.221825,-0.258796 2.340572,3.18526 2.340572,3.18526 z"
     id="path3421"
     inkscape:connector-curvature="0" />
  <path
     style="fill:#6a6f7c;fill-opacity:1;stroke:none;stroke-width:0.26458916px;stroke-linecap:butt;stroke-linejoin:miter;stroke-opacity:1"
     d="m 20.733846,9.5780061 0.396888,4.8287529 0.132293,8.268413 0.132293,13.890931 -0.661474,16.470677 c 0,0 0.264595,6.019404 0.198444,6.416287 -0.0661,0.396884 0.661475,13.361754 0.661475,13.361754 l -0.793768,6.81317 c 0,0 0.529182,4.696463 0.396879,5.424079 -0.132293,0.727616 -0.264586,6.283989 -0.264586,6.283989 l -0.926061,1.587535 0.198445,-5.159484 -0.0661,-7.937676 c 0,0 -0.132293,-3.373513 -0.132293,-3.638102 0,-0.264589 0,-4.564163 0,-4.564163 l 0.0661,-5.62252 -0.859919,-8.400707 0.396879,-7.673085 0.330737,-12.23725 c 0,0 0.0661,-8.003822 0.0661,-8.268411 0,-0.26459 -0.396888,-5.556373 -0.396888,-5.556373 0,0 0.46304,-5.556374 0.46304,-5.953258 0,-0.396883 -0.529182,-5.490225 -0.529182,-5.490225 z"
     id="path1381"
     inkscape:connector-curvature="0" />
  <path
     style="fill:#6a6f7c;fill-opacity:1;stroke:none;stroke-width:0.26458916px;stroke-linecap:butt;stroke-linejoin:miter;stroke-opacity:1"
     d="m 20.967801,93.087708 -0.0468,3.601539 -0.233875,4.116043 0.140343,6.40793 c 0,0 0.280626,3.46121 0.233845,3.78862 -0.0468,0.32742 -0.187094,4.86442 -0.187094,5.19183 0,0.32742 0.280656,2.99348 0.187094,3.18058 -0.0935,0.18709 -0.327407,2.24511 -0.327407,2.24511 l -0.654825,-0.28064 c 0,0 -0.187094,-3.55477 -0.187094,-3.88217 0,-0.32742 0.374178,-3.36768 0.374178,-3.60154 0,-0.23387 -0.233865,-3.92895 -0.233865,-3.92895 0,0 0.140333,-2.85316 0.140333,-3.18058 0,-0.32741 -0.374178,-5.0515 -0.280646,-5.28537 0.0936,-0.23386 0.327427,-4.864415 0.327427,-5.09828 0,-0.233865 0,-2.806392 0,-2.806392 z"
     id="path1447"
     inkscape:connector-curvature="0" />
  <path
     style="fill:#6a6f7c;fill-opacity:1;stroke:none;stroke-width:0.26458916px;stroke-linecap:butt;stroke-linejoin:miter;stroke-opacity:1"
     d="m 26.34671,24.798836 1.590285,1.964474 2.338651,3.08703 1.169356,1.870929 0.42096,5.098279 c 0,0 0,2.806391 -0.0468,3.040259 -0.0468,0.233866 0.0468,3.320896 0,3.788629 -0.0468,0.467732 -0.140334,4.583774 -0.140334,4.583774 l 0.374209,4.256359 -0.42096,6.688568 c 0,0 0.0468,5.285373 -0.0468,5.706331 -0.0936,0.42096 -0.0468,5.566012 -0.0468,5.566012 l -0.46774,1.216102 -0.187094,-4.583774 c 0,0 0.0468,-5.519238 0,-5.846648 -0.0467,-0.327413 -0.0935,-5.566012 -0.0467,-5.986971 0.0467,-0.420959 0.561272,-4.022496 0.561272,-4.022496 L 30.603064,40.79527 31.117565,35.603445 30.696606,32.75028 c 0,0 -2.525746,-3.882177 -2.71284,-3.882177 -0.187084,0 -2.104807,-2.151565 -2.104807,-2.151565 v -2.385436 z"
     id="path1449"
     inkscape:connector-curvature="0" />
  <path
     style="fill:#6a6f7c;fill-opacity:1;stroke:none;stroke-width:0.26458916px;stroke-linecap:butt;stroke-linejoin:miter;stroke-opacity:1"
     d="m 31.819181,72.413955 -0.0468,4.396681 0.140313,4.443452 c 0,0 0.0936,3.367673 -0.0467,3.788632 -0.140334,0.420959 0,3.788624 0,3.788624 0,0 -0.327428,4.162822 -0.374209,4.443458 -0.0467,0.280636 0.327428,2.946715 0.327428,2.946715 l 0.46772,0.561272 -1.216107,0.701606 -0.187094,-3.835405 c 0,0 -0.233845,-4.209593 -0.233845,-4.396687 0,-0.187094 0.561272,-3.928947 0.514501,-4.116041 -0.0468,-0.187094 -0.140313,-3.882174 -0.140313,-4.069265 0,-0.187094 -0.0468,-5.893425 -0.0468,-6.080516 0,-0.187093 0.0468,-2.291887 0.0468,-2.291887 z"
     id="path1451"
     inkscape:connector-curvature="0" />
  <path
     style="fill:#6a6f7c;fill-opacity:1;stroke:none;stroke-width:0.26458916px;stroke-linecap:butt;stroke-linejoin:miter;stroke-opacity:1"
     d="m 31.865962,102.67622 0.187094,3.22734 c 0,0 -0.280656,4.20959 -0.327428,4.44346 -0.0468,0.23386 -0.327407,3.50799 -0.280626,3.69508 0.0467,0.18709 0.514492,2.99349 0.467711,3.41445 -0.0467,0.42096 -0.187085,3.64831 -0.187085,3.64831 l -0.982241,0.46773 v -2.33866 c 0,0 0.420969,-5.42569 0.374188,-5.61279 -0.0468,-0.18709 -0.374188,-4.02249 -0.420959,-4.537 -0.0468,-0.5145 0.420959,-5.23859 0.327427,-5.42569 -0.0936,-0.18709 0.841919,-0.98223 0.841919,-0.98223 z"
     id="path1453"
     inkscape:connector-curvature="0" />
  <path
     style="fill:#6a6f7c;fill-opacity:1;stroke:none;stroke-width:0.26458916px;stroke-linecap:butt;stroke-linejoin:miter;stroke-opacity:1"
     d="m 36.730359,38.503382 1.309659,1.637065 0.795148,0.608049 1.122544,1.917702 0.982232,1.169331 0.561303,5.799877 -0.187125,6.033742 0.187125,4.864414 -0.374209,3.36767 0.140333,4.116042 0.280627,5.051504 -0.233876,3.040259 -0.327397,3.367671 -0.701585,-0.935466 0.327407,-3.601535 0.0935,-2.899939 -0.140313,-3.882175 -0.233875,-3.741857 0.233875,-3.040257 c 0,0 -0.0468,-5.753105 -0.0468,-5.940196 0,-0.187094 -0.0935,-4.20959 -0.0935,-4.20959 l 0.187094,-3.741855 -0.374188,-2.198342 -0.467741,-1.683834 -1.169326,-1.122557 -1.309659,-1.730609 -0.608033,-0.280639 z"
     id="path1455"
     inkscape:connector-curvature="0" />
  <path
     style="fill:#6a6f7c;fill-opacity:1;stroke:none;stroke-width:0.26458916px;stroke-linecap:butt;stroke-linejoin:miter;stroke-opacity:1"
     d="m 41.30566,82.009294 0.132293,4.431867 c 0,0 0.264586,4.630312 0.132293,4.961049 -0.132293,0.330738 -0.132293,4.167283 -0.198444,4.431868 -0.0661,0.264586 -0.264586,6.680882 -0.264586,6.680882 l -0.46303,6.28398 c 0,0 0.992212,2.38131 0.92606,2.7782 -0.0661,0.39688 0.264586,4.63031 0.264586,4.63031 l -0.529172,4.03498 -0.132293,2.11671 -1.058363,-0.52918 c 0,0 0.198444,-3.3735 0.198444,-3.70424 0,-0.33074 0.264586,-4.7626 0.264586,-4.7626 l -0.595323,-4.29958 c 0,0 -0.529182,-4.29957 -0.46303,-4.56417 0.0661,-0.26459 0.793767,-4.03498 0.793767,-4.36572 0,-0.330734 0,-4.894895 0.0661,-5.291784 0.0661,-0.396878 0,-4.828746 0,-4.828746 l -0.198445,-5.357939 0.330738,-2.513592 z"
     id="path1457"
     inkscape:connector-curvature="0" />
  <path
     style="fill:url(#radialGradient2968-8);fill-opacity:1;stroke:#b1b2b2;stroke-width:0.07842885;stroke-linecap:butt;stroke-linejoin:miter;stroke-miterlimit:4;stroke-dasharray:none;stroke-dashoffset:0;stroke-opacity:1"
     d="m 57.449647,93.974317 -2.656159,1.564915 -1.3853,1.665797 -1.907673,0.808008 -0.808707,0.540261 -2.430434,1.174136 c 0,0 -2.593487,1.086956 -2.743131,1.115936 -0.149673,0.029 -3.909316,2.02686 -3.909316,2.02686 l 3.042627,-1.7859 3.15877,-1.799275 2.631688,-1.879842 c 0,0 1.874002,-0.180354 2.041535,-0.258466 0.167544,-0.0781 1.945903,-1.600855 2.017425,-1.797389 0.0715,-0.196535 4.414207,-2.343882 4.414207,-2.343882 l 3.1341,-1.502253 z"
     id="path2960"
     inkscape:connector-curvature="0"
     inkscape:transform-center-x="-0.74900053"
     inkscape:transform-center-y="-0.18672206" />
  <path
     style="fill:#6a6f7c;fill-opacity:1;stroke:none;stroke-width:0.26458916px;stroke-linecap:butt;stroke-linejoin:miter;stroke-opacity:1"
     d="m 46.2721,50.383775 1.917692,1.824155 c 0,0 1.824161,1.824158 1.824161,2.058022 0,0.233865 2.385422,3.835402 2.385422,3.835402 l 1.122575,1.496743 -0.982232,0.748371 -2.245119,-1.637061 c 0,0 -0.608054,-2.572526 -0.701616,-2.75962 -0.0935,-0.187093 -2.759611,-2.151568 -2.759611,-2.151568 l -0.748356,-1.122556 z"
     id="path1459"
     inkscape:connector-curvature="0" />
  <path
     style="fill:#6a6f7c;fill-opacity:1;stroke:none;stroke-width:0.26458916px;stroke-linecap:butt;stroke-linejoin:miter;stroke-opacity:1"
     d="m 31.35144,9.9249578 c 0,0 0.187094,2.0580212 0.327407,2.2451132 0.140334,0.187094 0.187115,2.993486 0.233866,3.180579 0.0468,0.187092 -0.233866,3.788628 -0.233866,4.069268 0,0.280639 -0.187094,3.835402 -0.187094,3.835402 l -1.028982,-1.216103 0.233845,-4.162815 c 0,0 0.233865,-4.162814 0.140333,-4.490228 -0.0936,-0.327412 -0.280646,-3.22735 -0.280646,-3.22735 z"
     id="path1461"
     inkscape:connector-curvature="0" />
  <path
     style="fill:#6a6f7c;fill-opacity:1;stroke:none;stroke-width:0.26458916px;stroke-linecap:butt;stroke-linejoin:miter;stroke-opacity:1"
     d="m 40.939942,9.7846387 c -0.0468,0.2338653 0.187094,3.4612163 0.187094,3.4612163 l 0.374209,3.741856 c 0,0 -0.187125,3.78863 -0.233876,4.022496 -0.0468,0.233865 0.0935,4.162813 0.140313,4.537 0.0468,0.374185 0.0468,3.835403 0,4.069268 -0.0468,0.233865 -0.0468,3.695084 -0.0468,3.695084 l -0.374178,1.964473 -1.216107,-1.590289 c 0,0 0.280646,-3.320895 0.280646,-3.554764 0,-0.233865 0.280627,-4.069268 0.280627,-4.069268 0,0 0,-4.957958 0,-5.238597 0,-0.28064 0.0936,-4.490228 0.0936,-4.677321 0,-0.187092 -0.280656,-3.788628 -0.327407,-4.069268 -0.0468,-0.280639 0.187094,-1.543516 0.187094,-1.543516 z"
     id="path1463"
     inkscape:connector-curvature="0" />
  <path
     style="fill:#6a6f7c;fill-opacity:1;stroke:none;stroke-width:0.26458916px;stroke-linecap:butt;stroke-linejoin:miter;stroke-opacity:1"
     d="m 70.26674,22.647268 -0.233865,4.116042 c 0,0 0,3.507989 0,3.695083 0,0.187094 0.327427,3.882176 0.327427,4.209587 0,0.327413 -0.0936,3.92895 -0.187094,4.20959 -0.0935,0.280639 0.140313,3.882174 0.140313,4.162814 0,0.280639 0,3.648308 -0.0468,4.116041 -0.0468,0.467733 0.187094,3.414444 0.140313,3.741857 -0.0468,0.327411 -0.140313,6.267607 -0.140313,6.267607 l -0.0935,5.753106 c 0,0 0,4.677319 -0.0468,5.004731 -0.0468,0.327413 0.280626,4.162816 0.233875,4.396681 -0.0468,0.233867 -0.187094,3.414443 -0.187094,3.601537 0,0.187093 0.140313,2.759617 0.140313,2.759617 l -1.029012,0.42096 0.0936,-3.64831 0.0935,-4.630546 -0.0935,-6.033742 c 0,0 0.233835,-4.67732 0.233835,-5.004733 0,-0.327414 -0.374179,-4.630547 -0.280616,-5.145053 0.0935,-0.514504 -0.0936,-4.724091 0,-5.145051 0.0935,-0.420958 0,-3.835402 0,-3.835402 l -0.0936,-9.49496 c 0,0 -0.0467,-4.677321 0,-4.95796 0.0468,-0.280638 0,-4.069267 0,-4.069267 l -0.0935,-1.543518 -1.917712,6.220838 -2.853143,5.425689 c 0,0 -1.730628,3.975722 -1.870941,4.209588 -0.140313,0.233868 -2.759611,3.601537 -2.759611,3.601537 0,0 1.309639,-2.899937 1.309639,-3.08703 0,-0.187094 1.82415,-4.67732 2.011244,-5.004734 0.187094,-0.32741 1.917722,-3.554763 1.917722,-3.835402 0,-0.28064 2.572517,-5.145051 2.619268,-5.519238 0.0468,-0.374185 2.666079,-4.957959 2.666079,-4.957959 z"
     id="path1465"
     inkscape:connector-curvature="0" />
  <path
     style="fill:#6a6f7c;fill-opacity:1;stroke:none;stroke-width:0.26458916px;stroke-linecap:butt;stroke-linejoin:miter;stroke-opacity:1"
     d="m 70.173208,79.850892 c -0.0935,0.187094 0.0467,3.50799 0.0467,3.50799 l -0.187084,3.414446 c 0,0 0.420959,2.432204 0.374178,2.71284 -0.0468,0.280646 0.0468,3.507998 -0.0468,3.695092 -0.0936,0.187084 -0.280646,4.349906 -0.280646,4.349906 0,0 -0.233875,2.759614 -0.327407,2.993474 -0.0936,0.23387 0.46771,3.508 0.46771,3.508 l 0.140343,3.55476 -0.140343,4.63055 v 4.77087 l -0.0935,2.9467 0.140313,1.68384 -1.35641,-0.0935 0.187084,-4.11604 0.327408,-4.86442 0.327427,-3.55476 -0.420959,-4.58377 -0.42096,-3.64832 0.467741,-2.899937 v -7.483705 l 0.0935,-5.238606 -0.187094,-4.583772 z"
     id="path1467"
     inkscape:connector-curvature="0" />
  <path
     style="fill:#9da1ad;fill-opacity:1;stroke:none;stroke-width:0.26458916px;stroke-linecap:butt;stroke-linejoin:miter;stroke-opacity:1"
     d="m 46.399003,10.305626 -0.132293,3.704249 0.396879,3.241218 -0.396879,5.159489 c 0,0 0.595323,4.299574 0.529172,4.630311 -0.0661,0.330736 -0.264586,3.439659 -0.330738,3.968838 -0.0661,0.529177 -0.264586,3.836543 -0.264586,3.836543 l -0.502581,-2.141359 0.105693,-5.730169 c 0,0 0.330737,-2.579745 0.396888,-2.910482 0.0661,-0.330736 -0.132293,-4.16728 -0.132293,-4.16728 l -0.132292,-3.439659 -0.132303,-4.299574 0.0661,-2.315155 z"
     id="path1469"
     inkscape:connector-curvature="0"
     sodipodi:nodetypes="ccccccccccccccc" />
  <path
     style="fill:#9da1ad;fill-opacity:1;stroke:none;stroke-width:0.26458916px;stroke-linecap:butt;stroke-linejoin:miter;stroke-opacity:1"
     d="m 46.26671,38.649743 c -0.0331,0.132295 0.198434,1.620608 0.198434,1.620608 l -0.0661,1.455241 0.760687,1.157577 1.3891,1.752904 2.282081,2.579745 1.35602,2.447449 -1.058364,-0.992209 c 0,0 -1.091424,-1.686756 -1.124505,-1.819051 -0.0331,-0.132294 -1.322939,-1.785977 -1.322939,-1.785977 L 47.15973,43.511569 c 0,0 -0.826839,-1.256799 -0.959132,-1.322946 -0.132293,-0.06615 -0.198444,-1.289872 -0.198444,-1.422167 0,-0.132295 0.0331,-2.149787 0.0331,-2.149787 z"
     id="path1471"
     inkscape:connector-curvature="0" />
  <path
     style="fill:url(#radialGradient1557);fill-opacity:1;stroke:#b1b2b2;stroke-width:0.06274307;stroke-linecap:butt;stroke-linejoin:miter;stroke-miterlimit:4;stroke-dasharray:none;stroke-opacity:1"
     d="m 56.296021,42.955627 c -0.151053,-0.213385 -1.754278,-6.496574 -1.83953,-6.743699 -0.0852,-0.247146 -1.425322,-6.665368 -1.425322,-6.665368 l -4.681713,-8.15265 -0.140883,-4.000038 -0.173774,3.953707 1.38227,2.532016 3.111209,5.010801 1.34696,7.079556 3.232121,10.267727 z"
     id="path3018"
     inkscape:connector-curvature="0" />
  <path
     style="fill:#9da1ad;fill-opacity:1;stroke:none;stroke-width:0.26458916px;stroke-linecap:butt;stroke-linejoin:miter;stroke-opacity:1"
     d="m 37.057786,13.947454 -0.280656,3.087031 c 0,0 0.140313,2.666072 0.0468,2.853165 -0.0935,0.187092 0.0468,3.320896 0.0468,3.320896 l 0.140313,3.04026 -0.46774,2.338658 c 0,0 0,-2.993485 -0.0468,-3.22735 -0.0467,-0.233865 0.0468,-2.899937 0.0468,-2.899937 l -0.374178,-2.525754 0.187084,-2.899938 0.140313,-2.291888 0.0936,-1.262876 z"
     id="path1473"
     inkscape:connector-curvature="0" />
  <path
     style="fill:#9da1ad;fill-opacity:1;stroke:none;stroke-width:0.26458916px;stroke-linecap:butt;stroke-linejoin:miter;stroke-opacity:1"
     d="m 37.291631,30.48178 0.841919,1.052395 c 0,0 1.005622,1.005625 1.122575,1.145944 0.116922,0.14032 0.771757,1.122557 0.771757,1.122557 l 1.075784,1.496744 -0.374209,0.140319 -0.888669,-1.426583 -0.935481,-1.496741 -1.590285,-1.333037 -0.561272,-1.029011 z"
     id="path1475"
     inkscape:connector-curvature="0" />
  <path
     style="fill:#9da1ad;fill-opacity:1;stroke:none;stroke-width:0.26458916px;stroke-linecap:butt;stroke-linejoin:miter;stroke-opacity:1"
     d="m 23.842774,13.05074 c -0.0331,0.06614 1.620606,1.984418 1.620606,1.984418 l 1.389091,1.686756 c 0,0 1.223727,1.984419 1.35602,2.017493 0.132293,0.03307 1.35602,1.951345 1.554464,2.116713 0.198444,0.165368 1.951343,2.612819 1.951343,2.612819 l -0.694545,-0.463031 c 0,0 -1.81905,-2.017494 -1.885202,-2.249009 -0.0661,-0.231515 -1.289868,-1.81905 -1.289868,-1.81905 L 25.827188,16.159663 24.206582,14.14217 22.916714,12.653856 Z"
     id="path1477"
     inkscape:connector-curvature="0" />
  <path
     style="fill:#9da1ad;fill-opacity:1;stroke:none;stroke-width:0.26458916px;stroke-linecap:butt;stroke-linejoin:miter;stroke-opacity:1"
     d="m 26.157925,30.083668 -0.0331,6.184772 c 0,0 -0.132293,2.579745 -0.198445,2.712039 -0.0661,0.132295 0.231515,3.472734 0.231515,3.472734 l -0.132292,6.08555 c 0,0 0.0331,3.108923 0,3.274292 -0.0331,0.165367 0.297666,3.042775 0.231515,3.274291 -0.0661,0.231515 -0.330738,3.108923 -0.363808,3.27429 -0.0331,0.165369 0.165363,1.752904 0.165363,1.752904 l -0.46303,-0.264589 -0.0661,-2.778186 c 0,0 0.297656,-1.951345 0.297656,-2.08364 0,-0.132295 -0.165364,-2.712039 -0.165364,-2.712039 0,0 -0.0331,-2.215935 -0.0331,-2.381303 0,-0.165369 0.0661,-3.472733 0.0661,-3.472733 l -0.0992,-2.910481 0.0992,-2.877408 0.0992,-3.869616 c 0,0 -0.165363,-2.745113 -0.165363,-2.910481 0,-0.165368 0.264586,-2.778187 0.264586,-2.778187 l -0.0992,-2.513596 z"
     id="path1479"
     inkscape:connector-curvature="0" />
  <path
     style="fill:#9da1ad;fill-opacity:1;stroke:none;stroke-width:0.26458916px;stroke-linecap:butt;stroke-linejoin:miter;stroke-opacity:1"
     d="m 26.019312,67.081808 c 0,0 0.280617,2.478981 0.187085,2.666075 -0.0935,0.187091 -0.233866,3.461215 -0.280647,3.648308 -0.0468,0.187092 0.140313,3.274125 0.0936,3.601535 -0.0468,0.327413 -0.140343,4.724094 -0.140343,5.145054 0,0.420958 0.187094,4.303131 0.187094,4.303131 l -0.327407,1.82416 0.0936,-2.759621 c 0,0 -0.420959,-3.087031 -0.420959,-3.274125 0,-0.187091 0.233865,-4.209587 0.233865,-4.209587 l -0.0468,-3.414445 0.0468,-4.396681 v -2.151567 l -0.0468,-1.449967 z"
     id="path1481"
     inkscape:connector-curvature="0" />
  <path
     style="fill:url(#radialGradient3016-9);fill-opacity:1;stroke:#b1b2b2;stroke-width:0.06274307;stroke-linecap:butt;stroke-linejoin:miter;stroke-miterlimit:4;stroke-dasharray:none;stroke-opacity:1"
     d="m 16.535663,71.856849 3.051007,-6.991251 c 0,0 6.125506,-5.44701 7.091227,-6.937713 0.965761,-1.490693 7.24664,-4.471288 7.794822,-4.98911 0.548192,-0.517801 1.448372,-1.148685 1.448372,-1.148685 l -1.244177,-1.69729 0.314027,1.219429 -0.151034,0.980482 -3.062547,1.636126 -5.260077,2.435213 -4.790615,6.121045 -2.937105,2.993797 -2.125227,4.022228 c 0,0 -0.42596,5.588871 -0.549433,7.042033 -0.123472,1.453162 -5.083132,10.626354 -5.083132,10.626354 l -2.6913893,6.611696 1.6549366,-3.358584 4.4846087,-9.781705 2.575527,-5.42505 -0.366358,-3.703422 z"
     id="path3000"
     inkscape:connector-curvature="0" />
  <path
     style="fill:#9da1ad;fill-opacity:1;stroke:none;stroke-width:0.26458916px;stroke-linecap:butt;stroke-linejoin:miter;stroke-opacity:1"
     d="m 25.878969,95.940871 0.187094,3.414445 -0.233845,3.695084 0.467711,3.97573 -0.467711,3.74185 0.374179,4.30313 c 0,0 -0.0468,1.96448 -0.140334,2.15157 -0.0935,0.1871 -0.327407,2.75962 -0.327407,2.75962 l -0.327397,-1.44997 c 0,0 0.374178,-3.50799 0.327397,-3.69508 -0.0468,-0.1871 -0.280646,-4.20959 -0.280646,-4.20959 l 0.280646,-3.08703 -0.233865,-2.57253 -0.140313,-2.9467 c 0,0 0.140313,-2.666084 0.140313,-2.899949 0,-0.233865 -0.140313,-2.853163 -0.140313,-2.853163 z"
     id="path1483"
     inkscape:connector-curvature="0" />
  <path
     style="fill:#9da1ad;fill-opacity:1;stroke:none;stroke-width:0.26458916px;stroke-linecap:butt;stroke-linejoin:miter;stroke-opacity:1"
     d="m 37.057786,38.643702 -0.187094,2.198342 -0.140333,3.320895 0.374178,3.320899 -0.233845,3.835403 c 0,0 0.420939,3.274124 0.327407,3.601535 -0.0936,0.327413 -0.187094,3.414444 -0.187094,3.414444 l 0.187094,3.414444 -0.561272,2.572526 0.0468,-3.50799 -0.187114,-4.256361 0.140343,-3.648308 c 0,0 -0.0468,-2.666075 0,-2.993485 0.0468,-0.327414 0.0935,-2.619301 0.0935,-2.619301 l -0.0935,-2.993485 -0.140343,-2.104794 0.0936,-2.385433 0.0468,-1.309651 z"
     id="path1485"
     inkscape:connector-curvature="0" />
  <path
     style="fill:#9da1ad;fill-opacity:1;stroke:none;stroke-width:0.26458916px;stroke-linecap:butt;stroke-linejoin:miter;stroke-opacity:1"
     d="m 36.917443,67.455995 0.0936,2.853166 -0.0936,3.554761 v 4.396681 2.432207 l 0.140343,3.975722 c 0,0 -0.0936,2.151567 -0.187094,2.432203 -0.0936,0.280647 -0.280646,-0.654824 -0.280646,-0.654824 0,0 -0.140313,-3.695079 -0.140313,-3.975718 0,-0.280639 0.280626,-3.928951 0.280626,-4.116042 0,-0.187094 -0.140313,-3.22735 -0.0468,-3.414444 0.0935,-0.187094 -0.140333,-4.864414 -0.0935,-5.098279 0.0468,-0.233865 -0.0936,-2.104794 -0.0936,-2.104794 z"
     id="path1489"
     inkscape:connector-curvature="0" />
  <path
     style="fill:#9da1ad;fill-opacity:1;stroke:none;stroke-width:0.26458916px;stroke-linecap:butt;stroke-linejoin:miter;stroke-opacity:1"
     d="m 36.823911,96.455382 0.233875,4.162808 c 0,0 -0.420959,3.78864 -0.420959,3.97572 0,0.1871 0.420959,2.89995 0.374178,3.08704 -0.0468,0.18708 -0.233875,2.99348 -0.233875,2.99348 0,0 -0.0935,1.35643 -0.0935,1.73061 0,0.37418 0.420939,2.47898 0.420939,2.47898 0,0 -0.0935,2.4322 -0.0935,2.66607 0,0.23386 -0.233875,2.52575 -0.233875,2.85317 0,0.32741 0.0936,1.63706 0.0936,1.63706 l -0.561302,-0.37418 c 0,0 0,-2.15157 -0.0468,-2.33866 -0.0468,-0.1871 0.187094,-3.22735 0.140313,-3.41445 -0.0468,-0.18709 0.233875,-2.85316 0.233875,-2.85316 0,0 -0.327437,-2.94672 -0.327437,-3.18058 0,-0.23387 0.233875,-2.05803 0.233875,-2.05803 l 0.0468,-3.18057 c 0,0 -0.140313,-2.01125 -0.0936,-2.19834 0.0468,-0.18709 0.0468,-2.89994 0.0468,-3.087034 0,-0.187094 -0.374178,-2.338661 -0.374178,-2.338661 z"
     id="path1501"
     inkscape:connector-curvature="0" />
  <path
     style="fill:#9da1ad;fill-opacity:1;stroke:none;stroke-width:0.26458916px;stroke-linecap:butt;stroke-linejoin:miter;stroke-opacity:1"
     d="m 46.531296,50.655477 v 4.894899 8.731443 l -0.264586,6.217846 0.529172,6.085551 -0.198445,7.871531 0.198445,8.334554 c 0,0 -0.264586,4.431868 -0.264586,4.696464 0,0.264586 -0.132293,4.630305 -0.132293,4.630305 l 0.264586,7.4085 -0.793768,-1.38909 0.396889,-7.4085 -0.264596,-5.027195 0.0661,-10.385129 0.463031,-7.937672 -0.595323,-5.15949 -0.396889,-5.887109 0.595323,-9.855946 -0.198434,-4.828753 z"
     id="path1504"
     inkscape:connector-curvature="0" />
  <path
     style="fill:#9da1ad;fill-opacity:1;stroke:none;stroke-width:0.26458916px;stroke-linecap:butt;stroke-linejoin:miter;stroke-opacity:1"
     d="m 46.068265,116.20745 0.529172,5.75481 H 45.80367 l -0.0661,-3.37351 z"
     id="path1506"
     inkscape:connector-curvature="0" />
  <path
     style="fill:#9da1ad;fill-opacity:1;stroke:none;stroke-width:0.26458916px;stroke-linecap:butt;stroke-linejoin:miter;stroke-opacity:1"
     d="m 66.61843,17.174804 c -0.187095,0.467732 -1.77738,5.98697 -1.77738,5.98697 l -3.741842,8.138536 -3.461227,6.922433 3.461227,-9.074 2.899924,-7.577258 z"
     id="path1508"
     inkscape:connector-curvature="0" />
  <path
     style="fill:#9da1ad;fill-opacity:1;stroke:none;stroke-width:0.26458916px;stroke-linecap:butt;stroke-linejoin:miter;stroke-opacity:1"
     d="m 75.131158,12.591031 -0.0935,5.332145 0.561292,5.612784 0.0935,6.267609 -0.187084,7.390166 c 0,0 -0.187094,6.174062 -0.187094,6.641794 0,0.467731 0.374178,5.799877 0.374178,6.267608 0,0.467732 -0.561272,6.641794 -0.561272,7.015981 0,0.374184 -0.280646,-4.864414 -0.280646,-5.612786 0,-0.748369 0.0936,-8.51272 0.0936,-8.51272 l 0.0935,-6.361155 c 0,0 0,-5.98697 0.0935,-6.361156 0.0935,-0.374187 0.0935,-6.080518 0,-6.641796 -0.0935,-0.561279 -0.374179,-5.893423 -0.374179,-6.267608 0,-0.374186 -0.0936,-3.461216 -0.0936,-3.461216 z"
     id="path1510"
     inkscape:connector-curvature="0" />
  <path
     style="fill:url(#radialGradient3328-5);fill-opacity:1;stroke:#b1b2b2;stroke-width:0.10980038;stroke-linecap:butt;stroke-linejoin:miter;stroke-miterlimit:4;stroke-dasharray:none;stroke-opacity:1"
     d="m 82.412899,44.522961 -0.759887,-3.093627 c 0,0 -1.413731,-3.62583 -1.310919,-3.926807 0.102842,-0.300946 0.0378,-4.710504 0.0378,-4.710504 l -2.939165,-7.217169 -4.150502,-6.622727 -0.698865,-1.568724 0.203444,1.883981 0.944351,1.369601 3.044277,4.701073 1.992544,4.4895 1.443882,3.049607 -0.295366,2.237079 0.0342,3.415866 1.571945,3.408075 z"
     id="path3320"
     inkscape:connector-curvature="0" />
  <path
     style="fill:#9da1ad;fill-opacity:1;stroke:none;stroke-width:0.26458916px;stroke-linecap:butt;stroke-linejoin:miter;stroke-opacity:1"
     d="m 75.131158,62.918995 -0.0935,6.267609 c 0,0 0.374208,5.612784 0.374208,5.986968 0,0.374187 -0.187124,9.915919 -0.187124,9.915919 l 0.561302,8.886906 -0.561302,7.670813 -0.187084,-6.922436 -0.561273,-8.980459 0.280646,-7.390164 v -6.641795 l -0.46774,-6.735342 z"
     id="path1512"
     inkscape:connector-curvature="0" />
  <g
     id="g1466"
     transform="matrix(-0.85098799,-0.52522723,0.52522723,-0.85098799,333.8283,354.92277)">
    <path
       inkscape:connector-curvature="0"
       id="path1214"
       d="m 388.03058,102.84808 c -0.44365,1.03518 -1.92248,1.7746 -1.92248,1.7746 l -2.36614,4.73228 -2.51402,5.91534 -3.99286,4.28862 -4.28862,6.80265 3.5492,-4.88016 2.51403,-3.25344 3.5492,-3.10555 1.7746,-4.43651 2.07037,-5.17592 7.39418,-4.73228 z"
       style="fill:url(#radialGradient1996-4);fill-opacity:1;stroke:none;stroke-width:0.15685423px;stroke-linecap:butt;stroke-linejoin:miter;stroke-opacity:1" />
    <path
       inkscape:connector-curvature="0"
       id="path1216"
       d="m 373.90223,124.99482 4.39192,-5.80361 4.28734,-4.02592 3.86908,-9.77725 7.21529,-4.54877"
       style="fill:none;stroke:#b1b2b2;stroke-width:0.10979795;stroke-linecap:butt;stroke-linejoin:miter;stroke-miterlimit:4;stroke-dasharray:none;stroke-opacity:1" />
    <path
       inkscape:connector-curvature="0"
       id="path1218"
       d="m 393.48286,100.91769 -5.54218,1.93454 -0.4967,0.83655 -0.75813,0.65356 -0.60128,0.28757 -2.32667,4.75791 -1.98682,4.4442 -0.60127,1.43784 -2.71881,2.98023 -1.28098,1.28097 -4.10435,6.53559"
       style="fill:none;stroke:#b1b2b2;stroke-width:0.10979795;stroke-linecap:butt;stroke-linejoin:miter;stroke-miterlimit:4;stroke-dasharray:none;stroke-opacity:1" />
  </g>
  <path
     style="fill:#9da1ad;fill-opacity:1;stroke:none;stroke-width:0.26458916px;stroke-linecap:butt;stroke-linejoin:miter;stroke-opacity:1"
     d="m 75.037606,109.69219 0.374208,7.8579 -0.0936,4.11605 c 0,0 -0.841919,-1.02901 -0.748367,-1.4032 0.0935,-0.37419 0.467721,-10.57075 0.467721,-10.57075 z"
     id="path1514"
     inkscape:connector-curvature="0" />
</svg>
